<svg width="500" height="500" viewBox="0 0 500 500" fill="none" xmlns="http://www.w3.org/2000/svg">
<g clip-path="url(#clip0_43_258)">
<path d="M357.888 58.4319C230.306 -21.8881 159.02 149.381 77.7885 149.862C-5.66254 150.362 -27.1375 240.062 48.5885 335.593C122.306 428.593 218.554 464.193 278.276 462.657C377.011 460.123 462.691 346.407 416.213 277.537C374.261 215.38 442.156 111.48 357.888 58.4319Z" fill="#F3F5F7"/>
<path d="M356.194 350.639C356.248 350.661 356.305 350.678 356.363 350.69C356.518 350.726 356.679 350.732 356.837 350.705C356.994 350.679 357.145 350.622 357.28 350.537C357.416 350.452 357.533 350.342 357.625 350.211C357.717 350.081 357.783 349.934 357.818 349.778C375.644 271.889 442.348 231.183 443.018 230.778C443.155 230.696 443.274 230.588 443.369 230.46C443.464 230.332 443.533 230.186 443.571 230.032C443.61 229.877 443.618 229.716 443.595 229.559C443.571 229.401 443.517 229.249 443.435 229.113C443.353 228.976 443.245 228.857 443.117 228.762C442.989 228.667 442.844 228.598 442.689 228.559C442.534 228.52 442.374 228.512 442.216 228.536C442.058 228.559 441.907 228.613 441.77 228.695C441.089 229.095 373.502 270.343 355.448 349.232C355.381 349.517 355.42 349.817 355.557 350.075C355.694 350.334 355.92 350.534 356.194 350.639Z" fill="#BACEFE"/>
<path d="M385.011 288.886C385.011 288.886 401.348 285.33 414.301 291.007C423.233 294.967 430.751 301.546 435.862 309.873C435.862 309.873 416.986 313.024 405.044 307.8C393.102 302.576 385.011 288.886 385.011 288.886Z" fill="#BACEFE"/>
<path d="M406.072 261.027C406.072 261.027 419.409 258.156 429.941 262.527C437.133 265.504 443.235 270.62 447.42 277.183C447.42 277.183 432.02 279.747 422.308 275.724C412.596 271.701 406.072 261.027 406.072 261.027Z" fill="#BACEFE"/>
<path d="M398.306 217.848C398.306 217.848 407.46 226.948 409.266 237.529C410.498 244.785 409.438 252.245 406.234 258.872C406.234 258.872 396.272 247.979 394.599 238.228C392.926 228.477 398.306 217.848 398.306 217.848Z" fill="#BACEFE"/>
<path d="M423.634 244.599C423.634 244.599 432.621 239.383 441.249 240.21C447.173 240.788 452.772 243.189 457.275 247.082C457.275 247.082 446.723 252.546 438.775 251.79C430.827 251.034 423.634 244.599 423.634 244.599Z" fill="#BACEFE"/>
<path d="M421.401 208.715C421.401 208.715 427.552 217.086 427.659 225.755C427.723 231.707 425.939 237.532 422.553 242.427C422.553 242.427 415.984 232.527 415.878 224.538C415.772 216.549 421.401 208.715 421.401 208.715Z" fill="#BACEFE"/>
<path d="M439.896 231.494C439.896 231.494 443.054 224.518 449.096 220.983C453.344 218.543 458.163 217.277 463.061 217.315C463.061 217.315 459.015 225.152 453.452 228.415C447.889 231.678 439.896 231.494 439.896 231.494Z" fill="#BACEFE"/>
<path d="M268.983 431.392C215.048 431.392 135.311 398.087 75.429 322.538C39.192 276.822 26.393 228.176 42.029 195.586C52.217 174.35 73.209 162.565 101.139 162.399C126.768 162.249 151.593 141.58 177.878 119.699C222.011 82.9539 272.037 41.3099 340.706 84.5369C383.013 111.169 380.906 152.702 378.869 192.869C377.382 222.185 375.978 249.876 390.769 271.801C405.897 294.215 405.722 324.249 390.291 354.201C367.503 398.43 318.963 430.156 272.249 431.355C271.178 431.378 270.081 431.392 268.983 431.392ZM283.099 68.2359C242.861 68.2359 209.609 95.9249 179.177 121.259C152.606 143.38 127.511 164.275 101.151 164.431C74.039 164.591 53.692 175.968 43.86 196.468C28.56 228.349 41.271 276.174 77.02 321.277C136.474 396.283 215.536 429.357 268.969 429.361C270.06 429.361 271.131 429.347 272.202 429.32C318.202 428.139 366.026 396.866 388.487 353.267C403.57 323.995 403.787 294.713 389.087 272.933C373.911 250.446 375.398 221.121 376.837 192.762C378.845 153.18 380.919 112.251 339.62 86.2529C319.255 73.4299 300.519 68.2359 283.099 68.2359Z" fill="#74D3AF"/>
<path d="M173.2 90.6507C177.783 90.6507 181.498 86.9355 181.498 82.3527C181.498 77.7698 177.783 74.0547 173.2 74.0547C168.617 74.0547 164.902 77.7698 164.902 82.3527C164.902 86.9355 168.617 90.6507 173.2 90.6507Z" fill="#BACEFE"/>
<path d="M239.587 102.136C239.587 103.21 239.268 104.26 238.672 105.153C238.075 106.046 237.227 106.742 236.235 107.154C235.243 107.565 234.151 107.672 233.097 107.463C232.044 107.253 231.076 106.736 230.317 105.977C229.558 105.217 229.04 104.25 228.831 103.196C228.621 102.143 228.729 101.051 229.14 100.059C229.551 99.0664 230.247 98.2183 231.14 97.6217C232.034 97.0252 233.084 96.7068 234.158 96.707C235.597 96.7073 236.978 97.2794 237.996 98.2975C239.014 99.3155 239.586 100.696 239.587 102.136Z" fill="#B7C3CF"/>
<path d="M373.131 401.73C373.13 400.495 373.496 399.288 374.182 398.261C374.867 397.235 375.842 396.434 376.983 395.962C378.123 395.489 379.378 395.365 380.589 395.606C381.8 395.846 382.913 396.44 383.786 397.313C384.659 398.186 385.254 399.298 385.495 400.509C385.736 401.72 385.612 402.975 385.14 404.116C384.668 405.257 383.867 406.232 382.841 406.918C381.814 407.604 380.608 407.97 379.373 407.97C378.553 407.97 377.742 407.809 376.984 407.495C376.227 407.182 375.539 406.722 374.96 406.143C374.38 405.563 373.92 404.875 373.606 404.118C373.293 403.361 373.131 402.549 373.131 401.73Z" fill="#BACEFE"/>
<path d="M363.055 90.6511C363.055 91.2381 362.881 91.812 362.556 92.3002C362.23 92.7884 361.766 93.1689 361.224 93.3938C360.682 93.6186 360.085 93.6776 359.509 93.5632C358.933 93.4489 358.404 93.1664 357.989 92.7515C357.574 92.3365 357.291 91.8078 357.176 91.2321C357.062 90.6564 357.12 90.0596 357.345 89.5172C357.569 88.9748 357.949 88.5111 358.437 88.1848C358.925 87.8586 359.499 87.6843 360.086 87.6841C360.476 87.684 360.862 87.7606 361.222 87.9096C361.582 88.0587 361.909 88.2772 362.185 88.5527C362.461 88.8282 362.68 89.1553 362.829 89.5154C362.978 89.8754 363.055 90.2613 363.055 90.6511Z" fill="#BACEFE"/>
<path d="M43.6383 320.584C41.3595 320.585 39.1317 319.909 37.2367 318.644C35.3417 317.378 33.8646 315.579 32.9921 313.474C32.1197 311.369 31.8911 309.052 32.3353 306.817C32.7795 304.582 33.8765 302.529 35.4876 300.917C37.0987 299.306 39.1516 298.208 41.3865 297.764C43.6215 297.319 45.9381 297.547 48.0435 298.419C50.1488 299.291 51.9483 300.767 53.2144 302.662C54.4805 304.557 55.1563 306.784 55.1563 309.063C55.1528 312.117 53.9383 315.045 51.7791 317.205C49.6199 319.364 46.6922 320.58 43.6383 320.584ZM43.6383 299.574C41.7616 299.574 39.9272 300.131 38.367 301.174C36.8068 302.217 35.5909 303.699 34.873 305.433C34.1551 307.167 33.9675 309.075 34.3338 310.915C34.7002 312.756 35.6041 314.447 36.9312 315.773C38.2584 317.1 39.9492 318.004 41.7898 318.37C43.6304 318.736 45.5382 318.548 47.272 317.829C49.0058 317.111 50.4876 315.895 51.5302 314.335C52.5728 312.774 53.1293 310.94 53.1293 309.063C53.1264 306.547 52.1254 304.135 50.3461 302.356C48.5667 300.577 46.1544 299.576 43.6383 299.574Z" fill="#BACEFE"/>
<path d="M487.243 214.433C484.964 214.432 482.737 213.756 480.842 212.49C478.948 211.224 477.472 209.424 476.6 207.319C475.728 205.214 475.5 202.897 475.945 200.663C476.39 198.428 477.487 196.375 479.099 194.764C480.71 193.153 482.763 192.056 484.998 191.612C487.233 191.167 489.549 191.396 491.654 192.268C493.759 193.14 495.558 194.617 496.824 196.511C498.09 198.406 498.766 200.633 498.766 202.912C498.762 205.966 497.547 208.895 495.387 211.055C493.226 213.215 490.298 214.43 487.243 214.433ZM487.243 193.423C485.366 193.423 483.532 193.98 481.971 195.023C480.411 196.066 479.195 197.548 478.477 199.282C477.759 201.016 477.572 202.924 477.938 204.764C478.305 206.605 479.208 208.295 480.536 209.622C481.863 210.949 483.554 211.852 485.394 212.218C487.235 212.584 489.143 212.396 490.876 211.678C492.61 210.96 494.092 209.744 495.135 208.183C496.177 206.623 496.734 204.788 496.734 202.912C496.731 200.396 495.73 197.983 493.95 196.204C492.171 194.425 489.759 193.425 487.243 193.423Z" fill="#BACEFE"/>
<path d="M211.653 76.0428C210.049 76.043 208.48 75.5674 207.146 74.6761C205.812 73.7849 204.772 72.5179 204.158 71.0356C203.544 69.5533 203.383 67.9222 203.696 66.3485C204.009 64.7749 204.781 63.3293 205.916 62.1948C207.051 61.0603 208.496 60.2876 210.07 59.9747C211.643 59.6617 213.275 59.8224 214.757 60.4365C216.239 61.0506 217.506 62.0905 218.397 63.4247C219.289 64.7588 219.764 66.3274 219.764 67.9319C219.761 70.0821 218.906 72.1435 217.385 73.664C215.865 75.1845 213.803 76.0399 211.653 76.0428ZM211.653 61.8498C210.451 61.8496 209.275 62.206 208.275 62.874C207.275 63.5419 206.496 64.4913 206.035 65.6022C205.575 66.7131 205.454 67.9356 205.689 69.115C205.923 70.2945 206.502 71.3779 207.352 72.2283C208.202 73.0788 209.286 73.658 210.465 73.8928C211.644 74.1276 212.867 74.0074 213.978 73.5474C215.089 73.0874 216.039 72.3083 216.707 71.3085C217.375 70.3088 217.732 69.1334 217.732 67.9308C217.73 66.3189 217.09 64.7734 215.95 63.6334C214.81 62.4934 213.265 61.852 211.653 61.8498Z" fill="#BACEFE"/>
<path d="M334.21 125.031C332.647 131.831 321.224 130.131 314.736 132.679C313.289 133.246 311.743 133.898 310.944 135.225C309.92 136.911 310.45 139.09 311.204 140.916C313.112 145.53 315.644 153.76 316.725 157.381C317.025 158.373 317.725 159.907 316.735 160.224L313.746 160.307C313.397 160.421 313.022 160.432 312.667 160.337C312.312 160.243 311.992 160.047 311.746 159.775C309.428 157.213 302.881 149.817 300.26 144.999C297.489 140.167 295.043 135.156 292.937 129.999C292.516 129.154 292.386 128.193 292.569 127.266C292.985 126.32 293.74 125.564 294.686 125.147C305.386 119.059 319.297 120.029 329.286 112.836C331.284 114.093 332.835 115.948 333.719 118.138C334.603 120.327 334.775 122.739 334.21 125.031Z" fill="#032C58"/>
<path d="M330.941 115.808L329.841 116.537C329.841 116.537 330.39 118.443 327.935 122.897C326.292 125.774 324.274 128.421 321.935 130.767C321.935 130.767 329.482 129.71 330.935 129.167C332.388 128.624 330.941 115.808 330.941 115.808Z" fill="url(#paint0_linear_43_258)"/>
<path d="M341.426 370.368H86.2803C81.5522 370.362 77.0194 368.481 73.6762 365.138C70.3329 361.795 68.4521 357.262 68.4463 352.534V174.109C68.4521 169.381 70.3329 164.848 73.6761 161.504C77.0193 158.161 81.552 156.279 86.2803 156.273H341.42C346.15 156.279 350.683 158.16 354.028 161.504C357.372 164.848 359.253 169.382 359.258 174.111V352.534C359.252 357.262 357.372 361.794 354.029 365.137C350.686 368.481 346.154 370.362 341.426 370.368ZM86.2803 159.253C82.3425 159.258 78.5675 160.825 75.7835 163.61C72.9994 166.395 71.4335 170.17 71.4293 174.108V352.534C71.4333 356.472 72.9991 360.247 75.7833 363.032C78.5675 365.816 82.3426 367.382 86.2803 367.387H341.426C345.364 367.382 349.139 365.815 351.923 363.031C354.708 360.247 356.274 356.472 356.279 352.534V174.111C356.274 170.172 354.707 166.396 351.921 163.61C349.136 160.825 345.359 159.258 341.42 159.253H86.2803Z" fill="#B7C3CF"/>
<path d="M341.763 157.766H85.9375C77.1009 157.766 69.9375 164.93 69.9375 173.766V352.878C69.9375 361.715 77.1009 368.878 85.9375 368.878H341.763C350.6 368.878 357.763 361.715 357.763 352.878V173.766C357.763 164.93 350.6 157.766 341.763 157.766Z" fill="white"/>
<path d="M342.428 195.171H84.0488V341.833H342.428V195.171Z" fill="white"/>
<path d="M338.471 321.292H273.433C272.891 321.292 272.452 321.731 272.452 322.273V324.299C272.452 324.841 272.891 325.28 273.433 325.28H338.471C339.013 325.28 339.452 324.841 339.452 324.299V322.273C339.452 321.731 339.013 321.292 338.471 321.292Z" fill="#B7C3CF"/>
<path d="M338.471 314.31H273.433C272.891 314.31 272.452 314.749 272.452 315.291V317.317C272.452 317.859 272.891 318.298 273.433 318.298H338.471C339.013 318.298 339.452 317.859 339.452 317.317V315.291C339.452 314.749 339.013 314.31 338.471 314.31Z" fill="#B7C3CF"/>
<path d="M297.725 331.553H273.983C273.138 331.553 272.452 332.238 272.452 333.084V336.243C272.452 337.088 273.138 337.774 273.983 337.774H297.725C298.571 337.774 299.256 337.088 299.256 336.243V333.084C299.256 332.238 298.571 331.553 297.725 331.553Z" fill="#0C4BE3"/>
<path d="M139.39 325.282H91.6296C91.1679 325.209 90.7525 324.96 90.4709 324.587C90.1893 324.214 90.0633 323.746 90.1196 323.282C90.064 322.819 90.1903 322.352 90.472 321.981C90.7537 321.609 91.1687 321.361 91.6296 321.289H139.39C139.851 321.36 140.266 321.608 140.548 321.98C140.83 322.352 140.957 322.819 140.902 323.282C140.958 323.746 140.832 324.214 140.549 324.587C140.267 324.96 139.852 325.21 139.39 325.282Z" fill="#B7C3CF"/>
<path d="M139.39 318.298H91.6303C91.1694 318.226 90.7544 317.978 90.4727 317.606C90.191 317.235 90.0647 316.768 90.1203 316.305C90.0647 315.842 90.191 315.375 90.4727 315.004C90.7544 314.632 91.1694 314.384 91.6303 314.312H139.39C139.851 314.383 140.267 314.631 140.549 315.003C140.831 315.375 140.958 315.842 140.902 316.305C140.958 316.768 140.831 317.235 140.549 317.607C140.267 317.979 139.851 318.227 139.39 318.298Z" fill="#B7C3CF"/>
<path d="M115.392 331.553H91.6501C90.8046 331.553 90.1191 332.238 90.1191 333.084V336.243C90.1191 337.088 90.8046 337.774 91.6501 337.774H115.392C116.238 337.774 116.923 337.088 116.923 336.243V333.084C116.923 332.238 116.238 331.553 115.392 331.553Z" fill="#0C4BE3"/>
<path d="M215.351 232.236H89.8711V303.317H215.351V232.236Z" fill="#F3F5F7"/>
<path d="M338.725 232.236H272.277V303.317H338.725V232.236Z" fill="#F3F5F7"/>
<path d="M269.623 232.236H218.56V266.385H269.623V232.236Z" fill="#F3F5F7"/>
<path d="M269.623 269.162H218.56V303.317H269.623V269.162Z" fill="#F3F5F7"/>
<path d="M283.293 195.174H235.915L221.955 173.145H259.194L283.293 195.174Z" fill="white"/>
<path d="M283.292 196.19H235.916C235.745 196.19 235.577 196.147 235.427 196.064C235.276 195.982 235.15 195.863 235.057 195.719L221.098 173.689C221.001 173.535 220.947 173.358 220.941 173.177C220.935 172.995 220.978 172.815 221.066 172.656C221.154 172.496 221.282 172.363 221.439 172.271C221.595 172.178 221.774 172.129 221.955 172.129H259.194C259.448 172.129 259.693 172.224 259.881 172.395L283.981 194.425C284.133 194.563 284.239 194.744 284.285 194.944C284.332 195.143 284.317 195.352 284.243 195.543C284.169 195.734 284.038 195.898 283.869 196.014C283.7 196.13 283.499 196.191 283.294 196.191L283.292 196.19ZM236.473 194.158H280.673L258.797 174.158H223.797L236.473 194.158Z" fill="#0C4BE3"/>
<path d="M129.427 173.144L93.4352 195.173H46.0352L85.8872 173.144H129.427Z" fill="white"/>
<path d="M93.4364 196.19H46.0364C45.8125 196.188 45.5954 196.113 45.4189 195.975C45.2424 195.837 45.1164 195.645 45.0605 195.428C45.0046 195.212 45.0219 194.982 45.1098 194.776C45.1977 194.571 45.3512 194.399 45.5464 194.29L85.3924 172.26C85.5428 172.176 85.7122 172.132 85.8844 172.132H129.426C129.648 172.132 129.863 172.205 130.04 172.339C130.216 172.472 130.344 172.66 130.404 172.873C130.464 173.087 130.452 173.314 130.372 173.52C130.291 173.726 130.145 173.9 129.956 174.016L93.9654 196.044C93.8061 196.141 93.6229 196.191 93.4364 196.19ZM49.9774 194.158H93.1494L125.822 174.158H86.1504L49.9774 194.158Z" fill="#0C4BE3"/>
<path d="M203.769 173.144L188.396 195.173H140.924L166.389 173.144H203.769Z" fill="white"/>
<path d="M188.397 196.19H140.923C140.716 196.19 140.514 196.127 140.343 196.009C140.173 195.891 140.043 195.723 139.97 195.529C139.898 195.335 139.887 195.123 139.938 194.923C139.989 194.722 140.1 194.542 140.257 194.406L165.723 172.376C165.908 172.217 166.143 172.129 166.387 172.128H203.768C203.954 172.128 204.137 172.178 204.296 172.275C204.455 172.371 204.585 172.51 204.671 172.675C204.757 172.84 204.796 173.025 204.783 173.211C204.771 173.397 204.708 173.576 204.601 173.728L189.228 195.758C189.134 195.891 189.01 196 188.865 196.075C188.721 196.15 188.56 196.19 188.397 196.19ZM143.652 194.158H187.866L201.821 174.158H166.765L143.652 194.158Z" fill="#0C4BE3"/>
<path d="M188.396 195.174V209.091C188.396 209.321 188.396 209.536 188.374 209.766C188.19 215.933 185.611 221.787 181.184 226.085C176.756 230.382 170.829 232.786 164.658 232.786C158.488 232.786 152.56 230.382 148.133 226.085C143.705 221.787 141.126 215.933 140.943 209.766C140.925 209.536 140.925 209.321 140.925 209.091V195.174H188.396Z" fill="white"/>
<path d="M164.665 233.809C158.217 233.847 152.011 231.352 147.384 226.86C142.757 222.368 140.079 216.239 139.926 209.793C139.908 209.593 139.908 209.348 139.908 209.093V195.174C139.908 195.04 139.934 194.908 139.985 194.785C140.036 194.661 140.111 194.549 140.205 194.455C140.3 194.361 140.412 194.286 140.535 194.235C140.659 194.184 140.791 194.158 140.924 194.158H188.398C188.668 194.158 188.926 194.265 189.117 194.455C189.307 194.646 189.414 194.904 189.414 195.174V209.093C189.414 209.355 189.414 209.601 189.388 209.865C189.226 216.299 186.544 222.412 181.921 226.89C177.297 231.368 171.101 233.852 164.665 233.809ZM141.94 196.193V209.093C141.94 209.293 141.94 209.481 141.954 209.68C142.13 215.578 144.594 221.177 148.826 225.29C153.057 229.403 158.724 231.707 164.625 231.715C170.526 231.723 176.198 229.434 180.441 225.332C184.683 221.231 187.163 215.639 187.354 209.741C187.376 209.475 187.376 209.288 187.376 209.093V196.193H141.94Z" fill="#0C4BE3"/>
<path d="M166.605 173.144L140.929 195.173H93.4287L129.277 173.144H166.605Z" fill="white"/>
<path d="M140.928 196.19H93.4278C93.2064 196.19 92.991 196.118 92.8144 195.984C92.6378 195.851 92.5097 195.663 92.4494 195.45C92.3892 195.237 92.4002 195.01 92.4808 194.804C92.5614 194.598 92.7071 194.424 92.8958 194.308L128.743 172.28C128.903 172.181 129.087 172.128 129.275 172.128H166.603C166.81 172.129 167.012 172.193 167.182 172.311C167.352 172.43 167.482 172.598 167.554 172.793C167.625 172.987 167.636 173.199 167.584 173.4C167.532 173.601 167.42 173.781 167.263 173.916L141.588 195.946C141.403 196.103 141.17 196.189 140.928 196.19ZM97.0218 194.158H140.552L163.86 174.158H129.56L97.0218 194.158Z" fill="#B7C3CF"/>
<path d="M378.214 195.174H330.769L296.104 173.145H339.414L378.214 195.174Z" fill="white"/>
<path d="M378.214 196.19H330.768C330.575 196.19 330.386 196.135 330.223 196.031L295.559 174.005C295.374 173.887 295.232 173.712 295.154 173.506C295.077 173.3 295.068 173.075 295.129 172.864C295.191 172.653 295.319 172.467 295.495 172.335C295.67 172.203 295.884 172.132 296.104 172.132H339.414C339.59 172.132 339.762 172.179 339.914 172.266L378.714 194.296C378.91 194.406 379.064 194.578 379.152 194.785C379.239 194.992 379.256 195.222 379.199 195.439C379.142 195.656 379.014 195.849 378.836 195.986C378.657 196.123 378.439 196.196 378.214 196.196V196.19ZM331.065 194.158H374.365L339.144 174.158H299.597L331.065 194.158Z" fill="#0C4BE3"/>
<path d="M222.03 173.145L235.963 195.174H188.396L203.769 173.145H222.03Z" fill="white"/>
<path d="M93.4573 195.174V209.091C93.4573 209.321 93.4573 209.536 93.4353 209.766C93.2518 215.933 90.6729 221.786 86.2458 226.083C81.8187 230.38 75.8916 232.784 69.7218 232.784C63.552 232.784 57.6249 230.38 53.1978 226.083C48.7707 221.786 46.1919 215.933 46.0083 209.766C45.9863 209.536 45.9863 209.321 45.9863 209.091V195.174H93.4573Z" fill="white"/>
<path d="M69.7282 233.809C63.279 233.85 57.0717 231.356 52.4444 226.864C47.8171 222.371 45.1404 216.24 44.9912 209.793C44.9717 209.56 44.9644 209.326 44.9692 209.093V195.174C44.9692 194.904 45.0763 194.646 45.2668 194.455C45.4573 194.265 45.7158 194.158 45.9852 194.158H93.4572C93.5907 194.158 93.7229 194.184 93.8462 194.235C93.9695 194.286 94.0816 194.361 94.1759 194.455C94.2703 194.549 94.3451 194.661 94.3962 194.785C94.4472 194.908 94.4734 195.04 94.4732 195.174V209.093C94.4732 209.355 94.4732 209.605 94.4472 209.869C94.2844 216.302 91.6034 222.414 86.9808 226.891C82.3582 231.368 76.1632 233.852 69.7282 233.809ZM47.0012 196.193V209.093C47.0012 209.293 47.0012 209.475 47.0172 209.672C47.1833 215.576 49.6431 221.183 53.8748 225.304C58.1066 229.424 63.7772 231.734 69.6837 231.743C75.5903 231.752 81.2679 229.46 85.5121 225.352C89.7564 221.244 92.2332 215.644 92.4172 209.741C92.4355 209.525 92.4429 209.309 92.4392 209.093V196.193H47.0012Z" fill="#0C4BE3"/>
<path d="M140.925 195.174V209.091C140.925 209.321 140.925 209.536 140.903 209.766C140.719 215.933 138.141 221.786 133.713 226.084C129.286 230.381 123.359 232.785 117.189 232.785C111.018 232.785 105.091 230.381 100.664 226.084C96.2365 221.786 93.6576 215.933 93.474 209.766C93.458 209.536 93.458 209.321 93.458 209.091V195.174H140.925Z" fill="white"/>
<path d="M117.192 233.809C110.744 233.85 104.537 231.355 99.9106 226.863C95.284 222.37 92.608 216.24 92.4594 209.793C92.4434 209.584 92.4414 209.344 92.4414 209.093V195.174C92.4414 194.904 92.5485 194.646 92.739 194.455C92.9295 194.265 93.1879 194.158 93.4574 194.158H140.925C141.195 194.158 141.453 194.265 141.644 194.455C141.834 194.646 141.941 194.904 141.941 195.174V209.093C141.945 209.35 141.936 209.608 141.913 209.865C141.754 216.3 139.073 222.414 134.45 226.893C129.826 231.371 123.629 233.854 117.192 233.809ZM94.4734 196.193V209.093C94.4734 209.293 94.4734 209.493 94.4874 209.693C94.6476 215.603 97.1063 221.217 101.341 225.343C105.576 229.469 111.252 231.78 117.165 231.786C123.077 231.792 128.758 229.493 133.001 225.376C137.245 221.259 139.715 215.649 139.887 209.74C139.909 209.474 139.909 209.287 139.909 209.092V196.193H94.4734Z" fill="#B7C3CF"/>
<path d="M283.335 195.174V209.091C283.335 209.321 283.335 209.536 283.313 209.766C283.13 215.933 280.551 221.786 276.124 226.083C271.697 230.38 265.77 232.784 259.6 232.784C253.43 232.784 247.503 230.38 243.076 226.083C238.649 221.786 236.07 215.933 235.886 209.766C235.864 209.536 235.864 209.321 235.864 209.091V195.174H283.335Z" fill="white"/>
<path d="M259.605 233.809C253.156 233.85 246.948 231.356 242.321 226.863C237.694 222.371 235.017 216.24 234.868 209.793C234.848 209.593 234.848 209.352 234.848 209.093V195.174C234.848 195.04 234.874 194.908 234.925 194.785C234.976 194.661 235.051 194.549 235.145 194.455C235.239 194.361 235.351 194.286 235.475 194.235C235.598 194.184 235.73 194.158 235.864 194.158H283.336C283.605 194.158 283.864 194.265 284.054 194.455C284.245 194.646 284.352 194.904 284.352 195.174V209.093C284.352 209.355 284.352 209.601 284.326 209.865C284.163 216.299 281.482 222.412 276.859 226.889C272.236 231.367 266.04 233.852 259.605 233.809ZM236.88 196.193V209.093C236.88 209.293 236.88 209.475 236.896 209.672C237.062 215.576 239.522 221.183 243.753 225.304C247.985 229.424 253.656 231.734 259.562 231.743C265.469 231.752 271.146 229.46 275.391 225.352C279.635 221.244 282.112 215.644 282.296 209.741C282.318 209.475 282.318 209.288 282.318 209.093V196.193H236.88Z" fill="#0C4BE3"/>
<path d="M330.83 195.174H283.257L259.1 173.144H296.3L330.83 195.174Z" fill="white"/>
<path d="M330.834 196.19H283.257C283.004 196.191 282.759 196.096 282.572 195.926L258.413 173.896C258.261 173.758 258.154 173.577 258.107 173.377C258.06 173.178 258.075 172.968 258.149 172.777C258.223 172.585 258.353 172.421 258.523 172.305C258.692 172.189 258.893 172.128 259.098 172.128H296.298C296.492 172.128 296.682 172.184 296.845 172.289L331.384 194.319C331.569 194.437 331.711 194.612 331.789 194.818C331.866 195.024 331.874 195.249 331.813 195.46C331.751 195.671 331.623 195.856 331.447 195.988C331.271 196.119 331.057 196.19 330.837 196.19H330.834ZM283.651 194.158H327.351L295.999 174.158H261.721L283.651 194.158Z" fill="#B7C3CF"/>
<path d="M378.275 195.174V209.091C378.275 209.321 378.275 209.536 378.253 209.766C378.069 215.933 375.49 221.787 371.063 226.085C366.635 230.382 360.707 232.786 354.537 232.786C348.367 232.786 342.439 230.382 338.012 226.085C333.584 221.787 331.005 215.933 330.822 209.766C330.808 209.536 330.808 209.321 330.808 209.091V195.174H378.275Z" fill="white"/>
<path d="M354.544 233.809C348.096 233.847 341.89 231.352 337.263 226.86C332.636 222.368 329.958 216.239 329.805 209.793C329.793 209.576 329.791 209.34 329.791 209.093V195.174C329.791 194.904 329.898 194.646 330.089 194.455C330.279 194.265 330.538 194.158 330.807 194.158H378.275C378.544 194.158 378.803 194.265 378.993 194.455C379.184 194.646 379.291 194.904 379.291 195.174V209.093C379.295 209.35 379.285 209.608 379.263 209.865C379.101 216.299 376.421 222.412 371.798 226.89C367.175 231.367 360.98 233.852 354.544 233.809ZM331.823 196.193V209.093C331.823 209.3 331.823 209.493 331.835 209.707C332.006 215.611 334.47 221.216 338.705 225.333C342.939 229.451 348.612 231.756 354.518 231.761C360.424 231.765 366.1 229.468 370.341 225.358C374.583 221.247 377.055 215.645 377.235 209.742C377.257 209.476 377.257 209.289 377.257 209.094V196.193H331.823Z" fill="#0C4BE3"/>
<path d="M46.0074 209.766H45.9854V209.091C45.9854 209.321 45.9854 209.536 46.0074 209.766Z" fill="white"/>
<path d="M330.807 195.174V209.091C330.807 209.321 330.807 209.536 330.785 209.766C330.601 215.934 328.022 221.787 323.595 226.085C319.167 230.383 313.239 232.787 307.068 232.787C300.898 232.787 294.97 230.383 290.542 226.085C286.115 221.787 283.535 215.934 283.352 209.766C283.336 209.536 283.336 209.321 283.336 209.091V195.174H330.807Z" fill="white"/>
<path d="M307.072 233.809C300.623 233.849 294.417 231.355 289.79 226.862C285.163 222.37 282.485 216.24 282.335 209.793C282.319 209.584 282.319 209.344 282.319 209.093V195.174C282.319 194.904 282.426 194.646 282.617 194.455C282.807 194.265 283.066 194.158 283.335 194.158H330.807C330.941 194.158 331.073 194.184 331.196 194.235C331.32 194.286 331.432 194.361 331.526 194.455C331.62 194.549 331.695 194.661 331.746 194.785C331.797 194.908 331.823 195.04 331.823 195.174V209.093C331.828 209.35 331.819 209.608 331.797 209.865C331.634 216.299 328.952 222.413 324.329 226.89C319.705 231.368 313.509 233.852 307.072 233.809ZM284.351 196.193V209.093C284.351 209.293 284.351 209.493 284.365 209.693C284.53 215.6 286.991 221.211 291.226 225.334C295.46 229.456 301.135 231.766 307.045 231.772C312.955 231.778 318.634 229.48 322.878 225.366C327.121 221.253 329.593 215.647 329.77 209.74C329.792 209.474 329.79 209.287 329.79 209.092V196.193H284.351Z" fill="#B7C3CF"/>
<path d="M93.4566 209.091V209.766H93.4346C93.4566 209.536 93.4566 209.321 93.4566 209.091Z" fill="white"/>
<path d="M302.559 256.146C302.559 256.146 299.8 254.614 298.3 255.817C296.8 257.02 295.6 262.169 297.345 265.263C299.09 268.357 303.508 278.418 320.094 282.616L321.094 278.666C321.094 278.666 313.413 275.58 310.248 268.998C308.497 265.255 306.305 261.735 303.719 258.513C303.719 258.513 303.596 256.128 302.559 256.146Z" fill="#F9A6A6"/>
<path d="M320.599 279.211L320.674 279.136C321.096 278.72 321.615 278.415 322.184 278.248C322.889 278.028 323.613 277.869 324.346 277.773C325.333 277.71 326.673 277.956 326.289 278.267C325.905 278.578 324.997 279.017 325.078 279.399C325.159 279.781 329.313 282.231 330.436 282.518C330.997 282.658 330.907 283.008 330.682 283.318C330.54 283.506 330.359 283.66 330.152 283.771C329.945 283.882 329.716 283.946 329.482 283.96C327.355 284.167 325.211 284.086 323.106 283.72C320.544 283.072 319.973 282.527 319.973 282.527L320.599 279.211Z" fill="url(#paint1_linear_43_258)"/>
<path d="M316.773 245.661C316.338 246.621 316.078 247.651 316.005 248.703C316.161 249.536 316.932 250.585 316.226 250.713C315.52 250.841 315.395 254.165 314.355 254.57C313.315 254.975 307.138 253.113 307.138 253.113L305.903 256.768C305.903 256.768 302.644 256.368 302.747 255.968C302.85 255.568 303.663 252.355 303.663 252.355L303.12 245.806C303.12 245.806 303.029 243.036 307.188 243.236C311.347 243.436 316.773 245.661 316.773 245.661Z" fill="#F9A6A6"/>
<path d="M283.961 303.376H308.578C308.562 301.461 308.433 299.548 308.192 297.648C306.776 292.648 287.592 291.217 287.592 291.217C287.592 291.217 286.156 296.793 283.961 303.376Z" fill="#032C58"/>
<path d="M310.748 298.167C309.015 301.184 298.715 300.024 291.833 297.367C290.189 296.779 288.639 295.955 287.233 294.921C286.791 294.648 286.414 294.282 286.129 293.849C285.843 293.415 285.656 292.924 285.58 292.411C285.448 287.128 292.88 255.674 297.302 256.229C301.724 256.784 306.011 257.578 306.011 257.578C306.011 257.578 307.636 265.578 309.095 274.514C309.56 277.361 310.003 280.303 310.367 283.114C311.305 290.19 311.738 296.426 310.748 298.167Z" fill="white"/>
<path d="M309.726 245.281C309.726 245.281 317.179 247.781 318.295 245.986C319.411 244.191 321.048 240.211 319.945 239.445C318.842 238.679 318.671 240.831 318.671 240.831C317.561 239.656 316.148 238.812 314.587 238.391C312.059 237.753 303.342 235.118 300.144 241.638C296.946 248.158 303.596 253.09 303.596 253.09C303.596 253.09 305.171 251.373 304.541 249.995C303.911 248.617 304.429 244.161 306.116 245.218C307.803 246.275 306.902 248.718 307.632 248.089C308.416 247.22 309.117 246.28 309.726 245.281Z" fill="#032C58"/>
<path d="M300.143 241.643L318.215 240.387L327.31 239.741C327.31 239.741 327.928 239.371 325.731 239.341C323.534 239.311 318.416 238.989 318.416 238.989C318.416 238.989 314.897 231.069 307.165 232.17C299.433 233.271 300.143 241.643 300.143 241.643Z" fill="#74D3AF"/>
<path d="M301.811 254.166L308.163 255.775C307.425 256.559 306.762 257.41 306.184 258.317C306.048 258.817 301.118 255.871 301.118 255.871C301.118 255.871 300.736 254.116 301.811 254.166Z" fill="#6EC8A6"/>
<path d="M305.176 251.19C305.62 252.015 306.304 252.685 307.137 253.112L306.391 255.323C305.588 254.095 305.166 252.657 305.176 251.19Z" fill="#EF9A9A"/>
<path d="M309.08 273.631L308.59 271.431C308.59 271.431 319.103 281.079 325.406 281.031C331.709 280.983 324.544 283.051 324.544 283.051C324.544 283.051 311.4 278.438 309.08 273.631Z" fill="#EF9A9A"/>
<path d="M396.706 395.468C396.706 395.468 396.85 398.424 396.415 398.811C395.924 399.189 395.404 399.529 394.861 399.829C394.861 399.829 400.437 402.69 401.552 401.188C402.667 399.686 402.277 395.949 402.277 395.949C402.277 395.949 397.677 394.449 396.706 395.468Z" fill="#F9A6A6"/>
<path d="M387.928 402.11C387.928 402.11 384.143 402.303 383.954 404.002C383.765 405.701 383.954 405.02 383.954 405.02H402.77C402.77 405.02 403.396 405.008 403.347 403.628L403.107 399.202C403.107 399.202 402.526 398.859 401.507 399.781C400.488 400.703 398.116 401.236 395.588 398.568C395.588 398.568 395.212 398.277 393.611 399.537C392.01 400.797 392.394 402.11 387.928 402.11Z" fill="#032C58"/>
<path d="M387.103 326.371C386.248 328.144 385.823 330.094 385.864 332.062C386.071 334.905 389.964 396.193 389.964 396.193C389.964 396.193 401.841 395.612 403.976 397.357C406.111 399.102 403.196 365.157 405.331 351.001C407.466 336.845 411.15 337.814 409.405 327.728C407.66 317.642 387.103 326.371 387.103 326.371Z" fill="#032C58"/>
<path d="M400.591 273.226L399.991 280.689L393.991 282.243L392.453 277.773L392.27 277.228C391.77 277.384 390.905 277.636 389.519 278.022C385.738 279.075 384.945 276.822 384.819 275.364C384.79 274.998 384.797 274.629 384.839 274.264C384.839 274.264 385.426 272.994 384.512 273.132C383.598 273.254 383.797 272.632 383.996 271.582C384.087 269.709 383.98 267.832 383.675 265.982C383.611 264.296 384.212 262.652 385.349 261.404C390.203 257.714 392.144 261.981 398.349 263.05C404.554 264.119 400.591 273.226 400.591 273.226Z" fill="#F9A6A6"/>
<path d="M390.838 268.233C390.838 268.233 391.951 265.323 393.603 265.713C395.255 266.103 396.269 269.393 397.189 270.655C398.109 271.917 399.954 273.422 401.021 273.422C402.088 273.422 403.057 269.346 402.669 266.39C402.281 263.434 404.169 252.473 385.169 257.029C385.169 257.029 384.685 257.129 384.003 255.938C383.321 254.747 383.859 257.838 383.859 257.838C383.859 257.838 382.24 256.891 382.502 255.438C382.502 255.438 380.127 258.396 381.579 260.089C381.579 260.089 379.765 260.189 379.979 257.596C379.979 257.596 378.549 265.208 383.958 264.917C384.196 264.365 384.578 263.887 385.064 263.534C385.55 263.18 386.122 262.963 386.721 262.905C388.63 262.873 389.968 268.134 390.838 268.233Z" fill="#032C58"/>
<path d="M393.107 277.042C392.92 277.311 392.701 277.556 392.455 277.773L392.272 277.228C391.772 277.384 390.907 277.636 389.521 278.022C385.74 279.075 384.947 276.822 384.821 275.364C385.118 275.115 385.441 274.898 385.784 274.718C388.426 273.29 391.293 271.831 391.278 270.124C391.263 268.417 393.107 277.042 393.107 277.042Z" fill="#032C58"/>
<path d="M372.754 291.216L366.36 286.077C365.498 284.258 364.216 282.671 362.619 281.446C360.225 279.798 360.837 281.246 360.837 281.246L363.194 283.938C363.194 283.938 362.158 285.352 358.701 282.961C355.244 280.57 353.879 280.789 354.871 282.016C355.863 283.243 354.15 283.776 361.011 287.683C361.011 287.683 361.454 287.577 364.427 288.677C367.4 289.777 369.052 293.47 369.052 293.47C369.811 293.444 370.551 293.224 371.199 292.829C371.848 292.434 372.383 291.878 372.754 291.216Z" fill="#F9A6A6"/>
<path d="M394.678 284.408C395.649 283.639 396.831 283.182 398.067 283.099C399.303 283.015 400.535 283.309 401.601 283.941C405.224 286.198 404.222 290.915 404.222 290.915C404.222 290.915 392.453 305.352 392.307 305.585C392.161 305.818 388.365 309.631 379.66 305.309C370.431 300.729 366.142 296.744 365.288 292.075C364.871 289.787 365.516 289.427 368.236 288.186C370.956 286.945 382.036 295.572 382.036 295.572C382.036 295.572 385.665 298.821 388.136 295.245C390.607 291.669 394.678 284.408 394.678 284.408Z" fill="#6EC8A6"/>
<path d="M410.194 331.383C409.977 331.136 409.81 330.849 409.702 330.538C407.581 325.629 389.873 327.307 386.571 327.665C386.228 327.702 386.039 327.726 386.039 327.726C386.039 327.726 385.657 312.887 386.039 302.026C386.31 294.763 388.302 287.668 391.852 281.326C392.563 280.226 397.363 279.109 399.896 278.587C400.037 278.559 400.183 278.563 400.322 278.6C400.462 278.637 400.59 278.706 400.699 278.8C400.808 278.895 400.894 279.013 400.949 279.146C401.005 279.278 401.03 279.422 401.022 279.566C401.061 280.726 401.487 281.839 402.233 282.728C402.256 282.756 402.278 282.785 402.298 282.815C407.365 289.851 410.018 298.338 409.859 307.007L409.703 315.598C409.703 315.598 411.659 332.716 410.194 331.383Z" fill="#74D3AF"/>
<path d="M389.729 319.682L393.146 325.623L391.439 326.05L387.978 319.682H389.729Z" fill="#032C58"/>
<path d="M319.505 243.543L310.955 275.034C310.732 275.851 310.844 276.723 311.265 277.458C311.685 278.194 312.381 278.732 313.198 278.954L359.213 291.454C360.03 291.674 360.901 291.562 361.636 291.142C362.372 290.722 362.911 290.029 363.137 289.213L371.695 257.722C371.912 256.904 371.798 256.033 371.376 255.299C370.955 254.564 370.26 254.027 369.444 253.802L323.427 241.302C322.61 241.083 321.739 241.195 321.004 241.615C320.27 242.035 319.731 242.728 319.505 243.543Z" fill="#0D53FC"/>
<path d="M318.67 246.608L310.418 276.993C310.198 277.809 310.31 278.68 310.729 279.414C311.149 280.148 311.842 280.686 312.657 280.911L358.678 293.411C359.495 293.63 360.366 293.517 361.101 293.096C361.835 292.676 362.373 291.982 362.598 291.166L370.854 260.787L318.67 246.608Z" fill="white"/>
<path d="M329.213 245.415C329.4 245.466 329.569 245.572 329.696 245.718C329.824 245.865 329.905 246.046 329.93 246.239C329.954 246.432 329.921 246.628 329.835 246.802C329.748 246.977 329.612 247.121 329.443 247.218C329.274 247.315 329.081 247.359 328.887 247.346C328.693 247.333 328.507 247.262 328.353 247.143C328.199 247.025 328.083 246.863 328.021 246.678C327.959 246.494 327.953 246.296 328.004 246.108C328.037 245.983 328.095 245.866 328.174 245.763C328.253 245.66 328.352 245.574 328.464 245.51C328.577 245.446 328.7 245.404 328.829 245.388C328.957 245.371 329.088 245.381 329.213 245.415Z" fill="#ECECEC"/>
<path d="M326.601 244.706C326.789 244.757 326.958 244.862 327.086 245.009C327.214 245.155 327.295 245.337 327.32 245.53C327.345 245.723 327.312 245.919 327.226 246.093C327.139 246.267 327.003 246.412 326.834 246.509C326.666 246.606 326.472 246.651 326.278 246.637C326.084 246.624 325.898 246.554 325.744 246.435C325.589 246.316 325.474 246.154 325.412 245.97C325.35 245.785 325.344 245.587 325.394 245.399C325.463 245.147 325.628 244.933 325.855 244.803C326.081 244.673 326.35 244.638 326.601 244.706Z" fill="#ECECEC"/>
<path d="M323.996 243.995C324.184 244.046 324.353 244.152 324.481 244.299C324.609 244.446 324.69 244.628 324.715 244.821C324.74 245.015 324.706 245.211 324.62 245.386C324.533 245.56 324.396 245.705 324.227 245.802C324.057 245.899 323.863 245.943 323.669 245.93C323.474 245.916 323.288 245.845 323.134 245.726C322.98 245.607 322.864 245.445 322.802 245.26C322.74 245.075 322.734 244.876 322.785 244.688C322.856 244.436 323.022 244.223 323.249 244.093C323.475 243.964 323.744 243.928 323.996 243.995Z" fill="#ECECEC"/>
<path d="M330.007 267.15C329.385 269.44 329.457 271.863 330.212 274.113C330.967 276.363 332.372 278.339 334.25 279.79C336.128 281.241 338.394 282.103 340.762 282.266C343.129 282.43 345.492 281.887 347.551 280.708C349.611 279.528 351.274 277.765 352.331 275.64C353.389 273.515 353.792 271.125 353.491 268.771C353.189 266.417 352.197 264.205 350.639 262.415C349.08 260.625 347.026 259.338 344.736 258.715C341.665 257.881 338.388 258.302 335.626 259.883C332.864 261.465 330.843 264.079 330.007 267.15Z" fill="#0D53FC"/>
<path d="M341.895 267.141L337.423 265.924L336.299 267.661L333.985 276.193L339.661 277.741L341.981 269.207L341.895 267.141ZM339.174 267.041C339.18 267.035 339.186 267.03 339.194 267.026C339.201 267.023 339.209 267.021 339.217 267.021C339.23 267.012 339.245 267.006 339.26 267.003C339.273 266.997 339.287 266.993 339.301 266.993H339.311C339.321 266.987 339.333 266.984 339.344 266.985C339.408 266.979 339.471 266.983 339.533 266.997C339.614 267.022 339.688 267.066 339.748 267.126C339.808 267.185 339.853 267.259 339.878 267.34C339.893 267.409 339.898 267.48 339.892 267.551C339.886 267.569 339.886 267.586 339.878 267.608C339.844 267.733 339.761 267.839 339.649 267.903C339.537 267.967 339.403 267.984 339.278 267.951C339.215 267.935 339.155 267.906 339.103 267.867C339.051 267.827 339.008 267.778 338.976 267.721C338.943 267.664 338.923 267.601 338.916 267.536C338.908 267.471 338.914 267.405 338.933 267.343C338.949 267.278 338.979 267.217 339.02 267.165C339.062 267.112 339.115 267.07 339.175 267.041H339.174ZM337.674 275.022L337.583 275.369L336.971 275.2L337.071 274.859C336.829 274.733 336.644 274.52 336.553 274.264C336.462 274.007 336.472 273.725 336.581 273.475L336.666 273.154L337.375 273.343L337.275 273.713C337.175 274.054 337.293 274.213 337.531 274.28C337.769 274.347 337.954 274.262 338.041 273.924C338.311 272.951 336.862 272.508 337.241 271.152C337.416 270.516 337.781 270.187 338.341 270.211L338.432 269.859L339.044 270.028L338.953 270.375C339.193 270.501 339.376 270.713 339.464 270.968C339.553 271.224 339.541 271.504 339.43 271.751L339.387 271.897L338.687 271.704L338.74 271.511C338.831 271.17 338.734 271.011 338.494 270.944C338.254 270.877 338.094 270.968 337.994 271.31C337.73 272.281 339.173 272.728 338.803 274.077C338.62 274.727 338.232 275.06 337.677 275.026L337.674 275.022Z" fill="#ECECEC"/>
<path d="M341.143 261.778C340.531 261.609 339.786 263.024 339.406 264.43C339.226 265.068 339.127 265.726 339.111 266.389L339.3 266.438C339.313 265.776 339.405 265.119 339.574 264.479C340.017 262.872 340.728 261.856 341.1 261.959C341.472 262.062 341.565 263.29 341.128 264.897C340.691 266.504 339.976 267.516 339.61 267.419C339.504 267.391 339.405 267.219 339.342 266.988C339.283 266.997 339.226 267.016 339.173 267.045C339.244 267.362 339.373 267.545 339.567 267.594C340.179 267.763 340.924 266.357 341.302 264.946C341.68 263.535 341.764 261.947 341.143 261.778Z" fill="white"/>
<path d="M345.502 267.727L340.875 267.392L340.113 269.31L339.483 278.131L345.357 278.55L345.987 269.725L345.502 267.727ZM342.816 268.141C342.827 268.131 342.84 268.123 342.853 268.117C342.863 268.107 342.875 268.099 342.888 268.093C342.902 268.085 342.916 268.079 342.931 268.075H342.937L342.974 268.061C343.034 268.044 343.096 268.037 343.157 268.041C343.242 268.047 343.323 268.075 343.393 268.122C343.463 268.169 343.52 268.233 343.557 268.309C343.59 268.371 343.61 268.439 343.616 268.509V268.568C343.612 268.652 343.587 268.734 343.543 268.805C343.498 268.877 343.437 268.936 343.364 268.978C343.29 269.019 343.208 269.041 343.124 269.043C343.04 269.044 342.957 269.024 342.882 268.984C342.808 268.945 342.745 268.887 342.699 268.817C342.653 268.746 342.625 268.666 342.619 268.582C342.612 268.498 342.627 268.414 342.661 268.337C342.696 268.26 342.749 268.194 342.816 268.143V268.141ZM342.887 276.269L342.859 276.625L342.231 276.58L342.255 276.224C341.994 276.149 341.771 275.977 341.632 275.742C341.493 275.508 341.449 275.23 341.509 274.964L341.537 274.623L342.26 274.68L342.236 275.06C342.204 275.412 342.356 275.552 342.598 275.566C342.84 275.58 343.006 275.473 343.031 275.117C343.098 274.117 341.607 273.959 341.698 272.561C341.751 271.903 342.058 271.502 342.598 271.425L342.626 271.059L343.252 271.102L343.228 271.468C343.488 271.543 343.71 271.715 343.847 271.948C343.984 272.182 344.026 272.459 343.964 272.722L343.953 272.885L343.226 272.83L343.244 272.625C343.268 272.278 343.138 272.133 342.892 272.119C342.646 272.105 342.492 272.219 342.469 272.57C342.398 273.578 343.895 273.736 343.794 275.128C343.815 275.398 343.733 275.665 343.565 275.877C343.396 276.089 343.154 276.229 342.886 276.269H342.887Z" fill="#ECECEC"/>
<path d="M343.729 262.596C343.097 262.555 342.636 264.077 342.534 265.536C342.481 266.197 342.512 266.862 342.625 267.515L342.825 267.529C342.708 266.875 342.673 266.209 342.719 265.546C342.839 263.884 343.345 262.758 343.719 262.787C344.093 262.816 344.44 264 344.319 265.666C344.198 267.332 343.697 268.458 343.319 268.425C343.199 268.425 343.077 268.271 342.972 268.055C342.916 268.074 342.863 268.103 342.816 268.14C342.948 268.44 343.109 268.597 343.302 268.615C343.942 268.66 344.407 267.134 344.502 265.671C344.597 264.208 344.369 262.643 343.729 262.596Z" fill="white"/>
<path d="M370.049 297.792L363.655 292.653C362.792 290.835 361.507 289.249 359.908 288.026C357.508 286.372 358.13 287.826 358.13 287.826L360.485 290.518C360.485 290.518 359.451 291.932 355.99 289.541C352.529 287.15 351.174 287.365 352.16 288.596C353.146 289.827 351.443 290.356 358.3 294.263C358.3 294.263 358.743 294.157 361.72 295.255C364.697 296.353 366.347 300.055 366.347 300.055C367.107 300.027 367.846 299.804 368.495 299.408C369.143 299.012 369.678 298.455 370.049 297.792Z" fill="#F9A6A6"/>
<path d="M392.656 289.888C392.656 289.888 396.064 286.988 399.682 289.252C403.3 291.516 402.182 296.417 402.182 296.417C402.182 296.417 389.93 311.63 389.773 311.874C389.616 312.118 385.688 316.147 376.959 311.867C367.702 307.33 363.443 303.296 362.685 298.485C362.313 296.12 362.976 295.732 365.759 294.385C368.542 293.038 379.586 301.732 379.586 301.732C379.586 301.732 383.199 305.016 385.777 301.253C388.355 297.49 392.656 289.888 392.656 289.888Z" fill="#74D3AF"/>
<path d="M409.769 334.519C409.769 334.519 409.552 334.864 406.609 331.467C403.666 328.07 386.481 327.667 386.481 327.667C389.781 327.309 407.491 325.631 409.612 330.54C409.723 330.85 409.89 331.136 410.104 331.385C410.149 332.441 410.036 333.497 409.769 334.519Z" fill="#032C58"/>
<path d="M302.337 256.279C302.337 256.279 299.123 254.523 297.393 255.879C295.663 257.235 294.307 263.072 296.353 266.599C298.399 270.126 303.587 281.582 322.865 286.459L324.001 281.983C324.001 281.983 311.001 277.393 307.278 269.899C303.555 262.405 303.707 258.979 303.707 258.979C303.707 258.979 303.546 256.272 302.337 256.279Z" fill="#F9A6A6"/>
<path d="M323.424 282.603L323.515 282.518C324.005 282.046 324.604 281.702 325.26 281.518C326.078 281.27 326.916 281.094 327.765 280.992C328.911 280.925 330.465 281.215 330.02 281.565C329.575 281.915 328.527 282.41 328.62 282.845C328.713 283.28 333.551 286.09 334.86 286.423C335.508 286.586 335.409 286.982 335.149 287.333C334.985 287.547 334.776 287.722 334.538 287.847C334.299 287.971 334.036 288.042 333.767 288.054C331.294 288.279 328.803 288.173 326.359 287.739C323.382 286.985 322.72 286.363 322.72 286.363L323.424 282.603Z" fill="#F9A6A6"/>
<path d="M306.823 266.634L298.899 272.858C298.899 272.858 292.344 264.511 294.671 258.742C296.998 252.973 301.563 255.017 301.563 255.017C301.563 255.017 304.731 258.106 304.838 259.144C304.945 260.182 305.51 264.389 306.823 266.634Z" fill="#74D3AF"/>
<path d="M295.762 112.963C295.696 113.023 295.628 113.079 295.557 113.132C291.997 116.013 281.37 124.826 279.523 126.6C279.078 127.028 278.586 127.404 278.058 127.722C277.497 128.068 276.904 128.36 276.288 128.592H276.282C275.019 129.06 273.701 129.36 272.36 129.482C267.404 129.988 252.843 131.067 250.488 130.998C249.354 130.956 248.241 130.69 247.211 130.216C246.181 129.741 245.256 129.067 244.488 128.233C243.33 126.963 242.637 124.844 243.834 123.608C244.495 123.051 245.309 122.706 246.169 122.618C255.059 120.834 264.501 121.537 272.681 117.638C278.61 114.812 283.581 108.545 287.918 103.612L287.843 103.705C289.814 103.226 291.858 103.122 293.868 103.398C294.872 103.549 295.816 103.974 296.594 104.627C297.373 105.28 297.955 106.135 298.279 107.098C298.831 109.271 297.482 111.488 295.762 112.963Z" fill="#6EC8A6"/>
<path d="M247.821 128.619C247.496 130.692 244.367 131.019 242.495 131.968C241.589 132.5 240.58 132.835 239.536 132.949C238.491 133.063 237.434 132.954 236.434 132.63C236.318 132.595 236.214 132.528 236.134 132.437C235.841 132.049 236.467 131.63 236.943 131.545C235.712 131.774 234.44 131.544 233.367 130.899C232.693 130.705 232.114 130.269 231.741 129.675C231.369 129.08 231.23 128.369 231.351 127.678C231.311 127.47 231.353 127.255 231.469 127.078C231.572 126.988 231.693 126.924 231.825 126.888C231.956 126.853 232.094 126.847 232.227 126.873C234.323 126.945 236.4 126.453 238.241 125.449L235.841 124.435C235.607 124.358 235.398 124.22 235.236 124.035C235.126 123.844 235.09 123.619 235.134 123.403C235.179 123.187 235.301 122.994 235.478 122.863C235.846 122.61 236.292 122.496 236.736 122.542C238.162 122.762 239.543 123.209 240.828 123.865C242.181 124.371 243.833 124.588 244.957 123.686C245.929 124.054 246.744 124.745 247.265 125.643C247.787 126.542 247.983 127.593 247.821 128.619Z" fill="#F9A6A6"/>
<path d="M281.559 185.291C281.559 198.281 277.708 210.979 270.491 221.779C263.274 232.58 253.017 240.998 241.016 245.969C229.015 250.94 215.81 252.241 203.069 249.707C190.329 247.173 178.627 240.918 169.441 231.732C160.256 222.547 154.001 210.845 151.467 198.104C148.933 185.364 150.234 172.159 155.205 160.158C160.176 148.157 168.594 137.9 179.395 130.683C190.195 123.466 202.893 119.615 215.883 119.615C224.508 119.615 233.048 121.313 241.016 124.614C248.985 127.914 256.225 132.752 262.323 138.851C268.422 144.949 273.26 152.189 276.56 160.157C279.861 168.126 281.559 176.666 281.559 185.291Z" fill="#0D53FC"/>
<path d="M279.653 185.291C279.653 197.903 275.913 210.233 268.905 220.72C261.898 231.207 251.938 239.38 240.286 244.207C228.633 249.033 215.811 250.296 203.44 247.835C191.07 245.374 179.707 239.3 170.789 230.382C161.87 221.463 155.797 210.1 153.337 197.73C150.876 185.359 152.139 172.537 156.966 160.885C161.793 149.232 169.967 139.272 180.454 132.265C190.941 125.258 203.271 121.518 215.883 121.519C224.258 121.518 232.551 123.168 240.288 126.372C248.025 129.577 255.055 134.275 260.977 140.196C266.899 146.118 271.596 153.149 274.8 160.886C278.005 168.623 279.654 176.916 279.653 185.291Z" fill="white"/>
<path d="M215.882 223.047C208.414 223.047 201.114 220.832 194.905 216.683C188.696 212.534 183.856 206.637 180.999 199.737C178.141 192.838 177.394 185.246 178.851 177.922C180.308 170.597 183.904 163.87 189.185 158.589C194.465 153.309 201.193 149.713 208.518 148.256C215.842 146.799 223.434 147.547 230.333 150.405C237.233 153.263 243.129 158.103 247.278 164.312C251.427 170.522 253.641 177.822 253.641 185.29C253.63 195.3 249.648 204.898 242.569 211.976C235.49 219.055 225.893 223.036 215.882 223.047ZM215.882 149.563C208.816 149.563 201.909 151.658 196.034 155.583C190.158 159.509 185.579 165.088 182.875 171.616C180.171 178.144 179.463 185.327 180.841 192.258C182.22 199.188 185.622 205.554 190.618 210.55C195.614 215.547 201.98 218.949 208.91 220.328C215.84 221.707 223.024 221 229.552 218.296C236.08 215.592 241.66 211.013 245.586 205.138C249.511 199.263 251.607 192.356 251.607 185.29C251.596 175.818 247.829 166.737 241.132 160.039C234.434 153.342 225.354 149.574 215.882 149.563Z" fill="#0D53FC"/>
<path d="M215.882 198.025C213.365 198.025 210.903 197.278 208.81 195.88C206.717 194.481 205.085 192.493 204.121 190.167C203.158 187.84 202.906 185.281 203.397 182.811C203.888 180.342 205.101 178.074 206.881 176.293C208.661 174.513 210.929 173.301 213.399 172.81C215.868 172.318 218.428 172.57 220.754 173.534C223.08 174.497 225.068 176.129 226.467 178.223C227.866 180.316 228.612 182.777 228.612 185.295C228.609 188.67 227.266 191.906 224.88 194.292C222.493 196.679 219.257 198.021 215.882 198.025ZM215.882 174.597C213.766 174.597 211.697 175.225 209.938 176.4C208.178 177.576 206.807 179.247 205.997 181.202C205.187 183.157 204.975 185.309 205.388 187.384C205.801 189.46 206.82 191.367 208.316 192.863C209.813 194.359 211.719 195.378 213.795 195.791C215.87 196.204 218.022 195.992 219.977 195.182C221.932 194.373 223.603 193.001 224.779 191.242C225.955 189.482 226.582 187.413 226.582 185.297C226.581 182.459 225.453 179.738 223.447 177.731C221.441 175.724 218.72 174.595 215.882 174.593V174.597Z" fill="#0D53FC"/>
<path d="M142.984 393.046L142.628 397.797C142.628 397.797 136.605 397.933 136.605 397.391C136.605 396.849 137.312 392.777 137.312 392.777L142.984 393.046Z" fill="#F9A6A6"/>
<path d="M159.086 393.739L159.31 400.062C159.31 400.062 153.328 400.793 153.261 400.074C153.194 399.355 153.407 393.899 153.407 393.899L159.086 393.739Z" fill="#F9A6A6"/>
<path d="M151.885 403.24C151.355 403.533 144.936 403.84 144.347 403.925C142.415 404.225 140.592 404.425 138.769 403.539C135.107 401.794 135.489 398.732 135.989 395.409C136.451 395.794 136.974 396.098 137.537 396.309C139.1 396.866 141.499 397.034 142.907 396.014C143.395 396.568 143.939 397.071 144.53 397.514C145.14 397.872 151.296 397.445 151.753 397.971C152.153 398.416 151.953 399.818 152.066 400.478C152.24 401.499 153.011 402.614 151.885 403.24Z" fill="#032C58"/>
<path d="M137.903 311.848C136.848 312.408 135.952 313.227 135.299 314.228C134.646 315.228 134.258 316.378 134.17 317.57C133.642 321.918 137.244 346.488 135.377 377.146C135.214 379.828 134.867 388.5 134.841 390.061C134.764 395.446 137.55 395.318 139.185 394.948C147.664 393.006 143.096 395.454 145.846 365.548C148.596 335.642 148.195 333.204 148.195 333.204L151.474 394.844C151.474 394.844 150.942 396.973 156.454 397.626C159.554 397.992 161.304 396.167 161.101 390.264C160.776 380.805 165.919 335.564 163.052 314.248C160.185 292.932 137.903 311.848 137.903 311.848Z" fill="#032C58"/>
<path d="M135.888 314.494L134.688 315.508C134.688 315.508 138.888 320.488 147.245 320.202C155.602 319.916 161.885 319.145 163.128 314.802C164.371 310.459 135.888 314.494 135.888 314.494Z" fill="#032C58"/>
<path d="M191.761 248.28C191.761 248.28 193.675 244.18 195.181 244.068C196.687 243.956 197.841 244.19 198.71 243.534C200.571 242.134 201.219 243.751 200.933 244.257C200.647 244.763 197.964 246.037 201.148 246.425C204.332 246.813 207.215 248.554 208.302 247.473C209.389 246.392 210.125 248.387 207.853 249.33C205.171 250.438 202.267 250.902 199.374 250.685C195.989 250.455 195.261 250.754 195.261 250.754L191.388 249.815L191.761 248.28Z" fill="#F9A6A6"/>
<path d="M153.854 228.085L155.689 223.239C155.689 223.239 155.205 215.128 156.443 212.874C157.681 210.62 158.298 212.425 158.298 212.425V219.185C158.298 219.185 158.924 221.319 159.718 219.912C160.512 218.505 161.852 220.198 160.726 221.548C159.77 222.887 158.956 224.323 158.298 225.831L157.506 230.901L153.854 228.085Z" fill="#F9A6A6"/>
<path d="M147.447 260.053H157.97L160.26 263.94C160.26 263.94 170.66 268.597 177.515 263.792C184.37 258.987 188.136 256.798 191.389 247.711C191.389 247.711 197.318 247.305 197.783 250.964C197.783 250.964 196.583 268.585 184.677 274.536C172.771 280.487 165.297 278.588 165.297 278.588C165.297 278.588 162.091 307.653 163.235 313.83C164.379 320.007 134.17 315.43 134.17 315.43C134.17 315.43 135.775 281.564 134.17 269.893C132.565 258.222 126.392 251.128 139.205 237.624C152.018 224.12 153.626 226.41 153.626 226.41C153.626 226.41 160.642 230.531 158.358 232.973C156.074 235.415 142.489 244.26 142.489 248.531C142.489 252.802 142.789 259.213 144.466 261.653C146.143 264.093 147.447 260.053 147.447 260.053Z" fill="#74D3AF"/>
<path d="M152.393 257.918C152.393 257.918 149.575 259.29 147.132 254.866C144.689 250.442 139.195 245.176 142.402 240.22C145.609 235.264 144.842 238.926 150.485 236.556C156.128 234.186 156.361 233.356 157.505 234.114C158.649 234.872 160.553 236.786 160.405 235.714C160.257 234.642 161.663 235.753 161.319 237.088C161.319 237.088 162.729 237.509 162.311 235.562C162.311 235.562 163.585 236.174 163.175 238.232C163.175 238.232 163.569 238.573 163.945 237.47C164.321 236.367 165.231 240.97 163.569 242.276C162.814 243.003 161.801 243.402 160.753 243.383C160.753 243.383 158.473 246.319 158.189 247.861C157.905 249.403 158.25 250.661 157.108 251.354C155.966 252.047 151.974 256.526 152.393 257.918Z" fill="#032C58"/>
<path d="M148.195 255.551L148.811 260.129L156.293 260.204L157.201 258.375C157.201 258.375 163.226 259.71 162.77 254.902C162.986 254.494 163.12 254.048 163.164 253.589C163.28 252.729 162.022 252.441 162.138 251.299C162.254 250.157 162.481 242.832 161.396 242.714C160.311 242.596 157.389 245.632 157.046 248.722C156.703 251.812 157.046 250.522 156.812 250.591C156.578 250.66 155.699 251.048 155.688 249.524C155.677 248 153.92 247.846 153.92 249.752C153.92 251.658 154.755 253.952 153.536 255.399C152.317 256.846 148.886 256.851 148.195 255.551Z" fill="#F9A6A6"/>
<path d="M172.525 404.779C172.559 405.032 172.538 405.291 172.463 405.535C172.387 405.78 172.26 406.006 172.088 406.196C171.917 406.386 171.706 406.537 171.471 406.638C171.235 406.738 170.981 406.786 170.725 406.779C170.558 406.769 170.388 406.763 170.225 406.755C165.625 406.629 161.025 406.475 156.425 406.603C155.416 406.619 154.408 406.543 153.414 406.375C151.99 405.893 151.914 403.719 151.545 402.252C151.079 400.731 150.946 399.128 151.155 397.552C151.397 397.952 152.075 398.334 152.397 398.657C154.207 400.463 158.119 399.829 160.197 398.409C160.918 399.628 161.256 400.864 162.94 401.509C165.13 402.287 167.394 402.835 169.698 403.143C169.889 403.178 170.398 403.2 170.921 403.243C171.32 403.273 171.697 403.44 171.988 403.714C172.279 403.989 172.467 404.356 172.521 404.753L172.525 404.779Z" fill="#032C58"/>
<path d="M291.027 102.497C291.551 102.39 292.044 102.163 292.467 101.835C292.889 101.507 293.231 101.086 293.465 100.605C293.926 99.6429 294.54 98.762 295.284 97.997C295.738 97.7099 296.154 97.3665 296.521 96.975C296.82 96.4289 297.031 95.8394 297.147 95.228C297.759 93.407 299.747 92.188 299.977 90.28C300.001 89.4799 299.784 88.6911 299.353 88.0166C298.922 87.3421 298.297 86.8132 297.561 86.499C296.079 85.8954 294.491 85.5929 292.89 85.609C292.35 85.6148 291.815 85.504 291.321 85.284C290.021 84.595 289.653 82.525 288.19 82.336C287.276 82.222 286.506 82.964 285.668 83.36C283.945 84.177 281.933 83.525 280.099 83.017C278.265 82.509 276.025 82.271 274.699 83.629C274.22 84.2006 273.91 84.8945 273.804 85.6326C273.698 86.3707 273.8 87.1237 274.099 87.807C274.723 89.3032 275.718 90.6157 276.99 91.621C276.99 91.621 290.256 96.093 291.031 102.502" fill="#032C58"/>
<path d="M342.429 177.678C342.335 177.272 342.095 176.916 341.754 176.678C341.441 176.543 341.097 176.496 340.76 176.54C339.527 176.608 338.301 176.767 337.092 177.015H337.336C336.945 177.663 336.796 178.429 336.917 179.177C337.037 179.924 337.419 180.604 337.994 181.097C338.95 181.733 340.091 182.032 341.237 181.946C341.393 181.956 341.549 181.94 341.7 181.897C341.891 181.804 342.058 181.666 342.187 181.496C342.315 181.326 342.402 181.128 342.44 180.918C342.765 179.862 342.761 178.732 342.429 177.678Z" fill="#BFC388"/>
<path d="M343.198 179.807C343.608 182.007 344.021 184.211 344.435 186.419C344.51 186.656 344.49 186.913 344.38 187.136C344.176 187.366 343.899 187.519 343.596 187.569C340.396 188.431 336.941 187.555 333.587 187.315C331.687 187.181 329.769 187.258 327.863 187.287C327.054 187.299 326.022 187.163 325.843 186.515C325.806 186.347 325.816 186.172 325.873 186.009C326.245 184.698 327.834 183.878 329.402 183.504C330.994 183.259 332.573 182.932 334.132 182.523C335.632 181.995 336.979 180.788 336.739 179.457C338.887 180.014 341.143 180.001 343.284 179.418" fill="#032C58"/>
<path d="M292.433 106.235C291.246 106.373 290.044 106.319 288.873 106.076C288.532 105.98 288.177 105.939 287.822 105.956C287.308 106.071 286.831 106.312 286.432 106.656C284.709 107.849 282.716 108.593 280.632 108.82C280.207 108.892 279.771 108.858 279.362 108.72C278.79 108.397 278.353 107.88 278.127 107.263C277.202 105.368 276.472 103.384 275.949 101.342C275.892 100.957 275.728 100.596 275.474 100.3C274.964 99.8199 273.974 99.867 273.747 99.2C273.706 98.974 273.737 98.7408 273.835 98.5331C273.933 98.3255 274.094 98.1537 274.294 98.0419C274.7 97.8288 275.094 97.5952 275.475 97.3419C276.375 96.5579 276.206 95.152 276.267 93.955C276.312 93.1183 276.511 92.2971 276.854 91.5329C276.928 91.3106 277.068 91.1158 277.254 90.974C277.528 90.8423 277.837 90.8017 278.136 90.858C281.004 91.0595 283.862 90.3361 286.288 88.7939C286.404 90.3219 286.514 91.856 286.631 93.388C286.686 94.13 286.997 95.1089 287.738 95.0479C288.002 95.0001 288.247 94.8807 288.447 94.7029C289.196 94.0567 290.147 93.6924 291.135 93.6729C292.114 93.7499 293.063 94.701 292.781 95.64C292.481 96.666 291.044 96.961 290.625 97.946C290.496 98.3208 290.453 98.7201 290.499 99.114C290.628 101.507 291.178 103.859 292.123 106.061" fill="#F9A6A6"/>
<path d="M340.53 127.644C337.45 130.8 333.699 134.044 333.579 138.096C333.51 140.512 334.779 142.796 335.65 145.106C338.883 153.731 336.605 163.428 340.872 171.74C341.482 172.739 341.956 173.815 342.28 174.94C342.426 175.511 342.405 176.111 342.218 176.67C342.031 177.228 341.686 177.721 341.225 178.087C339.642 179.257 336.97 178.658 335.588 177.331C335.497 177.242 335.407 177.154 335.324 177.059C334.29 175.723 333.586 174.162 333.268 172.503C331.881 167.801 330.027 163.249 327.735 158.916C326.516 156.533 325.166 154.22 323.691 151.987C322.617 150.533 321.676 148.985 320.881 147.362C319.792 144.461 319.504 141.32 320.046 138.269C320.678 133.209 322.126 128.285 324.335 123.688C325.219 121.837 326.247 119.959 326.269 117.968C326.287 115.696 324.123 114.053 322.648 112.132C322.237 111.594 321.903 111.001 321.656 110.37C319.226 104.181 326.541 96.7202 326.541 96.7202C333.562 97.4597 340.22 100.217 345.708 104.659C348.23 106.77 350.414 109.42 350.481 112.378C350.546 115.192 348.713 117.761 346.889 120.132C344.919 122.759 342.796 125.268 340.53 127.644Z" fill="#032C58"/>
<path d="M329.094 157.274C328.458 151.522 323.573 141.653 326.485 134.687C328.718 129.337 329.543 120.423 328.85 114.368C328.041 115.756 327.169 117.109 326.235 118.428C325.915 120.279 325.272 122.058 324.335 123.685C322.126 128.282 320.678 133.206 320.046 138.266C319.504 141.317 319.792 144.458 320.881 147.359C321.676 148.982 322.617 150.53 323.691 151.984C325.166 154.217 326.516 156.53 327.735 158.913C330.027 163.248 331.879 167.801 333.265 172.504C333.583 174.163 334.287 175.724 335.321 177.06C335.912 177.114 336.508 177.099 337.097 177.015C338.606 176.706 329.732 163.023 329.094 157.274Z" fill="#032C58"/>
<path d="M326.468 117.146C326.427 118.255 325.952 119.303 325.147 120.066C324.466 120.582 322.073 119.696 321.229 119.79C317.729 119.994 314.25 120.466 310.822 121.202C310.285 121.273 309.778 121.494 309.359 121.838C308.559 122.624 308.985 132.225 308.965 135.653C308.943 140.467 306.035 144.728 303.243 148.653C298.685 155.053 293.953 161.627 287.309 165.819C285.862 166.729 283.966 167.51 282.534 166.585C282.141 166.299 281.823 165.922 281.609 165.485C281.395 165.049 281.292 164.566 281.307 164.08C281.3 163.628 281.37 163.178 281.512 162.749C282.056 161.43 282.872 160.241 283.906 159.258C287.54 155.226 290.939 150.989 294.086 146.567C296.52 143.143 298.853 139.474 299.578 135.337C300.472 130.237 298.824 125.029 296.729 120.289C294.634 115.549 292.074 110.95 290.977 105.889C290.722 104.732 290.625 103.545 290.688 102.362C290.816 100.105 291.619 97.9871 293.565 96.9961C294.933 96.4439 296.416 96.2352 297.883 96.3881C305.054 96.5631 321.124 95.7501 328.163 95.3661C328.524 95.346 328.883 95.4172 329.209 95.5731C329.535 95.7289 329.816 95.9644 330.026 96.2577C330.237 96.551 330.37 96.8927 330.413 97.2511C330.456 97.6095 330.409 97.9731 330.274 98.3081C328.007 103.928 327.234 111.614 326.468 117.146Z" fill="#74D3AF"/>
<path d="M286.453 164.901C286.953 166.901 284.242 168.382 282.913 169.956C282.294 170.781 281.507 171.466 280.604 171.966C279.702 172.466 278.703 172.769 277.675 172.856C277.558 172.866 277.441 172.844 277.336 172.793C276.921 172.553 277.33 171.942 277.726 171.677C276.7 172.355 275.46 172.632 274.243 172.453C273.708 172.478 273.173 172.386 272.676 172.185C271.992 171.737 271.473 171.077 271.197 170.307C271.088 170.134 271.044 169.928 271.075 169.726C271.146 169.468 271.435 169.346 271.687 169.253C273.608 168.514 275.298 167.279 276.587 165.675H274.031C273.791 165.693 273.55 165.649 273.331 165.547C273.157 165.417 273.037 165.226 272.995 165.013C272.953 164.799 272.992 164.578 273.103 164.391C273.34 164.024 273.699 163.753 274.117 163.625C275.491 163.284 276.911 163.161 278.323 163.263C279.737 163.21 281.316 162.775 281.993 161.534C283.01 161.498 284.008 161.813 284.821 162.426C285.633 163.039 286.209 163.913 286.453 164.901Z" fill="#F9A6A6"/>
</g>
<defs>
<linearGradient id="paint0_linear_43_258" x1="321.935" y1="123.288" x2="331.582" y2="123.288" gradientUnits="userSpaceOnUse">
<stop stop-color="#4166F8"/>
<stop offset="1" stop-color="#8BA2FC"/>
</linearGradient>
<linearGradient id="paint1_linear_43_258" x1="319.973" y1="280.917" x2="330.856" y2="280.917" gradientUnits="userSpaceOnUse">
<stop stop-color="#4166F8"/>
<stop offset="1" stop-color="#8BA2FC"/>
</linearGradient>
<clipPath id="clip0_43_258">
<rect width="496.765" height="425.705" fill="white" transform="translate(2 37)"/>
</clipPath>
</defs>
</svg>
