<svg width="500" height="500" viewBox="0 0 500 500" fill="none" xmlns="http://www.w3.org/2000/svg">
<g clip-path="url(#clip0_1578_35624)">
<path d="M349.937 70.9842C230.937 -3.9278 164.453 155.812 88.687 156.261C10.852 156.723 -9.17801 240.392 61.449 329.493C130.206 416.239 219.977 449.433 275.679 448.005C367.768 445.642 447.679 339.578 404.332 275.344C365.205 217.376 428.532 120.467 349.937 70.9842Z" fill="#F3F5F7"/>
<path d="M348.357 343.531C348.408 343.55 348.46 343.565 348.514 343.578C348.659 343.612 348.809 343.616 348.955 343.592C349.102 343.567 349.243 343.513 349.369 343.434C349.495 343.355 349.604 343.252 349.69 343.131C349.776 343.009 349.837 342.872 349.87 342.727C366.496 270.079 428.712 232.114 429.339 231.739C429.596 231.585 429.782 231.335 429.855 231.043C429.928 230.752 429.883 230.444 429.729 230.186C429.574 229.928 429.324 229.742 429.033 229.669C428.742 229.596 428.433 229.642 428.176 229.796C427.541 230.175 364.502 268.641 347.663 342.221C347.602 342.486 347.638 342.765 347.766 343.005C347.893 343.246 348.103 343.432 348.357 343.531Z" fill="#BACEFE"/>
<path d="M375.232 285.934C375.232 285.934 390.47 282.617 402.552 287.912C410.884 291.607 417.896 297.744 422.662 305.512C422.662 305.512 405.056 308.451 393.918 303.58C382.78 298.709 375.232 285.934 375.232 285.934Z" fill="#BACEFE"/>
<path d="M394.88 259.949C394.88 259.949 407.32 257.272 417.143 261.349C423.848 264.125 429.538 268.894 433.443 275.011C433.443 275.011 419.075 277.403 410.02 273.651C400.965 269.899 394.88 259.949 394.88 259.949Z" fill="#BACEFE"/>
<path d="M387.634 219.677C387.634 219.677 396.171 228.164 397.857 238.034C399.005 244.803 398.016 251.761 395.028 257.941C395.028 257.941 385.737 247.784 384.177 238.684C382.617 229.584 387.634 219.677 387.634 219.677Z" fill="#BACEFE"/>
<path d="M411.257 244.626C411.257 244.626 419.639 239.762 427.686 240.533C433.211 241.072 438.434 243.311 442.634 246.942C442.634 246.942 432.792 252.042 425.374 251.334C417.956 250.626 411.257 244.626 411.257 244.626Z" fill="#BACEFE"/>
<path d="M409.175 211.158C409.175 211.158 414.913 218.966 415.014 227.051C415.073 232.603 413.409 238.036 410.251 242.602C410.251 242.602 404.124 233.364 404.026 225.915C403.928 218.466 409.175 211.158 409.175 211.158Z" fill="#BACEFE"/>
<path d="M426.425 232.405C426.425 232.405 429.37 225.898 435.002 222.605C438.963 220.33 443.457 219.149 448.025 219.184C448.025 219.184 444.25 226.493 439.062 229.533C433.874 232.573 426.425 232.405 426.425 232.405Z" fill="#BACEFE"/>
<path d="M267.015 418.849C216.71 418.849 142.342 387.786 86.4883 317.322C52.6883 274.683 40.7523 229.311 55.3363 198.913C64.8363 179.113 84.4172 168.113 110.468 167.96C134.368 167.819 157.527 148.542 182.042 128.131C223.206 93.859 269.865 55.017 333.912 95.331C373.37 120.172 371.405 158.91 369.506 196.373C368.12 223.716 366.806 249.543 380.606 269.992C394.716 290.898 394.553 318.911 380.159 346.847C358.906 388.098 313.633 417.69 270.059 418.807C269.062 418.836 268.039 418.849 267.015 418.849ZM280.182 80.133C242.652 80.133 211.637 105.959 183.254 129.588C158.471 150.221 135.064 169.709 110.479 169.856C85.1932 170.005 66.2153 180.617 57.0443 199.733C42.7773 229.472 54.6253 274.078 87.9723 316.145C143.425 386.102 217.165 416.951 267.002 416.954C268.02 416.954 269.02 416.941 270.017 416.915C312.927 415.815 357.528 386.646 378.476 345.982C392.544 318.682 392.747 291.369 379.039 271.055C364.885 250.084 366.271 222.73 367.612 196.284C369.485 159.366 371.421 121.192 332.902 96.943C313.904 84.979 296.425 80.133 280.182 80.133Z" fill="#74D3AF"/>
<path d="M177.678 101.041C181.953 101.041 185.418 97.5757 185.418 93.301C185.418 89.0264 181.953 85.561 177.678 85.561C173.404 85.561 169.938 89.0264 169.938 93.301C169.938 97.5757 173.404 101.041 177.678 101.041Z" fill="#BACEFE"/>
<path d="M239.597 111.753C239.597 112.754 239.299 113.733 238.743 114.566C238.186 115.399 237.395 116.048 236.47 116.431C235.545 116.814 234.527 116.914 233.545 116.719C232.562 116.523 231.66 116.041 230.952 115.333C230.244 114.625 229.762 113.722 229.566 112.74C229.371 111.758 229.471 110.74 229.854 109.815C230.237 108.889 230.886 108.098 231.719 107.542C232.551 106.985 233.53 106.688 234.532 106.688C235.875 106.688 237.163 107.222 238.113 108.171C239.063 109.121 239.597 110.41 239.597 111.753Z" fill="#B7C3CF"/>
<path d="M364.155 391.184C364.155 390.033 364.496 388.907 365.136 387.949C365.776 386.992 366.685 386.245 367.749 385.805C368.813 385.364 369.983 385.249 371.113 385.473C372.242 385.698 373.28 386.252 374.094 387.067C374.908 387.881 375.463 388.918 375.687 390.048C375.912 391.177 375.797 392.348 375.356 393.412C374.915 394.476 374.169 395.385 373.211 396.025C372.254 396.664 371.128 397.006 369.976 397.005C368.433 397.005 366.952 396.392 365.861 395.3C364.769 394.209 364.156 392.728 364.155 391.184Z" fill="#BACEFE"/>
<path d="M354.756 101.04C354.756 101.588 354.594 102.123 354.29 102.579C353.986 103.034 353.553 103.389 353.048 103.598C352.542 103.808 351.985 103.863 351.448 103.756C350.911 103.65 350.418 103.386 350.031 102.999C349.644 102.612 349.38 102.119 349.273 101.582C349.166 101.045 349.221 100.488 349.43 99.9824C349.64 99.4766 349.995 99.0442 350.45 98.74C350.905 98.4358 351.44 98.2734 351.988 98.2734C352.722 98.2734 353.426 98.5649 353.945 99.0838C354.464 99.6027 354.755 100.306 354.756 101.04Z" fill="#BACEFE"/>
<path d="M56.8368 315.499C54.7112 315.499 52.6334 314.869 50.866 313.688C49.0987 312.507 47.7212 310.829 46.9078 308.865C46.0944 306.901 45.8817 304.74 46.2964 302.655C46.7112 300.571 47.7348 298.656 49.2379 297.153C50.741 295.65 52.656 294.626 54.7408 294.212C56.8256 293.797 58.9865 294.01 60.9502 294.824C62.914 295.637 64.5924 297.015 65.7731 298.782C66.9539 300.55 67.584 302.628 67.5838 304.753C67.5807 307.603 66.4474 310.334 64.4326 312.349C62.4178 314.363 59.6861 315.496 56.8368 315.499ZM56.8368 295.899C55.0863 295.9 53.3752 296.419 51.9198 297.392C50.4644 298.364 49.3301 299.747 48.6603 301.364C47.9905 302.981 47.8154 304.761 48.157 306.478C48.4987 308.195 49.3417 309.772 50.5796 311.009C51.8175 312.247 53.3946 313.09 55.1115 313.431C56.8284 313.773 58.608 313.597 60.2252 312.928C61.8425 312.258 63.2247 311.123 64.1973 309.668C65.1698 308.212 65.6888 306.501 65.6888 304.75C65.6857 302.404 64.7519 300.155 63.0924 298.496C61.4329 296.837 59.1832 295.904 56.8368 295.902V295.899Z" fill="#BACEFE"/>
<path d="M470.585 216.492C468.459 216.492 466.382 215.862 464.614 214.681C462.847 213.5 461.469 211.822 460.656 209.858C459.843 207.894 459.63 205.733 460.044 203.648C460.459 201.564 461.483 199.649 462.986 198.146C464.489 196.643 466.404 195.619 468.488 195.205C470.573 194.79 472.734 195.003 474.698 195.816C476.661 196.63 478.34 198.007 479.521 199.774C480.702 201.542 481.332 203.619 481.332 205.745C481.329 208.594 480.195 211.326 478.181 213.341C476.166 215.356 473.434 216.489 470.585 216.492ZM470.585 196.892C468.834 196.892 467.123 197.411 465.667 198.384C464.211 199.357 463.077 200.739 462.407 202.357C461.737 203.974 461.561 205.754 461.903 207.471C462.245 209.189 463.088 210.766 464.326 212.004C465.564 213.242 467.141 214.085 468.859 214.426C470.576 214.768 472.356 214.592 473.973 213.922C475.591 213.252 476.973 212.117 477.946 210.661C478.918 209.205 479.437 207.494 479.437 205.743C479.434 203.397 478.5 201.147 476.841 199.488C475.181 197.829 472.931 196.896 470.585 196.894V196.892Z" fill="#BACEFE"/>
<path d="M213.544 87.4162C212.047 87.4166 210.584 86.9732 209.339 86.1419C208.094 85.3107 207.124 84.129 206.551 82.7464C205.978 81.3637 205.828 79.8422 206.12 78.3742C206.412 76.9062 207.132 75.5577 208.19 74.4993C209.248 73.4408 210.597 72.7199 212.065 72.4278C213.533 72.1356 215.054 72.2854 216.437 72.858C217.82 73.4307 219.002 74.4006 219.833 75.645C220.665 76.8895 221.109 78.3525 221.109 79.8492C221.106 81.8551 220.309 83.7783 218.891 85.1969C217.472 86.6154 215.55 87.4136 213.544 87.4162ZM213.544 74.1782C212.422 74.178 211.325 74.5105 210.393 75.1335C209.46 75.7565 208.733 76.6421 208.304 77.6783C207.874 78.7146 207.762 79.8548 207.98 80.955C208.199 82.0551 208.739 83.0657 209.532 83.8589C210.325 84.6521 211.336 85.1923 212.436 85.4112C213.536 85.6301 214.676 85.5178 215.713 85.0886C216.749 84.6595 217.635 83.9326 218.258 83C218.881 82.0674 219.214 80.9709 219.214 79.8492C219.212 78.3459 218.614 76.9047 217.551 75.8416C216.488 74.7785 215.047 74.1803 213.544 74.1782Z" fill="#BACEFE"/>
<path d="M335.663 363.352H95.0592C90.594 363.34 86.3158 361.557 83.1632 358.395C80.0106 355.233 78.2408 350.949 78.2422 346.484V177.698C78.2403 173.232 80.0097 168.948 83.1623 165.785C86.3149 162.622 90.5933 160.838 95.0592 160.825H335.659C340.126 160.838 344.405 162.621 347.559 165.785C350.712 168.949 352.482 173.234 352.479 177.701V346.484C352.481 350.949 350.711 355.233 347.559 358.395C344.406 361.557 340.128 363.34 335.663 363.352ZM95.0592 163.646C91.3399 163.657 87.7766 165.142 85.1509 167.776C82.5252 170.411 81.0516 173.979 81.0532 177.698V346.484C81.0516 350.203 82.5253 353.771 85.151 356.405C87.7767 359.039 91.34 360.524 95.0592 360.534H335.659C339.378 360.524 342.941 359.039 345.566 356.405C348.192 353.771 349.666 350.203 349.664 346.484V177.701C349.665 173.981 348.191 170.412 345.564 167.777C342.938 165.142 339.374 163.657 335.653 163.646H95.0592Z" fill="#B7C3CF"/>
<path d="M94.5192 163.638H336.666C340.155 163.638 343.501 165.024 345.967 167.491C348.434 169.958 349.82 173.304 349.82 176.792V347.392C349.818 350.88 348.432 354.223 345.965 356.689C343.498 359.154 340.154 360.538 336.666 360.538H94.5192C91.0315 360.538 87.6866 359.153 85.22 356.687C82.7535 354.221 81.3673 350.877 81.3662 347.389V176.791C81.3662 173.303 82.752 169.957 85.2186 167.491C87.6853 165.024 91.0308 163.638 94.5192 163.638V163.638Z" fill="white"/>
<path d="M280.363 198.529H236.173L223.153 177.984H257.886L280.363 198.529Z" fill="white"/>
<path d="M280.363 199.477H236.173C236.013 199.477 235.856 199.436 235.716 199.359C235.577 199.282 235.459 199.171 235.373 199.036L222.352 178.484C222.261 178.341 222.211 178.176 222.206 178.006C222.2 177.837 222.241 177.669 222.322 177.521C222.404 177.372 222.524 177.248 222.67 177.162C222.816 177.075 222.982 177.029 223.152 177.029H257.885C258.122 177.03 258.35 177.118 258.525 177.277L281.002 197.824C281.143 197.953 281.242 198.122 281.286 198.308C281.329 198.494 281.316 198.689 281.247 198.867C281.178 199.045 281.056 199.198 280.899 199.306C280.741 199.414 280.554 199.472 280.363 199.472V199.477ZM236.694 197.577H277.925L257.525 178.926H224.875L236.694 197.577Z" fill="#0C4BE3"/>
<path d="M136.854 177.984L103.284 198.531H59.0771L96.2421 177.984H136.854Z" fill="white"/>
<path d="M103.284 199.477H59.077C58.8666 199.478 58.6621 199.408 58.4957 199.279C58.3292 199.151 58.2104 198.97 58.1579 198.767C58.1054 198.563 58.1222 198.347 58.2057 198.154C58.2892 197.961 58.4346 197.801 58.619 197.7L95.784 177.153C95.924 177.075 96.0817 177.034 96.242 177.034H136.854C137.06 177.034 137.261 177.102 137.426 177.227C137.59 177.351 137.71 177.526 137.766 177.725C137.822 177.924 137.811 178.135 137.736 178.327C137.661 178.52 137.525 178.682 137.349 178.79L103.779 199.337C103.63 199.428 103.459 199.477 103.284 199.477ZM62.75 197.577H103.017L133.49 178.926H96.49L62.75 197.577Z" fill="#0C4BE3"/>
<path d="M206.191 177.984L191.852 198.531H147.575L171.325 177.984H206.191Z" fill="white"/>
<path d="M191.852 199.477H147.575C147.382 199.477 147.193 199.419 147.034 199.308C146.875 199.198 146.754 199.042 146.687 198.861C146.619 198.68 146.609 198.482 146.657 198.295C146.705 198.108 146.809 197.939 146.955 197.813L170.706 177.266C170.878 177.117 171.098 177.034 171.326 177.034H206.19C206.364 177.034 206.534 177.082 206.682 177.171C206.83 177.261 206.951 177.39 207.031 177.543C207.111 177.697 207.148 177.87 207.137 178.043C207.126 178.215 207.067 178.382 206.968 178.524L192.625 199.071C192.538 199.196 192.423 199.298 192.288 199.368C192.154 199.439 192.004 199.476 191.852 199.477ZM150.118 197.577H191.358L204.374 178.926H171.674L150.118 197.577Z" fill="#0C4BE3"/>
<path d="M191.852 198.529V211.508C191.852 211.722 191.852 211.924 191.831 212.138C191.658 217.889 189.252 223.347 185.123 227.354C180.994 231.361 175.466 233.602 169.712 233.602C163.958 233.602 158.431 231.361 154.302 227.354C150.172 223.347 147.766 217.889 147.593 212.138C147.575 211.924 147.575 211.722 147.575 211.508V198.529H191.852Z" fill="white"/>
<path d="M169.719 234.563C163.704 234.6 157.916 232.273 153.6 228.083C149.284 223.893 146.786 218.176 146.645 212.163C146.628 211.976 146.627 211.749 146.627 211.507V198.529C146.627 198.405 146.651 198.281 146.699 198.166C146.746 198.051 146.816 197.946 146.904 197.858C146.992 197.77 147.097 197.701 147.212 197.653C147.327 197.605 147.45 197.581 147.575 197.581H191.852C191.976 197.581 192.1 197.606 192.215 197.653C192.33 197.701 192.434 197.771 192.522 197.859C192.61 197.947 192.68 198.051 192.727 198.166C192.775 198.281 192.799 198.405 192.799 198.529V211.508C192.799 211.753 192.799 211.983 192.774 212.228C192.624 218.229 190.124 223.932 185.812 228.109C181.501 232.285 175.722 234.603 169.719 234.563ZM148.519 199.477V211.508C148.519 211.694 148.519 211.87 148.534 212.057C148.683 217.569 150.975 222.806 154.924 226.655C158.872 230.503 164.166 232.66 169.68 232.668C175.194 232.675 180.494 230.532 184.453 226.694C188.412 222.855 190.718 217.625 190.881 212.113C190.902 211.865 190.901 211.691 190.901 211.508V199.477H148.519Z" fill="#0C4BE3"/>
<path d="M171.524 177.984L147.576 198.531H103.276L136.711 177.984H171.524Z" fill="white"/>
<path d="M147.58 199.477H103.28C103.073 199.478 102.872 199.411 102.707 199.287C102.542 199.162 102.422 198.988 102.365 198.789C102.309 198.59 102.319 198.379 102.393 198.186C102.468 197.993 102.604 197.831 102.78 197.722L136.215 177.175C136.365 177.083 136.538 177.034 136.715 177.034H171.525C171.718 177.034 171.907 177.094 172.066 177.204C172.225 177.315 172.346 177.472 172.413 177.653C172.48 177.835 172.49 178.032 172.442 178.22C172.393 178.407 172.288 178.575 172.142 178.701L148.194 199.248C148.023 199.395 147.805 199.476 147.58 199.477ZM106.625 197.584H147.225L168.964 178.933H136.98L106.625 197.584Z" fill="#B7C3CF"/>
<path d="M368.894 198.529H324.643L292.311 177.984H332.711L368.894 198.529Z" fill="white"/>
<path d="M368.894 199.477H324.643C324.462 199.478 324.286 199.426 324.135 199.328L291.803 178.784C291.63 178.674 291.497 178.511 291.424 178.319C291.352 178.127 291.344 177.917 291.401 177.72C291.458 177.523 291.578 177.349 291.742 177.226C291.906 177.103 292.105 177.036 292.311 177.036H332.706C332.87 177.036 333.032 177.079 333.175 177.16L369.362 197.707C369.543 197.811 369.686 197.971 369.767 198.164C369.848 198.357 369.863 198.571 369.809 198.773C369.756 198.975 369.637 199.154 369.472 199.282C369.306 199.41 369.103 199.479 368.894 199.479V199.477ZM324.919 197.577H365.306L332.457 178.926H295.568L324.919 197.577Z" fill="#0C4BE3"/>
<path d="M223.693 177.984L236.688 198.531H192.325L206.662 177.984H223.693Z" fill="white"/>
<path d="M103.303 198.529V211.508C103.303 211.722 103.303 211.924 103.282 212.138C103.109 217.889 100.703 223.347 96.5743 227.353C92.4452 231.36 86.9179 233.601 81.1644 233.601C75.4108 233.601 69.8835 231.36 65.7545 227.353C61.6254 223.347 59.2193 217.889 59.0464 212.138C59.0264 211.924 59.0264 211.722 59.0264 211.508V198.529H103.303Z" fill="white"/>
<path d="M81.1701 234.563C75.155 234.602 69.3655 232.275 65.0497 228.085C60.7339 223.895 58.2373 218.177 58.0981 212.163C58.0791 211.982 58.0781 211.752 58.0781 211.507V198.529C58.078 198.405 58.1024 198.281 58.15 198.166C58.1976 198.051 58.2674 197.946 58.3555 197.858C58.4436 197.77 58.5481 197.701 58.6632 197.653C58.7783 197.605 58.9016 197.581 59.0261 197.581H103.303C103.428 197.581 103.551 197.606 103.666 197.653C103.781 197.701 103.885 197.771 103.973 197.859C104.061 197.947 104.131 198.051 104.178 198.166C104.226 198.281 104.25 198.405 104.25 198.529V211.508C104.254 211.75 104.245 211.991 104.224 212.232C104.073 218.233 101.573 223.934 97.262 228.11C92.9506 232.286 87.1723 234.603 81.1701 234.563ZM59.9701 199.477V211.508C59.9701 211.691 59.9701 211.865 59.9861 212.049C60.1338 217.561 62.4249 222.798 66.3727 226.647C70.3205 230.496 75.6137 232.655 81.1275 232.663C86.6413 232.671 91.941 230.529 95.9004 226.692C99.8598 222.854 102.167 217.624 102.331 212.113C102.349 211.912 102.356 211.71 102.352 211.508V199.477H59.9701Z" fill="#0C4BE3"/>
<path d="M147.576 198.529V211.508C147.576 211.722 147.576 211.924 147.555 212.138C147.382 217.889 144.976 223.347 140.847 227.353C136.718 231.36 131.19 233.601 125.437 233.601C119.683 233.601 114.156 231.36 110.027 227.353C105.898 223.347 103.492 217.889 103.319 212.138C103.304 211.924 103.304 211.722 103.304 211.508V198.529H147.576Z" fill="white"/>
<path d="M125.441 234.563C119.427 234.601 113.637 232.275 109.322 228.085C105.007 223.894 102.51 218.176 102.371 212.163C102.356 211.963 102.355 211.744 102.355 211.507V198.529C102.355 198.405 102.38 198.281 102.427 198.166C102.475 198.051 102.545 197.946 102.633 197.858C102.721 197.77 102.825 197.701 102.941 197.653C103.056 197.605 103.179 197.581 103.303 197.581H147.575C147.7 197.581 147.823 197.606 147.938 197.653C148.053 197.701 148.158 197.771 148.245 197.859C148.333 197.947 148.403 198.051 148.451 198.166C148.498 198.281 148.523 198.405 148.522 198.529V211.508C148.522 211.753 148.522 211.983 148.497 212.228C148.349 218.23 145.85 223.934 141.538 228.112C137.226 232.289 131.445 234.606 125.441 234.563ZM104.25 199.477V211.508C104.25 211.699 104.25 211.878 104.263 212.069C104.418 217.578 106.714 222.809 110.663 226.653C114.612 230.496 119.903 232.649 125.414 232.655C130.925 232.661 136.221 230.519 140.178 226.683C144.135 222.848 146.441 217.621 146.607 212.113C146.628 211.865 146.627 211.691 146.627 211.508V199.477H104.25Z" fill="#B7C3CF"/>
<path d="M280.401 198.529V211.508C280.401 211.722 280.401 211.924 280.381 212.138C280.208 217.889 277.802 223.347 273.673 227.353C269.544 231.36 264.017 233.601 258.263 233.601C252.509 233.601 246.982 231.36 242.853 227.353C238.724 223.347 236.318 217.889 236.145 212.138C236.124 211.924 236.124 211.722 236.124 211.508V198.529H280.401Z" fill="white"/>
<path d="M258.268 234.563C252.253 234.601 246.464 232.275 242.148 228.085C237.832 223.895 235.336 218.177 235.197 212.163C235.178 211.982 235.177 211.752 235.177 211.507V198.529C235.177 198.405 235.201 198.281 235.249 198.166C235.296 198.051 235.366 197.947 235.454 197.859C235.542 197.771 235.646 197.701 235.761 197.653C235.876 197.606 235.999 197.581 236.124 197.581H280.402C280.526 197.581 280.649 197.606 280.764 197.653C280.879 197.701 280.984 197.771 281.072 197.859C281.16 197.947 281.229 198.051 281.277 198.166C281.325 198.281 281.349 198.405 281.349 198.529V211.508C281.349 211.753 281.349 211.983 281.324 212.228C281.173 218.229 278.673 223.932 274.361 228.109C270.05 232.286 264.271 234.603 258.268 234.563ZM237.068 199.477V211.508C237.068 211.691 237.068 211.865 237.084 212.049C237.227 217.564 239.516 222.806 243.464 226.659C247.413 230.512 252.709 232.672 258.226 232.681C263.743 232.689 269.045 230.545 273.005 226.703C276.965 222.862 279.27 217.628 279.43 212.113C279.451 211.865 279.45 211.691 279.45 211.508V199.477H237.068Z" fill="#0C4BE3"/>
<path d="M236.063 198.529V211.508C236.063 211.722 236.063 211.924 236.042 212.138C235.869 217.889 233.463 223.347 229.334 227.353C225.205 231.36 219.678 233.601 213.924 233.601C208.171 233.601 202.643 231.36 198.514 227.353C194.385 223.347 191.979 217.889 191.806 212.138C191.785 211.924 191.785 211.722 191.785 211.508V198.529H236.063Z" fill="white"/>
<path d="M213.925 234.563C207.91 234.601 202.121 232.275 197.805 228.085C193.49 223.895 190.993 218.177 190.854 212.163C190.835 211.982 190.834 211.752 190.834 211.507V198.529C190.834 198.405 190.858 198.281 190.906 198.166C190.953 198.051 191.023 197.946 191.111 197.858C191.199 197.77 191.304 197.701 191.419 197.653C191.534 197.605 191.657 197.581 191.782 197.581H236.059C236.183 197.581 236.307 197.606 236.422 197.653C236.537 197.701 236.641 197.771 236.729 197.859C236.817 197.947 236.887 198.051 236.934 198.166C236.982 198.281 237.006 198.405 237.006 198.529V211.508C237.006 211.753 237.006 211.983 236.981 212.228C236.83 218.229 234.33 223.932 230.019 228.109C225.707 232.286 219.928 234.603 213.925 234.563ZM192.725 199.477V211.508C192.725 211.691 192.725 211.865 192.741 212.049C192.884 217.564 195.173 222.806 199.122 226.659C203.07 230.512 208.366 232.672 213.883 232.681C219.4 232.689 224.702 230.545 228.662 226.703C232.622 222.862 234.927 217.628 235.087 212.113C235.108 211.865 235.107 211.691 235.107 211.508V199.477H192.725Z" fill="#B7C3CF"/>
<path d="M324.705 198.529H280.325L257.798 177.984H292.492L324.705 198.529Z" fill="white"/>
<path d="M324.705 199.477H280.325C280.089 199.477 279.861 199.389 279.687 199.229L257.159 178.684C257.018 178.555 256.919 178.387 256.876 178.2C256.832 178.014 256.846 177.819 256.915 177.641C256.984 177.463 257.105 177.31 257.263 177.202C257.42 177.094 257.607 177.036 257.798 177.035H292.492C292.672 177.035 292.849 177.087 293.001 177.184L325.215 197.731C325.388 197.842 325.52 198.005 325.592 198.197C325.664 198.389 325.672 198.599 325.615 198.796C325.557 198.993 325.437 199.166 325.273 199.289C325.109 199.412 324.91 199.478 324.705 199.478V199.477ZM280.697 197.577H321.457L292.215 178.93H260.243L280.697 197.577Z" fill="#B7C3CF"/>
<path d="M191.694 198.484L206.16 177.646H223.175L236.365 198.54L191.694 198.484Z" stroke="#B7C3CF" stroke-width="1.6" stroke-linecap="round" stroke-linejoin="round"/>
<path d="M368.952 198.529V211.508C368.952 211.722 368.952 211.924 368.931 212.138C368.758 217.889 366.352 223.347 362.222 227.354C358.093 231.361 352.565 233.602 346.812 233.602C341.058 233.602 335.53 231.361 331.401 227.354C327.272 223.347 324.866 217.889 324.693 212.138C324.68 211.924 324.68 211.722 324.68 211.508V198.529H368.952Z" fill="white"/>
<path d="M346.817 234.563C340.803 234.6 335.014 232.272 330.699 228.083C326.383 223.893 323.886 218.176 323.744 212.163C323.732 211.963 323.731 211.74 323.731 211.507V198.529C323.731 198.405 323.756 198.281 323.803 198.166C323.851 198.051 323.921 197.946 324.009 197.858C324.097 197.77 324.201 197.701 324.316 197.653C324.432 197.605 324.555 197.581 324.679 197.581H368.951C369.076 197.581 369.199 197.606 369.314 197.653C369.429 197.701 369.533 197.771 369.621 197.859C369.709 197.947 369.779 198.051 369.827 198.166C369.874 198.281 369.899 198.405 369.898 198.529V211.508C369.898 211.753 369.898 211.983 369.873 212.228C369.723 218.229 367.223 223.932 362.911 228.109C358.599 232.286 352.82 234.603 346.817 234.563ZM325.625 199.477V211.508C325.625 211.708 325.625 211.886 325.637 212.081C325.789 217.593 328.085 222.828 332.035 226.674C335.986 230.52 341.281 232.674 346.794 232.678C352.308 232.682 357.606 230.536 361.563 226.696C365.519 222.856 367.822 217.624 367.982 212.113C368.003 211.865 368.002 211.691 368.002 211.508V199.477H325.625Z" fill="#0C4BE3"/>
<path d="M59.0464 212.138H59.0254V211.508C59.0254 211.722 59.0254 211.924 59.0464 212.138Z" fill="white"/>
<path d="M324.679 198.529V211.508C324.679 211.722 324.679 211.924 324.658 212.138C324.49 217.893 322.085 223.355 317.955 227.366C313.825 231.376 308.295 233.62 302.538 233.62C296.781 233.62 291.251 231.376 287.121 227.366C282.991 223.355 280.586 217.893 280.417 212.138C280.401 211.924 280.401 211.722 280.401 211.508V198.529H324.679Z" fill="white"/>
<path d="M302.54 234.563C296.525 234.601 290.737 232.274 286.421 228.084C282.106 223.894 279.61 218.176 279.47 212.163C279.455 211.963 279.454 211.744 279.454 211.507V198.529C279.454 198.405 279.478 198.281 279.526 198.166C279.574 198.051 279.643 197.946 279.731 197.858C279.82 197.77 279.924 197.701 280.039 197.653C280.154 197.605 280.278 197.581 280.402 197.581H324.679C324.804 197.581 324.927 197.606 325.042 197.653C325.157 197.701 325.261 197.771 325.349 197.859C325.437 197.947 325.507 198.051 325.554 198.166C325.602 198.281 325.626 198.405 325.626 198.529V211.508C325.626 211.753 325.626 211.983 325.601 212.228C325.45 218.23 322.949 223.933 318.636 228.11C314.324 232.287 308.544 234.604 302.54 234.563ZM281.349 199.477V211.508C281.349 211.699 281.349 211.878 281.362 212.069C281.512 217.581 283.806 222.818 287.756 226.665C291.706 230.513 297.001 232.669 302.515 232.674C308.029 232.68 313.329 230.535 317.287 226.696C321.245 222.856 323.549 217.625 323.711 212.113C323.732 211.865 323.731 211.691 323.731 211.508V199.477H281.349Z" fill="#B7C3CF"/>
<path d="M103.303 211.508V212.138H103.282C103.303 211.924 103.303 211.722 103.303 211.508Z" fill="white"/>
<path d="M188.037 360.604H187.037V267.23C187.033 264.181 185.821 261.258 183.665 259.102C181.509 256.946 178.586 255.734 175.537 255.73H128.373C125.324 255.734 122.401 256.946 120.245 259.102C118.09 261.258 116.877 264.181 116.873 267.23V360.604H115.873V267.23C115.877 263.916 117.195 260.739 119.538 258.395C121.882 256.052 125.059 254.734 128.373 254.73H175.537C178.851 254.734 182.028 256.052 184.372 258.395C186.715 260.739 188.033 263.916 188.037 267.23V360.604Z" fill="#0D53FC"/>
<path d="M324.293 324.951H216.164C212.85 324.947 209.673 323.629 207.329 321.286C204.986 318.942 203.668 315.765 203.664 312.451V267.537C203.668 264.223 204.986 261.046 207.33 258.703C209.673 256.359 212.85 255.041 216.164 255.037H324.293C327.607 255.041 330.784 256.359 333.128 258.702C335.471 261.046 336.789 264.223 336.793 267.537V312.451C336.789 315.765 335.471 318.942 333.128 321.286C330.784 323.629 327.607 324.947 324.293 324.951ZM216.164 256.037C213.115 256.041 210.192 257.254 208.036 259.409C205.881 261.565 204.668 264.488 204.664 267.537V312.451C204.668 315.5 205.881 318.423 208.036 320.579C210.192 322.735 213.115 323.947 216.164 323.951H324.293C327.342 323.948 330.265 322.735 332.421 320.579C334.577 318.423 335.79 315.5 335.793 312.451V267.537C335.79 264.488 334.577 261.565 332.421 259.409C330.265 257.253 327.342 256.041 324.293 256.037H216.164Z" fill="#0D53FC"/>
<path d="M187.884 360.15C187.591 354.219 188.664 348.3 191.021 342.85C193.975 336.108 196.821 332.864 199.102 333.53C201.383 334.196 199.482 338.663 201.193 338.378C202.904 338.093 208.893 332.222 213.647 333.446C218.401 334.67 214.598 338.695 212.031 341.721C209.464 344.747 214.693 342.292 215.073 345.603C215.779 351.755 196.155 353.875 187.884 360.15Z" fill="#BACEFE"/>
<path d="M210.796 336.763C210.796 336.763 197.582 342.942 187.885 360.15" stroke="#9BB1DD" stroke-miterlimit="10"/>
<path d="M198.342 337.919C198.342 337.919 196.894 340.946 196.762 347.886C201.344 346.693 206.06 346.087 210.796 346.084" stroke="#9BB1DD" stroke-miterlimit="10"/>
<path d="M201.868 342.935C204.556 341.554 207.392 340.48 210.321 339.735" stroke="#9BB1DD" stroke-miterlimit="10"/>
<path d="M193.443 343.608C192.241 347.205 191.515 350.945 191.284 354.731C195.1 352.848 199.129 351.432 203.284 350.513" stroke="#9BB1DD" stroke-miterlimit="10"/>
<path d="M188.454 357.678C188.454 357.678 182.754 340.788 187.884 326.749C187.884 326.749 193.588 337.143 188.454 357.678Z" fill="#BACEFE"/>
<path d="M188.169 332.108C188.912 340.612 189.007 349.16 188.454 357.678" stroke="#9BB1DD" stroke-miterlimit="10"/>
<path d="M113.975 360.175C113.975 360.175 103.707 348.384 99.4249 346.584C95.1429 344.784 94.3329 346.309 92.8659 348.2C92.2719 348.966 87.3519 346.774 85.8309 350.482C84.3099 354.19 87.4929 355.167 91.0589 356.182C93.7209 356.942 88.4929 358.558 90.2989 361.6C92.1049 364.642 97.2429 364.168 113.975 360.175Z" fill="#BACEFE"/>
<path d="M88.0254 351.49C88.0254 351.49 95.8254 350.859 113.979 360.175" stroke="#9BB1DD" stroke-miterlimit="10"/>
<path d="M93.7256 360.175C99.7401 359.202 105.84 358.856 111.926 359.144C111.926 359.144 105.231 352.095 97.5306 348.862" stroke="#9BB1DD" stroke-miterlimit="10"/>
<path d="M116.953 360.569C116.953 360.569 115.622 345.169 109.142 335.711C104.834 329.713 99.2842 324.712 92.8701 321.051C92.8701 321.051 93.1551 335.099 99.5241 345.742C105.893 356.385 116.953 360.569 116.953 360.569Z" fill="#BACEFE"/>
<path d="M97.5244 328.325C106.117 337.646 112.726 348.616 116.949 360.569" stroke="#9BB1DD" stroke-miterlimit="10"/>
<path d="M96.0068 332.334C99.4194 334.075 102.654 336.145 105.665 338.513C105.665 338.513 104.919 332.906 102.808 329.719" stroke="#9BB1DD" stroke-miterlimit="10"/>
<path d="M99.71 340.81C103.049 341.718 106.297 342.936 109.41 344.447" stroke="#9BB1DD" stroke-miterlimit="10"/>
<path d="M110.172 339.654C111.019 342.923 111.696 346.234 112.201 349.572C109.157 348.413 106.021 347.514 102.825 346.884" stroke="#9BB1DD" stroke-miterlimit="10"/>
<path d="M107.513 351.918C110.532 353.192 113.299 354.995 115.684 357.242" stroke="#9BB1DD" stroke-miterlimit="10"/>
<path d="M81.1194 259.698C81.3327 258.188 81.7041 256.705 82.2274 255.273C82.7883 254.133 83.6839 253.191 84.7944 252.573C85.1667 253.699 85.8027 254.719 86.6494 255.549C87.7314 256.404 88.7281 257.361 89.6254 258.408C89.4704 259.22 87.9634 264.608 84.6924 266.037C84.8451 266.794 84.9055 267.566 84.8724 268.337C85.7994 268.994 88.6594 268.955 88.6594 268.955C88.6594 268.955 92.8754 270.722 93.9194 271.687C94.9634 272.652 96.3584 264.853 96.3574 262.699C96.3574 258.238 95.2574 256.063 93.1054 253.529C91.1424 251.215 89.4604 251.308 88.0944 250.095C86.2854 248.484 85.6484 246.484 81.5254 246.984C78.9134 247.303 76.3534 250.227 74.9644 254.284C72.5024 261.473 69.6174 260.271 68.0334 264.56C67.0395 267.643 66.573 270.872 66.6534 274.111L79.5774 266.784L79.8474 261.954C79.8474 261.954 77.5744 259.454 78.7654 257.723C79.2064 257.272 81.1194 259.698 81.1194 259.698Z" fill="#032C58"/>
<path d="M66.5604 274.901L78.5874 266.757L78.8654 261.801L78.8194 261.76C78.7944 261.736 76.3314 259.445 77.7504 257.706C77.7687 257.683 77.7924 257.664 77.8194 257.652C77.8464 257.64 77.8759 257.635 77.9054 257.637C78.3824 257.66 79.3794 258.892 79.8944 259.663L80.0834 259.946L80.1304 259.61C80.3441 258.112 80.7127 256.639 81.2304 255.217C81.78 254.104 82.655 253.184 83.7394 252.579C84.0574 252.496 87.0944 251.646 87.3394 250.595C87.3647 250.464 87.3521 250.329 87.303 250.205C87.2539 250.081 87.1704 249.973 87.0624 249.895C86.7068 249.57 86.3677 249.227 86.0464 248.868C84.8464 247.574 83.7214 246.351 80.3914 246.757C77.7694 247.078 75.1524 249.978 73.7244 254.146C73.0066 256.732 71.5233 259.04 69.4694 260.768C68.2555 261.713 67.3292 262.977 66.7944 264.419C65.2164 268.695 66.5044 274.659 66.5174 274.719L66.5604 274.901ZM78.3364 266.614L66.7364 274.471C66.5364 273.429 65.6454 268.286 67.0414 264.506C67.5577 263.102 68.4587 261.872 69.6414 260.957C71.7302 259.202 73.239 256.856 73.9694 254.227C75.3644 250.152 77.8974 247.32 80.4244 247.011C83.6134 246.621 84.6544 247.742 85.8564 249.041C86.1764 249.387 86.5074 249.741 86.8914 250.086C86.964 250.134 87.0214 250.202 87.0568 250.282C87.0922 250.362 87.1042 250.45 87.0914 250.536C86.9114 251.3 84.5434 252.097 83.6464 252.336C82.4933 252.962 81.5654 253.933 80.9934 255.114C80.4954 256.452 80.1375 257.837 79.9254 259.249C79.5104 258.667 78.5414 257.405 77.9184 257.375C77.8487 257.371 77.7793 257.385 77.7157 257.413C77.6521 257.442 77.5961 257.485 77.5524 257.539C76.0924 259.327 78.2524 261.567 78.6004 261.904L78.3364 266.614Z" fill="#032C58"/>
<path d="M79.6586 261.826L79.6256 266.465L75.4736 268.476L84.3946 278.596L88.9606 269.552L85.1496 268.443L84.6496 265.394L79.6586 261.826Z" fill="#FF8961"/>
<path d="M80.8397 259.167C79.9987 258.077 77.6657 255.922 78.4947 259.782C79.0467 262.349 84.0847 267.053 85.4337 266.153C89.5177 263.43 89.8767 258.664 89.4607 257.982C88.7208 257.005 87.8244 256.157 86.8077 255.472C86.0029 254.552 85.3187 253.533 84.7717 252.44C84.7717 252.44 81.9567 254.05 81.7157 256.301C81.5037 258.29 81.0807 259.479 80.8397 259.167Z" fill="#FF8961"/>
<path d="M84.5553 266.512C84.6157 266.513 84.6742 266.49 84.7178 266.448C84.7614 266.406 84.7866 266.349 84.7877 266.288C84.7889 266.228 84.7661 266.17 84.7242 266.126C84.6822 266.082 84.6247 266.057 84.5642 266.056C83.4432 266.009 81.3903 263.934 80.6943 263.139C80.653 263.099 80.5983 263.076 80.5408 263.074C80.4834 263.073 80.4275 263.093 80.3842 263.131C80.3408 263.168 80.3133 263.221 80.307 263.278C80.3008 263.335 80.3162 263.393 80.3502 263.439C80.4582 263.562 83.0002 266.446 84.5452 266.511L84.5553 266.512Z" fill="#120610"/>
<path d="M66.2903 351.312C66.2903 351.312 48.3323 379.212 47.8443 381.141C47.3563 383.07 49.3513 386.141 49.3513 386.141C49.3513 386.141 47.0513 387.434 46.2833 387.724C44.0673 383.824 41.2213 382.979 41.0903 381.897C40.9063 380.387 43.5183 378.315 44.5113 376.823C45.5043 375.331 56.9203 348.005 56.9203 348.005L66.2903 351.312Z" fill="#FF8961"/>
<path d="M80.5928 354.478C80.5928 354.478 83.7118 379.286 84.3858 382.816C85.0598 386.346 85.4218 391.65 85.4218 391.65L92.6298 391.109L94.2698 387.226L89.6438 386.336L90.3888 353.472L80.5928 354.478Z" fill="#FF8961"/>
<path d="M83.8818 391.976L103.882 391.394C103.882 391.394 99.1568 386.804 96.0668 386.286C92.9768 385.768 92.8668 390.619 92.8668 390.619L85.0958 390.53L83.8818 391.976Z" fill="#032C58"/>
<path d="M36.1582 386.284L55.3652 391.884C55.3652 391.884 52.2842 386.062 49.5032 384.618C46.7222 383.174 45.1242 387.755 45.1242 387.755L37.7592 385.284L36.1582 386.284Z" fill="#032C58"/>
<path d="M129.747 282.692C129.747 282.692 127.1 284.538 126.69 284.772C126.28 285.006 125.01 285.864 125.01 285.864L122.61 293.199C122.61 293.199 124.123 292.772 124.821 292.665C125.483 292.676 126.136 292.513 126.715 292.192C127.205 291.785 128.983 290.485 129.25 290.335C129.517 290.185 130.643 290.084 130.761 289.927C131.043 289.234 131.146 288.481 131.061 287.737C131.021 287.573 129.978 284.837 129.978 284.837C129.978 284.837 134.285 282.637 134.261 282.06C134.24 281.885 134.17 281.719 134.058 281.583C133.946 281.447 133.797 281.346 133.629 281.291L129.747 282.692Z" fill="#E87D58"/>
<path d="M118.262 291.033L121.336 289.165L124.377 286.241L125.177 285.765L127.687 285.83L129.269 287.662C129.269 287.662 129.069 288.447 126.894 287.531C126.226 287.251 125.567 289.549 125.567 289.549L123.538 291.09L123.244 293.143L120.368 295.665L118.262 291.033Z" fill="#FF8961"/>
<path d="M69.3832 298.17L69.5112 290.178L65.7252 293.046C65.7252 293.046 63.7572 293.981 63.4482 299.403C63.1392 304.825 61.7482 302.048 58.5422 304.144C56.3422 305.581 54.5782 310.567 54.5782 310.567L49.5202 310.067C49.5202 310.067 51.3942 304.214 51.0622 304.057C48.3112 302.757 47.2332 303.481 48.9272 298.842C50.6212 294.203 53.2912 293.502 55.6272 290.409C57.9632 287.316 64.3952 276.582 64.3952 276.582C64.3952 276.582 68.3952 272.11 70.0602 270.748C71.7252 269.386 77.9512 267.299 77.9512 267.299C77.9512 267.299 83.4732 276.584 83.9512 276.299C84.5512 275.943 85.7052 267.983 85.7052 267.983C85.7052 267.983 91.9152 269.438 94.2302 272.013C96.5452 274.588 99.7072 282.968 101.459 285.139C103.211 287.31 102.871 292.339 107.444 289.527C112.017 286.715 112.059 287.052 113.714 290.295C114.268 291.378 120.554 287.674 120.554 287.674L124.596 292.497C124.596 292.497 116.664 297.543 116.096 298.586C113.211 303.919 114.185 304.418 109.474 304.145C104.763 303.872 102.409 305.551 100.225 302.345C98.0412 299.139 92.7252 292.984 92.7252 292.984L91.8852 298.884L96.5722 351.046C96.5722 351.046 96.1652 354.066 84.1582 355.581C72.1512 357.096 66.1112 356.874 60.9242 352.691C57.7738 350.158 54.3029 348.052 50.6012 346.427C50.6012 346.427 68.8172 301.309 69.3832 298.17Z" fill="#74D3AF"/>
<path d="M92.6832 293.228C92.7419 293.224 92.7982 293.203 92.8452 293.167C92.8922 293.132 92.928 293.083 92.9482 293.028C92.9632 292.987 94.4652 288.962 94.9802 287.442C95.4232 286.124 94.6462 284.77 93.7462 283.203C93.4972 282.768 93.2372 282.316 92.9912 281.842C92.293 280.27 91.8844 278.585 91.7852 276.868C91.7833 276.828 91.7735 276.788 91.7564 276.752C91.7392 276.716 91.7151 276.683 91.6853 276.656C91.6556 276.629 91.6208 276.608 91.5829 276.594C91.545 276.581 91.5049 276.575 91.4647 276.577C91.4245 276.578 91.3851 276.588 91.3487 276.605C91.3123 276.622 91.2796 276.647 91.2526 276.676C91.2255 276.706 91.2046 276.741 91.1909 276.779C91.1773 276.817 91.1713 276.857 91.1732 276.897C91.2727 278.703 91.705 280.475 92.4482 282.124C92.6972 282.605 92.9612 283.066 93.2162 283.508C94.0412 284.947 94.7542 286.189 94.3992 287.246C93.8892 288.757 92.3882 292.774 92.3732 292.814C92.345 292.89 92.3481 292.974 92.3819 293.048C92.4156 293.122 92.4772 293.179 92.5532 293.208C92.5945 293.224 92.6389 293.231 92.6832 293.228Z" fill="white"/>
<path d="M47.7523 323.006C47.1283 322.839 45.4523 318.796 45.3993 318.299C45.2193 316.706 48.7213 313.487 48.9433 312.958C49.1653 312.429 49.8273 310.094 49.8273 310.094L54.0273 310.511L52.3713 313.759C52.2021 314.866 52.0986 315.982 52.0613 317.101C51.8463 318.195 51.5109 319.262 51.0613 320.282C51.0613 320.282 52.2613 319.917 52.3113 320.512C52.3613 321.107 50.8713 321.636 50.8713 321.636C50.8713 321.636 50.1713 323.527 49.4843 323.658C48.7973 323.789 48.7573 322.633 48.7573 322.633C48.7573 322.633 48.0013 323.074 47.7523 323.006ZM49.1683 320.442L49.3603 319.022C49.3603 319.022 48.6873 318.502 48.4433 318.668C48.1363 318.878 48.3723 320.716 48.3723 320.716L49.1683 320.442Z" fill="#FF8961"/>
<path d="M91.2068 299.084L91.2188 298.695L69.9768 297.98L69.9648 298.369L91.2068 299.084Z" fill="white"/>
<path d="M215.267 264.09H240.444C241.029 264.09 241.61 264.205 242.151 264.43C242.692 264.654 243.184 264.982 243.598 265.396C244.012 265.81 244.341 266.302 244.565 266.843C244.789 267.385 244.905 267.965 244.905 268.55V298.377C244.905 298.963 244.789 299.543 244.565 300.084C244.341 300.626 244.012 301.117 243.598 301.532C243.184 301.946 242.692 302.275 242.151 302.499C241.61 302.723 241.029 302.838 240.444 302.838H215.267C214.084 302.838 212.949 302.368 212.112 301.532C211.276 300.695 210.806 299.56 210.806 298.377V268.55C210.806 267.965 210.921 267.385 211.145 266.843C211.369 266.302 211.698 265.81 212.112 265.396C212.527 264.982 213.018 264.654 213.56 264.43C214.101 264.205 214.681 264.09 215.267 264.09Z" fill="#F3F5F7"/>
<path d="M257.167 264.09H282.344C282.93 264.09 283.51 264.205 284.051 264.43C284.592 264.654 285.084 264.982 285.498 265.396C285.913 265.81 286.241 266.302 286.465 266.843C286.69 267.385 286.805 267.965 286.805 268.55V298.377C286.805 299.56 286.335 300.695 285.498 301.532C284.662 302.368 283.527 302.838 282.344 302.838H257.167C255.984 302.838 254.849 302.368 254.013 301.532C253.176 300.695 252.706 299.56 252.706 298.377V268.55C252.706 267.965 252.821 267.385 253.046 266.843C253.27 266.302 253.598 265.81 254.013 265.396C254.427 264.982 254.919 264.654 255.46 264.43C256.001 264.205 256.581 264.09 257.167 264.09Z" fill="#F3F5F7"/>
<path d="M299.4 264.09H324.577C325.76 264.09 326.895 264.56 327.732 265.397C328.568 266.233 329.038 267.367 329.038 268.55V298.377C329.038 299.56 328.568 300.695 327.732 301.532C326.895 302.368 325.761 302.838 324.577 302.838H299.4C298.815 302.838 298.235 302.723 297.693 302.499C297.152 302.275 296.66 301.946 296.246 301.532C295.832 301.117 295.503 300.626 295.279 300.084C295.055 299.543 294.939 298.963 294.939 298.377V268.55C294.939 267.965 295.055 267.385 295.279 266.843C295.503 266.302 295.832 265.81 296.246 265.396C296.66 264.982 297.152 264.654 297.693 264.43C298.235 264.205 298.815 264.09 299.4 264.09Z" fill="#F3F5F7"/>
<path d="M223.049 271.924C224.213 272.947 225.664 273.588 227.205 273.76C227.942 273.78 228.672 273.603 229.317 273.246C229.963 272.889 230.502 272.366 230.878 271.731C232.262 271.963 233.581 272.49 234.743 273.277C236.193 274.437 240.058 279.462 240.058 279.462L236.578 283.231L232.907 280.911L234.258 293.957H221.019L221.31 280.911L219.184 283.521L214.351 281.491C214.351 281.491 216.865 275.983 218.121 274.63C219.377 273.277 223.049 271.924 223.049 271.924Z" fill="#0C4BE3"/>
<path d="M263.944 273.468H273.582L278.431 292.103L259.854 292.045L263.944 273.468Z" fill="#0C4BE3"/>
<path d="M262.034 290.866C262.001 290.865 261.968 290.857 261.937 290.842C261.907 290.827 261.88 290.806 261.859 290.78C261.837 290.754 261.821 290.724 261.812 290.692C261.803 290.659 261.8 290.625 261.805 290.592L264.772 274.392C264.783 274.331 264.818 274.278 264.869 274.243C264.92 274.208 264.982 274.194 265.043 274.205C265.103 274.217 265.157 274.251 265.192 274.302C265.227 274.353 265.24 274.415 265.229 274.476L262.263 290.676C262.253 290.729 262.225 290.777 262.183 290.812C262.141 290.847 262.088 290.866 262.034 290.866Z" fill="#BACEFE"/>
<path d="M264.848 291.018C264.816 291.017 264.784 291.01 264.755 290.997C264.725 290.983 264.699 290.964 264.677 290.94C264.656 290.916 264.639 290.888 264.629 290.857C264.618 290.827 264.614 290.794 264.617 290.762L266.217 274.786C266.226 274.727 266.257 274.674 266.304 274.638C266.351 274.601 266.411 274.585 266.47 274.591C266.529 274.597 266.584 274.625 266.622 274.67C266.661 274.715 266.681 274.774 266.678 274.833L265.078 290.809C265.072 290.866 265.045 290.919 265.003 290.957C264.96 290.996 264.905 291.018 264.848 291.018Z" fill="#BACEFE"/>
<path d="M268.042 290.714C268.011 290.714 267.981 290.708 267.953 290.696C267.924 290.684 267.899 290.667 267.877 290.645C267.856 290.623 267.839 290.597 267.828 290.569C267.816 290.54 267.81 290.51 267.811 290.479L267.963 274.731C267.961 274.7 267.966 274.668 267.977 274.638C267.988 274.608 268.005 274.581 268.027 274.558C268.049 274.535 268.076 274.516 268.105 274.504C268.134 274.492 268.166 274.486 268.198 274.486C268.23 274.486 268.261 274.493 268.29 274.506C268.319 274.519 268.345 274.538 268.367 274.561C268.388 274.585 268.405 274.612 268.415 274.643C268.426 274.673 268.43 274.705 268.428 274.736L268.276 290.484C268.275 290.546 268.249 290.604 268.206 290.647C268.162 290.69 268.103 290.714 268.042 290.714Z" fill="#BACEFE"/>
<path d="M271.088 290.333C271.028 290.333 270.971 290.31 270.927 290.269C270.884 290.228 270.858 290.171 270.855 290.111L270.171 274.439C270.17 274.409 270.174 274.378 270.185 274.35C270.195 274.321 270.211 274.295 270.232 274.272C270.253 274.25 270.277 274.232 270.305 274.219C270.333 274.206 270.363 274.199 270.393 274.197C270.454 274.197 270.513 274.219 270.558 274.26C270.603 274.302 270.631 274.358 270.635 274.419L271.32 290.091C271.323 290.153 271.301 290.213 271.259 290.258C271.217 290.303 271.16 290.33 271.098 290.333H271.088Z" fill="#BACEFE"/>
<path d="M273.977 290.714C273.921 290.714 273.867 290.694 273.825 290.657C273.783 290.62 273.756 290.57 273.748 290.514L271.466 274.765C271.458 274.704 271.474 274.642 271.512 274.593C271.549 274.543 271.605 274.511 271.666 274.502C271.727 274.496 271.788 274.513 271.837 274.55C271.886 274.587 271.919 274.642 271.929 274.702L274.211 290.451C274.219 290.513 274.203 290.575 274.165 290.624C274.128 290.674 274.072 290.706 274.011 290.714H273.977Z" fill="#BACEFE"/>
<path d="M276.244 290.284C276.191 290.284 276.14 290.266 276.099 290.233C276.057 290.2 276.029 290.154 276.017 290.102L272.562 274.474C272.556 274.445 272.555 274.414 272.56 274.384C272.566 274.354 272.577 274.325 272.593 274.299C272.61 274.273 272.631 274.251 272.656 274.234C272.681 274.216 272.709 274.204 272.739 274.197C272.769 274.191 272.8 274.19 272.83 274.195C272.86 274.201 272.889 274.212 272.914 274.228C272.94 274.245 272.962 274.266 272.98 274.291C272.997 274.316 273.009 274.345 273.016 274.374L276.471 290.002C276.484 290.063 276.473 290.125 276.44 290.177C276.407 290.229 276.354 290.266 276.294 290.279C276.278 290.283 276.261 290.285 276.244 290.284Z" fill="#BACEFE"/>
<path d="M264.019 271.958H273.4V273.384H264.019V271.958Z" fill="#0C4BE3"/>
<path d="M268.967 271.614C269.053 271.614 269.137 271.631 269.216 271.663C269.295 271.696 269.367 271.744 269.427 271.804C269.488 271.865 269.536 271.936 269.568 272.015C269.601 272.094 269.618 272.179 269.617 272.264V273.056C269.617 273.229 269.549 273.394 269.427 273.516C269.305 273.638 269.14 273.706 268.967 273.706C268.795 273.706 268.63 273.638 268.508 273.516C268.386 273.394 268.317 273.229 268.317 273.056V272.264C268.317 272.179 268.334 272.094 268.367 272.015C268.399 271.936 268.447 271.865 268.507 271.804C268.568 271.744 268.64 271.696 268.718 271.663C268.797 271.631 268.882 271.614 268.967 271.614Z" fill="#BACEFE"/>
<path d="M316.018 274.035L323.308 273.827C323.308 273.827 322.108 276.848 322.631 278.358C323.121 280.084 323.245 281.893 322.996 283.67C322.735 284.503 317.319 284.399 315.396 284.347C313.473 284.295 311.125 285.128 307.996 285.232C306.25 285.313 304.5 285.173 302.789 284.815C302.74 284.5 302.808 284.177 302.981 283.909C303.154 283.64 303.419 283.444 303.726 283.357C304.872 282.941 308.309 282.368 309.767 281.326C311.225 280.284 313.882 279.035 314.402 278.045C314.922 277.055 316.018 274.035 316.018 274.035Z" fill="#0C4BE3"/>
<path d="M302.685 284.659C302.685 284.659 301.956 287.315 302.529 288.252C303.102 289.189 305.446 289.346 307.429 289.294C309.625 289.215 311.815 289.024 313.99 288.721C315.761 288.461 319.998 288.815 321.09 288.606C321.605 288.558 322.087 288.332 322.453 287.967C322.819 287.602 323.046 287.121 323.095 286.606C323.195 285.46 323.681 284.081 322.847 283.768C322.013 283.455 319.947 284.015 317.266 284.046C315.16 284.07 312.36 284.68 309.339 284.94C307.117 285.065 304.889 284.971 302.685 284.659Z" fill="#BACEFE"/>
<path d="M315.003 280.86C314.966 280.86 314.929 280.851 314.896 280.834C314.862 280.816 314.834 280.791 314.813 280.76L313.425 278.804C313.392 278.754 313.381 278.693 313.392 278.634C313.403 278.575 313.437 278.522 313.486 278.488C313.535 278.453 313.596 278.439 313.655 278.447C313.714 278.456 313.768 278.488 313.805 278.535L315.194 280.492C315.218 280.527 315.233 280.568 315.236 280.611C315.238 280.653 315.23 280.696 315.21 280.734C315.191 280.771 315.161 280.803 315.125 280.826C315.088 280.848 315.047 280.86 315.004 280.86H315.003Z" fill="#E2E8F4"/>
<path d="M313.473 281.962C313.433 281.962 313.394 281.953 313.359 281.934C313.324 281.915 313.294 281.887 313.273 281.853L311.849 279.575C311.82 279.523 311.813 279.461 311.828 279.404C311.843 279.346 311.88 279.296 311.93 279.265C311.981 279.233 312.042 279.222 312.1 279.234C312.158 279.246 312.21 279.28 312.244 279.329L313.668 281.606C313.701 281.658 313.712 281.722 313.698 281.782C313.684 281.842 313.647 281.894 313.594 281.927C313.558 281.95 313.516 281.962 313.473 281.962Z" fill="#E2E8F4"/>
<path d="M311.835 283.03C311.794 283.03 311.754 283.018 311.719 282.997C311.684 282.976 311.655 282.946 311.635 282.91L310.353 280.597C310.325 280.543 310.318 280.48 310.336 280.422C310.353 280.363 310.393 280.314 310.447 280.284C310.5 280.255 310.563 280.248 310.622 280.264C310.681 280.28 310.731 280.319 310.761 280.372L312.042 282.685C312.057 282.712 312.066 282.741 312.07 282.772C312.073 282.802 312.071 282.833 312.062 282.862C312.054 282.892 312.04 282.919 312.021 282.943C312.002 282.967 311.978 282.987 311.951 283.001C311.916 283.021 311.876 283.031 311.835 283.03Z" fill="#E2E8F4"/>
<path d="M309.878 283.635C309.832 283.635 309.787 283.622 309.749 283.596C309.711 283.571 309.681 283.535 309.663 283.492L308.88 281.606C308.867 281.578 308.86 281.547 308.859 281.516C308.859 281.485 308.864 281.453 308.876 281.424C308.887 281.395 308.904 281.369 308.926 281.347C308.948 281.324 308.974 281.307 309.003 281.295C309.032 281.283 309.063 281.277 309.094 281.277C309.125 281.277 309.156 281.283 309.185 281.296C309.213 281.308 309.239 281.326 309.261 281.349C309.282 281.371 309.299 281.398 309.31 281.427L310.093 283.313C310.115 283.37 310.115 283.433 310.091 283.489C310.068 283.545 310.023 283.589 309.967 283.613C309.939 283.627 309.909 283.634 309.878 283.635Z" fill="#E2E8F4"/>
<path d="M317.387 284.158C317.277 284.134 317.232 284.058 317.252 283.983C317.278 283.883 317.919 281.504 319.379 280.563C320.429 279.966 321.62 279.662 322.828 279.682C322.865 279.683 322.9 279.699 322.925 279.726C322.95 279.753 322.964 279.789 322.963 279.826C322.963 279.845 322.959 279.863 322.952 279.88C322.945 279.897 322.934 279.913 322.92 279.925C322.907 279.938 322.891 279.948 322.873 279.954C322.856 279.96 322.837 279.962 322.819 279.961C321.668 279.949 320.535 280.238 319.53 280.798C318.161 281.68 317.53 284.03 317.522 284.054C317.514 284.084 317.496 284.11 317.472 284.129C317.448 284.148 317.418 284.158 317.387 284.158Z" fill="#E2E8F4"/>
<path d="M308.002 285.126C307.974 285.126 307.947 285.118 307.924 285.103C307.901 285.087 307.883 285.065 307.873 285.039L306.873 282.607C306.859 282.573 306.859 282.535 306.873 282.501C306.888 282.467 306.915 282.44 306.949 282.426C306.983 282.412 307.022 282.412 307.056 282.426C307.09 282.441 307.117 282.468 307.131 282.502L308.131 284.933C308.139 284.955 308.142 284.977 308.14 285C308.137 285.023 308.129 285.045 308.117 285.064C308.104 285.083 308.087 285.098 308.067 285.109C308.047 285.12 308.024 285.126 308.002 285.126Z" fill="#E2E8F4"/>
<path d="M316.235 273.818C316.19 273.816 316.147 273.796 316.116 273.763C316.084 273.73 316.066 273.687 316.065 273.641C316.065 273.596 316.081 273.552 316.112 273.518C316.142 273.484 316.184 273.463 316.229 273.459L325.7 273.159C325.746 273.162 325.789 273.181 325.82 273.214C325.852 273.247 325.87 273.29 325.87 273.336C325.871 273.381 325.855 273.425 325.824 273.459C325.794 273.493 325.752 273.514 325.706 273.518L316.235 273.818Z" fill="#E2E8F4"/>
<path d="M321.664 297.498C321.664 296.984 321.817 296.482 322.102 296.054C322.388 295.626 322.794 295.293 323.269 295.096C323.744 294.9 324.267 294.848 324.771 294.948C325.276 295.049 325.739 295.296 326.103 295.66C326.466 296.024 326.714 296.487 326.814 296.991C326.914 297.496 326.863 298.018 326.666 298.493C326.469 298.968 326.136 299.375 325.709 299.66C325.281 299.946 324.778 300.098 324.264 300.098C323.923 300.098 323.585 300.031 323.269 299.901C322.954 299.77 322.667 299.578 322.426 299.337C322.184 299.095 321.993 298.809 321.862 298.493C321.731 298.178 321.664 297.84 321.664 297.498Z" fill="#49C596"/>
<path d="M324.263 299.268C324.235 299.269 324.209 299.26 324.187 299.244C324.118 299.195 322.504 298.044 322.522 297.023C322.528 296.853 322.578 296.688 322.667 296.542C322.756 296.397 322.881 296.277 323.03 296.194C323.12 296.129 323.224 296.084 323.333 296.062C323.442 296.04 323.555 296.042 323.664 296.067C323.909 296.142 324.123 296.294 324.275 296.5C324.435 296.289 324.659 296.135 324.914 296.061C325.023 296.038 325.136 296.037 325.246 296.06C325.355 296.083 325.459 296.129 325.55 296.194C325.686 296.274 325.8 296.386 325.881 296.521C325.962 296.656 326.008 296.81 326.014 296.967C326.038 297.982 324.414 299.192 324.342 299.243C324.319 299.26 324.291 299.269 324.263 299.268ZM323.489 296.313C323.377 296.315 323.268 296.35 323.176 296.413C323.064 296.473 322.969 296.56 322.901 296.667C322.833 296.774 322.794 296.897 322.788 297.023C322.775 297.789 323.944 298.723 324.262 298.965C324.58 298.715 325.762 297.733 325.747 296.97C325.742 296.856 325.707 296.744 325.647 296.646C325.586 296.549 325.502 296.468 325.402 296.412C325.341 296.367 325.271 296.335 325.197 296.319C325.123 296.303 325.046 296.303 324.972 296.318C324.727 296.404 324.52 296.572 324.387 296.794C324.377 296.816 324.36 296.834 324.34 296.846C324.319 296.857 324.295 296.862 324.272 296.859C324.248 296.859 324.226 296.853 324.205 296.841C324.185 296.829 324.169 296.812 324.157 296.792C324.031 296.576 323.834 296.41 323.6 296.322C323.563 296.315 323.526 296.312 323.489 296.313Z" fill="white"/>
<path d="M279.653 297.498C279.653 296.984 279.806 296.482 280.091 296.054C280.377 295.626 280.783 295.293 281.258 295.096C281.733 294.9 282.256 294.848 282.761 294.948C283.265 295.049 283.728 295.296 284.092 295.66C284.455 296.024 284.703 296.487 284.803 296.991C284.904 297.496 284.852 298.018 284.655 298.493C284.459 298.968 284.125 299.375 283.698 299.66C283.27 299.946 282.768 300.098 282.253 300.098C281.912 300.098 281.574 300.031 281.258 299.901C280.943 299.77 280.656 299.578 280.415 299.337C280.173 299.095 279.982 298.809 279.851 298.493C279.721 298.178 279.653 297.84 279.653 297.498Z" fill="#49C596"/>
<path d="M282.252 299.268C282.225 299.269 282.198 299.26 282.176 299.244C282.107 299.195 280.493 298.044 280.511 297.023C280.517 296.853 280.567 296.688 280.656 296.542C280.745 296.397 280.87 296.277 281.019 296.194C281.109 296.129 281.213 296.084 281.322 296.062C281.431 296.04 281.544 296.042 281.653 296.067C281.898 296.142 282.112 296.294 282.264 296.5C282.424 296.289 282.648 296.135 282.903 296.061C283.012 296.038 283.125 296.037 283.235 296.06C283.345 296.083 283.448 296.129 283.539 296.194C283.675 296.274 283.789 296.386 283.87 296.521C283.952 296.656 283.997 296.81 284.003 296.967C284.026 297.982 282.403 299.192 282.331 299.243C282.308 299.26 282.28 299.269 282.252 299.268ZM281.478 296.313C281.366 296.315 281.257 296.35 281.165 296.413C281.053 296.473 280.958 296.56 280.89 296.667C280.822 296.774 280.783 296.897 280.777 297.023C280.764 297.789 281.933 298.723 282.251 298.965C282.569 298.715 283.751 297.733 283.736 296.97C283.731 296.856 283.697 296.744 283.636 296.646C283.576 296.549 283.491 296.468 283.391 296.412C283.33 296.367 283.26 296.335 283.186 296.319C283.112 296.303 283.035 296.303 282.961 296.318C282.716 296.404 282.509 296.572 282.376 296.794C282.366 296.816 282.35 296.834 282.329 296.846C282.308 296.857 282.284 296.862 282.261 296.859C282.238 296.859 282.215 296.853 282.195 296.841C282.175 296.829 282.158 296.812 282.146 296.792C282.02 296.576 281.823 296.41 281.589 296.322C281.552 296.315 281.515 296.312 281.478 296.313Z" fill="white"/>
<path d="M236.977 297.498C236.977 296.984 237.129 296.482 237.415 296.054C237.7 295.626 238.107 295.293 238.582 295.096C239.057 294.9 239.579 294.848 240.084 294.948C240.588 295.049 241.051 295.296 241.415 295.66C241.779 296.024 242.026 296.487 242.127 296.991C242.227 297.496 242.175 298.018 241.979 298.493C241.782 298.968 241.449 299.375 241.021 299.66C240.593 299.946 240.091 300.098 239.577 300.098C239.235 300.098 238.897 300.031 238.582 299.901C238.266 299.77 237.98 299.578 237.738 299.337C237.497 299.095 237.305 298.809 237.174 298.493C237.044 298.178 236.977 297.84 236.977 297.498Z" fill="#49C596"/>
<path d="M239.575 299.269C239.548 299.269 239.521 299.261 239.499 299.245C239.43 299.196 237.816 298.045 237.834 297.024C237.84 296.853 237.89 296.688 237.979 296.542C238.068 296.397 238.193 296.277 238.342 296.195C238.433 296.129 238.536 296.084 238.645 296.062C238.755 296.04 238.868 296.042 238.976 296.068C239.221 296.142 239.436 296.294 239.587 296.501C239.747 296.29 239.971 296.136 240.225 296.062C240.335 296.038 240.448 296.037 240.558 296.06C240.668 296.083 240.771 296.129 240.862 296.195C240.998 296.274 241.113 296.386 241.194 296.521C241.275 296.656 241.32 296.81 241.326 296.968C241.349 297.983 239.726 299.193 239.654 299.244C239.631 299.26 239.603 299.269 239.575 299.269ZM238.8 296.314C238.689 296.315 238.58 296.35 238.488 296.414C238.376 296.473 238.282 296.56 238.214 296.667C238.146 296.774 238.106 296.897 238.1 297.024C238.086 297.79 239.256 298.724 239.574 298.966C239.892 298.716 241.074 297.734 241.059 296.971C241.054 296.856 241.02 296.744 240.959 296.647C240.899 296.549 240.815 296.468 240.714 296.413C240.653 296.367 240.583 296.335 240.509 296.319C240.435 296.303 240.358 296.303 240.284 296.319C240.039 296.404 239.832 296.572 239.699 296.795C239.689 296.816 239.673 296.834 239.652 296.846C239.632 296.857 239.608 296.862 239.584 296.86C239.561 296.859 239.538 296.853 239.518 296.841C239.498 296.829 239.481 296.813 239.469 296.793C239.343 296.577 239.146 296.411 238.912 296.323C238.875 296.315 238.838 296.312 238.8 296.314Z" fill="white"/>
<path d="M242.933 310.484H212.296C211.761 310.484 211.327 310.918 211.327 311.453V311.454C211.327 311.99 211.761 312.423 212.296 312.423H242.933C243.468 312.423 243.902 311.99 243.902 311.454V311.453C243.902 310.918 243.468 310.484 242.933 310.484Z" fill="#B7C3CF"/>
<path d="M242.933 307.089H212.296C211.761 307.089 211.327 307.523 211.327 308.058V308.059C211.327 308.595 211.761 309.028 212.296 309.028H242.933C243.468 309.028 243.902 308.595 243.902 308.059V308.058C243.902 307.523 243.468 307.089 242.933 307.089Z" fill="#B7C3CF"/>
<path d="M222.847 315.473H212.839C212.004 315.473 211.327 316.15 211.327 316.985V316.986C211.327 317.821 212.004 318.498 212.839 318.498H222.847C223.682 318.498 224.359 317.821 224.359 316.986V316.985C224.359 316.15 223.682 315.473 222.847 315.473Z" fill="#0C4BE3"/>
<path d="M285.332 310.484H254.695C254.159 310.484 253.726 310.918 253.726 311.453V311.454C253.726 311.99 254.159 312.423 254.695 312.423H285.332C285.867 312.423 286.301 311.99 286.301 311.454V311.453C286.301 310.918 285.867 310.484 285.332 310.484Z" fill="#B7C3CF"/>
<path d="M285.332 307.089H254.695C254.159 307.089 253.726 307.523 253.726 308.058V308.059C253.726 308.595 254.159 309.028 254.695 309.028H285.332C285.867 309.028 286.301 308.595 286.301 308.059V308.058C286.301 307.523 285.867 307.089 285.332 307.089Z" fill="#B7C3CF"/>
<path d="M265.246 315.473H255.238C254.403 315.473 253.726 316.15 253.726 316.985V316.986C253.726 317.821 254.403 318.498 255.238 318.498H265.246C266.081 318.498 266.758 317.821 266.758 316.986V316.985C266.758 316.15 266.081 315.473 265.246 315.473Z" fill="#0C4BE3"/>
<path d="M327.399 310.484H296.762C296.227 310.484 295.793 310.918 295.793 311.453V311.454C295.793 311.99 296.227 312.423 296.762 312.423H327.399C327.934 312.423 328.368 311.99 328.368 311.454V311.453C328.368 310.918 327.934 310.484 327.399 310.484Z" fill="#B7C3CF"/>
<path d="M327.399 307.089H296.762C296.227 307.089 295.793 307.523 295.793 308.058V308.059C295.793 308.595 296.227 309.028 296.762 309.028H327.399C327.934 309.028 328.368 308.595 328.368 308.059V308.058C328.368 307.523 327.934 307.089 327.399 307.089Z" fill="#B7C3CF"/>
<path d="M307.313 315.473H297.305C296.47 315.473 295.793 316.15 295.793 316.985V316.986C295.793 317.821 296.47 318.498 297.305 318.498H307.313C308.148 318.498 308.825 317.821 308.825 316.986V316.985C308.825 316.15 308.148 315.473 307.313 315.473Z" fill="#0C4BE3"/>
<path d="M139.304 280.326L151.956 270.137L164.608 280.326H139.304Z" stroke="#BACEFE" stroke-miterlimit="10"/>
<path d="M152.981 270.154C152.978 270.35 152.918 270.54 152.807 270.702C152.696 270.863 152.54 270.988 152.358 271.061C152.176 271.134 151.977 271.152 151.785 271.112C151.594 271.072 151.418 270.976 151.281 270.837C151.143 270.697 151.05 270.52 151.013 270.328C150.976 270.136 150.997 269.937 151.072 269.756C151.148 269.576 151.275 269.421 151.439 269.313C151.602 269.205 151.793 269.147 151.989 269.147C152.254 269.149 152.507 269.256 152.693 269.445C152.879 269.634 152.983 269.889 152.981 270.154Z" fill="#0D53FC"/>
<path d="M168.689 298.576C168.691 298.88 168.634 299.182 168.519 299.464C168.405 299.745 168.236 300.002 168.022 300.218C167.809 300.435 167.554 300.607 167.274 300.725C166.994 300.843 166.693 300.905 166.389 300.907H138.3C137.996 300.905 137.695 300.843 137.415 300.725C137.135 300.607 136.88 300.435 136.667 300.218C136.453 300.002 136.284 299.745 136.17 299.464C136.056 299.182 135.998 298.88 136 298.576V281.331C135.998 281.027 136.056 280.725 136.17 280.443C136.284 280.162 136.453 279.905 136.667 279.689C136.88 279.472 137.135 279.3 137.415 279.182C137.695 279.064 137.996 279.002 138.3 279H166.393C166.697 279.002 166.998 279.064 167.278 279.182C167.558 279.3 167.813 279.472 168.026 279.689C168.24 279.905 168.409 280.162 168.523 280.443C168.638 280.725 168.695 281.027 168.693 281.331L168.689 298.576Z" fill="#49C596"/>
<path d="M144.471 296.338C143.883 296.338 143.346 296.201 142.861 295.928C142.376 295.649 141.991 295.264 141.706 294.773C141.427 294.275 141.287 293.717 141.287 293.099C141.287 292.48 141.427 291.925 141.706 291.434C141.991 290.936 142.376 290.551 142.861 290.278C143.346 289.999 143.883 289.86 144.471 289.86C145.066 289.86 145.606 289.999 146.091 290.278C146.576 290.551 146.958 290.933 147.237 291.425C147.516 291.916 147.656 292.474 147.656 293.099C147.656 293.723 147.516 294.281 147.237 294.773C146.958 295.264 146.576 295.649 146.091 295.928C145.606 296.201 145.066 296.338 144.471 296.338ZM144.471 295.619C144.914 295.619 145.311 295.516 145.663 295.31C146.021 295.103 146.3 294.809 146.5 294.427C146.706 294.045 146.81 293.602 146.81 293.099C146.81 292.589 146.706 292.146 146.5 291.77C146.3 291.388 146.024 291.094 145.672 290.888C145.321 290.682 144.92 290.579 144.471 290.579C144.023 290.579 143.622 290.682 143.27 290.888C142.919 291.094 142.64 291.388 142.433 291.77C142.233 292.146 142.133 292.589 142.133 293.099C142.133 293.602 142.233 294.045 142.433 294.427C142.64 294.809 142.919 295.103 143.27 295.31C143.628 295.516 144.029 295.619 144.471 295.619Z" fill="white"/>
<path d="M152.988 291.789C152.988 292.316 152.806 292.756 152.442 293.108C152.085 293.454 151.536 293.626 150.796 293.626H149.577V296.274H148.749V289.933H150.796C151.511 289.933 152.054 290.106 152.424 290.451C152.8 290.797 152.988 291.243 152.988 291.789ZM150.796 292.944C151.257 292.944 151.596 292.844 151.815 292.644C152.033 292.444 152.142 292.159 152.142 291.789C152.142 291.006 151.693 290.615 150.796 290.615H149.577V292.944H150.796Z" fill="white"/>
<path d="M154.845 290.606V292.726H157.156V293.408H154.845V295.592H157.429V296.274H154.017V289.924H157.429V290.606H154.845Z" fill="white"/>
<path d="M163.668 296.274H162.84L159.51 291.225V296.274H158.682V289.924H159.51L162.84 294.964V289.924H163.668V296.274Z" fill="white"/>
<path d="M144.902 283.087L143.418 287.845H142.601L141.455 284.068L140.309 287.845H139.493L138 283.087H138.807L139.901 287.081L141.082 283.087H141.89L143.044 287.089L144.121 283.087H144.902Z" fill="white"/>
<path d="M150.027 285.283C150.027 285.434 150.019 285.593 150.001 285.761H146.199C146.227 286.23 146.387 286.597 146.676 286.863C146.971 287.124 147.327 287.254 147.744 287.254C148.085 287.254 148.369 287.176 148.595 287.02C148.826 286.858 148.988 286.644 149.081 286.377H149.932C149.804 286.835 149.55 287.208 149.168 287.497C148.786 287.781 148.311 287.923 147.744 287.923C147.292 287.923 146.887 287.821 146.528 287.619C146.175 287.416 145.898 287.13 145.695 286.759C145.492 286.383 145.391 285.949 145.391 285.457C145.391 284.965 145.489 284.534 145.686 284.163C145.883 283.793 146.158 283.509 146.511 283.313C146.87 283.11 147.281 283.009 147.744 283.009C148.195 283.009 148.595 283.107 148.942 283.304C149.289 283.501 149.556 283.773 149.741 284.12C149.932 284.461 150.027 284.849 150.027 285.283ZM149.211 285.118C149.211 284.817 149.145 284.56 149.011 284.346C148.878 284.126 148.696 283.961 148.465 283.851C148.239 283.735 147.987 283.677 147.709 283.677C147.31 283.677 146.968 283.805 146.685 284.059C146.407 284.314 146.248 284.667 146.207 285.118H149.211Z" fill="white"/>
<path d="M153.09 285.448C153.09 284.962 153.188 284.537 153.385 284.172C153.582 283.802 153.851 283.515 154.192 283.313C154.539 283.11 154.924 283.009 155.347 283.009C155.764 283.009 156.125 283.098 156.432 283.278C156.739 283.457 156.968 283.683 157.118 283.955V283.087H157.917V287.845H157.118V286.959C156.962 287.237 156.727 287.468 156.415 287.654C156.108 287.833 155.749 287.923 155.338 287.923C154.916 287.923 154.534 287.819 154.192 287.61C153.851 287.402 153.582 287.109 153.385 286.733C153.188 286.357 153.09 285.929 153.09 285.448ZM157.118 285.457C157.118 285.098 157.046 284.786 156.901 284.519C156.756 284.253 156.559 284.051 156.311 283.912C156.068 283.767 155.798 283.695 155.503 283.695C155.208 283.695 154.939 283.764 154.696 283.903C154.453 284.042 154.259 284.244 154.114 284.511C153.969 284.777 153.897 285.089 153.897 285.448C153.897 285.813 153.969 286.131 154.114 286.403C154.259 286.67 154.453 286.875 154.696 287.02C154.939 287.159 155.208 287.228 155.503 287.228C155.798 287.228 156.068 287.159 156.311 287.02C156.559 286.875 156.756 286.67 156.901 286.403C157.046 286.131 157.118 285.816 157.118 285.457Z" fill="white"/>
<path d="M160.042 283.86C160.181 283.587 160.378 283.376 160.632 283.226C160.893 283.075 161.208 283 161.579 283V283.816H161.37C160.485 283.816 160.042 284.297 160.042 285.257V287.845H159.252V283.087H160.042V283.86Z" fill="white"/>
<path d="M166.832 285.283C166.832 285.434 166.823 285.593 166.806 285.761H163.003C163.032 286.23 163.191 286.597 163.48 286.863C163.776 287.124 164.132 287.254 164.548 287.254C164.89 287.254 165.173 287.176 165.399 287.02C165.631 286.858 165.793 286.644 165.885 286.377H166.736C166.609 286.835 166.354 287.208 165.972 287.497C165.59 287.781 165.116 287.923 164.548 287.923C164.097 287.923 163.692 287.821 163.333 287.619C162.98 287.416 162.702 287.13 162.499 286.759C162.297 286.383 162.196 285.949 162.196 285.457C162.196 284.965 162.294 284.534 162.491 284.163C162.687 283.793 162.962 283.509 163.315 283.313C163.674 283.11 164.085 283.009 164.548 283.009C165 283.009 165.399 283.107 165.746 283.304C166.094 283.501 166.36 283.773 166.545 284.12C166.736 284.461 166.832 284.849 166.832 285.283ZM166.016 285.118C166.016 284.817 165.949 284.56 165.816 284.346C165.683 284.126 165.5 283.961 165.269 283.851C165.043 283.735 164.791 283.677 164.514 283.677C164.114 283.677 163.773 283.805 163.489 284.059C163.211 284.314 163.052 284.667 163.012 285.118H166.016Z" fill="white"/>
<path d="M266.905 187.884C266.906 198.145 263.864 208.175 258.164 216.707C252.463 225.238 244.361 231.888 234.882 235.815C225.403 239.741 214.972 240.769 204.908 238.768C194.845 236.767 185.601 231.826 178.346 224.571C171.09 217.316 166.149 208.072 164.147 198.009C162.145 187.946 163.171 177.515 167.098 168.035C171.024 158.556 177.673 150.453 186.204 144.752C194.735 139.052 204.765 136.009 215.025 136.008C221.838 136.008 228.584 137.349 234.879 139.956C241.173 142.563 246.892 146.384 251.71 151.201C256.527 156.018 260.349 161.737 262.956 168.031C265.563 174.326 266.905 181.072 266.905 187.884Z" fill="#0D53FC"/>
<path d="M265.399 187.884C265.399 197.847 262.445 207.585 256.91 215.869C251.375 224.152 243.508 230.609 234.304 234.421C225.099 238.233 214.971 239.231 205.2 237.287C195.429 235.344 186.454 230.546 179.409 223.502C172.365 216.457 167.567 207.482 165.623 197.711C163.68 187.94 164.677 177.812 168.489 168.608C172.301 159.404 178.757 151.536 187.041 146.001C195.324 140.466 205.063 137.512 215.025 137.511C221.641 137.511 228.191 138.813 234.303 141.345C240.415 143.876 245.968 147.587 250.646 152.264C255.323 156.942 259.034 162.495 261.565 168.607C264.097 174.718 265.4 181.269 265.399 187.884Z" fill="white"/>
<path d="M215.025 217.709C209.126 217.709 203.36 215.959 198.455 212.682C193.55 209.405 189.727 204.746 187.47 199.296C185.213 193.846 184.622 187.849 185.774 182.063C186.925 176.278 189.765 170.963 193.937 166.792C198.108 162.621 203.423 159.781 209.208 158.63C214.994 157.479 220.991 158.07 226.441 160.328C231.891 162.586 236.549 166.409 239.826 171.314C243.103 176.219 244.852 181.985 244.852 187.884C244.843 195.792 241.698 203.373 236.106 208.965C230.514 214.556 222.933 217.701 215.025 217.709ZM215.025 159.663C209.444 159.663 203.987 161.318 199.346 164.419C194.705 167.52 191.088 171.927 188.952 177.084C186.816 182.24 186.257 187.915 187.345 193.389C188.434 198.864 191.122 203.892 195.069 207.839C199.015 211.786 204.044 214.474 209.518 215.563C214.993 216.652 220.667 216.093 225.824 213.957C230.98 211.821 235.388 208.204 238.489 203.563C241.59 198.922 243.245 193.466 243.245 187.884C243.237 180.402 240.261 173.229 234.971 167.938C229.68 162.648 222.507 159.672 215.025 159.663Z" fill="#0D53FC"/>
<path d="M215.026 197.939C213.037 197.939 211.093 197.349 209.44 196.244C207.787 195.138 206.498 193.568 205.737 191.731C204.977 189.893 204.778 187.872 205.166 185.921C205.554 183.971 206.512 182.179 207.918 180.773C209.325 179.367 211.116 178.41 213.067 178.022C215.017 177.634 217.039 177.834 218.876 178.595C220.713 179.356 222.283 180.645 223.388 182.298C224.493 183.952 225.083 185.895 225.083 187.884C225.079 190.55 224.019 193.106 222.133 194.991C220.248 196.876 217.692 197.936 215.026 197.939ZM215.026 179.439C213.354 179.439 211.721 179.935 210.331 180.863C208.942 181.792 207.858 183.111 207.219 184.655C206.579 186.199 206.412 187.898 206.738 189.538C207.064 191.177 207.869 192.682 209.051 193.864C210.232 195.046 211.738 195.851 213.377 196.177C215.016 196.503 216.715 196.335 218.259 195.696C219.803 195.056 221.123 193.973 222.052 192.584C222.98 191.194 223.476 189.56 223.476 187.889C223.475 185.648 222.584 183.499 221 181.913C219.416 180.328 217.267 179.436 215.026 179.434V179.439Z" fill="#0D53FC"/>
</g>
<defs>
<clipPath id="clip0_1578_35624">
<rect width="463.332" height="397.054" fill="white" transform="translate(18 51)"/>
</clipPath>
</defs>
</svg>
