<svg width="500" height="500" viewBox="0 0 500 500" fill="none" xmlns="http://www.w3.org/2000/svg">
<path d="M339.455 272.986C341.63 272.986 343.394 271.223 343.394 269.047C343.394 266.872 341.63 265.108 339.455 265.108C337.279 265.108 335.516 266.872 335.516 269.047C335.516 271.223 337.279 272.986 339.455 272.986Z" fill="url(#paint0_linear_41_326)"/>
<path d="M367.648 71.9623C248.815 -2.84871 182.416 156.674 106.748 157.123C29.0189 157.585 9.01589 241.139 79.5479 330.123C148.215 416.749 237.864 449.897 293.488 448.471C385.459 446.111 465.259 340.192 421.968 276.044C382.898 218.15 446.138 121.372 367.648 71.9623Z" fill="#F3F5F7"/>
<path d="M191.064 389.997L194.597 411.12L186.991 411.21L180.101 389.372L191.064 389.997Z" fill="#F5957D"/>
<path d="M148.738 386.849L144.538 407.849L137.395 405.233L138.712 382.368L148.738 386.849Z" fill="#F5957D"/>
<path d="M272.765 420.992C222.528 420.992 148.265 389.971 92.4822 319.603C58.7302 277.021 46.8072 231.703 61.3712 201.355C70.8542 181.576 90.4142 170.598 116.429 170.443C140.302 170.301 163.429 151.051 187.906 130.668C229.016 96.4433 275.606 57.6533 339.578 97.9153C378.978 122.723 377.02 161.408 375.123 198.822C373.739 226.128 372.431 251.922 386.211 272.341C400.303 293.219 400.141 321.193 385.76 349.091C364.536 390.285 319.322 419.838 275.811 420.953C274.809 420.979 273.788 420.992 272.765 420.992ZM285.913 82.7353C248.432 82.7353 217.462 108.526 189.113 132.124C164.364 152.729 140.99 172.191 116.438 172.335C91.1842 172.486 72.2382 183.081 63.0772 202.172C48.8282 231.872 60.6682 276.417 93.9622 318.426C149.341 388.289 222.988 419.097 272.753 419.097C273.769 419.097 274.767 419.083 275.763 419.058C318.613 417.958 363.155 388.829 384.074 348.222C398.122 320.957 398.325 293.684 384.637 273.396C370.501 252.45 371.886 225.136 373.227 198.722C375.096 161.854 377.027 123.731 338.562 99.5153C319.59 87.5723 302.138 82.7333 285.913 82.7333V82.7353Z" fill="#74D3AF"/>
<path d="M113.537 321.616C113.488 321.636 113.438 321.652 113.387 321.662C113.243 321.696 113.094 321.701 112.948 321.677C112.802 321.653 112.662 321.601 112.537 321.523C112.411 321.445 112.302 321.343 112.216 321.223C112.129 321.102 112.068 320.966 112.034 320.822V320.812C95.434 248.259 33.299 210.349 32.673 209.974C32.5455 209.898 32.4344 209.798 32.3458 209.678C32.2573 209.559 32.1931 209.424 32.157 209.28C32.1209 209.136 32.1135 208.986 32.1353 208.839C32.1571 208.692 32.2076 208.551 32.284 208.423C32.3602 208.296 32.4608 208.185 32.58 208.096C32.6993 208.008 32.8348 207.944 32.9788 207.907C33.1229 207.871 33.2727 207.864 33.4196 207.886C33.5665 207.908 33.7076 207.958 33.835 208.034C34.468 208.411 97.423 246.826 114.235 320.307C114.297 320.573 114.26 320.852 114.131 321.093C114.003 321.334 113.792 321.52 113.537 321.616Z" fill="#BACEFE"/>
<path d="M86.6971 264.097C86.6971 264.097 71.4811 260.785 59.4131 266.073C51.0937 269.761 44.0904 275.889 39.3301 283.644C39.3301 283.644 56.9131 286.579 68.0351 281.716C79.1571 276.853 86.6971 264.097 86.6971 264.097Z" fill="#BACEFE"/>
<path d="M67.0814 238.151C67.0814 238.151 54.6584 235.476 44.8484 239.551C38.1514 242.323 32.4678 247.085 28.5674 253.193C28.5674 253.193 42.9174 255.583 51.9604 251.838C61.0034 248.093 67.0814 238.151 67.0814 238.151Z" fill="#BACEFE"/>
<path d="M74.3144 197.93C74.3144 197.93 65.7895 206.405 64.1055 216.261C62.9587 223.02 63.9461 229.969 66.9305 236.141C66.9305 236.141 76.2074 225.994 77.7684 216.913C79.3294 207.832 74.3144 197.93 74.3144 197.93Z" fill="#BACEFE"/>
<path d="M50.7217 222.845C50.7217 222.845 42.3517 217.986 34.3137 218.757C28.7959 219.295 23.5806 221.531 19.3867 225.157C19.3867 225.157 29.2177 230.247 36.6217 229.542C44.0257 228.837 50.7217 222.845 50.7217 222.845Z" fill="#BACEFE"/>
<path d="M52.8022 189.423C52.8022 189.423 47.0713 197.223 46.9713 205.294C46.912 210.84 48.5755 216.268 51.7322 220.828C51.7322 220.828 57.8512 211.604 57.9482 204.164C58.0452 196.724 52.8022 189.423 52.8022 189.423Z" fill="#BACEFE"/>
<path d="M35.5729 210.641C33.6584 206.664 30.6981 203.282 27.009 200.857C23.0526 198.584 18.5626 197.405 14 197.441C14 197.441 17.763 204.741 22.95 207.776C28.137 210.811 35.5729 210.641 35.5729 210.641Z" fill="#BACEFE"/>
<path d="M438.554 112.757H103.146C100.017 112.757 97.4805 115.294 97.4805 118.423V369.508C97.4805 372.638 100.017 375.174 103.146 375.174H438.554C441.684 375.174 444.22 372.638 444.22 369.508V118.423C444.22 115.294 441.684 112.757 438.554 112.757Z" fill="white"/>
<path d="M437.096 375.847H104.604C102.536 375.845 100.554 375.022 99.0931 373.559C97.6318 372.097 96.8102 370.115 96.8086 368.047V119.88C96.8118 117.814 97.6341 115.833 99.0953 114.372C100.556 112.911 102.537 112.089 104.604 112.086H437.096C439.163 112.086 441.146 112.907 442.609 114.369C444.072 115.83 444.894 117.813 444.896 119.88V368.05C444.895 370.119 444.073 372.102 442.61 373.564C441.147 375.026 439.164 375.847 437.096 375.847ZM104.604 113.427C102.893 113.429 101.253 114.109 100.044 115.319C98.8342 116.528 98.1537 118.168 98.1516 119.878V368.05C98.1537 369.761 98.8341 371.401 100.044 372.611C101.253 373.82 102.893 374.501 104.604 374.503H437.096C438.806 374.501 440.447 373.821 441.656 372.611C442.866 371.401 443.546 369.761 443.549 368.05V119.88C443.546 118.17 442.866 116.53 441.656 115.32C440.446 114.111 438.806 113.431 437.096 113.428L104.604 113.427Z" fill="#B7C3CF"/>
<path d="M167.919 139.646H284.727C286.08 139.646 287.377 140.183 288.334 141.139C289.29 142.096 289.827 143.393 289.827 144.745V280.82C289.827 282.173 289.29 283.47 288.334 284.427C287.377 285.383 286.08 285.921 284.727 285.921H167.919C166.567 285.921 165.27 285.383 164.313 284.427C163.357 283.47 162.819 282.173 162.819 280.82V144.745C162.819 143.393 163.357 142.096 164.313 141.139C165.27 140.183 166.567 139.646 167.919 139.646Z" fill="#F3F5F7"/>
<path d="M219.572 185.929L179.546 185.084L181.576 183.884C189.971 178.929 203.518 170.221 204.139 167.951C204.279 167.43 204.294 166.884 204.184 166.357C204.074 165.83 203.841 165.335 203.505 164.915C203.217 164.55 202.849 164.258 202.429 164.061C202.008 163.864 201.548 163.768 201.084 163.781C199.015 163.874 198.084 166.563 198.074 166.591L196.802 166.165C196.849 166.015 198.029 162.575 201.017 162.441C201.693 162.413 202.366 162.547 202.979 162.831C203.593 163.116 204.131 163.542 204.547 164.076C205.016 164.661 205.34 165.349 205.493 166.084C205.647 166.819 205.625 167.579 205.429 168.304C205.171 169.248 203.607 170.76 201.396 172.504L219.572 185.929ZM184.272 183.847L215.384 184.503L200.298 173.355C195.358 177.06 188.126 181.523 184.268 183.847H184.272Z" fill="#B1C5E6"/>
<path d="M443.818 126.425H97.9512V127.766H443.818V126.425Z" fill="#B7C3CF"/>
<path d="M108.802 123.604C108.335 123.604 107.873 123.513 107.441 123.334C107.01 123.156 106.618 122.894 106.287 122.564C105.957 122.234 105.695 121.842 105.516 121.411C105.337 120.979 105.245 120.517 105.245 120.05C105.245 119.107 105.619 118.203 106.286 117.536C106.952 116.869 107.856 116.494 108.799 116.493C109.742 116.493 110.646 116.867 111.314 117.534C111.981 118.2 112.356 119.104 112.356 120.047C112.355 120.99 111.981 121.894 111.315 122.56C110.648 123.227 109.745 123.603 108.802 123.604ZM108.802 117.836C108.215 117.836 107.652 118.069 107.237 118.484C106.822 118.899 106.589 119.462 106.589 120.049C106.589 120.34 106.646 120.627 106.758 120.896C106.869 121.164 107.032 121.408 107.237 121.614C107.443 121.819 107.687 121.982 107.955 122.093C108.224 122.204 108.512 122.261 108.802 122.261C109.093 122.261 109.38 122.204 109.649 122.093C109.917 121.982 110.161 121.819 110.367 121.614C110.572 121.408 110.735 121.164 110.847 120.896C110.958 120.627 111.015 120.34 111.015 120.049C111.015 119.462 110.782 118.899 110.367 118.484C109.952 118.068 109.389 117.835 108.802 117.834V117.836Z" fill="#BACEFE"/>
<path d="M116.298 120.049C116.298 119.117 116.668 118.222 117.328 117.563C117.987 116.903 118.881 116.532 119.814 116.532C120.747 116.532 121.641 116.903 122.3 117.563C122.96 118.222 123.331 119.117 123.331 120.049C123.331 120.982 122.96 121.876 122.3 122.535C121.641 123.195 120.746 123.565 119.814 123.565C118.881 123.565 117.987 123.195 117.328 122.535C116.668 121.876 116.298 120.982 116.298 120.049Z" fill="#74D3AF"/>
<path d="M130.83 123.797C130.338 123.797 129.85 123.7 129.396 123.512C128.941 123.324 128.528 123.048 128.18 122.7C127.832 122.351 127.556 121.938 127.367 121.484C127.179 121.029 127.082 120.541 127.082 120.049C127.082 119.055 127.477 118.102 128.18 117.399C128.883 116.696 129.836 116.301 130.83 116.3C131.824 116.301 132.777 116.695 133.48 117.398C134.182 118.101 134.577 119.054 134.578 120.047C134.577 121.041 134.181 121.994 133.479 122.697C132.776 123.4 131.824 123.795 130.83 123.797ZM130.83 117.642C130.191 117.642 129.579 117.896 129.127 118.348C128.675 118.799 128.421 119.412 128.421 120.05C128.421 120.689 128.675 121.302 129.127 121.753C129.579 122.205 130.191 122.458 130.83 122.458C131.469 122.458 132.081 122.205 132.533 121.753C132.984 121.301 133.238 120.689 133.238 120.05C133.238 119.412 132.984 118.799 132.533 118.348C132.081 117.896 131.469 117.642 130.83 117.642Z" fill="#BACEFE"/>
<path d="M402.427 117.165H171.418C170.236 117.165 169.278 118.123 169.278 119.305V121.177C169.278 122.359 170.236 123.317 171.418 123.317H402.427C403.609 123.317 404.567 122.359 404.567 121.177V119.305C404.567 118.123 403.609 117.165 402.427 117.165Z" fill="#B7C3CF"/>
<path d="M424.91 194.577H307.99C306.808 194.577 305.85 195.535 305.85 196.717V198.589C305.85 199.771 306.808 200.729 307.99 200.729H424.91C426.091 200.729 427.05 199.771 427.05 198.589V196.717C427.05 195.535 426.091 194.577 424.91 194.577Z" fill="#B7C3CF"/>
<path d="M424.91 207.479H307.99C306.808 207.479 305.85 208.437 305.85 209.619V211.491C305.85 212.672 306.808 213.631 307.99 213.631H424.91C426.091 213.631 427.05 212.672 427.05 211.491V209.619C427.05 208.437 426.091 207.479 424.91 207.479Z" fill="#B7C3CF"/>
<path d="M137.633 183.703L137.944 193.771C138.837 195.035 140.091 195.999 141.541 196.538C142.991 197.078 144.57 197.167 146.072 196.794C148.973 196.3 151.643 194.9 153.698 192.794L147.049 184.857L137.633 183.703Z" fill="#F8B29B"/>
<path d="M139.61 179.39C139.61 179.39 133.687 176.942 133.356 180.153C132.993 183.693 149.483 189.786 151.443 184.884C156.12 173.178 143.592 162.642 140.952 163.509C138.312 164.376 140.329 171.063 140.358 173.409C140.281 175.42 140.03 177.421 139.61 179.39Z" fill="#F8B29B"/>
<path d="M198.056 155.955L206.592 160C206.592 160 211.581 152.61 212.463 150.732C213.348 148.167 213.871 145.49 214.015 142.779C214.128 140.917 215.792 136.969 212.889 137.637C210.272 138.16 207.877 139.466 206.02 141.381C203.887 144.104 202.503 147.337 202.007 150.759L198.056 155.955Z" fill="#F19F8B"/>
<path d="M167.688 298.465H199.417C199.812 298.496 200.179 298.681 200.438 298.981C200.698 299.28 200.828 299.67 200.802 300.065V342.832C200.828 343.228 200.698 343.617 200.438 343.917C200.179 344.216 199.812 344.402 199.417 344.432H167.688C167.293 344.402 166.926 344.216 166.667 343.917C166.408 343.617 166.277 343.228 166.303 342.832V300.068C166.276 299.673 166.407 299.282 166.666 298.982C166.925 298.682 167.293 298.496 167.688 298.465Z" fill="#F3F5F7"/>
<path d="M210.908 298.465H242.637C243.032 298.496 243.399 298.681 243.658 298.981C243.918 299.28 244.048 299.67 244.022 300.065V342.832C244.048 343.228 243.918 343.617 243.658 343.917C243.399 344.216 243.032 344.402 242.637 344.432H210.908C210.513 344.402 210.146 344.216 209.887 343.917C209.628 343.617 209.497 343.228 209.523 342.832V300.068C209.496 299.673 209.626 299.282 209.886 298.982C210.145 298.682 210.513 298.496 210.908 298.465Z" fill="#F3F5F7"/>
<path d="M255.727 298.465H287.454C287.85 298.495 288.218 298.68 288.477 298.979C288.737 299.279 288.867 299.67 288.839 300.065V342.832C288.867 343.228 288.737 343.618 288.477 343.918C288.218 344.218 287.85 344.403 287.454 344.432H255.727C255.332 344.402 254.965 344.216 254.706 343.917C254.447 343.617 254.316 343.228 254.342 342.832V300.068C254.315 299.673 254.446 299.282 254.705 298.982C254.964 298.682 255.332 298.496 255.727 298.465Z" fill="#EAF1F8"/>
<path d="M178.914 308.276C180.213 309.417 181.832 310.131 183.55 310.323C184.373 310.347 185.187 310.15 185.908 309.753C186.628 309.356 187.23 308.773 187.65 308.065C189.194 308.324 190.665 308.914 191.961 309.792C194.084 311.962 196.064 314.266 197.888 316.692L194.009 320.898L189.909 318.31L191.415 332.86H176.647L176.972 318.31L174.598 321.218L169.209 318.96C170.381 316.291 171.786 313.731 173.409 311.309C175.066 310.004 176.925 308.98 178.914 308.276Z" fill="#B7C3CF"/>
<path d="M138.568 190.743L137.892 183.992C137.892 183.992 133.076 182.092 134.061 179.676C135.046 177.26 140.266 179.896 140.266 179.896C140.836 177.63 141.007 175.283 140.773 172.958C140.441 168.707 139.085 166.158 140.754 164.729C142.423 163.3 144.969 164.839 142.292 159.87C139.615 154.901 133.979 151.388 132.88 156.282C131.781 161.176 128.351 160.727 125.932 162.626C123.513 164.525 126.082 173.711 126.082 173.711C126.082 173.711 122.069 173.259 121.317 176.049C120.565 178.839 120.507 186.522 127.848 188.749C135.189 190.976 138.568 190.743 138.568 190.743Z" fill="#032C58"/>
<path d="M146.915 187.165C144.906 187.141 142.908 186.865 140.968 186.343C140.847 186.309 140.745 186.228 140.684 186.119C140.623 186.009 140.608 185.88 140.642 185.759C140.658 185.7 140.685 185.645 140.722 185.596C140.76 185.548 140.806 185.507 140.859 185.477C140.912 185.447 140.97 185.427 141.031 185.419C141.091 185.411 141.153 185.415 141.212 185.431L141.227 185.436C143.504 186.043 145.863 186.288 148.216 186.163C148.337 186.149 148.459 186.183 148.555 186.258C148.651 186.333 148.713 186.442 148.729 186.563V186.587C148.74 186.712 148.701 186.836 148.62 186.932C148.54 187.028 148.425 187.089 148.3 187.1C147.845 187.147 147.38 187.165 146.915 187.165Z" fill="#032C58"/>
<path d="M136.652 282.321C136.652 282.321 135.02 282.321 134.873 290.035C134.726 297.749 141.845 329.198 142.142 337.951C142.439 346.704 135.022 384.233 135.762 387.793C136.179 389.86 136.836 391.872 137.719 393.786L136.148 398.009L146.778 400.765L148.845 395.448C148.845 395.448 150.421 395.448 153.079 392.692C155.737 389.936 164.103 347.116 164.103 347.116L145.003 280.674L136.652 282.321Z" fill="#03294C"/>
<path d="M174.188 277.283C174.188 277.283 186.803 326.615 189.507 337.883C192.211 349.151 197.165 382.937 196.941 388.342C196.672 391.879 195.508 395.29 193.56 398.254L195.445 403.133L183.469 405.7L181.636 399.83C181.636 399.83 176.772 399.981 175.183 395.697C173.594 391.413 164.101 347.116 164.101 347.116C164.101 347.116 146.319 298.036 144.977 293.637C143.635 289.238 141.923 281.662 141.923 281.662C141.923 281.662 153.286 276.041 158.542 276.53C163.798 277.019 174.188 277.283 174.188 277.283Z" fill="#032C58"/>
<path d="M199.716 180.031L201.542 178.541C212.692 169.441 229.419 154.677 229.817 151.263C229.907 150.462 229.808 149.652 229.526 148.897C229.245 148.142 228.789 147.463 228.197 146.917C227.688 146.432 227.072 146.076 226.398 145.877C225.724 145.679 225.013 145.644 224.323 145.775C221.243 146.388 220.496 150.528 220.49 150.575L219.166 150.347C219.203 150.14 220.09 145.255 224.059 144.463C224.956 144.289 225.883 144.331 226.76 144.588C227.638 144.844 228.442 145.306 229.105 145.935C229.852 146.625 230.427 147.481 230.782 148.435C231.137 149.388 231.262 150.411 231.147 151.422C230.997 152.777 229.04 155.283 226.218 158.256L254.056 172.941L199.716 180.031ZM225.247 159.259C218.714 165.935 208.538 174.5 204.197 178.093L249.697 172.154L225.247 159.259Z" fill="#032C58"/>
<path d="M215.553 163.242L224.434 172.355L235.272 161.055L254.506 169.897C256.111 170.634 257.544 171.697 258.715 173.019C259.886 174.341 260.768 175.892 261.306 177.574C264.588 187.843 271.638 209.786 273.566 214.689C276.103 221.148 284.261 243.642 284.261 243.642L284.072 254.569L273.458 257.453L268.258 250.453L253.237 211.353L259.145 255.534L232.037 271.334L199.296 260.597L194.329 207.075L178.64 250.217L175.178 212.151L195.362 177.2L215.553 163.242Z" fill="#0D53FC"/>
<path d="M270.048 250.239C269.986 250.239 269.925 250.228 269.867 250.204C269.81 250.181 269.757 250.146 269.713 250.103C269.669 250.059 269.634 250.007 269.61 249.95C269.586 249.893 269.574 249.831 269.573 249.769C269.573 249.668 269.605 249.569 269.665 249.487C269.725 249.405 269.809 249.345 269.906 249.315L282.57 245.337C282.63 245.321 282.693 245.317 282.755 245.325C282.817 245.333 282.876 245.353 282.93 245.384C282.984 245.415 283.031 245.457 283.069 245.506C283.107 245.556 283.135 245.612 283.151 245.672C283.182 245.787 283.168 245.908 283.114 246.013C283.059 246.118 282.967 246.199 282.856 246.24L270.188 250.217C270.143 250.231 270.096 250.239 270.048 250.239Z" fill="#032C58"/>
<path d="M225.974 170.327L232.758 177.021L240.594 161.667L234.337 159.995L225.974 170.327Z" fill="#0D53FC"/>
<path d="M223.888 171.241L218.472 179.597L209.001 165.843L216.001 162.816L223.888 171.241Z" fill="#0D53FC"/>
<path d="M232.638 177.731C232.574 177.731 232.51 177.717 232.451 177.692C232.392 177.666 232.338 177.628 232.294 177.581L225.631 170.646C225.552 170.563 225.506 170.453 225.501 170.338C225.497 170.223 225.534 170.11 225.607 170.02L233.97 159.694C234.027 159.624 234.104 159.571 234.19 159.543C234.276 159.514 234.369 159.511 234.457 159.533L240.716 161.208C240.776 161.224 240.833 161.252 240.882 161.289C240.932 161.327 240.973 161.374 241.004 161.427C241.036 161.481 241.056 161.54 241.064 161.602C241.073 161.664 241.069 161.726 241.053 161.786C241.045 161.819 241.033 161.851 241.017 161.88L233.059 177.466C233.025 177.534 232.975 177.592 232.914 177.636C232.853 177.68 232.782 177.708 232.707 177.718C232.685 177.725 232.661 177.729 232.638 177.731ZM226.603 170.304L232.516 176.458L239.906 161.983L234.512 160.54L226.603 170.304Z" fill="#032C58"/>
<path d="M218.643 180.068C218.567 180.069 218.491 180.051 218.422 180.016C218.354 179.981 218.294 179.931 218.249 179.868L211.588 170.368L208.618 166.363C208.58 166.31 208.553 166.249 208.538 166.184C208.524 166.12 208.524 166.053 208.536 165.988C208.549 165.923 208.576 165.862 208.614 165.807C208.652 165.753 208.701 165.707 208.757 165.673L214.918 161.994C215.01 161.941 215.116 161.92 215.221 161.933C215.325 161.946 215.422 161.994 215.497 162.068L224.228 170.913C224.304 170.989 224.351 171.089 224.363 171.195C224.375 171.301 224.35 171.408 224.293 171.499L219.041 179.853C218.998 179.919 218.939 179.973 218.869 180.01C218.8 180.048 218.722 180.068 218.643 180.068ZM209.693 166.219L212.36 169.819L218.615 178.749L223.29 171.317L215.09 163.003L209.693 166.219Z" fill="#032C58"/>
<path d="M429.047 354.231C428.957 354.232 428.867 354.219 428.78 354.192C427.727 354.022 409.651 351.168 398.201 352.386C398.14 352.393 398.077 352.387 398.018 352.37C397.958 352.352 397.902 352.323 397.854 352.284C397.806 352.245 397.765 352.197 397.736 352.143C397.706 352.088 397.687 352.028 397.68 351.966C397.674 351.905 397.679 351.842 397.697 351.782C397.714 351.723 397.744 351.667 397.783 351.619C397.822 351.57 397.87 351.53 397.924 351.5C397.979 351.471 398.039 351.452 398.1 351.445C409.963 350.179 428.792 353.235 428.98 353.266C429.03 353.275 429.078 353.291 429.122 353.313C429.077 353.286 430.736 353.013 431.967 343.183C432.607 338.065 432.884 335.848 433.1 334.904C433.1 334.832 433.109 334.764 433.109 334.728C433.291 334.178 433.427 334.193 433.63 334.219C434.113 334.272 434.071 334.699 434.021 335.241C434.013 335.333 433.978 335.419 433.921 335.491C433.79 336.391 433.507 338.501 432.907 343.305C432.107 349.731 430.981 353.361 429.575 354.1C429.413 354.187 429.232 354.232 429.047 354.231Z" fill="#032C58"/>
<path d="M424.764 179.098C424.683 179.098 424.605 179.069 424.544 179.016C424.474 178.958 424.429 178.874 424.421 178.784C424.412 178.693 424.439 178.603 424.497 178.533C424.637 178.307 424.712 178.046 424.712 177.78C424.712 177.513 424.637 177.253 424.497 177.027C424.469 176.991 424.448 176.95 424.436 176.906C424.424 176.863 424.42 176.817 424.426 176.772C424.431 176.727 424.445 176.684 424.468 176.644C424.49 176.605 424.52 176.57 424.556 176.543C424.628 176.486 424.719 176.461 424.81 176.472C424.901 176.484 424.984 176.53 425.04 176.603C425.28 176.942 425.406 177.35 425.4 177.766C425.413 178.198 425.28 178.622 425.024 178.971C424.992 179.009 424.953 179.041 424.908 179.063C424.863 179.084 424.814 179.096 424.764 179.098Z" fill="white"/>
<path d="M425.93 179.538C425.866 179.538 425.803 179.521 425.748 179.487C425.671 179.439 425.616 179.362 425.595 179.273C425.574 179.185 425.59 179.092 425.638 179.014C425.854 178.635 425.976 178.209 425.992 177.772C425.955 177.312 425.83 176.862 425.623 176.449C425.602 176.409 425.59 176.365 425.587 176.32C425.584 176.275 425.589 176.23 425.603 176.187C425.617 176.144 425.64 176.105 425.669 176.071C425.699 176.036 425.734 176.008 425.775 175.988C425.815 175.968 425.859 175.956 425.904 175.952C425.949 175.949 425.994 175.954 426.037 175.968C426.079 175.982 426.119 176.005 426.153 176.034C426.187 176.063 426.215 176.099 426.236 176.139C426.493 176.65 426.646 177.207 426.687 177.777C426.669 178.34 426.512 178.89 426.228 179.377C426.196 179.428 426.152 179.469 426.1 179.497C426.048 179.525 425.989 179.54 425.93 179.538Z" fill="white"/>
<path d="M427.068 180.131C426.976 180.13 426.889 180.093 426.824 180.028C426.759 179.963 426.723 179.875 426.723 179.783C426.724 179.725 426.739 179.668 426.767 179.616C427.074 179.051 427.252 178.425 427.289 177.783C427.226 177.111 427.045 176.455 426.755 175.845C426.735 175.805 426.724 175.76 426.721 175.715C426.719 175.67 426.725 175.625 426.74 175.582C426.755 175.539 426.778 175.5 426.808 175.466C426.838 175.432 426.874 175.405 426.915 175.385C426.956 175.365 427 175.354 427.045 175.351C427.09 175.348 427.135 175.355 427.178 175.369C427.221 175.384 427.26 175.407 427.294 175.437C427.328 175.467 427.355 175.504 427.375 175.544C427.71 176.246 427.914 177.003 427.975 177.778C427.941 178.541 427.731 179.285 427.363 179.953C427.334 180.006 427.291 180.05 427.239 180.082C427.188 180.113 427.129 180.13 427.068 180.131Z" fill="white"/>
<path d="M428.233 180.697C428.142 180.698 428.054 180.663 427.989 180.6C427.924 180.536 427.887 180.449 427.885 180.358C427.885 180.296 427.901 180.234 427.932 180.18C428.333 179.447 428.548 178.628 428.56 177.792C428.461 176.879 428.22 175.987 427.846 175.148C427.809 175.065 427.807 174.971 427.839 174.886C427.871 174.801 427.936 174.733 428.019 174.695C428.06 174.677 428.105 174.667 428.15 174.665C428.195 174.664 428.24 174.671 428.282 174.687C428.324 174.703 428.363 174.727 428.396 174.758C428.428 174.789 428.455 174.826 428.473 174.867C428.885 175.786 429.147 176.765 429.249 177.767C429.246 178.734 428.998 179.684 428.527 180.528C428.497 180.58 428.454 180.622 428.402 180.652C428.351 180.681 428.293 180.697 428.233 180.697Z" fill="white"/>
<path d="M401.529 201.02H362.184C361.586 201.02 361.102 201.504 361.102 202.102V203.74C361.102 204.337 361.586 204.822 362.184 204.822H401.529C402.126 204.822 402.611 204.337 402.611 203.74V202.102C402.611 201.504 402.126 201.02 401.529 201.02Z" fill="white"/>
<path d="M232.952 266.921C232.834 266.921 232.72 266.877 232.633 266.797C232.546 266.717 232.492 266.607 232.481 266.489L223.973 173.104C223.963 172.979 224.002 172.855 224.082 172.759C224.163 172.662 224.278 172.601 224.402 172.589C224.523 172.575 224.644 172.609 224.74 172.684C224.836 172.759 224.898 172.868 224.913 172.989V173.014L233.42 266.399C233.432 266.524 233.393 266.649 233.313 266.745C233.232 266.842 233.117 266.903 232.991 266.914L232.952 266.921Z" fill="#032C58"/>
<path d="M137.96 192.412C137.96 192.412 131.548 193.779 130.049 197.92C128.55 202.061 128.027 230.341 127.741 240.66C127.455 250.979 125.721 272.541 129.547 274.575C131.403 275.423 133.087 276.605 134.515 278.063L134.301 283.286C134.301 283.286 149.296 279.222 156.646 278.486C163.996 277.75 176.215 277.12 176.215 277.12L175.984 272.699C175.984 272.699 179.648 271.331 179.543 261.199C180.061 253.948 176.725 216.782 176.725 216.782C176.725 216.782 198.864 209.991 201.939 205.542C205.014 201.093 218.011 161.53 218.011 161.53L207.969 158.236L206.949 159.972L198.188 154.953C198.188 154.953 186.197 177.753 180.259 178.94C174.321 180.127 157.53 184.929 154.068 186.076C152.36 186.499 150.794 187.365 149.528 188.587L152.597 191.779C152.597 191.779 153.61 195.201 148.25 195.543C144.088 195.802 137.96 192.412 137.96 192.412Z" fill="#74D3AF"/>
<path d="M137.621 200.212C137.559 200.211 137.498 200.198 137.441 200.173C137.384 200.149 137.332 200.113 137.289 200.068C137.246 200.023 137.212 199.97 137.189 199.912C137.166 199.855 137.155 199.793 137.156 199.73C137.158 199.613 137.204 199.5 137.285 199.414C137.366 199.328 137.476 199.275 137.593 199.266C137.945 199.244 172.993 197.175 182.508 191.228C192.023 185.281 205.593 160.828 205.728 160.587C205.779 160.473 205.873 160.383 205.99 160.337C206.106 160.291 206.236 160.294 206.351 160.344C206.408 160.369 206.46 160.405 206.502 160.45C206.545 160.495 206.579 160.547 206.602 160.605C206.624 160.663 206.635 160.725 206.634 160.787C206.633 160.849 206.619 160.91 206.594 160.966C206.583 160.992 206.57 161.016 206.555 161.038C205.995 162.053 192.736 185.949 183.011 192.025C173.286 198.101 139.1 200.125 137.647 200.205L137.621 200.212Z" fill="#032C58"/>
<path d="M154.953 224.636C149.708 224.636 143.303 222.91 140.465 218.651C140.396 218.546 140.371 218.419 140.396 218.296C140.421 218.173 140.493 218.065 140.597 217.996C140.649 217.961 140.707 217.937 140.768 217.925C140.829 217.913 140.892 217.913 140.953 217.925C141.014 217.937 141.071 217.961 141.123 217.996C141.175 218.03 141.219 218.075 141.253 218.127C144.599 223.144 153.707 224.388 158.736 223.334C163.872 222.252 175.085 219.819 175.085 219.819L175.285 220.743C175.285 220.743 164.068 223.177 158.93 224.26C157.621 224.52 156.288 224.646 154.953 224.636Z" fill="#032C58"/>
<path d="M168.429 195.752C168.344 195.753 168.26 195.73 168.187 195.686L160.487 191.086C160.377 191.027 160.294 190.926 160.258 190.806C160.221 190.686 160.234 190.557 160.293 190.446C160.322 190.391 160.362 190.343 160.41 190.304C160.458 190.264 160.514 190.235 160.573 190.217C160.633 190.199 160.695 190.193 160.757 190.199C160.819 190.205 160.878 190.224 160.933 190.253C160.946 190.26 160.958 190.267 160.97 190.275L168.675 194.875C168.783 194.939 168.862 195.042 168.894 195.164C168.926 195.285 168.908 195.414 168.845 195.522C168.803 195.594 168.743 195.653 168.67 195.694C168.598 195.735 168.516 195.757 168.433 195.756L168.429 195.752Z" fill="#032C58"/>
<path d="M137.904 278.645C137.842 278.643 137.781 278.629 137.724 278.604C137.667 278.578 137.616 278.542 137.574 278.497C137.531 278.452 137.498 278.399 137.475 278.341C137.453 278.283 137.443 278.222 137.445 278.16C137.446 278.071 137.474 277.984 137.523 277.91C137.572 277.836 137.641 277.777 137.722 277.741C138.122 277.573 147.731 273.616 155.033 273.772C161.442 273.655 167.838 273.142 174.184 272.234C174.307 272.217 174.432 272.25 174.532 272.325C174.632 272.4 174.698 272.51 174.718 272.634C174.736 272.758 174.704 272.884 174.629 272.984C174.554 273.085 174.442 273.151 174.318 273.17C167.921 274.073 161.476 274.59 155.018 274.716C147.904 274.532 138.181 278.571 138.085 278.616C138.027 278.637 137.965 278.646 137.904 278.645Z" fill="#032C58"/>
<path d="M147.106 196.225C144.04 195.985 141.076 195.017 138.461 193.401C138.358 193.328 138.289 193.218 138.268 193.094C138.247 192.97 138.277 192.843 138.35 192.74C138.417 192.646 138.516 192.58 138.628 192.553C138.741 192.527 138.859 192.543 138.961 192.597C139.021 192.635 144.91 196.258 148.988 195.024C150.982 194.424 151.688 193.649 151.924 193.112C152.067 192.809 152.089 192.462 151.983 192.144C151.956 192.088 151.941 192.027 151.938 191.965C151.935 191.903 151.944 191.841 151.965 191.783C151.986 191.724 152.018 191.67 152.059 191.624C152.101 191.578 152.151 191.541 152.208 191.514C152.264 191.488 152.325 191.472 152.387 191.469C152.449 191.466 152.511 191.475 152.569 191.496C152.628 191.517 152.682 191.549 152.728 191.591C152.774 191.633 152.811 191.683 152.838 191.739C152.951 192.019 153.006 192.32 152.997 192.622C152.988 192.924 152.917 193.221 152.788 193.494C152.405 194.126 151.893 194.67 151.284 195.089C150.676 195.509 149.986 195.795 149.26 195.928C148.56 196.132 147.834 196.232 147.106 196.225Z" fill="#032C58"/>
<path d="M221.615 306.805C221.615 306.805 222.715 311.874 225.798 312.122C228.881 312.37 230.142 306.805 230.142 306.805C230.142 306.805 231.298 306.105 233.152 307.59C230.319 314.29 233.625 318.599 233.625 318.599L234.778 335.19H217.867L218.237 318.531C218.237 318.531 221.309 316.599 219.003 307.794C219.756 307.212 220.666 306.868 221.615 306.805Z" fill="#B7C3CF"/>
<path d="M266.715 308.863H277.198L278.774 315.063L281.363 336.546L276.589 336.997L272.189 318.96L269.48 336.997L264.314 336.148L265.438 315.425L266.715 308.863Z" fill="#0D53FC"/>
<path d="M361.304 246.497H423.349C424.482 246.587 425.533 247.121 426.275 247.982C427.017 248.844 427.389 249.963 427.311 251.097V310.272C427.389 311.406 427.018 312.526 426.276 313.387C425.534 314.248 424.482 314.782 423.349 314.872H361.304C360.17 314.782 359.118 314.249 358.376 313.387C357.634 312.526 357.262 311.406 357.342 310.272V251.088C357.265 249.955 357.638 248.838 358.379 247.979C359.121 247.119 360.172 246.587 361.304 246.497Z" fill="white"/>
<path d="M423.347 315.331H361.304C360.047 315.239 358.876 314.656 358.046 313.707C357.216 312.758 356.793 311.52 356.869 310.262V251.088C356.792 249.829 357.215 248.591 358.045 247.642C358.876 246.693 360.047 246.11 361.304 246.02H423.347C424.605 246.11 425.776 246.693 426.607 247.642C427.437 248.591 427.86 249.829 427.783 251.088V310.262C427.86 311.52 427.437 312.758 426.606 313.707C425.776 314.656 424.605 315.239 423.347 315.331ZM361.304 246.967C360.299 247.059 359.369 247.542 358.717 248.313C358.064 249.084 357.741 250.08 357.816 251.088V310.262C357.741 311.269 358.064 312.265 358.717 313.037C359.369 313.808 360.298 314.291 361.304 314.384H423.347C424.354 314.292 425.284 313.808 425.937 313.037C426.59 312.266 426.914 311.269 426.838 310.262V251.088C426.914 250.08 426.59 249.083 425.937 248.312C425.284 247.541 424.354 247.058 423.347 246.967H361.304Z" fill="#0D53FC"/>
<path d="M207.534 158.39L217.634 161.408L220.449 154.108C220.449 154.108 226.606 149.308 226.887 146.208C227.168 143.108 225.754 142.055 225.587 140.89C225.42 139.725 225.839 136.595 224.534 136.439C223.229 136.283 217.119 141.992 217.119 141.992C217.119 141.992 218.084 133.946 216.952 133.261C215.82 132.576 213.119 140.411 213.119 140.411C213.167 143.186 213.004 145.961 212.633 148.711C212.113 150.381 207.534 158.39 207.534 158.39Z" fill="#F8B29B"/>
<path d="M254.788 293.457H318.734C319.531 293.518 320.272 293.892 320.795 294.497C321.318 295.102 321.58 295.888 321.526 296.686V382.879C321.58 383.677 321.317 384.463 320.794 385.068C320.271 385.673 319.531 386.048 318.734 386.11H254.788C253.991 386.048 253.25 385.673 252.727 385.068C252.204 384.464 251.941 383.677 251.994 382.879V296.686C251.941 295.888 252.204 295.102 252.727 294.497C253.25 293.892 253.991 293.519 254.788 293.457Z" fill="white"/>
<path d="M318.74 386.582H254.788C253.866 386.52 253.006 386.097 252.395 385.404C251.783 384.711 251.47 383.805 251.522 382.882V296.682C251.47 295.76 251.783 294.854 252.395 294.161C253.006 293.468 253.866 293.045 254.788 292.982H318.736C319.658 293.045 320.518 293.469 321.129 294.162C321.74 294.854 322.053 295.76 322.001 296.682V382.875C322.056 383.798 321.744 384.705 321.133 385.399C320.522 386.094 319.663 386.519 318.74 386.582ZM254.788 293.931C254.117 293.995 253.498 294.319 253.064 294.835C252.63 295.35 252.416 296.016 252.468 296.687V382.881C252.416 383.553 252.63 384.219 253.064 384.734C253.498 385.25 254.117 385.574 254.788 385.637H318.736C319.407 385.574 320.026 385.249 320.459 384.734C320.893 384.218 321.107 383.553 321.054 382.881V296.681C321.107 296.01 320.893 295.344 320.459 294.829C320.026 294.313 319.407 293.988 318.736 293.924L254.788 293.931Z" fill="#0D53FC"/>
<path d="M299.852 374.144C299.851 371.796 300.784 369.544 302.444 367.883C304.104 366.223 306.355 365.29 308.704 365.289C309.866 365.289 311.018 365.518 312.092 365.962C313.166 366.407 314.142 367.059 314.964 367.881C315.787 368.703 316.439 369.679 316.884 370.753C317.329 371.827 317.558 372.978 317.559 374.141C317.559 375.304 317.33 376.455 316.885 377.53C316.441 378.604 315.789 379.58 314.967 380.402C314.145 381.225 313.169 381.877 312.095 382.322C311.021 382.768 309.869 382.997 308.707 382.997C307.544 382.997 306.392 382.769 305.318 382.324C304.244 381.879 303.268 381.227 302.445 380.405C301.623 379.583 300.971 378.607 300.526 377.532C300.081 376.458 299.852 375.307 299.852 374.144Z" fill="#74D3AF"/>
<path d="M308.724 371.791C308.724 371.791 306.981 368.745 304.617 370.299C299.433 373.707 308.691 380.263 308.691 380.263C308.691 380.263 317.797 373.54 312.951 370.299C310.571 368.71 308.724 371.791 308.724 371.791Z" fill="white"/>
<path d="M277.715 309.03C280.252 311.258 283.41 312.654 286.765 313.03C292.024 313.45 294.765 308.61 294.765 308.61C297.78 309.114 300.651 310.263 303.181 311.977C306.342 314.502 314.754 325.445 314.754 325.445L307.178 333.652L299.18 328.597L302.123 357.005H273.302L273.936 328.597L269.304 334.278L258.781 329.859C258.781 329.859 264.254 317.859 266.99 314.919C269.726 311.979 277.715 309.03 277.715 309.03Z" fill="#0D53FC"/>
<path d="M62.5548 158.259C62.5466 155.32 63.1175 152.407 64.2349 149.688C65.3523 146.969 66.9942 144.497 69.067 142.413C71.1398 140.329 73.6028 138.673 76.3155 137.541C79.0281 136.408 81.9372 135.821 84.8767 135.813C90.8135 135.797 96.5137 138.14 100.723 142.326C104.933 146.512 107.307 152.199 107.324 158.136C107.34 164.073 104.997 169.773 100.811 173.982C96.6245 178.192 90.9375 180.566 85.0008 180.582H84.9378C82.0023 180.586 79.0946 180.012 76.381 178.893C73.6674 177.773 71.2009 176.13 69.1224 174.057C67.0439 171.984 65.3941 169.522 64.2672 166.811C63.1403 164.101 62.5584 161.195 62.5548 158.259Z" fill="white"/>
<path d="M84.9392 181.056C78.8931 181.039 73.1012 178.621 68.8374 174.335C64.5735 170.048 62.1868 164.244 62.2022 158.198C62.2189 152.151 64.6364 146.36 68.9229 142.096C73.2095 137.832 79.0141 135.445 85.0602 135.461C91.096 135.477 96.8789 137.887 101.141 142.161C105.403 146.435 107.796 152.225 107.796 158.261C107.781 164.312 105.365 170.11 101.081 174.384C96.7957 178.657 90.9908 181.056 84.9392 181.056ZM84.9392 136.41C79.1441 136.426 73.5928 138.743 69.5064 142.852C65.42 146.961 63.1333 152.525 63.1492 158.321C63.1654 164.116 65.4829 169.667 69.592 173.753C73.7011 177.84 79.2651 180.126 85.0602 180.111C90.8448 180.094 96.3869 177.785 100.472 173.689C104.556 169.593 106.85 164.044 106.85 158.26C106.835 152.459 104.52 146.901 100.412 142.805C96.3045 138.709 90.7401 136.409 84.9392 136.41Z" fill="#0D53FC"/>
<path d="M412.169 212.698C412.153 206.762 414.496 201.063 418.681 196.854C422.867 192.646 428.552 190.272 434.488 190.254C437.428 190.246 440.341 190.816 443.06 191.934C445.78 193.051 448.252 194.693 450.337 196.766C452.422 198.839 454.078 201.302 455.21 204.015C456.343 206.728 456.93 209.638 456.938 212.577C456.954 218.514 454.611 224.214 450.425 228.424C446.239 232.633 440.552 235.007 434.615 235.023H434.555C431.619 235.028 428.711 234.453 425.997 233.334C423.283 232.214 420.817 230.57 418.738 228.497C416.659 226.424 415.009 223.962 413.882 221.251C412.755 218.54 412.173 215.633 412.169 212.698Z" fill="white"/>
<path d="M434.55 235.497C428.505 235.48 422.714 233.062 418.451 228.776C414.188 224.49 411.801 218.686 411.816 212.64C411.834 206.595 414.252 200.804 418.538 196.541C422.824 192.278 428.628 189.891 434.673 189.906C440.709 189.924 446.491 192.334 450.753 196.608C455.014 200.882 457.408 206.671 457.407 212.706C457.391 218.757 454.976 224.555 450.691 228.827C446.406 233.1 440.602 235.499 434.55 235.497ZM434.55 190.853C431.681 190.861 428.842 191.434 426.194 192.54C423.546 193.645 421.142 195.261 419.119 197.296C417.096 199.33 415.493 201.744 414.403 204.397C413.312 207.051 412.755 209.894 412.763 212.763C412.771 215.633 413.345 218.472 414.45 221.12C415.555 223.768 417.172 226.172 419.206 228.195C421.241 230.218 423.654 231.82 426.308 232.911C428.962 234.001 431.804 234.558 434.673 234.55C440.458 234.534 446 232.224 450.084 228.128C454.169 224.031 456.462 218.482 456.46 212.697C456.446 206.897 454.132 201.338 450.024 197.242C445.916 193.147 440.351 190.848 434.55 190.85V190.853Z" fill="#0D53FC"/>
<path d="M183.548 103.615C187.817 103.615 191.277 100.155 191.277 95.8862C191.277 91.6176 187.817 88.1572 183.548 88.1572C179.28 88.1572 175.819 91.6176 175.819 95.8862C175.819 100.155 179.28 103.615 183.548 103.615Z" fill="#BACEFE"/>
<path d="M302.381 101.322C302.38 102.663 301.847 103.95 300.899 104.898C299.95 105.846 298.664 106.379 297.323 106.379C295.981 106.379 294.695 105.846 293.746 104.898C292.798 103.95 292.265 102.663 292.265 101.322C292.265 99.981 292.797 98.6948 293.745 97.7463C294.694 96.7978 295.98 96.2647 297.321 96.2642C298.662 96.2642 299.949 96.797 300.898 97.7455C301.847 98.694 302.38 99.9805 302.381 101.322Z" fill="#B7C3CF"/>
<path d="M369.775 393.362C369.776 392.599 369.926 391.843 370.218 391.138C370.511 390.432 370.939 389.792 371.479 389.252C372.019 388.712 372.66 388.284 373.365 387.992C374.071 387.7 374.827 387.55 375.59 387.55C376.354 387.55 377.11 387.701 377.815 387.993C378.52 388.286 379.161 388.714 379.701 389.254C380.241 389.794 380.669 390.435 380.961 391.14C381.253 391.846 381.403 392.602 381.402 393.365C381.402 394.907 380.789 396.385 379.7 397.474C378.61 398.564 377.132 399.177 375.59 399.177C374.827 399.178 374.071 399.027 373.365 398.735C372.66 398.444 372.019 398.015 371.479 397.476C370.939 396.936 370.511 396.295 370.218 395.59C369.926 394.885 369.776 394.129 369.775 393.365V393.362Z" fill="#BACEFE"/>
<path d="M360.388 103.616C360.388 104.349 360.097 105.052 359.578 105.57C359.06 106.088 358.357 106.379 357.624 106.379C356.891 106.379 356.189 106.088 355.67 105.57C355.152 105.052 354.861 104.349 354.86 103.616C354.86 102.883 355.152 102.18 355.67 101.662C356.188 101.143 356.891 100.852 357.624 100.852C358.357 100.852 359.06 101.143 359.579 101.662C360.097 102.18 360.388 102.883 360.388 103.616Z" fill="#BACEFE"/>
<path d="M62.8746 317.782C61.4651 317.782 60.0695 317.505 58.7674 316.965C57.4653 316.426 56.2822 315.635 55.2856 314.639C54.289 313.642 53.4985 312.459 52.9592 311.157C52.42 309.854 52.1424 308.459 52.1426 307.049C52.1426 304.203 53.2733 301.473 55.2859 299.461C57.2986 297.448 60.0283 296.317 62.8746 296.317C65.721 296.317 68.4508 297.448 70.4636 299.461C72.4764 301.473 73.6073 304.203 73.6076 307.049C73.6042 309.895 72.4723 312.623 70.4602 314.635C68.4481 316.647 65.7201 317.779 62.8746 317.782ZM62.8746 298.213C61.7138 298.214 60.5645 298.443 59.4922 298.887C58.4199 299.331 57.4457 299.983 56.6251 300.804C55.8045 301.625 55.1536 302.599 54.7097 303.672C54.2657 304.744 54.0373 305.894 54.0376 307.054C54.0377 308.215 54.2665 309.364 54.7108 310.437C55.1552 311.509 55.8064 312.483 56.6273 313.304C57.4481 314.124 58.4226 314.775 59.4951 315.219C60.5675 315.663 61.7169 315.892 62.8776 315.891C65.2213 315.891 67.4688 314.96 69.126 313.303C70.7832 311.646 71.7143 309.398 71.7146 307.054C71.7127 304.71 70.7809 302.462 69.1236 300.804C67.4663 299.146 65.2189 298.213 62.8746 298.21V298.213Z" fill="#BACEFE"/>
<path d="M476.057 218.909C474.648 218.909 473.252 218.632 471.95 218.093C470.648 217.553 469.465 216.763 468.468 215.766C467.471 214.77 466.681 213.587 466.141 212.285C465.602 210.982 465.324 209.587 465.324 208.177C465.324 205.331 466.455 202.601 468.468 200.588C470.481 198.575 473.211 197.444 476.057 197.444C477.467 197.444 478.862 197.722 480.164 198.262C481.466 198.801 482.649 199.592 483.646 200.588C484.642 201.585 485.432 202.768 485.972 204.07C486.511 205.372 486.788 206.768 486.788 208.177C486.785 211.022 485.653 213.75 483.642 215.762C481.63 217.774 478.902 218.906 476.057 218.909ZM476.057 199.341C474.896 199.341 473.747 199.57 472.675 200.015C471.602 200.459 470.628 201.11 469.807 201.931C468.987 202.752 468.336 203.726 467.892 204.799C467.448 205.871 467.219 207.021 467.219 208.181C467.22 210.526 468.151 212.774 469.809 214.431C471.467 216.089 473.716 217.02 476.06 217.019C478.404 217.019 480.651 216.087 482.309 214.43C483.966 212.773 484.897 210.525 484.897 208.181C484.896 205.837 483.964 203.589 482.306 201.931C480.649 200.273 478.401 199.341 476.057 199.338V199.341Z" fill="#BACEFE"/>
<path d="M219.366 90.0085C218.373 90.0088 217.391 89.8136 216.474 89.434C215.557 89.0545 214.724 88.498 214.022 87.7965C213.32 87.0949 212.763 86.262 212.383 85.3452C212.003 84.4285 211.808 83.4459 211.808 82.4535C211.807 80.4494 212.603 78.5273 214.02 77.11C215.437 75.6926 217.359 74.896 219.363 74.8955C221.367 74.8955 223.289 75.6914 224.706 77.1081C226.123 78.5249 226.92 80.4465 226.921 82.4505C226.918 84.4538 226.122 86.3746 224.706 87.7914C223.289 89.2083 221.369 90.0056 219.366 90.0085ZM219.366 76.7895C217.863 76.7892 216.422 77.3857 215.36 78.4477C214.297 79.5097 213.7 80.9502 213.7 82.4525C213.699 83.1964 213.846 83.9331 214.13 84.6204C214.415 85.3078 214.832 85.9324 215.357 86.4585C215.883 86.9847 216.508 87.4021 217.195 87.6869C217.882 87.9717 218.619 88.1184 219.363 88.1185C220.865 88.1185 222.305 87.522 223.368 86.46C224.43 85.3981 225.028 83.9577 225.029 82.4555C225.027 80.9538 224.43 79.514 223.369 78.4519C222.307 77.3899 220.867 76.7924 219.366 76.7905V76.7895Z" fill="#BACEFE"/>
<path d="M454.381 194.789L453.327 193.952L453.747 193.428C453.747 193.428 454.347 192.676 455.316 191.291L455.7 190.741L456.8 191.509L456.416 192.06C455.416 193.488 454.795 194.265 454.795 194.265L454.381 194.789ZM459.029 188.095L457.881 187.395L458.231 186.822C458.665 186.108 459.121 185.339 459.586 184.522L459.916 183.937L461.084 184.603L460.751 185.184C460.279 186.011 459.822 186.789 459.378 187.516L459.029 188.095ZM462.99 181.02L461.785 180.42L462.085 179.82C462.469 179.046 462.855 178.241 463.232 177.412L463.514 176.812L464.732 177.37L464.453 177.97C464.067 178.81 463.678 179.624 463.288 180.412L462.99 181.02ZM466.322 173.62L465.071 173.137L465.314 172.511C465.628 171.695 465.935 170.862 466.235 170.011L466.458 169.379L467.722 169.83L467.499 170.463C467.197 171.326 466.885 172.171 466.563 173L466.322 173.62ZM468.934 165.943L467.641 165.59L467.817 164.942C468.05 164.096 468.269 163.238 468.473 162.367L468.624 161.713L469.924 162.013L469.773 162.666C469.566 163.554 469.344 164.429 469.106 165.292L468.934 165.943ZM470.707 158.015L469.381 157.815L469.481 157.151C469.614 156.284 469.728 155.407 469.822 154.52L469.895 153.853L471.228 154.004L471.156 154.67C471.056 155.574 470.939 156.471 470.805 157.36L470.707 158.015ZM471.488 149.923L470.147 149.9L470.166 148.273C470.166 147.712 470.166 147.146 470.142 146.58L470.123 145.91L471.463 145.871L471.484 146.541C471.501 147.122 471.509 147.7 471.508 148.275C471.508 148.591 471.488 149.914 471.488 149.914V149.923ZM469.799 141.968L469.71 141.301C469.597 140.434 469.457 139.562 469.296 138.689L469.173 138.028L470.49 137.784L470.615 138.444C470.781 139.341 470.923 140.236 471.041 141.128L471.128 141.791L469.799 141.968ZM468.247 134.188L468.055 133.546C467.805 132.709 467.53 131.871 467.231 131.032L467.005 130.401L468.268 129.95L468.496 130.582C468.796 131.443 469.084 132.304 469.342 133.163L469.533 133.806L468.247 134.188ZM465.481 126.754L465.192 126.154C464.813 125.37 464.411 124.586 463.987 123.801L463.665 123.213L464.841 122.57L465.163 123.158C465.602 123.958 466.016 124.764 466.405 125.576L466.697 126.176L465.481 126.754ZM461.593 119.83L461.216 119.276C460.727 118.554 460.214 117.835 459.676 117.12L459.276 116.584L460.35 115.778L460.75 116.315C461.301 117.048 461.826 117.784 462.326 118.522L462.702 119.076L461.593 119.83ZM456.756 113.52L456.305 113.02C455.723 112.369 455.121 111.721 454.498 111.077L454.033 110.594L454.998 109.662L455.463 110.142C456.099 110.8 456.713 111.46 457.307 112.123L457.759 112.623L456.756 113.52ZM451.166 107.848L450.666 107.396C450.013 106.815 449.343 106.239 448.649 105.662L448.134 105.235L448.992 104.202L449.507 104.631C450.209 105.216 450.892 105.804 451.557 106.395L452.057 106.847L451.166 107.848ZM380.266 103.823L379.687 102.623L380.287 102.335C381.023 101.983 381.845 101.605 382.746 101.208L383.359 100.937L383.898 102.164L383.285 102.435C382.397 102.826 381.585 103.201 380.863 103.545L380.266 103.823ZM444.958 102.879L444.398 102.512C443.656 102.021 442.904 101.558 442.152 101.123L441.569 100.787L442.241 99.6251L442.82 99.9601C443.6 100.411 444.372 100.889 445.138 101.392L445.698 101.761L444.958 102.879ZM387.595 100.636L387.12 99.3811L387.746 99.1451C388.558 98.8351 389.404 98.5268 390.285 98.2201L390.918 97.9991L391.36 99.2651C391.36 99.2651 389.022 100.091 388.223 100.397L387.595 100.636ZM438.05 99.0111L437.433 98.7441C436.619 98.3921 435.801 98.0655 434.979 97.7641L434.349 97.5341L434.811 96.2761L435.441 96.5061C436.285 96.8161 437.126 97.1521 437.966 97.5141L438.581 97.7811L438.05 99.0111ZM395.162 98.0591L394.792 96.7691L395.438 96.5841C396.287 96.3421 397.16 96.1041 398.048 95.8771L398.7 95.7101L399.029 97.0101L398.382 97.1771C397.506 97.4001 396.648 97.6291 395.808 97.8771L395.162 98.0591ZM430.569 96.3841L429.915 96.2241C429.055 96.0135 428.193 95.8255 427.329 95.6601L426.669 95.5331L426.923 94.2161L427.579 94.3431C428.465 94.5131 429.35 94.7058 430.236 94.9211L430.885 95.0821L430.569 96.3841ZM402.917 96.1391L402.667 94.8231L403.327 94.6971C404.204 94.5301 405.094 94.3741 405.994 94.2361L406.658 94.1361L406.858 95.4621L406.198 95.5621C405.31 95.7001 404.436 95.8505 403.574 96.0131L402.917 96.1391ZM422.752 94.9931L422.084 94.9341C421.199 94.8551 420.318 94.7971 419.436 94.7581L418.766 94.7301L418.823 93.3901L419.495 93.4191C420.398 93.4591 421.301 93.5188 422.204 93.5981L422.872 93.6561L422.752 94.9931ZM410.809 94.9861L410.699 93.6471L411.368 93.5931C412.265 93.5191 413.168 93.4631 414.077 93.4251L414.745 93.3961L414.803 94.7361L414.133 94.7641C413.244 94.8021 412.361 94.8568 411.484 94.9281L410.809 94.9861Z" fill="#0D53FC"/>
<path d="M349.751 366.457L349.722 365.116L350.392 365.102C351.262 365.083 352.143 365.036 353.026 364.952L353.693 364.893L353.812 366.23L353.144 366.288C352.232 366.37 351.325 366.421 350.422 366.439L349.751 366.457ZM345.651 366.29L344.984 366.225C344.066 366.135 343.166 366.019 342.284 365.885L341.623 365.785L341.823 364.459L342.486 364.559C343.34 364.69 344.217 364.802 345.113 364.889L345.781 364.955L345.651 366.29ZM357.881 365.569L357.565 364.269L358.217 364.109C359.061 363.903 359.903 363.658 360.741 363.384L361.379 363.172L361.804 364.444L361.169 364.656C360.317 364.94 359.432 365.193 358.536 365.408L357.881 365.569ZM337.616 364.969L336.967 364.805C336.047 364.572 335.173 364.328 334.351 364.079L333.71 363.879L334.098 362.593L334.739 362.787C335.539 363.03 336.395 363.27 337.298 363.499L337.949 363.662L337.616 364.969ZM365.6 362.813L364.966 361.632L365.555 361.314C366.326 360.902 367.083 360.449 367.813 359.973L368.371 359.604L369.112 360.724L368.552 361.093C367.799 361.593 367.001 362.064 366.198 362.493L365.6 362.813ZM329.849 362.527L329.229 362.274C327.654 361.635 326.757 361.18 326.721 361.162L326.121 360.862L326.721 359.662L327.321 359.962C327.321 359.962 328.208 360.414 329.729 361.03L330.35 361.281L329.849 362.527ZM372.341 358.201L371.474 357.178L374.499 354.551L375.389 355.551L372.341 358.201ZM378.348 352.764L377.392 351.824L377.863 351.346C378.534 350.663 379.137 350.02 379.67 349.417L380.121 348.917L381.121 349.809L380.67 350.309C380.116 350.928 379.499 351.589 378.809 352.287L378.348 352.764ZM383.648 346.522L382.5 345.83L382.846 345.256C383.293 344.544 383.656 343.782 383.927 342.985L384.127 342.345L385.402 342.745L385.202 343.385C384.902 344.282 384.499 345.14 384.002 345.944L383.648 346.522Z" fill="#0D53FC"/>
<path d="M72.0782 135.285L71.9922 134.621C71.9199 133.944 71.8866 133.264 71.8922 132.583C71.8922 132.353 71.9242 131.165 71.9242 131.165L73.2632 131.202C73.2632 131.202 73.2332 132.363 73.2332 132.583C73.2279 133.207 73.2566 133.831 73.3192 134.452L73.4022 135.116L72.0782 135.285ZM73.7112 127.314L72.3962 127.051L72.5272 126.395C72.6952 125.55 72.9032 124.661 73.1652 123.735L73.3472 123.088L74.6362 123.45L74.4552 124.096C74.2052 124.987 74.0032 125.844 73.8422 126.655L73.7112 127.314ZM75.9812 119.77L74.7622 119.212L75.0412 118.612C75.4082 117.812 75.8162 116.993 76.2692 116.172L76.5912 115.583L77.7682 116.23L77.4442 116.819C77.0069 117.611 76.6126 118.394 76.2612 119.17L75.9812 119.77ZM79.9182 112.944L78.8522 112.129L79.2612 111.595C79.7992 110.893 80.3762 110.191 80.9922 109.488L81.4352 108.988L82.4402 109.876L81.9982 110.376C81.4022 111.052 80.8445 111.731 80.3252 112.411L79.9182 112.944ZM85.2372 107.112L84.3572 106.099L84.8642 105.658C85.5322 105.079 86.2322 104.504 86.9712 103.939L87.5032 103.53L88.3182 104.596L87.7832 105.002C87.0692 105.552 86.3876 106.108 85.7382 106.67L85.2372 107.112ZM132.337 104.554L131.805 104.143C131.105 103.625 130.379 103.144 129.63 102.701L129.057 102.354L129.749 101.206L130.324 101.552C131.116 102.023 131.884 102.534 132.624 103.083L133.153 103.494L132.337 104.554ZM91.5822 102.378L90.8892 101.231C90.8892 101.231 92.1492 100.479 92.5022 100.274C92.9442 100.017 93.3885 99.7725 93.8352 99.5412L94.4352 99.2412L95.0522 100.432L94.4572 100.732C94.0299 100.954 93.6026 101.187 93.1752 101.432C92.8322 101.625 91.5852 102.37 91.5852 102.37L91.5822 102.378ZM125.555 100.541L124.94 100.27C124.18 99.9312 123.359 99.5982 122.492 99.2782L121.864 99.0472L122.328 97.7892L122.959 98.0192C123.851 98.3492 124.696 98.6952 125.483 99.0412L126.099 99.3142L125.555 100.541ZM98.6462 98.8702L98.2112 97.5992L98.8462 97.3842C99.7262 97.0828 100.601 96.8228 101.47 96.6042L102.119 96.4402L102.45 97.7402L101.799 97.9072C100.967 98.1202 100.127 98.3682 99.2812 98.6602L98.6462 98.8702ZM118.089 97.9302L117.434 97.7802C116.596 97.5932 115.734 97.4292 114.844 97.2972L114.183 97.1972L114.383 95.8682L115.047 95.9682C115.965 96.1052 116.862 96.2682 117.731 96.4682L118.384 96.6192L118.089 97.9302ZM106.309 97.0902L106.196 95.7542L106.865 95.6972C107.79 95.6182 108.703 95.5792 109.595 95.5762H110.265L110.272 96.9172H109.603C108.744 96.9172 107.869 96.9558 106.977 97.0332L106.309 97.0902Z" fill="#0D53FC"/>
<path d="M422.093 159.327H312.008C308.691 159.327 306.002 162.016 306.002 165.333V168.426C306.002 171.743 308.691 174.432 312.008 174.432H422.093C425.41 174.432 428.099 171.743 428.099 168.426V165.333C428.099 162.016 425.41 159.327 422.093 159.327Z" fill="#B7C3CF"/>
<path d="M353.884 227.927H312.008C308.691 227.927 306.002 230.616 306.002 233.933V237.026C306.002 240.343 308.691 243.032 312.008 243.032H353.884C357.201 243.032 359.89 240.343 359.89 237.026V233.933C359.89 230.616 357.201 227.927 353.884 227.927Z" fill="#0D53FC"/>
<path d="M374.193 257.297L378.784 253.421C378.784 253.421 385.141 258.904 393.155 258.04C398.197 257.431 403.075 255.863 407.527 253.421L411.361 256.261C411.361 256.261 405.861 264.841 412.288 275.322L411.325 307.471H375.536L374.115 274.609C374.115 274.609 381.572 265.459 374.193 257.297Z" fill="#0D53FC"/>
<path d="M412.115 280.861L412.041 280.787L405.741 287.087L399.441 280.787L393.141 287.087L386.841 280.787L380.541 287.087L374.37 280.916L374.623 286.754L380.543 292.675L386.843 286.375L393.143 292.675L399.443 286.375L405.743 292.675L411.943 286.475L412.115 280.861Z" fill="#032C58"/>
<path d="M411.954 286.466L405.749 292.671L399.449 286.371L393.149 292.671L386.849 286.371L380.549 292.671L374.629 286.751L374.882 292.59L380.549 298.257L386.849 291.957L393.149 298.257L399.449 291.957L405.749 298.257L411.781 292.226L411.954 286.466Z" fill="#032C58"/>
<path d="M411.782 292.226L405.746 298.26L399.446 291.96L393.146 298.26L386.846 291.96L380.546 298.26L374.888 292.597L375.141 298.436L380.56 303.855L386.86 297.555L393.16 303.855L399.46 297.555L405.753 303.845L411.612 297.987L411.782 292.226Z" fill="#032C58"/>
<path d="M97.9722 148.847H71.9032C70.8926 148.847 70.0732 149.666 70.0732 150.677V165.842C70.0732 166.853 70.8926 167.672 71.9032 167.672H97.9722C98.9829 167.672 99.8022 166.853 99.8022 165.842V150.677C99.8022 149.666 98.9829 148.847 97.9722 148.847Z" fill="#0D53FC"/>
<path d="M74.1754 155.397H76.6094C76.8481 155.397 77.077 155.492 77.2458 155.661C77.4146 155.83 77.5094 156.059 77.5094 156.297V158.365C77.5094 158.604 77.4146 158.833 77.2458 159.002C77.077 159.171 76.8481 159.265 76.6094 159.265H74.1754C73.9367 159.265 73.7078 159.171 73.539 159.002C73.3702 158.833 73.2754 158.604 73.2754 158.365V156.297C73.2754 156.059 73.3702 155.83 73.539 155.661C73.7078 155.492 73.9367 155.397 74.1754 155.397Z" fill="#74D3AF"/>
<path d="M94.8881 155.831C94.6281 155.69 94.6112 155.531 94.6992 155.431C94.7992 155.27 94.8522 155.085 94.8522 154.895C94.8522 154.706 94.7992 154.52 94.6992 154.359C94.6781 154.335 94.6621 154.306 94.652 154.276C94.6419 154.245 94.6379 154.213 94.6403 154.181C94.6427 154.149 94.6515 154.117 94.666 154.089C94.6806 154.06 94.7007 154.034 94.7252 154.013C94.7496 153.992 94.778 153.976 94.8087 153.966C94.8393 153.956 94.8716 153.952 94.9038 153.955C94.9359 153.957 94.9673 153.966 94.996 153.981C95.0247 153.995 95.0503 154.016 95.0712 154.04L95.0852 154.058C95.2503 154.303 95.3393 154.592 95.3411 154.887C95.3437 155.194 95.2507 155.494 95.0751 155.745C95.052 155.772 95.0234 155.794 94.9911 155.809C94.9588 155.824 94.9237 155.831 94.8881 155.831Z" fill="white"/>
<path d="M95.7089 156.158C95.4649 156.048 95.4288 155.899 95.5008 155.783C95.6547 155.513 95.7411 155.209 95.7529 154.898C95.726 154.57 95.6364 154.249 95.4888 153.954C95.4547 153.899 95.4438 153.833 95.4586 153.77C95.4734 153.706 95.5128 153.652 95.5679 153.617C95.5952 153.6 95.6256 153.589 95.6573 153.583C95.6891 153.578 95.7216 153.579 95.753 153.586C95.7844 153.594 95.814 153.607 95.8403 153.626C95.8665 153.644 95.8888 153.668 95.9058 153.695C95.9139 153.708 95.9206 153.721 95.9258 153.735C96.1047 154.1 96.2119 154.496 96.2418 154.901C96.2281 155.303 96.1166 155.694 95.9169 156.042C95.8949 156.078 95.8643 156.107 95.8279 156.127C95.7915 156.148 95.7505 156.158 95.7089 156.158Z" fill="white"/>
<path d="M96.5208 156.573C96.2828 156.473 96.2409 156.324 96.3079 156.206C96.5255 155.802 96.6521 155.356 96.6788 154.898C96.6329 154.418 96.504 153.951 96.2979 153.516C96.2852 153.486 96.2786 153.454 96.2783 153.422C96.2781 153.389 96.2842 153.358 96.2964 153.328C96.3086 153.298 96.3266 153.271 96.3493 153.248C96.372 153.225 96.3991 153.207 96.4288 153.195C96.4851 153.171 96.5481 153.169 96.6057 153.189C96.6632 153.21 96.711 153.251 96.7399 153.305C96.9766 153.805 97.1218 154.344 97.1688 154.896C97.141 155.439 96.992 155.969 96.7329 156.448C96.7118 156.485 96.6811 156.517 96.6439 156.539C96.6066 156.561 96.5641 156.572 96.5208 156.573Z" fill="white"/>
<path d="M97.3564 156.98C97.1154 156.88 97.0774 156.73 97.1444 156.613C97.4305 156.089 97.5853 155.504 97.5954 154.907C97.5238 154.257 97.3518 153.622 97.0854 153.024C97.072 152.995 97.0646 152.963 97.0636 152.93C97.0626 152.898 97.068 152.865 97.0795 152.835C97.091 152.805 97.1085 152.777 97.1307 152.753C97.153 152.73 97.1798 152.711 97.2094 152.697C97.2693 152.67 97.3375 152.668 97.399 152.691C97.4606 152.715 97.5103 152.761 97.5374 152.821C97.8274 153.477 98.0136 154.175 98.0894 154.888C98.0821 155.577 97.9048 156.254 97.5734 156.858C97.5514 156.896 97.5197 156.927 97.4816 156.949C97.4434 156.97 97.4002 156.981 97.3564 156.98Z" fill="white"/>
<path d="M94.4268 164.717C94.4268 164.178 94.6408 163.661 95.0219 163.28C95.403 162.899 95.9199 162.685 96.4588 162.685C96.9977 162.685 97.5146 162.899 97.8956 163.28C98.2767 163.661 98.4908 164.178 98.4908 164.717C98.4908 165.256 98.2767 165.773 97.8956 166.154C97.5146 166.535 96.9977 166.749 96.4588 166.749C95.9199 166.749 95.403 166.535 95.0219 166.154C94.6408 165.773 94.4268 165.256 94.4268 164.717Z" fill="#74D3AF"/>
<path d="M88.8975 164.199H73.2715V165.63H88.8975V164.199Z" fill="white"/>
<path d="M84.1525 151.656H73.2715V153.087H84.1525V151.656Z" fill="white"/>
<path d="M441.559 208.43L420.568 208.342C420.449 208.342 420.334 208.295 420.249 208.21C420.165 208.126 420.117 208.011 420.117 207.891C420.117 207.832 420.129 207.773 420.151 207.719C420.174 207.664 420.207 207.614 420.249 207.572C420.291 207.53 420.341 207.497 420.395 207.474C420.45 207.451 420.509 207.439 420.568 207.439L441.561 207.526C441.681 207.527 441.796 207.574 441.88 207.659C441.965 207.744 442.012 207.859 442.012 207.978C442.012 208.098 441.965 208.213 441.88 208.298C441.796 208.382 441.681 208.43 441.561 208.43H441.559Z" fill="#0D53FC"/>
<path d="M436.748 223.631C436.714 223.631 436.68 223.626 436.648 223.616H426.8C426.74 223.616 426.682 223.604 426.627 223.582C426.572 223.559 426.522 223.526 426.48 223.484C426.439 223.442 426.405 223.392 426.383 223.337C426.36 223.282 426.349 223.223 426.349 223.164C426.349 223.044 426.396 222.93 426.481 222.845C426.565 222.761 426.68 222.713 426.8 222.713H436.64C436.729 222.645 436.922 222.487 437.317 222.132C437.79 220.351 442.196 203.781 442.398 203.14C442.517 202.838 442.732 202.583 443.008 202.414C443.285 202.244 443.609 202.169 443.933 202.199L448.583 201.992C448.638 201.986 448.694 201.99 448.748 202.006C448.801 202.021 448.851 202.046 448.895 202.081C448.939 202.116 448.975 202.159 449.002 202.207C449.029 202.256 449.046 202.31 449.053 202.365C449.054 202.385 449.054 202.405 449.053 202.425C449.058 202.545 449.016 202.662 448.936 202.75C448.856 202.839 448.743 202.892 448.624 202.898L443.931 203.104C443.88 203.104 443.364 203.095 443.264 203.404C443.102 203.922 439.853 216.113 438.164 222.488C438.142 222.573 438.095 222.649 438.03 222.707C437.351 223.323 437.013 223.631 436.748 223.631Z" fill="#0D53FC"/>
<path d="M438.13 219.772L423.957 219.69C423.859 219.691 423.764 219.659 423.686 219.6C423.607 219.542 423.55 219.459 423.523 219.365L420.141 208.106C420.124 208.049 420.118 207.989 420.124 207.93C420.131 207.87 420.148 207.813 420.177 207.76C420.205 207.708 420.244 207.662 420.29 207.624C420.336 207.586 420.39 207.558 420.447 207.541C420.562 207.508 420.686 207.521 420.792 207.578C420.898 207.635 420.977 207.732 421.011 207.847L424.294 218.784L438.133 218.862C438.253 218.862 438.368 218.91 438.453 218.995C438.537 219.08 438.585 219.194 438.585 219.314C438.585 219.434 438.537 219.549 438.453 219.634C438.368 219.719 438.253 219.766 438.133 219.766L438.13 219.772Z" fill="#0D53FC"/>
<path d="M426.663 219.671C426.562 219.672 426.463 219.638 426.384 219.576C426.304 219.514 426.247 219.427 426.222 219.328L423.37 208.085C423.341 207.969 423.359 207.845 423.421 207.742C423.482 207.638 423.583 207.564 423.699 207.534C423.757 207.52 423.817 207.517 423.876 207.525C423.935 207.534 423.992 207.554 424.043 207.585C424.094 207.616 424.139 207.656 424.175 207.704C424.21 207.752 424.236 207.806 424.25 207.864L427.11 219.103C427.141 219.219 427.124 219.343 427.063 219.446C427.003 219.55 426.904 219.625 426.788 219.655C426.749 219.666 426.709 219.67 426.669 219.669L426.663 219.671Z" fill="#0D53FC"/>
<path d="M435.77 219.671C435.743 219.671 435.716 219.669 435.69 219.663C435.572 219.643 435.467 219.576 435.398 219.478C435.329 219.38 435.302 219.259 435.322 219.141V219.136L437.279 208.256C437.3 208.138 437.367 208.034 437.465 207.965C437.563 207.896 437.684 207.869 437.802 207.89C437.92 207.911 438.025 207.977 438.094 208.075C438.163 208.172 438.19 208.293 438.17 208.411V208.416L436.213 219.296C436.195 219.401 436.141 219.496 436.06 219.564C435.979 219.633 435.876 219.671 435.77 219.671Z" fill="#0D53FC"/>
<path d="M432.872 219.505C432.752 219.505 432.638 219.458 432.553 219.373C432.468 219.289 432.421 219.174 432.421 219.054V219.04L432.666 208.101C432.664 207.984 432.708 207.871 432.789 207.786C432.87 207.701 432.982 207.652 433.099 207.649H433.131C433.19 207.65 433.249 207.663 433.303 207.687C433.357 207.711 433.407 207.745 433.448 207.787C433.489 207.83 433.521 207.881 433.543 207.936C433.565 207.991 433.575 208.05 433.574 208.109V208.114L433.329 219.053C433.329 219.173 433.281 219.288 433.196 219.372C433.111 219.457 432.997 219.504 432.877 219.504L432.872 219.505Z" fill="#0D53FC"/>
<path d="M429.344 219.719C429.232 219.72 429.125 219.68 429.041 219.606C428.958 219.532 428.905 219.43 428.893 219.319L427.493 208.162C427.485 208.102 427.49 208.042 427.506 207.984C427.522 207.926 427.55 207.872 427.587 207.825C427.624 207.777 427.67 207.738 427.723 207.709C427.775 207.679 427.833 207.661 427.893 207.654C427.952 207.647 428.013 207.652 428.07 207.668C428.128 207.684 428.182 207.712 428.229 207.749C428.276 207.786 428.316 207.832 428.345 207.884C428.374 207.937 428.393 207.995 428.4 208.054L429.8 219.21C429.815 219.329 429.783 219.449 429.71 219.543C429.637 219.638 429.529 219.7 429.411 219.716L429.344 219.719Z" fill="#0D53FC"/>
<path d="M440.527 212.051L421.627 211.932C421.507 211.932 421.392 211.885 421.308 211.8C421.223 211.716 421.176 211.601 421.176 211.481C421.176 211.422 421.187 211.363 421.21 211.308C421.232 211.254 421.266 211.204 421.307 211.162C421.349 211.12 421.399 211.086 421.454 211.064C421.509 211.041 421.567 211.029 421.627 211.029L440.527 211.148C440.586 211.148 440.645 211.16 440.7 211.183C440.754 211.205 440.804 211.239 440.846 211.281C440.888 211.323 440.921 211.373 440.944 211.427C440.966 211.482 440.978 211.541 440.978 211.6C440.978 211.72 440.93 211.835 440.846 211.919C440.761 212.004 440.646 212.051 440.527 212.051Z" fill="#0D53FC"/>
<path d="M439.388 216.052L422.972 215.902C422.852 215.902 422.737 215.854 422.652 215.77C422.567 215.685 422.52 215.57 422.52 215.45C422.52 215.33 422.567 215.215 422.652 215.13C422.737 215.046 422.852 214.998 422.972 214.998L439.388 215.149C439.507 215.149 439.622 215.197 439.707 215.281C439.792 215.366 439.84 215.481 439.84 215.601C439.84 215.66 439.828 215.719 439.805 215.774C439.782 215.829 439.749 215.878 439.707 215.92C439.665 215.962 439.615 215.995 439.56 216.018C439.506 216.041 439.447 216.052 439.388 216.052Z" fill="#0D53FC"/>
<path d="M428.896 226.523C428.457 226.523 428.036 226.349 427.725 226.038C427.415 225.728 427.24 225.307 427.24 224.867C427.24 224.65 427.283 224.435 427.366 224.234C427.449 224.033 427.571 223.85 427.725 223.696C427.879 223.542 428.061 223.42 428.262 223.337C428.463 223.254 428.679 223.211 428.896 223.211C429.334 223.212 429.754 223.385 430.064 223.694C430.374 224.003 430.549 224.422 430.551 224.859C430.551 225.299 430.377 225.721 430.067 226.033C429.757 226.344 429.336 226.521 428.896 226.523ZM428.896 224.105C428.696 224.105 428.505 224.185 428.364 224.326C428.223 224.467 428.143 224.659 428.143 224.858C428.143 224.957 428.163 225.055 428.201 225.146C428.238 225.238 428.294 225.321 428.364 225.391C428.434 225.46 428.517 225.516 428.608 225.553C428.699 225.591 428.797 225.611 428.896 225.61C429.096 225.61 429.287 225.531 429.428 225.39C429.569 225.249 429.648 225.058 429.648 224.858C429.648 224.659 429.569 224.468 429.428 224.327C429.287 224.187 429.095 224.107 428.896 224.107V224.105Z" fill="#0D53FC"/>
<path d="M434.877 226.523C434.438 226.523 434.017 226.349 433.706 226.038C433.396 225.728 433.222 225.306 433.222 224.867C433.222 224.65 433.264 224.435 433.347 224.234C433.43 224.033 433.552 223.85 433.706 223.697C433.86 223.543 434.042 223.421 434.243 223.338C434.444 223.254 434.659 223.211 434.877 223.211C435.314 223.211 435.734 223.385 436.045 223.694C436.355 224.002 436.531 224.422 436.533 224.859C436.532 225.299 436.358 225.721 436.048 226.033C435.738 226.345 435.316 226.521 434.877 226.523ZM434.877 224.105C434.677 224.106 434.486 224.185 434.345 224.326C434.204 224.468 434.125 224.659 434.125 224.858C434.125 225.058 434.204 225.249 434.345 225.39C434.486 225.531 434.677 225.61 434.877 225.61C434.975 225.611 435.073 225.591 435.165 225.553C435.256 225.516 435.339 225.46 435.409 225.391C435.479 225.321 435.534 225.238 435.572 225.146C435.61 225.055 435.63 224.957 435.63 224.858C435.63 224.76 435.61 224.662 435.572 224.571C435.534 224.48 435.479 224.397 435.409 224.327C435.339 224.257 435.256 224.202 435.164 224.164C435.073 224.127 434.975 224.107 434.877 224.107V224.105Z" fill="#0D53FC"/>
<path d="M449.549 203.765C449.373 203.766 449.199 203.731 449.036 203.664C448.874 203.597 448.726 203.499 448.601 203.374C448.477 203.25 448.378 203.102 448.31 202.94C448.243 202.778 448.208 202.603 448.208 202.427C448.208 202.251 448.242 202.077 448.309 201.914C448.376 201.752 448.475 201.604 448.599 201.479C448.723 201.355 448.871 201.256 449.033 201.188C449.196 201.121 449.37 201.086 449.546 201.085C449.901 201.085 450.242 201.226 450.494 201.478C450.745 201.729 450.886 202.069 450.887 202.424C450.887 202.779 450.746 203.12 450.495 203.371C450.244 203.623 449.904 203.764 449.549 203.765ZM449.549 201.995C449.435 201.995 449.326 202.041 449.246 202.121C449.165 202.202 449.12 202.311 449.12 202.424C449.12 202.538 449.166 202.647 449.246 202.727C449.326 202.808 449.435 202.853 449.549 202.853C449.663 202.853 449.772 202.808 449.852 202.728C449.933 202.647 449.978 202.538 449.978 202.424C449.978 202.368 449.967 202.312 449.946 202.26C449.925 202.207 449.893 202.16 449.853 202.119C449.813 202.079 449.766 202.047 449.714 202.026C449.662 202.004 449.606 201.993 449.549 201.992V201.995Z" fill="#0D53FC"/>
<path d="M185.288 408.307C184.476 408.468 182.926 414.027 184.347 416.455C185.179 417.88 187.702 416.655 191.247 416.079C194.792 415.503 197.918 415.979 200.266 415.246C202.614 414.513 209.834 411.634 209.834 411.634L209.016 409.721C209.016 409.721 205.31 410.705 203.516 410.074C201.722 409.443 194.132 406.441 194.132 406.441C193.319 407.679 192.322 408.784 191.175 409.719C189.647 410.971 189.375 410.842 188.437 410.634C186.74 410.255 186.578 408.051 185.288 408.307Z" fill="#032C58"/>
<path d="M137.068 401.827C136.252 401.692 132.831 406.327 133.295 409.109C133.567 410.737 136.359 410.493 139.879 411.209C143.399 411.925 146.151 413.489 148.609 413.635C151.067 413.781 158.845 413.65 158.845 413.65L158.762 411.572C158.762 411.572 154.948 411.172 153.494 409.946C152.04 408.72 146.014 403.216 146.014 403.216C144.815 404.084 143.49 404.764 142.085 405.231C140.211 405.858 140.007 405.641 139.2 405.113C137.737 404.165 138.363 402.041 137.068 401.827Z" fill="#032C58"/>
<defs>
<linearGradient id="paint0_linear_41_326" x1="73.6745" y1="368.224" x2="95.985" y2="381.301" gradientUnits="userSpaceOnUse">
<stop stop-color="#0D53FC"/>
<stop offset="1" stop-color="#49C596"/>
</linearGradient>
</defs>
</svg>
