<svg width="18" height="18" viewBox="0 0 18 18" fill="none" xmlns="http://www.w3.org/2000/svg">
<path d="M1 9C1 13.4183 4.58172 17 9 17C13.4183 17 17 13.4183 17 9C17 4.58172 13.4183 1 9 1C4.58172 1 1 4.58172 1 9Z" fill="#008943"/>
<path d="M7.63335 5.72754C7.61681 5.72962 7.60106 5.73581 7.58753 5.74554C7.54735 5.77375 7.51371 5.81027 7.48886 5.85262C7.46402 5.89496 7.44856 5.94215 7.44353 5.99099C7.44353 6.05481 7.42881 6.05399 7.47053 6.09408C7.51226 6.13417 7.53026 6.13336 7.5908 6.10145C7.60551 6.09244 7.61824 6.08055 7.62823 6.06649C7.63821 6.05242 7.64524 6.03648 7.64889 6.01963C7.66362 5.94763 7.57281 6.05399 7.56135 5.97381C7.5499 5.89363 7.59899 5.86908 7.65381 5.79708C7.65381 5.76354 7.6538 5.73572 7.63335 5.7349V5.72754ZM8.51453 5.73245C8.49735 5.73245 8.4769 5.75617 8.44826 5.80854C8.41543 5.8517 8.39408 5.90249 8.38621 5.95615C8.37834 6.00981 8.38421 6.06458 8.40326 6.11536C8.4624 6.26757 8.47963 6.43285 8.45317 6.59399C8.42615 6.63994 8.39522 6.68346 8.36071 6.72408C8.33678 6.75103 8.30402 6.76855 8.26833 6.7735C8.23263 6.77845 8.19635 6.7705 8.16599 6.75108C8.13443 6.73577 8.10724 6.71275 8.08693 6.68415C8.06662 6.65555 8.05386 6.62229 8.04981 6.58745C8.06462 6.41117 8.05858 6.23376 8.0318 6.0589C8.02654 6.04275 8.01708 6.02829 8.00438 6.017C7.99169 6.00572 7.97621 5.99801 7.95956 5.99468C7.9429 5.99135 7.92565 5.99251 7.90959 5.99805C7.89353 6.00358 7.87924 6.01329 7.86817 6.02618C7.71767 6.19373 7.61705 6.40005 7.57771 6.62181C7.53271 6.76663 7.48526 6.7249 7.45171 6.66599C7.3699 6.5899 7.36417 5.99099 7.26599 6.09327C7.10808 6.54408 7.35681 7.03827 7.52862 6.99327C7.65299 7.04481 7.73153 6.80836 7.78226 6.54981C7.81744 6.47699 7.84362 6.46799 7.86408 6.50645C7.85917 6.8509 7.88862 6.927 7.97699 7.03172C8.02805 7.07738 8.09383 7.10316 8.16232 7.10437C8.23081 7.10557 8.29744 7.08211 8.35008 7.03827L8.5039 6.88445C8.52024 6.86713 8.54263 6.85679 8.5664 6.85557C8.59018 6.85435 8.61351 6.86235 8.63153 6.8779C8.67817 6.92045 8.67244 6.99408 8.77308 7.04154C8.82536 7.05892 8.88132 7.06209 8.93523 7.05073C8.98914 7.03937 9.03907 7.0139 9.07989 6.9769C9.13635 6.88036 9.15026 6.84681 9.17644 6.81327C9.21653 6.75927 9.28526 6.78299 9.28526 6.80018C9.27871 6.82963 9.23863 6.8599 9.26563 6.91309C9.31308 6.94909 9.32453 6.92618 9.35317 6.918C9.45298 6.87054 9.52826 6.6529 9.52826 6.6529C9.53235 6.57108 9.48654 6.57763 9.45708 6.59481C9.42763 6.61199 9.41617 6.6259 9.37526 6.64963C9.32617 6.65699 9.23126 6.6889 9.18463 6.61608C9.15207 6.51834 9.12475 6.41893 9.1028 6.31827C9.1028 6.31172 9.03899 6.17999 9.0979 6.17099C9.12817 6.17672 9.19199 6.19309 9.2018 6.1399C9.2329 6.08754 9.13389 5.93945 9.0668 5.86418C9.05361 5.84839 9.03722 5.83559 9.01872 5.8266C9.00022 5.81761 8.98002 5.81264 8.95946 5.81202C8.9389 5.81141 8.91843 5.81515 8.89943 5.82301C8.88042 5.83087 8.86329 5.84267 8.84917 5.85763C8.79435 5.90836 8.80253 5.96399 8.7919 6.02127C8.78278 6.05912 8.78263 6.09857 8.79143 6.13649C8.80024 6.17441 8.81776 6.20976 8.84262 6.23972C8.9339 6.36776 8.97681 6.52402 8.96371 6.68072C8.94684 6.70735 8.92314 6.72898 8.89509 6.74337C8.86703 6.75775 8.83564 6.76437 8.80417 6.76254C8.76162 6.75354 8.6929 6.73472 8.65608 6.4639C8.62826 6.25936 8.66344 5.97299 8.57426 5.83717C8.55462 5.78645 8.53744 5.73736 8.50962 5.74063L8.51453 5.73245ZM8.23553 5.75454C8.20935 5.75454 8.1799 5.78727 8.15372 5.84699C8.13121 5.93903 8.11751 6.033 8.1128 6.12763C8.09644 6.19799 8.18644 6.22745 8.22653 6.13745C8.2668 6.04057 8.28899 5.93714 8.29199 5.83226C8.28217 5.77908 8.25926 5.75045 8.23308 5.75536L8.23553 5.75454ZM9.26563 5.77336C9.23863 5.77336 9.21735 5.79136 9.20917 5.83145C9.19902 5.90593 9.20263 5.98164 9.21981 6.05481C9.25215 6.1238 9.29431 6.18774 9.34499 6.24463C9.52335 6.48436 9.69517 6.7249 9.86044 6.97445C9.88662 7.15936 9.90544 7.34018 9.91771 7.52099C9.947 7.95486 9.95056 8.39007 9.92835 8.82436C10.002 8.82436 10.1214 8.7049 10.1624 8.5249C10.1738 8.22489 10.1697 7.92449 10.1501 7.6249C10.1501 7.56436 10.1444 7.49154 10.1403 7.41545C10.3334 7.73045 10.5199 8.06427 10.704 8.43081C10.7711 8.3989 10.7563 8.02172 10.7171 7.96936C10.5698 7.65272 10.3669 7.34099 10.3023 7.22072C10.2785 7.17736 10.1992 7.05708 10.1051 6.91717C10.0879 6.71836 10.0691 6.54981 10.0568 6.49827C10.0265 6.28799 10.1435 6.52199 10.1272 6.39927C10.0737 6.19724 9.97397 6.01042 9.8359 5.85354C9.79172 5.79054 9.79253 5.77827 9.72462 5.86908C9.68952 5.94586 9.67951 6.03174 9.69599 6.11454C9.67799 6.08836 9.65589 6.05727 9.62399 6.01881C9.50535 5.91736 9.49799 5.91163 9.39981 5.82899C9.361 5.79866 9.31396 5.78069 9.26481 5.77745L9.26563 5.77336ZM12.3174 5.80445C12.3043 5.80445 12.2896 5.80854 12.2741 5.83309C12.2542 5.85041 12.2383 5.87179 12.2275 5.89579C12.2166 5.91978 12.211 5.94583 12.2111 5.97218C12.2184 6.08345 12.2381 6.19636 12.2463 6.30763L12.2577 6.35263C12.2488 6.34096 12.2392 6.32976 12.2291 6.31908C12.0131 6.09163 12.3281 6.28227 12.1882 6.10636C12.1122 6.01407 12.0266 5.93014 11.9329 5.85599C11.8822 5.82327 11.8511 5.76027 11.8339 5.86745C11.8252 5.96154 11.8227 6.05612 11.8265 6.15054C11.8381 6.21526 11.8663 6.27587 11.9083 6.32645C12.0523 6.50399 12.1996 6.69217 12.3477 6.88936C12.3788 7.29026 12.387 7.65845 12.4189 8.06018C12.4148 8.232 12.3616 8.46027 12.3117 8.48236C12.3117 8.48236 12.2356 8.52654 12.1841 8.47745C12.1141 8.40206 12.0519 8.31983 11.9983 8.23199C11.9878 8.21794 11.9742 8.20653 11.9585 8.19867C11.9428 8.19081 11.9255 8.18672 11.9079 8.18672C11.8904 8.18672 11.8731 8.19081 11.8574 8.19867C11.8417 8.20653 11.828 8.21794 11.8175 8.23199C11.6846 8.41675 11.5775 8.61879 11.4993 8.83254C11.4731 8.87426 11.3994 8.90945 11.3176 8.83254C11.2106 8.65755 11.1708 8.44968 11.2055 8.24754C11.1422 8.33851 11.1033 8.44421 11.0926 8.55452C11.0818 8.66484 11.0996 8.77606 11.1442 8.87754C11.1864 8.98968 11.2682 9.08251 11.3741 9.13854C11.3911 9.15335 11.411 9.16447 11.4326 9.17121C11.4541 9.17795 11.4768 9.18016 11.4993 9.1777C11.5217 9.17525 11.5434 9.16817 11.563 9.15692C11.5825 9.14568 11.5996 9.13051 11.613 9.11236C11.7218 8.99945 11.7234 8.71063 11.7766 8.65336C11.7802 8.63538 11.7889 8.61882 11.8016 8.60564C11.8144 8.59245 11.8306 8.58319 11.8484 8.57897C11.8663 8.57475 11.885 8.57574 11.9022 8.58182C11.9195 8.58789 11.9347 8.59881 11.946 8.61327C11.9858 8.67027 12.0392 8.7164 12.1014 8.74745C12.1458 8.79251 12.2051 8.81987 12.2682 8.82439C12.3313 8.8289 12.3939 8.81028 12.4443 8.77199C12.5309 8.723 12.596 8.64329 12.6267 8.54863C12.6653 8.13052 12.6702 7.70998 12.6414 7.29108C12.7184 7.40017 12.7944 7.50927 12.8697 7.61836C12.9036 7.96061 12.9159 8.30465 12.9065 8.64845C12.8984 8.71472 13.1373 8.45126 13.1356 8.3269C13.1356 8.21808 13.1356 8.11909 13.1356 8.02745C13.251 8.21154 13.3631 8.39972 13.4686 8.58954C13.5341 8.55518 13.512 8.18045 13.4686 8.13299C13.3582 7.94727 13.2166 7.74681 13.1062 7.59136C13.0849 7.39581 13.0546 7.16427 13.0415 7.09308C13.0203 6.98263 12.9998 6.81654 12.9679 6.68399C12.9525 6.60797 12.9434 6.53079 12.9409 6.45327C12.954 6.41645 13.0023 6.45327 13.0227 6.41236C12.9946 6.20917 12.9244 6.0141 12.8165 5.83963C12.7871 5.78645 12.7347 5.80527 12.6684 5.89118C12.6079 5.94845 12.63 6.07772 12.6529 6.20127C12.7134 6.51627 12.7674 6.837 12.81 7.1569C12.7282 7.0399 12.6349 6.89754 12.54 6.7609L12.5277 6.69872C12.5277 6.69299 12.5146 6.44099 12.5032 6.38127C12.5032 6.35672 12.4958 6.35018 12.5212 6.35263C12.5348 6.36597 12.5509 6.37653 12.5686 6.38372C12.5956 6.38863 12.6202 6.34281 12.6038 6.3019L12.3502 5.83309C12.341 5.82205 12.3288 5.81406 12.315 5.81018L12.3174 5.80445ZM4.4408 5.81263C4.39417 5.81263 4.34181 5.84045 4.35899 5.89445C4.34753 5.92554 4.45063 6.02863 4.46863 6.0859C4.48499 6.12681 4.45226 6.25772 4.48662 6.26917C4.52099 6.28063 4.56108 6.17836 4.57744 6.08263C4.58644 6.03026 4.57744 5.84945 4.45717 5.81263H4.43753H4.4408ZM13.4138 5.81263C13.4032 5.81263 13.3901 5.83063 13.3704 5.87318C13.3195 5.98009 13.3038 6.10039 13.3254 6.21681C13.4426 6.95527 13.5158 7.70004 13.5447 8.44718C13.5383 8.5099 13.5237 8.57151 13.5013 8.63045C13.4394 8.72137 13.3675 8.80508 13.287 8.87999C13.2158 8.93236 13.0653 8.98308 13.0162 9.02236C12.8599 9.11236 12.8591 9.21627 12.9851 9.22036C13.1112 9.22545 13.2367 9.19981 13.3507 9.14565C13.4647 9.09149 13.5639 9.01043 13.6396 8.90945C13.7017 8.78349 13.7376 8.64628 13.7452 8.50608C13.7749 7.8462 13.7352 7.18501 13.6265 6.53345C13.6136 6.47263 13.6064 6.41071 13.6053 6.34854C13.6192 6.31254 13.6871 6.34854 13.7157 6.3109C13.7443 6.27327 13.5316 5.98936 13.4539 5.86827C13.4383 5.83799 13.4285 5.81263 13.4154 5.81427L13.4138 5.81263ZM11.1294 5.8249C11.1204 5.8249 11.1074 5.84045 11.0828 5.87236C11.0258 6.02732 11.0056 6.19343 11.0239 6.35754C11.2078 7.1226 11.3055 7.90584 11.3152 8.69263C11.3896 8.69263 11.4788 8.52327 11.5115 8.35472C11.5201 8.18484 11.5135 8.01453 11.4919 7.84581C11.4862 7.70918 11.3373 6.60381 11.3078 6.50072C11.2718 6.30599 11.4518 6.47536 11.4322 6.36163C11.37 6.21845 11.2145 6.01063 11.1654 5.88627C11.1474 5.85272 11.1442 5.82245 11.1294 5.8249ZM5.5658 5.84045C5.55489 5.8429 5.54492 5.84845 5.53708 5.85643C5.52924 5.86441 5.52387 5.87449 5.52162 5.88545C5.51753 5.90263 5.52899 5.93127 5.51344 5.93945C5.4979 5.94763 5.4709 5.93945 5.47253 5.89527C5.4703 5.88051 5.46407 5.86665 5.45453 5.85517C5.44756 5.85049 5.43914 5.84846 5.4308 5.84945C5.41608 5.84945 5.41608 5.85354 5.40789 5.86663C5.40328 5.87926 5.40053 5.89248 5.39971 5.9059C5.39971 5.92308 5.39072 5.92881 5.37844 5.93127C5.36617 5.93372 5.36781 5.93127 5.35635 5.92554C5.3449 5.91981 5.34162 5.91572 5.34162 5.90263C5.34142 5.88842 5.33894 5.87433 5.33426 5.8609C5.32748 5.85314 5.31823 5.84794 5.30808 5.84618C5.24998 5.84618 5.24589 5.91327 5.24917 5.93863C5.24508 5.94354 5.24263 6.06136 5.32199 6.0949C5.42835 6.14563 5.62799 6.12436 5.61981 5.95254C5.61981 5.93781 5.6198 5.88627 5.61489 5.87072C5.6117 5.86035 5.60493 5.85146 5.59579 5.84562C5.58665 5.83977 5.57574 5.83736 5.56499 5.83881L5.5658 5.84045ZM6.99353 5.84045C6.95952 5.84235 6.92631 5.85156 6.89617 5.86745C6.86113 5.89697 6.83842 5.93854 6.83252 5.98398C6.82661 6.02941 6.83793 6.07541 6.86426 6.1129C6.91826 6.13827 6.97226 6.19472 6.93626 6.22254C6.78326 6.38618 6.38562 6.65863 6.36353 6.70854C6.4621 6.72159 6.56196 6.72159 6.66053 6.70854C6.83767 6.55721 7.00188 6.39136 7.15144 6.21272C7.13017 6.19472 7.11135 6.18163 7.09008 6.16363C7.0688 6.14563 7.06962 6.12518 7.09008 6.10554C7.10856 6.09138 7.12382 6.07344 7.13481 6.05291C7.14581 6.03239 7.1523 6.00975 7.15385 5.98652C7.1554 5.96328 7.15197 5.93999 7.14379 5.91818C7.13562 5.89638 7.12289 5.87657 7.10644 5.86008C7.06862 5.84236 7.02709 5.83394 6.98535 5.83554L6.99353 5.84045ZM10.7244 5.84045C10.7138 5.84045 10.7007 5.85763 10.6811 5.90017C10.6258 6.006 10.5993 6.12451 10.6042 6.24381C10.7081 6.96299 10.74 7.59299 10.8079 8.31218C10.8195 8.38648 10.8013 8.46236 10.7572 8.52327C10.5662 8.73647 10.3322 8.90684 10.0707 9.02318C10.0421 9.0559 10.1427 9.19418 10.2728 9.19336C10.4027 9.17209 10.5249 9.1177 10.6277 9.03544C10.7304 8.95318 10.8103 8.84582 10.8594 8.72372C10.9313 8.61543 10.977 8.4919 10.9928 8.3629C11.0153 7.75028 10.9661 7.13712 10.8464 6.5359C10.8393 6.49338 10.8416 6.44985 10.8529 6.40827C10.8668 6.39109 10.9151 6.40827 10.9404 6.36736C10.9658 6.32645 10.8406 6.0139 10.7637 5.89281C10.7482 5.86254 10.7383 5.83799 10.7253 5.83963L10.7244 5.84045ZM4.94398 5.86254C4.92779 5.86558 4.91265 5.87275 4.90004 5.88336C4.88743 5.89396 4.87776 5.90765 4.87199 5.92308C4.86535 6.03546 4.86781 6.14819 4.87935 6.26018C4.92448 6.4381 4.9562 6.61915 4.97426 6.80181C4.98162 7.0579 4.82617 6.91227 4.83353 6.78545C4.86692 6.6233 4.86496 6.45586 4.8278 6.29454C4.80244 6.22909 4.7738 6.21272 4.71244 6.22336C4.66417 6.22336 4.53817 6.35754 4.50299 6.58418C4.48524 6.65676 4.47131 6.73022 4.46126 6.80426C4.44408 6.92126 4.36635 7.0039 4.31235 6.7879C4.26572 6.63081 4.23708 6.24381 4.15853 6.33463C4.13644 6.63654 4.10944 7.16836 4.36635 7.22317C4.67726 7.25263 4.50544 6.6979 4.61753 6.59727C4.63881 6.54736 4.67808 6.54654 4.68135 6.60954V7.08899C4.67906 7.14195 4.69541 7.19404 4.72755 7.2362C4.75969 7.27835 4.80559 7.3079 4.85726 7.31972C4.93908 7.31317 4.99226 7.31972 5.02089 7.39499C5.03344 7.66772 5.04626 7.94045 5.05935 8.21317C5.05935 8.21317 5.24753 8.26718 5.25653 7.75499C5.23691 7.55162 5.23035 7.3472 5.23689 7.14299C5.23689 7.08572 5.31217 7.08245 5.36289 7.11027C5.44471 7.16754 5.4799 7.2379 5.60835 7.20927C5.80062 7.15609 5.91599 7.06363 5.91844 6.91554C5.91297 6.77137 5.88309 6.62917 5.83008 6.49499C5.83826 6.46963 5.79326 6.40336 5.80144 6.37799C5.83581 6.43199 5.88817 6.4279 5.90044 6.37799C5.87961 6.27548 5.82125 6.18445 5.7368 6.12272C5.6689 6.063 5.57317 6.07527 5.53308 6.20045C5.52855 6.36562 5.5844 6.52677 5.69017 6.65372C5.72293 6.72451 5.73648 6.80267 5.72944 6.88036C5.70388 6.89542 5.67368 6.90057 5.64457 6.89484C5.61547 6.88911 5.58948 6.87289 5.57153 6.84926C5.57153 6.84926 5.41853 6.73472 5.41853 6.70936C5.45497 6.59071 5.45007 6.46322 5.40462 6.34772C5.38652 6.27454 5.3518 6.20651 5.30317 6.1489C5.26471 6.10799 5.21317 6.10799 5.18862 6.1489C5.13464 6.30557 5.13929 6.4765 5.20171 6.62999C5.2369 6.7339 5.2909 6.79772 5.26553 6.79772C5.24426 6.85663 5.20089 6.84272 5.16899 6.77481C5.13155 6.63085 5.11339 6.48255 5.11498 6.33381C5.10107 6.21763 5.08635 5.9689 5.01026 5.9059C5.00321 5.89447 4.99314 5.88521 4.98115 5.87914C4.96917 5.87308 4.95574 5.87045 4.94235 5.87154L4.94398 5.86254ZM6.03462 5.86254C6.01908 5.86254 6.0019 5.87317 5.98226 5.87808C5.96275 5.88339 5.94448 5.89249 5.92849 5.90487C5.9125 5.91724 5.89911 5.93264 5.88908 5.9502C5.87905 5.96775 5.87257 5.98711 5.87003 6.00717C5.86749 6.02722 5.86893 6.04758 5.87426 6.06709C5.95608 6.54081 6.00353 6.90327 6.08126 7.37617C6.09353 7.43181 6.0469 7.50463 5.98635 7.49726C5.88408 7.42854 5.85872 7.28863 5.68526 7.29436C5.61499 7.30378 5.54943 7.33496 5.49778 7.38353C5.44613 7.4321 5.41098 7.49562 5.39726 7.56517C5.37242 7.66705 5.37242 7.77339 5.39726 7.87527C5.43156 7.91607 5.47793 7.94494 5.52967 7.95773C5.58142 7.97052 5.6359 7.96657 5.68526 7.94645C5.76217 7.91536 5.82435 7.83927 5.8489 7.85727C5.86526 7.88672 5.84889 8.13299 5.48808 8.32363C5.26717 8.42263 5.09208 8.44636 4.99717 8.26636C4.93826 8.15345 5.00126 7.72554 4.85726 7.82454C4.43099 8.92336 5.85544 9.07636 6.01499 7.86954C6.02563 7.83518 6.05671 7.80163 6.0788 7.80981C6.08862 7.8139 6.09762 7.82699 6.10089 7.85154C6.06817 8.94381 4.9988 9.01908 4.81717 8.67545C4.77442 8.55688 4.75309 8.43166 4.75417 8.30563C4.75397 8.26249 4.73862 8.22079 4.71081 8.18781C4.66744 8.15508 4.60935 8.24018 4.59708 8.38745C4.58383 8.47515 4.57945 8.56396 4.58399 8.65254C4.64126 9.51572 6.01662 9.14345 6.23998 8.43163C6.28435 8.20759 6.2962 7.97832 6.27517 7.7509H6.28498C6.42162 7.89818 6.61226 7.76972 6.65481 7.71817C6.65986 7.71057 6.66655 7.70419 6.67439 7.69949C6.68223 7.6948 6.69102 7.69192 6.70012 7.69106C6.70921 7.6902 6.71838 7.69137 6.72697 7.69451C6.73555 7.69764 6.74331 7.70265 6.74971 7.70918C6.77674 7.72845 6.80776 7.74138 6.84047 7.74702C6.87319 7.75265 6.90675 7.75084 6.93866 7.74172C6.97058 7.7326 7.00003 7.71641 7.02483 7.69434C7.04962 7.67228 7.06913 7.64491 7.0819 7.61427C7.10653 7.47911 7.12184 7.34243 7.12772 7.20518C7.07483 7.21579 7.02452 7.23663 6.97963 7.26654C6.97422 7.27189 6.97051 7.27872 6.96899 7.28617L6.95099 7.40318C6.95145 7.40616 6.95145 7.40919 6.95099 7.41217C6.94768 7.41726 6.94319 7.42147 6.9379 7.42445C6.91335 7.43754 6.87081 7.43017 6.86835 7.39417C6.83562 7.24445 6.69981 7.22481 6.61717 7.45717C6.56153 7.50217 6.46008 7.51118 6.45353 7.44327C6.46744 7.28699 6.40444 7.26654 6.27844 7.34018C6.23753 7.0309 6.19662 6.73636 6.15735 6.42708C6.20971 6.42708 6.25799 6.4639 6.30626 6.40336C6.2606 6.21852 6.18487 6.04244 6.08208 5.88217L6.07308 5.87318H6.0649C6.05923 5.87198 6.05338 5.87198 6.04772 5.87318L6.03462 5.86254ZM10.2892 5.86254C10.2344 5.86254 10.1746 5.89526 10.1975 5.96317C10.1836 6.00081 10.3145 6.12681 10.3358 6.19636C10.3734 6.30272 10.3072 6.40418 10.3464 6.4189C10.3857 6.43363 10.4332 6.30927 10.452 6.19227C10.4598 6.13013 10.4508 6.06703 10.4261 6.0095C10.4014 5.95197 10.3617 5.90208 10.3113 5.86499C10.3036 5.86422 10.296 5.86422 10.2884 5.86499L10.2892 5.86254ZM6.97798 5.97872C6.99333 5.98002 7.008 5.98562 7.0203 5.99488C7.0326 6.00415 7.04205 6.01669 7.04754 6.03108C7.06308 6.06545 7.05571 6.09817 7.02953 6.10472C7.00335 6.11127 6.97062 6.08836 6.95508 6.05399C6.93953 6.01963 6.94771 5.98608 6.97308 5.97954L6.97798 5.97872ZM13.1209 6.13827C13.1074 6.13745 13.0938 6.14001 13.0815 6.14573C13.0692 6.15144 13.0585 6.16013 13.0504 6.171C13.0423 6.18188 13.037 6.1946 13.035 6.20802C13.033 6.22145 13.0344 6.23515 13.0391 6.2479C13.0268 6.28799 13.1454 6.42545 13.1643 6.4999C13.1814 6.55308 13.1381 6.7249 13.1741 6.74045C13.2101 6.75599 13.2559 6.62181 13.2714 6.49499C13.2813 6.42627 13.2297 6.18327 13.143 6.1399C13.1359 6.13907 13.1288 6.13907 13.1217 6.1399L13.1209 6.13827ZM9.72462 6.22009C9.72953 6.24054 9.73362 6.26099 9.7369 6.28145C9.74671 6.32645 9.75572 6.37063 9.76553 6.41481C9.72626 6.36081 9.69353 6.31745 9.68371 6.3019C9.59453 6.19636 9.68371 6.23236 9.72871 6.22009H9.72462ZM10.5068 6.60463C10.4958 6.60723 10.4858 6.61294 10.478 6.62106C10.4702 6.62918 10.4648 6.63938 10.4626 6.65045C10.4585 6.66763 10.4708 6.69545 10.4553 6.70363C10.4397 6.71181 10.4119 6.70363 10.4135 6.66027C10.4114 6.64522 10.4052 6.63106 10.3955 6.61936C10.3886 6.61468 10.3801 6.61265 10.3718 6.61363C10.3571 6.61363 10.3571 6.61772 10.3489 6.63081C10.3444 6.64346 10.3416 6.65668 10.3407 6.67008C10.3407 6.68727 10.3325 6.69299 10.3203 6.69545C10.308 6.6979 10.3088 6.69545 10.2973 6.68972C10.2859 6.68399 10.2826 6.6799 10.2826 6.66681C10.2824 6.6526 10.2799 6.63851 10.2753 6.62508C10.2684 6.61752 10.2592 6.61259 10.2491 6.61118C10.191 6.61118 10.1877 6.67745 10.191 6.70281C10.1869 6.70772 10.1836 6.82636 10.263 6.8599C10.3693 6.91063 10.5698 6.88854 10.5616 6.71672C10.5616 6.70118 10.5575 6.65045 10.5559 6.6349C10.5527 6.62454 10.5459 6.61564 10.5368 6.6098C10.5277 6.60395 10.5167 6.60154 10.506 6.60299L10.5068 6.60463ZM6.93463 6.63981C6.91674 6.6394 6.8992 6.64486 6.88471 6.65536C6.83816 6.68565 6.80483 6.73248 6.79147 6.78639C6.7781 6.84031 6.7857 6.89728 6.81272 6.94581C6.83024 6.96854 6.85425 6.9854 6.88157 6.99417C6.9089 7.00294 6.93824 7.00319 6.96571 6.9949C7.05817 7.00636 7.11299 6.82227 7.11299 6.82227C7.11299 6.82227 7.11299 6.77072 7.00662 6.86809C6.96081 6.87709 6.95426 6.8599 6.9428 6.83372C6.93184 6.78513 6.93701 6.73429 6.95754 6.6889C6.96735 6.66027 6.95672 6.64145 6.93463 6.63981ZM11.9844 6.66354C11.9551 6.66263 11.9265 6.67256 11.904 6.69142C11.8815 6.71028 11.8667 6.73677 11.8625 6.76581C11.8625 6.80754 11.8814 6.83127 11.8781 6.8689C11.8724 6.89099 11.8503 6.9049 11.7963 6.87954C11.8044 6.87218 11.7611 6.81081 11.7611 6.81081C11.7193 6.78545 11.6637 6.81081 11.6269 6.83618C11.6137 6.86113 11.6057 6.88855 11.6036 6.91671C11.6015 6.94487 11.6053 6.97317 11.6146 6.99981C11.6743 7.11108 11.8805 7.30008 11.9787 7.30172C11.9787 7.2019 11.9902 7.06854 11.9959 6.9859C11.9959 6.95481 12.0057 6.92045 12.0352 6.91226C12.0646 6.90408 12.117 6.94254 12.117 6.91226C12.116 6.84148 12.0974 6.77205 12.063 6.71018C12.0538 6.69697 12.0415 6.68616 12.0273 6.67861C12.0131 6.67107 11.9973 6.66703 11.9812 6.66681L11.9844 6.66354ZM7.80435 7.01208C7.7887 7.02814 7.77203 7.04317 7.75444 7.05708C7.70781 7.10945 7.69962 7.14627 7.7029 7.25181C7.7029 7.26327 7.79044 7.49727 7.86654 7.66663C7.92767 7.84616 7.94834 8.03699 7.92708 8.22545C7.80291 8.47467 7.60606 8.68036 7.36253 8.81536C7.32536 8.83153 7.28525 8.83987 7.24472 8.83987C7.20418 8.83987 7.16407 8.83153 7.12689 8.81536C7.10549 8.80058 7.08844 8.78034 7.0775 8.75675C7.06657 8.73315 7.06215 8.70706 7.06471 8.68118C7.3104 8.5501 7.50873 8.34519 7.63171 8.09536C7.68793 7.96117 7.69345 7.81113 7.64726 7.67317C7.634 7.60041 7.60087 7.53273 7.55153 7.47763C7.58344 7.46208 7.66526 7.52345 7.67835 7.48499C7.65332 7.37143 7.59658 7.26731 7.51472 7.18472C7.50273 7.17033 7.48792 7.15854 7.47121 7.15008C7.4545 7.14162 7.43624 7.13666 7.41754 7.13551C7.39885 7.13436 7.38011 7.13704 7.36249 7.1434C7.34487 7.14975 7.32874 7.15963 7.31508 7.17245C7.24635 7.2109 7.23326 7.34754 7.26517 7.46781C7.30199 7.55781 7.40099 7.57418 7.47135 7.75581C7.47135 7.76727 7.4959 7.89163 7.4599 7.94154C7.33619 8.0927 7.19314 8.22694 7.03444 8.34081H7.02953C7.02953 8.33345 7.02953 8.31463 7.02953 8.28517C7.02953 8.23036 7.04999 8.10681 7.04835 8.08554C6.92644 8.16736 6.88471 8.40627 6.86344 8.47827C6.55828 8.64852 6.26911 8.84595 5.99944 9.06818C5.89389 9.23181 6.72599 8.87917 6.82335 8.83663C6.84135 8.85708 6.84298 8.92745 6.89862 8.99127C6.95202 9.05556 7.02262 9.10332 7.10217 9.12896C7.18171 9.15461 7.26691 9.15708 7.34781 9.13608C7.61359 9.02564 7.83976 8.8374 7.99662 8.59608C8.02199 8.55927 8.06126 8.53063 8.09726 8.55927C8.19299 8.71522 8.32902 8.84245 8.49102 8.92756C8.65302 9.01266 8.83498 9.05248 9.01771 9.04281C9.12162 8.91599 9.07253 8.85381 9.02999 8.82681C9.0169 8.81781 8.8058 8.73599 8.77308 8.65418C8.74035 8.57236 8.80253 8.51018 8.90317 8.45945C9.19084 8.43215 9.47523 8.37736 9.75244 8.29581C9.76341 8.19328 9.79544 8.09411 9.84653 8.00454C9.85763 7.98355 9.87398 7.96579 9.89399 7.95299C9.89442 7.95028 9.89442 7.94752 9.89399 7.94481L9.84735 7.91699H8.92363C8.91458 7.91389 8.90603 7.90948 8.89826 7.9039C8.9065 7.89582 8.91662 7.88991 8.92771 7.88672C9.14862 7.85645 9.54053 7.79263 9.56671 7.41545C9.57408 7.37063 9.57149 7.32474 9.55912 7.28103C9.54674 7.23733 9.5249 7.19689 9.49513 7.16258C9.46537 7.12828 9.4284 7.10095 9.38688 7.08254C9.34536 7.06413 9.30029 7.0551 9.25488 7.05607C9.20947 7.05705 9.16483 7.06802 9.12414 7.0882C9.08345 7.10838 9.0477 7.13727 9.01944 7.17283C8.99117 7.20838 8.97109 7.24973 8.96061 7.29392C8.95013 7.33812 8.94952 7.38408 8.95881 7.42854C8.95063 7.47927 8.97599 7.57908 8.92363 7.59217C8.58408 7.62327 8.21344 7.83763 8.20117 7.98818H8.16681C8.15014 7.97942 8.13671 7.96557 8.12847 7.94864C8.12023 7.93172 8.11761 7.9126 8.12099 7.89408C8.10464 7.61628 8.02487 7.34591 7.8878 7.10372C7.84035 7.05545 7.81908 7.03663 7.80599 7.03418H7.79944L7.80435 7.01208ZM8.68881 7.15118C8.67789 7.15363 8.66792 7.15917 8.66008 7.16716C8.65224 7.17514 8.64687 7.18522 8.64462 7.19617C8.64053 7.21336 8.6528 7.24199 8.63726 7.25018C8.62171 7.25836 8.5939 7.25017 8.59553 7.20681C8.59345 7.19177 8.58721 7.1776 8.57753 7.1659C8.57319 7.16496 8.56871 7.16491 8.56435 7.16575C8.55999 7.16659 8.55584 7.16832 8.55217 7.17081C8.53744 7.17081 8.53662 7.17572 8.52844 7.18799C8.52395 7.20065 8.52119 7.21387 8.52026 7.22727C8.52026 7.24445 8.51208 7.25017 8.4998 7.25263C8.48753 7.25508 8.48917 7.25263 8.47771 7.2469C8.46626 7.24117 8.46217 7.23708 8.46217 7.22399C8.46223 7.20982 8.46002 7.19574 8.45562 7.18227C8.44856 7.17591 8.4397 7.17191 8.43026 7.17081C8.37217 7.17081 8.3689 7.23708 8.37217 7.26245C8.36808 7.26736 8.3648 7.38599 8.44417 7.41954C8.55053 7.47027 8.80417 7.43999 8.74281 7.27636C8.74281 7.26081 8.73871 7.21008 8.73708 7.19454C8.73388 7.18417 8.72711 7.17528 8.71798 7.16944C8.70884 7.16359 8.69792 7.16118 8.68717 7.16263L8.68881 7.15118ZM12.2577 7.29763C12.2548 7.29683 12.2517 7.29683 12.2487 7.29763C12.2487 7.29763 11.7578 7.64863 11.7439 7.6609C11.6948 7.70427 11.7194 7.85727 11.7439 7.83927C11.9364 7.74759 12.1127 7.62517 12.2659 7.47681C12.2872 7.47681 12.2978 7.30499 12.2577 7.29763ZM9.14862 7.35899C9.17405 7.35812 9.19916 7.36497 9.22063 7.37863C9.25744 7.3999 9.28035 7.43181 9.27708 7.45554V7.46127L9.27217 7.46699C9.25687 7.47515 9.23955 7.47872 9.22228 7.47726C9.20501 7.47581 9.18853 7.46941 9.17481 7.45881C9.15954 7.45198 9.14631 7.4413 9.13641 7.42782C9.12651 7.41433 9.1203 7.39851 9.11835 7.3819C9.11794 7.37919 9.11794 7.37643 9.11835 7.37372C9.12528 7.36859 9.13349 7.36547 9.14208 7.36472L9.14862 7.35899ZM4.8319 7.44818C4.68915 7.4704 4.55482 7.53003 4.44258 7.621C4.33035 7.71196 4.2442 7.83103 4.19289 7.96608C4.46208 7.83681 4.72717 7.71245 5.00126 7.57827C4.95707 7.51199 5.00044 7.45309 4.8319 7.44818ZM5.65989 7.56272C5.67442 7.5627 5.68858 7.56728 5.70034 7.5758C5.7121 7.58433 5.72085 7.59636 5.72535 7.61017C5.73043 7.62388 5.73174 7.6387 5.72915 7.65309C5.72656 7.66748 5.72017 7.68092 5.71062 7.69199C5.69999 7.7059 5.66235 7.70017 5.63535 7.70017C5.62204 7.70135 5.60867 7.69884 5.59669 7.69293C5.58471 7.68701 5.57459 7.67791 5.56744 7.66663C5.55844 7.63717 5.58626 7.60854 5.59935 7.58481L5.60508 7.57827C5.61749 7.56742 5.63289 7.56057 5.64926 7.55863L5.65989 7.56272ZM12.1563 7.66418C12.1429 7.66501 12.1299 7.66911 12.1185 7.67612C12.1071 7.68313 12.0976 7.69284 12.0908 7.7044C12.084 7.71595 12.0801 7.72899 12.0796 7.74238C12.079 7.75577 12.0817 7.76909 12.0875 7.78117C12.0753 7.82126 12.1489 7.96281 12.1693 8.03726C12.1865 8.09045 12.1473 8.24099 12.1833 8.25736C12.2193 8.27372 12.3035 8.16818 12.3003 8.03318C12.3101 7.96445 12.2757 7.7059 12.189 7.66663C12.1785 7.66453 12.1676 7.66453 12.1571 7.66663L12.1563 7.66418ZM6.63926 7.90963C6.59917 7.90963 6.56317 7.93417 6.57953 7.99145C6.57953 8.03236 6.69326 8.08227 6.69981 8.17718C6.71617 8.21645 6.67526 8.34081 6.70962 8.35308C6.74399 8.36536 6.7849 8.26636 6.80208 8.1739C6.81108 8.12318 6.76199 7.94563 6.67935 7.91372C6.66632 7.91191 6.65311 7.91191 6.64008 7.91372L6.63926 7.90963ZM8.29035 8.13545H8.30099C8.42856 8.15892 8.55759 8.17368 8.68717 8.17963C8.79435 8.18618 8.8508 8.27045 8.7469 8.30563C8.64299 8.34081 8.55217 8.36618 8.55217 8.50936C8.56577 8.54998 8.56577 8.59392 8.55217 8.63454H8.54726H8.54235H8.53744C8.51372 8.63454 8.47935 8.61572 8.45562 8.60181C8.38701 8.56232 8.32825 8.50779 8.28375 8.44232C8.23926 8.37685 8.21018 8.30214 8.19872 8.22381C8.19804 8.21069 8.20007 8.19758 8.20468 8.18528C8.20929 8.17298 8.21638 8.16176 8.22551 8.15232C8.23465 8.14288 8.24563 8.13543 8.25777 8.13041C8.26991 8.1254 8.28294 8.12293 8.29608 8.12318L8.29035 8.13545ZM4.25671 8.31054C4.25017 8.31054 4.23708 8.33018 4.22072 8.35145C4.15294 8.45553 4.11028 8.57393 4.09608 8.69731C4.08188 8.8207 4.09654 8.9457 4.1389 9.06245C4.15976 9.08654 4.18672 9.10456 4.21695 9.11464C4.24718 9.12472 4.27957 9.12647 4.31072 9.11972C4.35576 9.08408 4.39022 9.03682 4.4104 8.98305C4.43059 8.92928 4.43572 8.87101 4.42526 8.81454C4.39335 8.76463 4.36799 8.75645 4.33608 8.799C4.26899 8.93563 4.24117 8.84236 4.23462 8.76627C4.22718 8.6383 4.23376 8.50989 4.25426 8.38336C4.26244 8.32936 4.26244 8.31054 4.25426 8.31054H4.25671ZM9.43417 8.62881C9.422 8.62814 9.40986 8.63068 9.39898 8.63618C9.34556 8.66961 9.29733 8.71068 9.25581 8.75808C9.23453 8.77363 9.23699 8.78754 9.24353 8.81536C9.25008 8.84317 9.28854 8.84072 9.32126 8.82354C9.35399 8.80636 9.38508 8.84563 9.38181 8.89799C9.37519 8.91301 9.37254 8.92947 9.37412 8.94581C9.37569 8.96214 9.38144 8.97779 9.39081 8.99127C9.40227 9.00341 9.41759 9.01119 9.43416 9.01328C9.45073 9.01537 9.46751 9.01164 9.48163 9.00272C9.58178 8.95647 9.68617 8.92002 9.79335 8.8939C9.83099 8.8939 9.82935 8.79163 9.76881 8.78836C9.68669 8.78432 9.60573 8.8089 9.53972 8.8579C9.49144 8.86936 9.48326 8.8399 9.47262 8.81372C9.46035 8.74827 9.50044 8.70245 9.49226 8.65008C9.47551 8.63688 9.45538 8.62866 9.43417 8.62636V8.62881ZM12.7486 8.75236C12.7298 8.75236 12.7093 8.75236 12.6799 8.75808C12.6504 8.76381 12.6374 8.77854 12.6316 8.81699C12.6316 8.87509 12.6693 8.87263 12.7061 8.89881C12.713 8.90473 12.7185 8.91207 12.7223 8.92033C12.7261 8.92859 12.7281 8.93758 12.7281 8.94668C12.7281 8.95577 12.7261 8.96476 12.7223 8.97302C12.7185 8.98128 12.713 8.98862 12.7061 8.99454C12.6717 9.02645 12.6472 9.04363 12.612 9.07636C12.5956 9.10417 12.5858 9.14672 12.6357 9.15818C12.7282 9.18436 12.9409 9.04526 12.9409 9.04281C12.9516 9.03389 12.9594 9.02187 12.963 9.00841C12.9667 8.99494 12.9661 8.98067 12.9614 8.96754C12.9409 8.94463 12.8959 8.95854 12.8648 8.95445C12.8501 8.95445 12.8026 8.94708 12.8255 8.90536C12.842 8.88257 12.8549 8.85748 12.864 8.8309C12.8787 8.79899 12.864 8.77772 12.8141 8.76054C12.7931 8.7563 12.7717 8.75438 12.7503 8.75481L12.7486 8.75236ZM11.3634 11.5563C11.3342 11.5614 11.3072 11.5753 11.2861 11.5962C11.2649 11.6171 11.2507 11.6439 11.2453 11.6731C11.2398 11.7023 11.2435 11.7325 11.2557 11.7596C11.2679 11.7866 11.2881 11.8093 11.3135 11.8246C9.69435 11.8246 7.21035 11.7968 6.6769 11.7968C6.37908 11.7968 5.43571 11.7616 5.41771 11.7616C5.51977 11.8935 5.6546 11.9964 5.80877 12.06C5.96294 12.1236 6.13107 12.1457 6.29644 12.1241C7.01562 12.1241 10.3473 12.1151 11.2955 12.1151C11.2717 12.1727 11.2646 12.2359 11.275 12.2974C11.2854 12.3589 11.313 12.4162 11.3544 12.4628H11.361C11.424 12.4775 11.4518 12.4325 11.4723 12.399C11.7145 12.4126 11.9574 12.4126 12.1996 12.399C12.2348 12.4514 12.27 12.5004 12.3379 12.4923C12.4557 12.4669 12.549 12.4538 12.5523 12.2141C12.5523 12.2141 12.54 11.805 12.2716 11.8312C12.2078 11.841 12.0262 11.859 12.0262 11.859C11.82 11.8344 11.6686 11.832 11.4371 11.8238C11.4584 11.7968 11.496 11.6864 11.4502 11.6471C11.4344 11.6354 11.4147 11.6304 11.3954 11.6332H11.3896C11.3782 11.616 11.3716 11.5743 11.3634 11.5636H11.3585L11.3634 11.5563ZM11.4731 12.1404C11.7095 12.1519 11.9313 12.1404 12.1677 12.1544C12.1753 12.1624 12.1811 12.1718 12.185 12.1822C12.1888 12.1925 12.1905 12.2035 12.1899 12.2145C12.1894 12.2255 12.1866 12.2363 12.1818 12.2462C12.177 12.2561 12.1703 12.2649 12.162 12.2722H12.1554L11.9574 12.2664C11.9579 12.2626 11.9579 12.2588 11.9574 12.255C11.9394 12.201 11.8077 12.2043 11.7766 12.2468C11.7765 12.2487 11.7765 12.2506 11.7766 12.2525C11.7764 12.2547 11.7764 12.2569 11.7766 12.2591C11.6762 12.2648 11.5755 12.2623 11.4755 12.2517C11.4453 12.2141 11.4485 12.1454 11.4845 12.129L11.4731 12.1404Z" fill="white"/>
</svg>
