<svg width="230" height="51" viewBox="0 0 230 51" fill="none" xmlns="http://www.w3.org/2000/svg">
<path d="M137.787 19.9422H129.856C129.255 19.9427 128.678 20.1819 128.254 20.6072C127.829 21.0324 127.59 21.609 127.59 22.2102C127.59 22.5079 127.648 22.8027 127.762 23.0778C127.875 23.3529 128.042 23.6029 128.253 23.8134C128.463 24.0239 128.713 24.1907 128.988 24.3045C129.263 24.4182 129.558 24.4766 129.856 24.4762H137.865C140.071 24.4473 142.207 25.2521 143.846 26.7296C145.484 28.2072 146.505 30.2487 146.704 32.4462C146.78 33.5686 146.633 34.6949 146.273 35.7608C145.914 36.8267 145.348 37.8112 144.607 38.6583C143.867 39.5054 142.967 40.1983 141.959 40.6976C140.951 41.1969 139.854 41.4927 138.732 41.5682C138.543 41.5812 138.354 41.5872 138.168 41.5872H129.853C129.555 41.587 129.26 41.6455 128.985 41.7593C128.71 41.8732 128.46 42.0401 128.25 42.2505C128.039 42.4609 127.872 42.7107 127.758 42.9857C127.644 43.2607 127.585 43.5555 127.585 43.8532C127.585 44.1509 127.643 44.4458 127.757 44.721C127.871 44.9961 128.038 45.246 128.249 45.4565C128.46 45.6669 128.71 45.8338 128.985 45.9475C129.26 46.0612 129.555 46.1196 129.853 46.1192H138.168C139.889 46.1177 141.593 45.7771 143.183 45.1168C144.772 44.4565 146.216 43.4895 147.431 42.2709C148.647 41.0524 149.61 39.6063 150.267 38.0152C150.923 36.4242 151.26 34.7193 151.257 32.9982C151.257 32.7882 151.257 32.5802 151.242 32.3692C151.008 28.9721 149.485 25.7928 146.983 23.4825C144.482 21.1721 141.192 19.9056 137.787 19.9422Z" fill="white"/>
<path d="M54.5061 22.4829C55.0233 22.4829 55.5289 22.6363 55.9589 22.9236C56.389 23.211 56.7241 23.6194 56.9221 24.0972C57.12 24.575 57.1718 25.1008 57.0709 25.6081C56.97 26.1153 56.7209 26.5813 56.3552 26.947C55.9895 27.3127 55.5235 27.5618 55.0163 27.6627C54.509 27.7636 53.9832 27.7118 53.5054 27.5139C53.0275 27.3159 52.6192 26.9808 52.3318 26.5507C52.0445 26.1207 51.8911 25.6151 51.8911 25.0979C51.891 24.7545 51.9585 24.4144 52.0899 24.097C52.2212 23.7797 52.4139 23.4914 52.6567 23.2485C52.8996 23.0057 53.1879 22.8131 53.5052 22.6817C53.8225 22.5503 54.1627 22.4828 54.5061 22.4829Z" fill="white"/>
<path d="M109.287 19.9291H100.869L113.424 7.38309C113.634 7.17302 113.801 6.92361 113.915 6.64908C114.029 6.37454 114.087 6.08029 114.087 5.78311C114.087 5.48594 114.029 5.19165 113.915 4.91711C113.801 4.64258 113.634 4.39317 113.424 4.18311C113.214 3.9729 112.965 3.80615 112.69 3.69238C112.416 3.57861 112.121 3.52005 111.824 3.52005C111.527 3.52005 111.233 3.57861 110.958 3.69238C110.684 3.80615 110.434 3.9729 110.224 4.18311L93.7841 20.6201C93.5737 20.83 93.4067 21.0794 93.2929 21.3539C93.1792 21.6285 93.1208 21.9229 93.1211 22.2201V24.4791H109.394C111.6 24.4502 113.736 25.255 115.375 26.7325C117.014 28.2101 118.034 30.2516 118.233 32.4491C118.309 33.5715 118.162 34.6978 117.803 35.7637C117.443 36.8296 116.877 37.8142 116.136 38.6613C115.396 39.5083 114.496 40.2013 113.488 40.7005C112.48 41.1998 111.384 41.4956 110.261 41.5711C110.072 41.5841 109.883 41.5901 109.697 41.5901H86.6101C85.5477 41.5989 84.494 41.3984 83.5091 40.9999C82.5243 40.6014 81.6276 40.0127 80.8703 39.2676C80.113 38.5224 79.5099 37.6354 79.0955 36.6571C78.6811 35.6788 78.4635 34.6285 78.4551 33.5661C78.4551 33.3881 78.4551 33.2121 78.4681 33.0341V33.0211H78.4551V5.75711C78.4548 5.15754 78.2165 4.58259 77.7926 4.15863C77.3686 3.73467 76.7937 3.49636 76.1941 3.49609C75.5944 3.49609 75.0194 3.73431 74.5953 4.15833C74.1713 4.58235 73.9331 5.15746 73.9331 5.75711V33.0291C73.9331 36.5 75.3119 39.8287 77.7662 42.283C80.2205 44.7373 83.5492 46.1161 87.0201 46.1161H109.913L110.269 46.0991C113.724 45.9479 116.978 44.4331 119.319 41.8866C121.659 39.3401 122.894 35.9697 122.753 32.5141C122.555 29.0881 121.046 25.8697 118.539 23.5265C116.032 21.1833 112.719 19.8951 109.287 19.9291Z" fill="white"/>
<path d="M41.4149 37.3951V29.577C41.4148 29.2794 41.4733 28.9847 41.5872 28.7097C41.701 28.4347 41.8679 28.1849 42.0784 27.9744C42.2888 27.764 42.5386 27.5971 42.8136 27.4832C43.0886 27.3694 43.3833 27.3109 43.681 27.311C43.9786 27.3109 44.2733 27.3694 44.5483 27.4832C44.8232 27.5971 45.0731 27.764 45.2836 27.9744C45.494 28.1849 45.6609 28.4347 45.7747 28.7097C45.8886 28.9847 45.9471 29.2794 45.9469 29.577V37.4771C45.9169 39.6836 46.7213 41.8202 48.1991 43.4591C49.6768 45.098 51.719 46.1184 53.9169 46.316C55.0394 46.3916 56.1657 46.2453 57.2316 45.8856C58.2974 45.5258 59.282 44.9596 60.1291 44.2194C60.9761 43.4791 61.6691 42.5792 62.1684 41.5711C62.6677 40.563 62.9635 39.4664 63.039 38.344C63.052 38.157 63.0579 37.969 63.0579 37.78V29.598C63.0579 29.3003 63.1166 29.0055 63.2306 28.7304C63.3446 28.4554 63.5117 28.2055 63.7223 27.995C63.933 27.7846 64.183 27.6177 64.4582 27.5039C64.7333 27.3902 65.0282 27.3318 65.3259 27.332C65.927 27.3323 66.5034 27.5711 66.9287 27.9959C67.3539 28.4208 67.5932 28.9969 67.5939 29.598V37.78C67.5897 41.2561 66.2051 44.5881 63.7445 47.0434C61.284 49.4987 57.949 50.8762 54.4729 50.873C54.2629 50.873 54.0529 50.867 53.8419 50.856C50.4435 50.6231 47.2629 49.099 44.9523 46.5961C42.6417 44.0932 41.3761 40.8012 41.4149 37.3951Z" fill="white"/>
<path d="M24.4951 33.0513C24.7629 33.0513 25.0247 33.1307 25.2473 33.2795C25.47 33.4283 25.6436 33.6397 25.746 33.8871C25.8485 34.1345 25.8753 34.4068 25.8231 34.6694C25.7708 34.9321 25.6419 35.1733 25.4525 35.3627C25.2632 35.5521 25.0219 35.681 24.7592 35.7332C24.4966 35.7855 24.2244 35.7587 23.977 35.6562C23.7295 35.5537 23.5181 35.3802 23.3693 35.1575C23.2205 34.9349 23.1411 34.6731 23.1411 34.4053C23.1409 34.2274 23.1757 34.0512 23.2436 33.8868C23.3116 33.7224 23.4113 33.5731 23.5371 33.4473C23.6629 33.3215 23.8122 33.2218 23.9766 33.1538C24.141 33.0859 24.3172 33.051 24.4951 33.0513Z" fill="white"/>
<path d="M36.6289 40.916C37.1402 40.916 37.64 41.0676 38.0651 41.3517C38.4902 41.6357 38.8215 42.0394 39.0172 42.5118C39.2128 42.9841 39.264 43.5039 39.1642 44.0053C39.0645 44.5068 38.8183 44.9674 38.4568 45.3289C38.0953 45.6904 37.6347 45.9366 37.1332 46.0363C36.6318 46.1361 36.1121 46.0849 35.6397 45.8892C35.1674 45.6936 34.7636 45.3623 34.4796 44.9372C34.1955 44.5121 34.0439 44.0123 34.0439 43.501C34.0439 42.8154 34.3163 42.1579 34.8011 41.6731C35.2858 41.1883 35.9434 40.916 36.6289 40.916Z" fill="#49C596"/>
<path d="M7.69922 33.0513C7.96701 33.0513 8.22878 33.1307 8.45145 33.2795C8.67411 33.4283 8.84765 33.6397 8.95013 33.8871C9.05262 34.1345 9.07944 34.4068 9.02719 34.6694C8.97495 34.9321 8.84601 35.1733 8.65665 35.3627C8.46729 35.5521 8.226 35.681 7.96335 35.7332C7.7007 35.7855 7.42847 35.7587 7.18106 35.6562C6.93365 35.5537 6.72217 35.3802 6.57339 35.1575C6.42462 34.9349 6.34521 34.6731 6.34521 34.4053C6.34521 34.0462 6.48787 33.7018 6.74179 33.4478C6.99572 33.1939 7.34012 33.0513 7.69922 33.0513Z" fill="white"/>
<path d="M11.8311 33.0513C12.0989 33.0513 12.3606 33.1307 12.5833 33.2795C12.8059 33.4283 12.9795 33.6397 13.082 33.8871C13.1845 34.1345 13.2113 34.4068 13.159 34.6694C13.1068 34.9321 12.9778 35.1733 12.7885 35.3627C12.5991 35.5521 12.3579 35.681 12.0952 35.7332C11.8326 35.7855 11.5603 35.7587 11.3129 35.6562C11.0655 35.5537 10.854 35.3802 10.7052 35.1575C10.5565 34.9349 10.4771 34.6731 10.4771 34.4053C10.4771 34.0462 10.6197 33.7018 10.8736 33.4478C11.1276 33.1939 11.472 33.0513 11.8311 33.0513Z" fill="white"/>
<path d="M218.192 17.5381C216.952 12.3046 213.9 7.67844 209.578 4.47795C205.255 1.27747 199.94 -0.291088 194.572 0.0497323C189.205 0.390553 184.131 2.61878 180.247 6.34029C176.364 10.0618 173.923 15.0367 173.354 20.3851C170.16 20.9193 167.282 22.6346 165.293 25.1907C163.304 27.7468 162.348 30.9571 162.614 34.185C162.942 37.4503 164.48 40.4746 166.926 42.6627C169.372 44.8508 172.548 46.0442 175.829 46.0081H182.553C182.897 46.0082 183.238 45.9405 183.556 45.809C183.874 45.6774 184.162 45.4845 184.406 45.2413C184.649 44.9981 184.842 44.7093 184.974 44.3915C185.105 44.0737 185.173 43.7331 185.173 43.3891V35.0501C185.148 33.1218 185.852 31.2551 187.144 29.8233C188.436 28.3914 190.22 27.5 192.141 27.3271C194.122 27.1934 196.075 27.8519 197.571 29.1578C199.067 30.4637 199.982 32.3101 200.117 34.2911C200.128 34.4581 200.134 34.6241 200.134 34.7911V43.3911C200.134 43.7352 200.201 44.076 200.333 44.394C200.465 44.712 200.658 45.0009 200.901 45.2443C201.144 45.4876 201.433 45.6806 201.751 45.8122C202.069 45.9437 202.41 46.0113 202.754 46.0111H214.884C218.417 46.0038 221.825 44.7007 224.461 42.3487C227.097 39.9968 228.779 36.7594 229.188 33.2502C229.596 29.741 228.703 26.2037 226.678 23.3089C224.653 20.4142 221.636 18.3629 218.199 17.5441L218.192 17.5381ZM214.545 41.3861H204.739V35.1341C204.774 31.9852 203.603 28.9423 201.467 26.6289C199.33 24.3154 196.39 22.9066 193.248 22.6911C190.04 22.5328 186.9 23.6555 184.52 25.8121C182.139 27.9688 180.713 30.9828 180.554 34.1911C180.543 34.3841 180.539 34.5791 180.539 34.7721V41.3721H175.733C173.619 41.3998 171.571 40.635 169.993 39.2284C168.415 37.8218 167.42 35.8753 167.205 33.7721C167.031 31.5788 167.736 29.4063 169.163 27.732C170.59 26.0576 172.624 25.0186 174.817 24.8431C175.053 24.8241 175.291 24.8151 175.527 24.8151C176.137 24.8167 176.723 24.5768 177.156 24.1478C177.589 23.7189 177.835 23.1358 177.84 22.5261C177.903 17.9815 179.668 13.6258 182.785 10.3183C185.902 7.01087 190.146 4.99201 194.679 4.66014C199.212 4.32828 203.704 5.70752 207.27 8.52568C210.836 11.3438 213.216 15.3962 213.94 19.8831C214.01 20.3781 214.243 20.836 214.6 21.1853C214.958 21.5346 215.422 21.7557 215.918 21.8141C218.463 22.092 220.797 23.3544 222.423 25.3313C224.049 27.3083 224.837 29.8428 224.618 32.3931C224.363 34.8753 223.189 37.1727 221.328 38.8348C219.466 40.4969 217.051 41.4039 214.556 41.3781L214.545 41.3861Z" fill="url(#paint0_linear_433_17342)"/>
<path d="M190.521 39.8102C191.967 39.8102 193.138 38.6385 193.138 37.1932C193.138 35.7478 191.967 34.5762 190.521 34.5762C189.076 34.5762 187.904 35.7478 187.904 37.1932C187.904 38.6385 189.076 39.8102 190.521 39.8102Z" fill="url(#paint1_linear_433_17342)"/>
<path d="M30.0961 35.5593C29.7849 35.5593 29.4864 35.6828 29.2663 35.9028C29.0461 36.1227 28.9223 36.4211 28.9221 36.7323V40.9693C28.9221 41.0693 28.9221 41.1692 28.9111 41.2612C28.8724 41.8425 28.7196 42.4104 28.4613 42.9325C28.203 43.4546 27.8444 43.9207 27.4058 44.3041C26.9672 44.6875 26.4574 44.9807 25.9055 45.1669C25.3535 45.3531 24.7702 45.4286 24.1891 45.3892C23.0552 45.2878 22.001 44.7631 21.2365 43.9196C20.4719 43.0761 20.053 41.9756 20.063 40.8372V36.7373C20.063 36.6883 20.0391 36.6453 20.0351 36.5953C20.0024 36.2989 19.8573 36.0263 19.6297 35.8338C19.402 35.6413 19.1091 35.5434 18.8115 35.5605C18.5138 35.5776 18.234 35.7082 18.0298 35.9255C17.8256 36.1427 17.7126 36.4301 17.7141 36.7283V40.9743C17.7141 41.0743 17.714 41.1743 17.705 41.2663C17.6273 42.3849 17.1278 43.4323 16.3076 44.1969C15.4873 44.9615 14.4074 45.3862 13.2861 45.3852H6.77505C5.65372 45.3862 4.57383 44.9615 3.75357 44.1969C2.93331 43.4323 2.43383 42.3849 2.35605 41.2663C2.35005 41.1663 2.34705 41.0733 2.34705 40.9743V36.7323C2.33813 36.4267 2.2105 36.1366 1.99121 35.9236C1.77192 35.7106 1.47824 35.5915 1.17255 35.5915C0.866852 35.5915 0.573201 35.7106 0.353912 35.9236C0.134624 36.1366 0.00696395 36.4267 -0.00195312 36.7323V40.9693C0.000428112 42.7659 0.715208 44.4883 1.98563 45.7587C3.25604 47.0291 4.97841 47.7439 6.77505 47.7462H13.2861C14.4021 47.7446 15.5004 47.4675 16.4836 46.9394C17.4668 46.4114 18.3044 45.6487 18.9221 44.7193C19.5058 45.5868 20.2798 46.3099 21.185 46.8334C22.0902 47.3569 23.1029 47.667 24.1461 47.7403C24.2551 47.7463 24.3651 47.7493 24.4741 47.7493C26.2739 47.7511 28.0008 47.038 29.2749 45.7667C30.549 44.4954 31.2659 42.7701 31.2681 40.9703V36.7323C31.267 36.4217 31.1432 36.124 30.9237 35.9043C30.7041 35.6846 30.4067 35.5606 30.0961 35.5593Z" fill="white"/>
<defs>
<linearGradient id="paint0_linear_433_17342" x1="157.834" y1="50.2437" x2="208.837" y2="-12.6021" gradientUnits="userSpaceOnUse">
<stop stop-color="#0D53FC"/>
<stop offset="1" stop-color="#49C596"/>
</linearGradient>
<linearGradient id="paint1_linear_433_17342" x1="159.615" y1="55.308" x2="237.209" y2="9.82982" gradientUnits="userSpaceOnUse">
<stop stop-color="#0D53FC"/>
<stop offset="1" stop-color="#49C596"/>
</linearGradient>
</defs>
</svg>
