<svg  viewBox="0 0 44 30" fill="none" xmlns="http://www.w3.org/2000/svg">
<path fill-rule="evenodd" clip-rule="evenodd" d="M30.5687 2.90936C33.3797 4.99056 35.3641 7.99884 36.1709 11.4021H36.1755C38.4107 11.9343 40.373 13.2682 41.6903 15.1508C43.0076 17.0333 43.5885 19.3338 43.3227 21.6161C43.0569 23.8984 41.963 26.0039 40.2484 27.5334C38.5337 29.0629 36.3175 29.9102 34.0198 29.9146H26.1316C25.9079 29.9146 25.6863 29.8706 25.4796 29.785C25.2729 29.6994 25.0851 29.574 24.9269 29.4158C24.7687 29.2576 24.6432 29.0698 24.5576 28.863C24.472 28.6563 24.428 28.4348 24.4281 28.211V22.6165C24.4269 22.5074 24.424 22.4 24.4171 22.2926C24.3297 21.0042 23.7341 19.8033 22.7613 18.954C21.7885 18.1048 20.5181 17.6767 19.2297 17.7641C17.9803 17.8762 16.8192 18.4561 15.979 19.3876C15.1388 20.3192 14.6814 21.5337 14.6983 22.788V28.211C14.6982 28.6628 14.5187 29.096 14.1992 29.4154C13.8798 29.7349 13.4466 29.9144 12.9948 29.9146H8.62225C6.48848 29.9371 4.42346 29.1607 2.83317 27.7378C1.24288 26.315 0.242371 24.3487 0.028381 22.2256C-0.144562 20.1268 0.477383 18.0396 1.77093 16.3778C3.06448 14.716 4.9352 13.6009 7.01226 13.2535C7.38212 9.77551 8.97011 6.5404 11.4953 4.12039C14.0205 1.70039 17.3202 0.251423 20.8107 0.0297989C24.3013 -0.191826 27.7577 0.828167 30.5687 2.90936ZM27.4217 26.9106H33.7992L33.8096 26.91C35.4323 26.9267 37.0027 26.3369 38.2131 25.2561C39.4235 24.1753 40.1866 22.6814 40.3529 21.0672C40.4953 19.4085 39.9828 17.7599 38.9252 16.4743C37.8676 15.1886 36.3488 14.3679 34.6937 14.1878C34.371 14.1494 34.0699 14.0056 33.8373 13.7786C33.6046 13.5516 33.4534 13.2541 33.4071 12.9324C32.9409 10.0101 31.3948 7.36913 29.0748 5.532C26.7548 3.69488 23.8298 2.79536 20.8784 3.01138C17.927 3.22741 15.1642 4.54325 13.1365 6.69861C11.1087 8.85396 9.96365 11.6919 9.9279 14.6509C9.92455 15.0469 9.7649 15.4256 9.48369 15.7044C9.20249 15.9832 8.8225 16.1397 8.4265 16.1397C8.27116 16.1385 8.11814 16.1437 7.96453 16.1564C7.25812 16.2127 6.56969 16.4076 5.9386 16.73C5.30752 17.0523 4.74612 17.4959 4.28646 18.0352C3.8268 18.5746 3.4779 19.1992 3.25964 19.8734C3.04139 20.5476 2.95808 21.2582 3.01447 21.9646C3.15468 23.3317 3.80131 24.5969 4.8272 25.5113C5.85309 26.4257 7.18397 26.9232 8.55814 26.906H11.6834V22.6119C11.6834 22.4849 11.6857 22.3578 11.6915 22.2325C11.7425 21.1992 11.9965 20.186 12.4391 19.2508C12.8817 18.3156 13.5043 17.4768 14.2711 16.7823C15.0379 16.0877 15.934 15.5511 16.9083 15.2029C17.8826 14.8547 18.9159 14.7019 19.9493 14.7532C21.9925 14.893 23.9048 15.8091 25.2942 17.3137C26.6836 18.8183 27.4447 20.7974 27.4217 22.8452V26.9106ZM19.8841 24.1787C19.8841 25.1186 19.1222 25.8805 18.1823 25.8805C17.2424 25.8805 16.4805 25.1186 16.4805 24.1787C16.4805 23.2388 17.2424 22.4769 18.1823 22.4769C19.1222 22.4769 19.8841 23.2388 19.8841 24.1787Z" fill="url(#paint0_linear_433_17348)"/>
<defs>
<linearGradient id="paint0_linear_433_17348" x1="-1.92281" y1="35.9623" x2="48.5354" y2="6.38849" gradientUnits="userSpaceOnUse">
<stop stop-color="#0D53FC"/>
<stop offset="1" stop-color="#49C596"/>
</linearGradient>
</defs>
</svg>
