<svg width="278" height="53" viewBox="0 0 278 53" fill="none" xmlns="http://www.w3.org/2000/svg">
<path fill-rule="evenodd" clip-rule="evenodd" d="M53.8832 5.67877C58.751 9.28278 62.1873 14.4922 63.5844 20.3856H63.5924C67.4631 21.3073 70.8612 23.6171 73.1424 26.8772C75.4236 30.1373 76.4295 34.121 75.9693 38.0732C75.509 42.0255 73.6147 45.6715 70.6455 48.3202C67.6762 50.9688 63.8384 52.436 59.8595 52.4437H46.1994C45.812 52.4438 45.4283 52.3676 45.0703 52.2194C44.7124 52.0712 44.3871 51.8539 44.1132 51.5799C43.8392 51.306 43.6219 50.9807 43.4737 50.6227C43.3255 50.2648 43.2493 49.8811 43.2494 49.4936V39.8057C43.2474 39.6167 43.2424 39.4307 43.2304 39.2447C43.0791 37.0135 42.0476 34.9339 40.363 33.4633C38.6784 31.9926 36.4786 31.2514 34.2475 31.4026C32.0837 31.5968 30.0732 32.601 28.6182 34.2141C27.1632 35.8273 26.371 37.9305 26.4004 40.1027V49.4936C26.4001 50.276 26.0893 51.0262 25.5361 51.5793C24.9829 52.1325 24.2328 52.4434 23.4505 52.4437H15.8784C12.1834 52.4828 8.60737 51.1382 5.85347 48.6742C3.09956 46.2103 1.36698 42.8053 0.996413 39.1287C0.696927 35.4942 1.77395 31.8798 4.01399 29.0021C6.25403 26.1243 9.49356 24.1933 13.0904 23.5917C13.7309 17.5689 16.4808 11.9666 20.8537 7.77591C25.2266 3.58518 30.9407 1.07601 36.9852 0.692228C43.0298 0.308441 49.0154 2.07476 53.8832 5.67877ZM48.4334 47.2417H59.4774L59.4954 47.2407C62.3054 47.2697 65.0248 46.2482 67.1209 44.3766C69.2169 42.5049 70.5384 39.9179 70.8264 37.1226C71.073 34.2503 70.1856 31.3955 68.3541 29.1691C66.5226 26.9427 63.8925 25.5215 61.0264 25.2097C60.4675 25.1432 59.9461 24.894 59.5433 24.5009C59.1404 24.1079 58.8786 23.5928 58.7984 23.0357C57.991 17.9751 55.3138 13.4017 51.2962 10.2204C47.2787 7.03904 42.2134 5.48135 37.1025 5.85544C31.9916 6.22953 27.2072 8.50816 23.6957 12.2406C20.1842 15.973 18.2013 20.8874 18.1394 26.0117C18.1336 26.6974 17.8572 27.3531 17.3702 27.8359C16.8832 28.3188 16.2252 28.5897 15.5394 28.5897C15.2704 28.5877 15.0055 28.5967 14.7395 28.6187C13.5162 28.7161 12.324 29.0537 11.2312 29.6119C10.1383 30.1701 9.16613 30.9382 8.37013 31.8722C7.57413 32.8062 6.96994 33.8878 6.59199 35.0553C6.21405 36.2228 6.06978 37.4534 6.16743 38.6767C6.41022 41.0441 7.53 43.235 9.30653 44.8185C11.0831 46.402 13.3878 47.2636 15.7674 47.2337H21.1794V39.7977C21.1794 39.5777 21.1834 39.3577 21.1934 39.1407C21.2817 37.3512 21.7216 35.5966 22.4881 33.9772C23.2546 32.3578 24.3326 30.9053 25.6605 29.7025C26.9885 28.4998 28.5403 27.5704 30.2274 26.9675C31.9146 26.3646 33.704 26.0999 35.4934 26.1887C39.0316 26.4308 42.3432 28.0172 44.7492 30.6227C47.1552 33.2282 48.4734 36.6554 48.4334 40.2017V47.2417ZM35.3686 42.5173C35.3686 44.1449 34.0492 45.4643 32.4216 45.4643C30.794 45.4643 29.4746 44.1449 29.4746 42.5173C29.4746 40.8897 30.794 39.5703 32.4216 39.5703C34.0492 39.5703 35.3686 40.8897 35.3686 42.5173Z" fill="url(#paint0_linear_433_17343)"/>
<path d="M131.07 21.4556C128.158 21.4554 125.311 22.3187 122.89 23.9365C120.468 25.5542 118.581 27.8537 117.466 30.544C116.352 33.2344 116.06 36.1949 116.628 39.0511C117.196 41.9073 118.598 44.531 120.657 46.5903C122.716 48.6496 125.34 50.0522 128.196 50.6205C131.052 51.1888 134.012 50.8974 136.703 49.7832C139.393 48.6689 141.693 46.7819 143.311 44.3606C144.929 41.9394 145.793 39.0927 145.793 36.1806C145.793 32.2757 144.242 28.5308 141.481 25.7694C138.72 23.0081 134.975 21.4564 131.07 21.4556ZM131.07 45.8786C129.152 45.8786 127.276 45.3097 125.681 44.2438C124.086 43.178 122.843 41.6631 122.109 39.8906C121.374 38.1182 121.182 36.1678 121.557 34.2862C121.931 32.4046 122.855 30.6762 124.211 29.3196C125.568 27.9631 127.296 27.0393 129.178 26.665C131.059 26.2907 133.01 26.4828 134.782 27.2169C136.555 27.9511 138.07 29.1944 139.135 30.7896C140.201 32.3847 140.77 34.2601 140.77 36.1786C140.77 38.7512 139.748 41.2184 137.929 43.0375C136.11 44.8566 133.643 45.8786 131.07 45.8786Z" fill="white"/>
<path d="M164.411 21.4556C161.499 21.456 158.652 22.3198 156.231 23.9379C153.81 25.556 151.923 27.8557 150.809 30.5461C149.695 33.2365 149.403 36.1969 149.972 39.0529C150.54 41.909 151.942 44.5323 154.001 46.5914C156.061 48.6504 158.684 50.0526 161.54 50.6207C164.396 51.1888 167.357 50.8972 170.047 49.7829C172.737 48.6685 175.037 46.7815 176.655 44.3603C178.273 41.9391 179.136 39.0926 179.136 36.1806C179.136 32.2752 177.585 28.5298 174.823 25.7684C172.061 23.0069 168.316 21.4556 164.411 21.4556ZM164.411 45.8786C162.492 45.8786 160.617 45.3097 159.021 44.2438C157.426 43.178 156.183 41.6631 155.449 39.8906C154.715 38.1182 154.523 36.1678 154.897 34.2862C155.271 32.4046 156.195 30.6762 157.552 29.3196C158.908 27.9631 160.637 27.0393 162.518 26.665C164.4 26.2907 166.35 26.4828 168.122 27.2169C169.895 27.9511 171.41 29.1944 172.476 30.7896C173.542 32.3847 174.11 34.2601 174.11 36.1786C174.11 38.7512 173.089 41.2184 171.269 43.0375C169.45 44.8566 166.983 45.8786 164.411 45.8786Z" fill="white"/>
<path d="M241.182 35.7967C241.096 32.4503 239.872 29.233 237.714 26.6748C235.555 24.1165 232.589 22.3698 229.304 21.7225C226.02 21.0751 222.613 21.5656 219.645 23.1132C216.677 24.6609 214.324 27.1733 212.975 30.2367C211.625 33.3001 211.359 36.7318 212.221 39.9665C213.082 43.2013 215.02 46.0461 217.714 48.0325C220.409 50.0189 223.699 51.0283 227.044 50.8946C230.389 50.7608 233.589 49.4919 236.116 47.2967V48.3697C236.106 48.7106 236.165 49.0499 236.289 49.3676C236.413 49.6854 236.599 49.975 236.837 50.2195C237.075 50.464 237.359 50.6583 237.673 50.791C237.987 50.9237 238.325 50.9921 238.666 50.9921C239.007 50.9921 239.344 50.9237 239.658 50.791C239.973 50.6583 240.257 50.464 240.495 50.2195C240.732 49.975 240.919 49.6854 241.043 49.3676C241.166 49.0499 241.225 48.7106 241.216 48.3697V35.7507L241.182 35.7967ZM226.476 45.8787C224.557 45.8787 222.682 45.3098 221.087 44.2439C219.492 43.1781 218.248 41.6632 217.514 39.8907C216.78 38.1183 216.588 36.1679 216.962 34.2863C217.336 32.4047 218.26 30.6763 219.617 29.3197C220.973 27.9632 222.702 27.0394 224.583 26.6651C226.465 26.2908 228.415 26.4829 230.188 27.2171C231.96 27.9512 233.475 29.1945 234.541 30.7897C235.607 32.3848 236.176 34.2602 236.176 36.1787C236.176 38.7513 235.154 41.2185 233.335 43.0376C231.516 44.8567 229.048 45.8787 226.476 45.8787Z" fill="white"/>
<path d="M262.693 21.4706C262.459 21.4706 262.222 21.4777 261.987 21.4897C258.696 21.7129 255.571 23.0183 253.099 25.2026V24.0096C253.109 23.6688 253.05 23.3294 252.926 23.0117C252.802 22.694 252.616 22.4043 252.378 22.1598C252.14 21.9153 251.856 21.721 251.542 21.5883C251.228 21.4556 250.89 21.3872 250.549 21.3872C250.208 21.3872 249.87 21.4556 249.556 21.5883C249.242 21.721 248.958 21.9153 248.72 22.1598C248.482 22.4043 248.296 22.694 248.172 23.0117C248.048 23.3294 247.989 23.6688 247.999 24.0096V36.5896C247.999 36.6066 247.999 36.6206 247.999 36.6376V48.3596C248.025 49.0185 248.305 49.6416 248.781 50.0985C249.256 50.5554 249.89 50.8106 250.549 50.8106C251.208 50.8106 251.842 50.5554 252.318 50.0985C252.793 49.6416 253.073 49.0185 253.099 48.3596V36.5536C253.066 34.0691 253.973 31.6638 255.637 29.8185C257.3 27.9731 259.599 26.8236 262.074 26.5996C263.338 26.5144 264.607 26.6791 265.807 27.0842C267.007 27.4893 268.116 28.1269 269.07 28.9606C270.024 29.7943 270.805 30.8078 271.367 31.9432C271.929 33.0786 272.262 34.3135 272.347 35.5776C272.361 35.7876 272.369 36.0006 272.369 36.2126V48.3676C272.359 48.7085 272.418 49.0478 272.542 49.3656C272.666 49.6833 272.852 49.973 273.09 50.2175C273.328 50.462 273.612 50.6563 273.926 50.789C274.24 50.9217 274.578 50.9901 274.919 50.9901C275.26 50.9901 275.598 50.9217 275.912 50.789C276.226 50.6563 276.51 50.462 276.748 50.2175C276.986 49.973 277.172 49.6833 277.296 49.3656C277.42 49.0478 277.479 48.7085 277.469 48.3676V36.2126C277.464 32.2985 275.905 28.5466 273.134 25.782C270.363 23.0175 266.607 21.4667 262.693 21.4706Z" fill="white"/>
<path d="M112.817 35.3937C112.554 31.5686 110.838 27.9889 108.022 25.3875C105.205 22.786 101.5 21.3598 97.6663 21.4008H88.7343C88.0456 21.4211 87.3901 21.7015 86.8998 22.1856C86.4094 22.6696 86.1206 23.3213 86.0913 24.0097V48.3268C86.091 48.6618 86.1569 48.9937 86.285 49.3033C86.4131 49.6129 86.601 49.8942 86.8379 50.1312C87.0748 50.3681 87.3562 50.556 87.6658 50.6841C87.9754 50.8122 88.3073 50.878 88.6423 50.8778C88.6573 50.8778 88.6693 50.8708 88.6863 50.8708C88.7033 50.8708 88.7133 50.8778 88.7293 50.8778H98.0943C100.032 50.8755 101.951 50.4915 103.741 49.7477C105.53 49.004 107.156 47.9149 108.525 46.5428C109.894 45.1707 110.979 43.5424 111.718 41.7509C112.458 39.9594 112.837 38.0398 112.834 36.1017C112.834 35.8647 112.829 35.6307 112.817 35.3937ZM98.7293 45.7567C98.5163 45.7717 98.3063 45.7788 98.0943 45.7788H91.1943V26.5088H97.7533C100.238 26.4762 102.643 27.3824 104.488 29.0463C106.334 30.7102 107.483 33.0091 107.707 35.4837C107.792 36.7478 107.628 38.0162 107.222 39.2166C106.817 40.417 106.18 41.5258 105.346 42.4797C104.512 43.4337 103.499 44.2141 102.364 44.7763C101.228 45.3386 99.9934 45.6717 98.7293 45.7567Z" fill="white"/>
<path d="M196.708 36.1596L207.121 25.7466C207.358 25.5096 207.545 25.2284 207.674 24.9188C207.802 24.6092 207.868 24.2774 207.868 23.9424C207.867 23.6074 207.801 23.2757 207.673 22.9662C207.545 22.6567 207.357 22.3754 207.12 22.1386C206.883 21.9018 206.602 21.7139 206.292 21.5858C205.982 21.4577 205.651 21.3918 205.316 21.3919C204.981 21.392 204.649 21.458 204.339 21.5863C204.03 21.7146 203.749 21.9026 203.512 22.1396L193.099 32.5516L191.299 34.3516C190.846 34.8109 190.585 35.4251 190.569 36.0696V24.0096C190.578 23.6687 190.519 23.3294 190.396 23.0117C190.272 22.694 190.085 22.4043 189.848 22.1598C189.61 21.9153 189.326 21.721 189.011 21.5883C188.697 21.4556 188.36 21.3872 188.019 21.3872C187.678 21.3872 187.34 21.4556 187.026 21.5883C186.712 21.721 186.428 21.9153 186.19 22.1598C185.952 22.4043 185.766 22.694 185.642 23.0117C185.518 23.3294 185.459 23.6687 185.469 24.0096V48.2006C185.459 48.5415 185.518 48.8808 185.642 49.1985C185.766 49.5163 185.952 49.806 186.19 50.0504C186.428 50.2949 186.712 50.4893 187.026 50.622C187.34 50.7547 187.678 50.823 188.019 50.823C188.36 50.823 188.697 50.7547 189.011 50.622C189.326 50.4893 189.61 50.2949 189.848 50.0504C190.085 49.806 190.272 49.5163 190.396 49.1985C190.519 48.8808 190.578 48.5415 190.569 48.2006V36.2516C190.585 36.8962 190.846 37.5103 191.299 37.9696L193.099 39.7696L203.461 50.1316C203.939 50.6102 204.589 50.879 205.266 50.8789C205.943 50.8788 206.592 50.6098 207.07 50.1311C207.549 49.6524 207.818 49.0032 207.818 48.3263C207.817 47.6494 207.549 47.0002 207.07 46.5216L196.708 36.1596Z" fill="white"/>
<defs>
<linearGradient id="paint0_linear_433_17343" x1="-2.38246" y1="62.9164" x2="84.9961" y2="11.7035" gradientUnits="userSpaceOnUse">
<stop stop-color="#0D53FC"/>
<stop offset="1" stop-color="#49C596"/>
</linearGradient>
</defs>
</svg>
