<svg width="280" height="53" viewBox="0 0 280 53" fill="none" xmlns="http://www.w3.org/2000/svg">
<path d="M64.0658 20.5254C62.6588 14.5902 59.1981 9.3439 54.2958 5.71439C49.3934 2.08488 43.3654 0.306063 37.278 0.692602C31.1906 1.07914 25.436 3.60611 21.0322 7.82654C16.6283 12.047 13.8589 17.6889 13.2139 23.7544C9.59147 24.3602 6.32896 26.3049 4.07298 29.203C1.81701 32.1011 0.732277 35.7411 1.03386 39.4014C1.40607 43.1045 3.15072 46.5343 5.92449 49.0159C8.69825 51.4974 12.3003 52.851 16.0219 52.8104H23.6469C24.0374 52.8108 24.424 52.7342 24.7849 52.5851C25.1458 52.436 25.4737 52.2172 25.75 51.9413C26.0263 51.6654 26.2455 51.3378 26.3951 50.9771C26.5447 50.6165 26.6217 50.2298 26.6219 49.8394V40.3854C26.5929 38.1986 27.3906 36.0816 28.8553 34.4576C30.32 32.8336 32.3438 31.8225 34.5219 31.6264C35.6346 31.5511 36.7512 31.6957 37.808 32.052C38.8648 32.4082 39.8411 32.9692 40.6811 33.7028C41.5211 34.4364 42.2084 35.3282 42.7037 36.3275C43.199 37.3267 43.4927 38.4137 43.5679 39.5264C43.5799 39.7134 43.5849 39.9014 43.5869 40.0904V49.8474C43.5868 50.2376 43.6635 50.624 43.8127 50.9845C43.962 51.345 44.1809 51.6726 44.4568 51.9485C44.7327 52.2244 45.0602 52.4432 45.4208 52.5925C45.7813 52.7418 46.1677 52.8185 46.5578 52.8184H60.3149C64.322 52.8107 68.1871 51.3331 71.1774 48.6657C74.1677 45.9982 76.0754 42.3263 76.5388 38.346C77.0022 34.3658 75.9892 30.3538 73.6918 27.0707C71.3943 23.7876 67.9721 21.4615 64.0739 20.5334L64.0658 20.5254ZM59.9299 47.5724H48.8078V40.4854C48.8478 36.914 47.5202 33.4627 45.0972 30.8388C42.6741 28.2149 39.3391 26.6173 35.7759 26.3734C33.9738 26.2841 32.1718 26.5507 30.4728 27.158C28.7738 27.7652 27.2111 28.7012 25.8739 29.9125C24.5367 31.1238 23.4512 32.5867 22.6794 34.2175C21.9077 35.8484 21.4647 37.6153 21.3759 39.4174C21.3659 39.6364 21.3609 39.8574 21.3609 40.0794V47.5684H15.9109C13.5138 47.5989 11.192 46.7315 9.40215 45.1367C7.61229 43.5419 6.48391 41.3351 6.23888 38.9504C6.14055 37.7184 6.28584 36.4792 6.66649 35.3034C7.04714 34.1276 7.65566 33.0383 8.45732 32.0977C9.25899 31.1571 10.2381 30.3837 11.3387 29.8215C12.4393 29.2594 13.6399 28.9195 14.8719 28.8214C15.1399 28.7994 15.4069 28.7894 15.6769 28.7924C16.3688 28.7932 17.033 28.5203 17.5244 28.0331C18.0158 27.546 18.2946 26.8843 18.2999 26.1924C18.353 21.0263 20.3453 16.0688 23.8819 12.3026C27.4184 8.5365 32.241 6.2367 37.3935 5.8592C42.5461 5.48169 47.6524 7.05405 51.7001 10.2645C55.7478 13.475 58.4414 18.0892 59.2469 23.1924C59.3274 23.7535 59.5909 24.2722 59.9965 24.6682C60.4021 25.0642 60.927 25.3153 61.4899 25.3824C64.377 25.696 67.0266 27.1275 68.8715 29.3703C70.7164 31.6131 71.6099 34.489 71.3609 37.3824C71.0709 40.1975 69.7401 42.8028 67.6293 44.6878C65.5184 46.5728 62.7797 47.6015 59.9499 47.5724H59.9299Z" fill="url(#paint0_linear_433_17344)"/>
<path d="M32.6828 45.7822C34.322 45.7822 35.6508 44.4534 35.6508 42.8142C35.6508 41.175 34.322 39.8462 32.6828 39.8462C31.0437 39.8462 29.7148 41.175 29.7148 42.8142C29.7148 44.4534 31.0437 45.7822 32.6828 45.7822Z" fill="url(#paint1_linear_433_17344)"/>
<path d="M132.03 16.0645C129.097 16.0641 126.23 16.9334 123.791 18.5626C121.352 20.1917 119.451 22.5075 118.329 25.217C117.206 27.9266 116.912 30.9082 117.484 33.7849C118.056 36.6615 119.468 39.304 121.541 41.3781C123.615 43.4522 126.257 44.8648 129.134 45.4373C132.01 46.0097 134.992 45.7163 137.702 44.5941C140.412 43.472 142.728 41.5715 144.357 39.133C145.987 36.6944 146.857 33.8274 146.857 30.8945C146.857 26.9618 145.295 23.1902 142.515 20.4091C139.734 17.6281 135.963 16.0652 132.03 16.0645ZM132.03 40.6645C130.098 40.6643 128.21 40.0912 126.604 39.0177C124.997 37.9442 123.746 36.4186 123.006 34.6336C122.267 32.8487 122.074 30.8846 122.451 28.9898C122.828 27.0951 123.759 25.3547 125.125 23.9887C126.491 22.6228 128.232 21.6927 130.127 21.3159C132.021 20.9392 133.985 21.1329 135.77 21.8724C137.555 22.6119 139.08 23.864 140.154 25.4705C141.227 27.0769 141.799 28.9655 141.799 30.8975C141.798 33.4874 140.768 35.9708 138.936 37.8016C137.104 39.6324 134.62 40.6607 132.03 40.6605V40.6645Z" fill="#032C58"/>
<path d="M165.607 16.0645C162.675 16.0647 159.808 16.9345 157.369 18.564C154.931 20.1935 153.03 22.5095 151.908 25.2191C150.786 27.9287 150.492 30.9103 151.064 33.7867C151.636 36.6632 153.049 39.3053 155.123 41.3792C157.196 43.453 159.839 44.8653 162.715 45.4375C165.591 46.0097 168.573 45.7161 171.283 44.5939C173.992 43.4716 176.308 41.5711 177.938 39.1326C179.567 36.6942 180.437 33.8273 180.437 30.8945C180.437 28.947 180.054 27.0185 179.308 25.2193C178.563 23.42 177.471 21.7852 176.094 20.4081C174.717 19.031 173.082 17.9386 171.282 17.1933C169.483 16.4481 167.555 16.0645 165.607 16.0645ZM165.607 40.6645C163.675 40.6643 161.787 40.0912 160.181 39.0177C158.574 37.9442 157.323 36.4186 156.583 34.6336C155.844 32.8487 155.651 30.8846 156.028 28.9898C156.405 27.0951 157.336 25.3547 158.702 23.9887C160.068 22.6228 161.809 21.6927 163.704 21.3159C165.598 20.9392 167.563 21.1329 169.347 21.8724C171.132 22.6119 172.658 23.864 173.731 25.4705C174.804 27.0769 175.376 28.9655 175.376 30.8975C175.376 32.18 175.123 33.4498 174.632 34.6345C174.141 35.8192 173.421 36.8956 172.514 37.8022C171.607 38.7088 170.53 39.4278 169.345 39.9182C168.16 40.4086 166.89 40.6609 165.607 40.6605V40.6645Z" fill="#032C58"/>
<path d="M242.921 30.5075C242.835 27.1371 241.603 23.8967 239.429 21.3199C237.254 18.7432 234.267 16.9839 230.959 16.3319C227.651 15.6798 224.22 16.1739 221.231 17.7327C218.241 19.2915 215.872 21.8221 214.513 24.9076C213.154 27.9931 212.886 31.4494 213.754 34.7073C214.622 37.9652 216.574 40.8302 219.288 42.8305C222.002 44.8308 225.316 45.8471 228.685 45.7118C232.054 45.5766 235.276 44.2979 237.821 42.0865V43.1665C237.821 43.848 238.092 44.5016 238.574 44.9834C239.056 45.4653 239.709 45.736 240.391 45.736C241.072 45.736 241.726 45.4653 242.207 44.9834C242.689 44.5016 242.96 43.848 242.96 43.1665V30.4615L242.921 30.5075ZM228.111 40.6605C226.179 40.6603 224.291 40.0873 222.684 39.0138C221.078 37.9403 219.826 36.4146 219.087 34.6297C218.348 32.8447 218.155 30.8807 218.532 28.9859C218.909 27.0911 219.84 25.3507 221.206 23.9848C222.572 22.6189 224.313 21.6887 226.207 21.312C228.102 20.9353 230.066 21.129 231.851 21.8685C233.636 22.608 235.161 23.8601 236.234 25.4666C237.308 27.073 237.88 28.9616 237.88 30.8935C237.88 32.1764 237.628 33.4466 237.137 34.6318C236.646 35.817 235.926 36.8938 235.019 37.8008C234.112 38.7078 233.035 39.4272 231.849 39.9179C230.664 40.4086 229.394 40.6609 228.111 40.6605Z" fill="#032C58"/>
<path d="M264.586 16.0789C264.35 16.0789 264.112 16.0859 263.876 16.0979C260.561 16.3226 257.414 17.6376 254.924 19.8379V18.6378C254.924 17.9564 254.653 17.3028 254.172 16.821C253.69 16.3391 253.036 16.0684 252.355 16.0684C251.673 16.0684 251.02 16.3391 250.538 16.821C250.056 17.3028 249.785 17.9564 249.785 18.6378V31.3098C249.785 31.3268 249.785 31.3419 249.785 31.3589V43.1649C249.798 43.8378 250.075 44.4787 250.556 44.95C251.036 45.4212 251.683 45.6852 252.356 45.6852C253.029 45.6852 253.675 45.4212 254.156 44.95C254.636 44.4787 254.913 43.8378 254.926 43.1649V31.2689C254.894 28.7668 255.806 26.3445 257.482 24.4862C259.158 22.6279 261.473 21.4703 263.965 21.2448C265.238 21.1591 266.516 21.325 267.724 21.7329C268.933 22.1409 270.05 22.783 271.011 23.6225C271.971 24.462 272.757 25.4826 273.324 26.6259C273.89 27.7692 274.226 29.0129 274.311 30.2859C274.326 30.4979 274.333 30.7119 274.333 30.9259V43.1669C274.333 43.8483 274.604 44.5019 275.086 44.9838C275.568 45.4656 276.221 45.7364 276.903 45.7364C277.584 45.7364 278.238 45.4656 278.72 44.9838C279.201 44.5019 279.472 43.8483 279.472 43.1669V30.9249C279.47 28.9726 279.082 27.04 278.333 25.2374C277.583 23.4348 276.486 21.7974 275.104 20.4189C273.722 19.0403 272.081 17.9475 270.277 17.2028C268.472 16.4582 266.538 16.0762 264.586 16.0789Z" fill="#032C58"/>
<path d="M113.648 30.1017C113.383 26.2494 111.656 22.6442 108.819 20.0242C105.983 17.4042 102.252 15.9677 98.3905 16.0087H89.3905C88.6968 16.029 88.0365 16.3114 87.5426 16.799C87.0487 17.2866 86.7578 17.9432 86.7285 18.6367V43.1257C86.7283 43.4631 86.7945 43.7973 86.9235 44.1091C87.0525 44.4209 87.2417 44.7042 87.4803 44.9428C87.719 45.1814 88.0023 45.3706 88.3141 45.4996C88.6259 45.6286 88.9601 45.6949 89.2975 45.6947C89.3125 45.6947 89.3245 45.6877 89.3415 45.6877C89.3585 45.6877 89.3685 45.6947 89.3855 45.6947H98.8165C100.768 45.6923 102.701 45.3055 104.503 44.5564C106.305 43.8072 107.942 42.7105 109.321 41.3286C110.699 39.9468 111.792 38.3069 112.536 36.5028C113.281 34.6986 113.663 32.7654 113.661 30.8137C113.666 30.5767 113.66 30.3407 113.648 30.1017ZM99.4615 40.5347C99.2475 40.5497 99.0355 40.5567 98.8215 40.5567H91.8725V21.1507H98.4785C100.981 21.1181 103.403 22.0308 105.261 23.7066C107.12 25.3823 108.277 27.6976 108.503 30.1897C108.675 32.7604 107.82 35.2945 106.125 37.2346C104.429 39.1746 102.032 40.3617 99.4615 40.5347Z" fill="#032C58"/>
<path d="M198.135 30.8731L208.622 20.3861C208.86 20.1475 209.049 19.8641 209.178 19.5523C209.307 19.2405 209.374 18.9064 209.374 18.5689C209.374 18.2315 209.307 17.8974 209.178 17.5856C209.049 17.2739 208.859 16.9907 208.621 16.7521C208.382 16.5136 208.099 16.3244 207.787 16.1953C207.475 16.0663 207.141 15.9999 206.803 16C206.466 16.0001 206.132 16.0667 205.82 16.1959C205.508 16.3251 205.225 16.5145 204.987 16.7531L194.5 27.2401L192.685 29.0531C192.229 29.5157 191.966 30.1341 191.95 30.7831V18.6361C191.95 17.9547 191.679 17.3011 191.197 16.8192C190.715 16.3373 190.062 16.0667 189.38 16.0667C188.699 16.0667 188.045 16.3373 187.563 16.8192C187.081 17.3011 186.811 17.9547 186.811 18.6361V42.9991C186.811 43.6806 187.081 44.3342 187.563 44.816C188.045 45.2979 188.699 45.5686 189.38 45.5686C190.062 45.5686 190.715 45.2979 191.197 44.816C191.679 44.3342 191.95 43.6806 191.95 42.9991V30.9601C191.966 31.6092 192.229 32.2276 192.685 32.6901L194.5 34.5051L204.936 44.9411C205.418 45.4232 206.071 45.694 206.753 45.694C207.435 45.694 208.089 45.4232 208.571 44.9411C209.053 44.4591 209.323 43.8053 209.323 43.1236C209.323 42.4419 209.053 41.7882 208.571 41.3062L198.135 30.8731Z" fill="#032C58"/>
<defs>
<linearGradient id="paint0_linear_433_17344" x1="-4.38778" y1="57.6187" x2="53.4563" y2="-13.6578" gradientUnits="userSpaceOnUse">
<stop stop-color="#0D53FC"/>
<stop offset="1" stop-color="#49C596"/>
</linearGradient>
<linearGradient id="paint1_linear_433_17344" x1="-2.36924" y1="63.3587" x2="85.632" y2="11.7808" gradientUnits="userSpaceOnUse">
<stop stop-color="#0D53FC"/>
<stop offset="1" stop-color="#49C596"/>
</linearGradient>
</defs>
</svg>
