<svg width="24" height="24" viewBox="0 0 24 24" fill="none" xmlns="http://www.w3.org/2000/svg">
<path fill-rule="evenodd" clip-rule="evenodd" d="M8.1171 3.84016L8.1163 3.83936V6.30001H8.1171V3.84016ZM7.3033 3.83997V3.83937L6.3198 4.82287L6.3201 4.82317L7.3033 3.83997ZM9.10079 4.82287L9.67542 4.24824L7.70963 2.28332L7.71013 2.28282L9.67609 4.24791L9.10109 4.82317L9.10079 4.82287ZM6.3201 4.96459L7.2041 4.08059V6.40001H8.2171V4.08059L9.10109 4.96459L9.81766 4.24803L7.71011 2.14142L5.60352 4.24801L6.3201 4.96459ZM8.1163 9.12384V11.5821L8.1171 11.5813V9.12374H7.3041V9.12384H8.1163ZM9.09974 10.5981L9.67446 11.1728L7.70975 13.1375L7.71009 13.1379L9.67525 11.1727L9.10019 10.5977L9.09974 10.5981ZM6.31965 10.598L7.3033 11.5817V11.5808L6.3201 10.5976L6.31965 10.598ZM9.10014 10.4562L8.2171 11.3404V9.02374H7.2041V11.3402L6.3201 10.4562L5.60352 11.1727L7.71009 13.2793L9.81667 11.1727L9.10014 10.4562ZM3.83734 8.11587L4.82156 9.10009L4.2469 9.67476L4.2472 9.67507L4.82236 9.09991L3.83832 8.11587L3.83734 8.11587ZM4.24672 5.74524L4.2472 5.74475L4.82236 6.31991L3.83836 7.30392H6.2992V8.11682L6.29841 8.11682V7.3041H3.83757L4.82157 6.32009L4.24672 5.74524ZM4.2472 9.81649L4.96378 9.09991L4.07967 8.2158L6.3992 8.21687V7.20392H4.07978L4.96378 6.31991L4.2472 5.60333L2.14062 7.70991L4.2472 9.81649ZM11.5819 7.30511L11.5821 7.30529L9.12344 7.30416V7.30398L11.5819 7.30511ZM11.1732 5.74602L11.1734 5.74573L13.1386 7.71088L11.1734 9.67604L11.1733 9.67593L13.1382 7.71106L11.1732 5.74602ZM11.1734 5.60431L10.4569 6.32088L11.341 7.205L9.02344 7.20393V8.21688H11.3409L10.4569 9.10088L11.1734 9.81746L13.28 7.71088L11.1734 5.60431ZM18.4279 8.92316V13.7972L20.8529 14.6992V18.1129L19.6399 20.539V20.8491H19.6403V20.5389L20.8533 18.1128V14.6991L18.4283 13.7971V8.92306C18.4285 8.53057 18.2861 8.15132 18.0277 7.8559C17.7693 7.56047 17.4124 7.36891 17.0234 7.3168C16.8182 7.28931 16.6114 7.30162 16.4138 7.35124C16.6113 7.3017 16.8179 7.28943 17.023 7.3169C17.412 7.369 17.7689 7.56057 18.0273 7.85599C18.2857 8.15142 18.4281 8.53067 18.4279 8.92316ZM15.1862 8.71217L14.9787 8.63001C14.733 8.53273 14.4673 8.49704 14.2046 8.52603C14.1317 8.53407 14.0596 8.54704 13.9889 8.56475C14.0595 8.54709 14.1314 8.53416 14.2042 8.52612C14.4669 8.49713 14.7326 8.53283 14.9783 8.63011L15.1861 8.7124L15.1862 8.71217ZM12.7619 12.7622V12.7621H12.5623C12.3789 12.7621 12.1979 12.7847 12.0229 12.8284C12.1977 12.7848 12.3787 12.7622 12.5619 12.7622H12.7619ZM12.9689 20.8491H12.9693V20.3067L11.1493 17.8807V14.9831C11.1493 14.6083 11.2982 14.2489 11.5632 13.9839C11.7464 13.8008 11.9746 13.6731 12.2219 13.6117C11.9745 13.673 11.7461 13.8008 11.5628 13.984C11.2978 14.249 11.149 14.6084 11.149 14.9832V17.8808L12.9689 20.3068V20.8491ZM13.5749 15.3901V10.1349C13.5712 10.0277 13.5888 9.92086 13.6268 9.82054C13.6654 9.71886 13.724 9.62601 13.7994 9.54759C13.8747 9.46915 13.965 9.40676 14.0651 9.36413C14.105 9.34713 14.1461 9.3334 14.188 9.32305C14.1462 9.33339 14.1052 9.34708 14.0655 9.36404C13.9654 9.40666 13.8751 9.46906 13.7997 9.54749C13.7244 9.62592 13.6657 9.71876 13.6272 9.82044C13.5892 9.92076 13.5716 10.0276 13.5753 10.1348V15.3901H13.5749ZM16.0009 8.91004V12.9641H16.0013V8.90995C16.0098 8.70175 16.0986 8.5049 16.2489 8.3606C16.3516 8.262 16.4776 8.19314 16.6136 8.15941C16.4775 8.1931 16.3513 8.262 16.2485 8.3607C16.0982 8.505 16.0094 8.70185 16.0009 8.91004ZM12.5623 12.6621H12.6623V10.136C12.6624 9.85549 12.731 9.57922 12.8623 9.33129C12.9936 9.08336 13.1836 8.87131 13.4156 8.71362C13.6477 8.55594 13.9148 8.45741 14.1936 8.42663C14.4725 8.39585 14.7547 8.43375 15.0155 8.53703L15.1194 8.57818L15.1488 8.47034C15.2583 8.06828 15.5101 7.71966 15.8574 7.48926C16.2046 7.25886 16.6237 7.16236 17.0367 7.21768C17.4497 7.27301 17.8286 7.4764 18.103 7.79006C18.3773 8.10371 18.5285 8.50639 18.5283 8.92309V13.7276L20.9533 14.6296V18.1364L19.7403 20.5625V20.9491H18.7273V20.3227L19.9403 17.8967V15.3348L17.5143 14.4248L17.5145 8.9201L17.5142 8.91401C17.5068 8.73162 17.4292 8.55916 17.2975 8.43273C17.1658 8.3063 16.9904 8.23569 16.8078 8.23569C16.6253 8.23569 16.4498 8.3063 16.3182 8.43273C16.1869 8.55874 16.1092 8.73042 16.1013 8.91204V13.0641H15.0883L15.0884 10.1313C15.0917 10.0374 15.0763 9.94377 15.0429 9.85588C15.0092 9.76681 14.9578 9.68547 14.8918 9.61675C14.8258 9.54803 14.7466 9.49337 14.659 9.45603C14.5714 9.41869 14.4771 9.39943 14.3818 9.39943C14.2866 9.39943 14.1923 9.41869 14.1047 9.45603C14.017 9.49338 13.9379 9.54804 13.8719 9.61675C13.8059 9.68546 13.7545 9.7668 13.7207 9.85588C13.6874 9.94377 13.672 10.0374 13.6753 10.1313L13.6753 10.1348V15.4901H12.6623V13.6701H12.5623C12.2141 13.6701 11.8801 13.8084 11.6339 14.0546C11.3877 14.3009 11.2493 14.6348 11.2493 14.9831V17.8474L13.0693 20.2734V20.9491H12.0563V20.6157L10.2363 18.1897V14.9881C10.2363 14.3712 10.4814 13.7795 10.9176 13.3433C11.3538 12.9071 11.9454 12.6621 12.5623 12.6621Z" fill="#55607A"/>
</svg>
