<svg width="30" height="36" viewBox="0 0 30 36" fill="none" xmlns="http://www.w3.org/2000/svg">
<path d="M29.4924 22.4602V27.0136C29.4918 30.746 27.2525 34.1139 23.8108 35.5586L22.7947 35.9978L21.8936 35.6051C18.5136 34.1305 16.3284 30.7932 16.3281 27.1055V22.4602L22.8174 18.9036L22.9218 18.9592L29.4924 22.4602Z" fill="#55C397"/>
<path d="M22.1214 29.4012C22.0014 29.4012 21.8813 29.3554 21.7896 29.2637L20.3405 27.8146C20.1573 27.6314 20.1573 27.3344 20.3405 27.1512C20.5238 26.968 20.8208 26.968 21.004 27.1512L22.1213 28.2685L24.7863 25.541C24.9696 25.3578 25.2666 25.3578 25.4498 25.541C25.633 25.7242 25.633 26.0213 25.4498 26.2044L22.4531 29.2637C22.3616 29.3554 22.2414 29.4012 22.1214 29.4012Z" fill="white"/>
<path d="M22.8771 8.08679L22.9391 18.9815L22.9343 18.99L22.8299 18.9343L16.3407 22.491V27.1363C16.3404 27.9475 16.4468 28.7552 16.6574 29.5383L16.6311 29.5456L3.78742 29.6097C2.0463 29.6179 0.627936 28.2131 0.619466 26.472L0.507848 3.2494C0.499681 1.50858 1.90413 0.0905162 3.64495 0.082349L14.7081 0.0288086L14.8576 0.0427231L14.8809 4.85622C14.8893 6.59703 16.3074 8.00149 18.0482 7.99332L22.8762 7.97003L22.8771 8.08679Z" fill="#0D53FC"/>
<path d="M22.878 7.9537V7.97003L18.05 7.99332C16.3092 8.00149 14.8911 6.59704 14.8827 4.85622L14.8594 0.0427246L14.8757 0.044237L22.878 7.9537Z" fill="#E7EEFF"/>
<path d="M12.8453 17.6473H11.2693C11.0128 17.6473 10.8047 17.4391 10.8047 17.1826C10.8047 16.9261 11.0128 16.718 11.2693 16.718H12.8453C13.1018 16.718 13.3099 16.9261 13.3099 17.1826C13.3099 17.4391 13.1018 17.6473 12.8453 17.6473Z" fill="white"/>
<path d="M18.2771 13.7073H5.19509C4.93828 13.7073 4.73047 13.4992 4.73047 13.2427C4.73047 12.9862 4.93828 12.7781 5.19509 12.7781H18.2771C18.5339 12.7781 18.7417 12.9862 18.7417 13.2427C18.7417 13.4992 18.5339 13.7073 18.2771 13.7073Z" fill="white"/>
<path d="M9.27293 17.6473H5.19509C4.93828 17.6473 4.73047 17.4391 4.73047 17.1826C4.73047 16.9261 4.93828 16.718 5.19509 16.718H9.27293C9.52944 16.718 9.73756 16.9261 9.73756 17.1826C9.73756 17.4391 9.52944 17.6473 9.27293 17.6473Z" fill="white"/>
</svg>
