<svg width="34" height="34" viewBox="0 0 34 34" fill="none" xmlns="http://www.w3.org/2000/svg">
<path d="M0.519531 3.71984C0.519531 2.12926 1.80895 0.839844 3.39953 0.839844H26.4395C28.0301 0.839844 29.3195 2.12926 29.3195 3.71984V26.1198C29.3195 27.7104 28.0301 28.9998 26.4395 28.9998H3.39953C1.80895 28.9998 0.519531 27.7104 0.519531 26.1198V3.71984Z" fill="#0D53FC"/>
<path d="M17.7984 7.56042V12.0398L14.5991 9.80013L11.3984 12.0398V0.839844H17.7984V7.56042Z" fill="white"/>
<path d="M27.3779 33.1599H20.3991C19.5731 33.1599 18.9036 32.4932 18.9036 31.6707C18.9036 30.8481 19.5731 30.1815 20.3991 30.1815H27.3779C28.914 30.1815 30.17 28.9308 30.17 27.4013C30.17 25.8116 28.9973 24.5226 27.3779 24.5226H23.2118L24.1006 25.4056C25.4914 26.7827 23.3883 28.8885 21.9975 27.5114L18.5609 24.096C17.9767 23.5177 17.9743 22.5773 18.555 21.996L21.985 18.5743C23.368 17.1895 25.4828 19.2832 24.0998 20.6685L23.222 21.5442H27.3779C30.5653 21.5442 33.1611 24.1289 33.1611 27.3028C33.1611 28.9556 32.5652 30.375 31.4646 31.4706C30.4177 32.5134 28.9716 33.1599 27.3779 33.1599Z" fill="#55C397"/>
</svg>
