<svg width="38" height="24" viewBox="0 0 38 24" fill="none" xmlns="http://www.w3.org/2000/svg">
<path d="M33.4967 20.4976H37.3157V13.4963L31.5873 4.58545H24.5859V20.4976H27.1319" fill="#0D53FC"/>
<path d="M5.49036 20.4977H0.398438V0.130127H24.585V20.4977H11.8552" fill="#0D53FC"/>
<path d="M4.21738 17.3152H0.398438V18.5882H4.21738V17.3152Z" fill="#0B47D9"/>
<path d="M24.5856 17.3152H13.1289V18.5882H24.5856V17.3152Z" fill="#0B47D9"/>
<path d="M37.3155 17.3152H34.7695V18.5882H37.3155V17.3152Z" fill="#F3F7FF"/>
<path d="M24.5857 2.03931H2.30859V3.31229H24.5857V2.03931Z" fill="#0B47D9"/>
<path d="M8.67073 23.6801C10.4283 23.6801 11.8532 22.2553 11.8532 20.4976C11.8532 18.74 10.4283 17.3152 8.67073 17.3152C6.91311 17.3152 5.48828 18.74 5.48828 20.4976C5.48828 22.2553 6.91311 23.6801 8.67073 23.6801Z" fill="#55C397"/>
<path d="M30.3114 23.6798C32.069 23.6798 33.4938 22.255 33.4938 20.4974C33.4938 18.7398 32.069 17.3149 30.3114 17.3149C28.5537 17.3149 27.1289 18.7398 27.1289 20.4974C27.1289 22.255 28.5537 23.6798 30.3114 23.6798Z" fill="#55C397"/>
<path d="M7.64062 20.48C7.64062 21.0102 8.07043 21.44 8.60063 21.44C9.13082 21.44 9.56063 21.0102 9.56063 20.48C9.56063 19.9498 9.13082 19.52 8.60063 19.52C8.07043 19.52 7.64062 19.9498 7.64062 20.48Z" fill="white"/>
<path d="M29.4023 20.48C29.4023 21.0102 29.8322 21.44 30.3623 21.44C30.8925 21.44 31.3224 21.0102 31.3224 20.48C31.3224 19.9498 30.8925 19.52 30.3623 19.52C29.8322 19.52 29.4023 19.9498 29.4023 20.48Z" fill="white"/>
<path d="M33.2201 7.1311H27.1289V12.8595H36.9053L33.2201 7.1311Z" fill="#F3F7FF"/>
<path d="M36.9053 12.86L33.4492 7.48169C31.7505 9.49743 29.5794 11.0606 27.1289 12.0325V12.8599H36.9053V12.86Z" fill="#E7EEFF"/>
</svg>
