<svg width="24" height="31" viewBox="0 0 24 31" fill="none" xmlns="http://www.w3.org/2000/svg">
<path d="M23.3264 8.66662L23.3884 19.5613L23.3835 19.5698L23.2792 19.5141L16.7899 23.0708V27.7161C16.7896 28.5274 16.8961 29.335 17.1066 30.1182L17.0803 30.1254L4.23664 30.1896C2.49552 30.1977 1.07715 28.793 1.06868 27.0518L0.957067 3.82923C0.9489 2.08841 2.35335 0.67035 4.09417 0.662183L15.1574 0.608643L15.3068 0.622557L15.3301 5.43605C15.3386 7.17687 16.7566 8.58132 18.4974 8.57315L23.3255 8.54986L23.3264 8.66662Z" fill="#0D53FC"/>
<path d="M23.3273 8.53353V8.54986L18.4992 8.57315C16.7584 8.58132 15.3404 7.17687 15.3319 5.43605L15.3086 0.622559L15.3249 0.624071L23.3273 8.53353Z" fill="#E7EEFF"/>
<path d="M13.2945 18.2271H11.7185C11.462 18.2271 11.2539 18.019 11.2539 17.7625C11.2539 17.506 11.462 17.2979 11.7185 17.2979H13.2945C13.551 17.2979 13.7591 17.506 13.7591 17.7625C13.7591 18.019 13.551 18.2271 13.2945 18.2271Z" fill="white"/>
<path d="M18.7263 14.2872H5.64431C5.3875 14.2872 5.17969 14.079 5.17969 13.8225C5.17969 13.566 5.3875 13.3579 5.64431 13.3579H18.7263C18.9831 13.3579 19.1909 13.566 19.1909 13.8225C19.1909 14.079 18.9831 14.2872 18.7263 14.2872Z" fill="white"/>
<path d="M9.72215 18.2271H5.64431C5.3875 18.2271 5.17969 18.019 5.17969 17.7625C5.17969 17.506 5.3875 17.2979 5.64431 17.2979H9.72215C9.97866 17.2979 10.1868 17.506 10.1868 17.7625C10.1868 18.019 9.97866 18.2271 9.72215 18.2271Z" fill="white"/>
</svg>
