<svg width="101" height="68" viewBox="0 0 101 68" fill="none" xmlns="http://www.w3.org/2000/svg">
<path d="M96.5405 0.11377H4.18537C2.08407 0.11377 0.380371 1.81722 0.380371 3.91877V15.1846H100.345V3.91877C100.345 1.81747 98.6418 0.11377 96.5405 0.11377Z" fill="#032C58"/>
<path d="M100.016 67.6107H0.712363V15.7221H100.016V67.6107Z" stroke="#E8EBF2" strokeWidth="0.778242"/>
<path d="M87.1683 38.0467V23.3825C87.1683 22.6819 86.6044 22.1143 85.9091 22.1143H15.1077C14.4122 22.1143 13.8486 22.6822 13.8486 23.3825V38.0467H87.1683Z" fill="#8791A8"/>
<path d="M87.1681 48.8723H55.29V44.7177C55.29 44.078 55.8492 43.5593 56.5389 43.5593H85.9191C86.6089 43.5593 87.1679 44.078 87.1679 44.7177L87.1681 48.8723Z" fill="#8791A8"/>
<path d="M45.7267 48.8723H13.8486V44.7177C13.8486 44.078 14.4078 43.5593 15.0975 43.5593H44.4777C45.1675 43.5593 45.7265 44.078 45.7265 44.7177L45.7267 48.8723Z" fill="#8791A8"/>
<path d="M55.29 59.4983H87.1681V48.8723H55.29V59.4983Z" fill="#E8EBF2"/>
<path d="M13.8486 59.4983H45.7267V48.8723H13.8486V59.4983Z" fill="#E8EBF2"/>
<path d="M9.46043 4.50342C7.84618 4.50342 6.53271 5.81688 6.53271 7.43138C6.53271 9.04588 7.84618 10.3591 9.46043 10.3591C11.0747 10.3591 12.3884 9.04563 12.3884 7.43138C12.3881 5.81688 11.0747 4.50342 9.46043 4.50342Z" fill="#EC5151"/>
<path d="M18.8579 4.50342C17.2436 4.50342 15.9302 5.81688 15.9302 7.43138C15.9302 9.04588 17.2436 10.3591 18.8579 10.3591C20.4721 10.3591 21.7859 9.04563 21.7859 7.43138C21.7856 5.81688 20.4721 4.50342 18.8579 4.50342Z" fill="#FFCC73"/>
<path d="M28.2536 4.50342C26.6394 4.50342 25.3257 5.81688 25.3257 7.43138C25.3257 9.04588 26.6392 10.3591 28.2536 10.3591C29.8681 10.3591 31.1816 9.04563 31.1816 7.43138C31.1816 5.81688 29.8681 4.50342 28.2536 4.50342Z" fill="#55C397"/>
</svg>
