<svg width="69" height="84" viewBox="0 0 69 84" fill="none" xmlns="http://www.w3.org/2000/svg">
<path d="M62.2299 72.7293L58.5176 69.017L62.9987 64.5366V50.3291H68.2486V65.6233C68.2486 65.968 68.1807 66.3094 68.0488 66.6278C67.9169 66.9463 67.7235 67.2357 67.4798 67.4795L62.2299 72.7293Z" fill="#0B47D9"/>
<path d="M10.4997 55.1239H3.93741C2.89314 55.1239 1.89165 54.7091 1.15324 53.9706C0.414835 53.2322 0 52.2307 0 51.1865V43.3117C0 42.2674 0.414835 41.2659 1.15324 40.5275C1.89165 39.7891 2.89314 39.3743 3.93741 39.3743H10.4997V55.1239Z" fill="#0D53FC"/>
<path d="M57.749 55.1239H64.3114C65.3556 55.1239 66.3571 54.7091 67.0955 53.9706C67.8339 53.2322 68.2488 52.2307 68.2488 51.1865V43.3117C68.2488 42.2674 67.8339 41.2659 67.0955 40.5275C66.3571 39.7891 65.3556 39.3743 64.3114 39.3743H57.749V55.1239Z" fill="#0D53FC"/>
<path d="M65.6244 52.9542H60.3745V32.8117C60.3745 25.5019 57.4707 18.4914 52.3018 13.3225C47.133 8.1537 40.1225 5.24987 32.8127 5.24987C25.5028 5.24987 18.4924 8.1537 13.3235 13.3225C8.15468 18.4914 5.25085 25.5019 5.25085 32.8117V50.3292H0.000976562V32.8117C0.000976562 24.1095 3.45791 15.7637 9.6113 9.61033C15.7647 3.45694 24.1105 0 32.8127 0C41.5149 0 49.8607 3.45694 56.0141 9.61033C62.1675 15.7637 65.6244 24.1095 65.6244 32.8117V52.9542Z" fill="#0D53FC"/>
<path d="M60.8295 77.7505C63.1776 76.0497 63.7024 72.7673 62.0015 70.4192C60.3007 68.071 57.0183 67.5463 54.6702 69.2471L50.4185 72.3268C48.0703 74.0276 47.5456 77.31 49.2464 79.6581C50.9473 82.0063 54.2296 82.531 56.5778 80.8302L60.8295 77.7505Z" fill="#0D53FC"/>
<path d="M23.6236 41.9991C23.6236 37.6499 20.098 34.1243 15.7488 34.1243C11.3997 34.1243 7.87402 37.6499 7.87402 41.9991V52.4988C7.87402 56.848 11.3997 60.3736 15.7488 60.3736C20.098 60.3736 23.6236 56.848 23.6236 52.4988V41.9991Z" fill="#55C397"/>
<path d="M44.6234 52.499C44.6234 56.8481 48.1491 60.3738 52.4982 60.3738C56.8474 60.3738 60.373 56.8481 60.373 52.499V41.9992C60.373 37.6501 56.8474 34.1244 52.4982 34.1244C48.1491 34.1244 44.6234 37.6501 44.6234 41.9992V52.499Z" fill="#55C397"/>
</svg>
