<svg width="104" height="78" viewBox="0 0 104 78" fill="none" xmlns="http://www.w3.org/2000/svg">
<path d="M78.3333 39.1563C78.3333 60.5763 60.9693 77.9409 39.5493 77.9409C18.1293 77.9409 0.764648 60.5763 0.764648 39.1563C0.764648 17.7363 18.1293 0.372314 39.5493 0.372314C60.9693 0.372314 78.3333 17.7363 78.3333 39.1563Z" fill="#0D53FC"/>
<path d="M49.2116 21.7036H27.0259C16.9013 21.7036 8.69385 29.9111 8.69385 40.0357C8.69385 47.3596 12.9892 53.6802 19.1976 56.6165C21.6908 57.7959 23.29 60.2966 23.29 63.0547V66.9874C23.29 68.4828 25.2223 69.0787 26.0639 67.8435L30.4068 61.4741C31.7321 59.5308 33.9321 58.3678 36.2842 58.3678H49.2116C59.3362 58.3678 67.5437 50.1603 67.5437 40.0357C67.543 29.9111 59.3356 21.7036 49.2116 21.7036Z" fill="white"/>
<path d="M29.0945 40.3857C29.0945 42.2547 27.5799 43.77 25.7109 43.77C23.8419 43.77 22.3267 42.2547 22.3267 40.3857C22.3267 38.5167 23.8419 37.0015 25.7109 37.0015C27.5799 37.0015 29.0945 38.5167 29.0945 40.3857Z" fill="#0D53FC"/>
<path d="M41.5029 40.3857C41.5029 42.2547 39.9876 43.77 38.1187 43.77C36.2497 43.77 34.7344 42.2547 34.7344 40.3857C34.7344 38.5167 36.2497 37.0015 38.1187 37.0015C39.9876 37.0015 41.5029 38.5167 41.5029 40.3857Z" fill="#0D53FC"/>
<path d="M53.9121 40.3857C53.9121 42.2547 52.3968 43.77 50.5278 43.77C48.6588 43.77 47.1436 42.2547 47.1436 40.3857C47.1436 38.5167 48.6588 37.0015 50.5278 37.0015C52.3968 37.0015 53.9121 38.5167 53.9121 40.3857Z" fill="#0D53FC"/>
<path d="M66.1319 0.000244141H86.8662C96.3285 0.000244141 103.999 7.71565 103.999 17.2333C103.999 24.1181 99.9846 30.0597 94.1824 32.82C91.8523 33.9287 90.3577 36.2795 90.3577 38.8722V42.5692C90.3577 43.9749 88.5518 44.5351 87.7653 43.3739L83.7065 37.3864C82.4679 35.5595 80.4118 34.4663 78.2136 34.4663H66.1319C56.6696 34.4663 48.999 26.7509 48.999 17.2333C48.9997 7.71565 56.6702 0.000244141 66.1319 0.000244141Z" fill="#55C397"/>
<path d="M92.5859 17.3845C92.5859 19.2535 91.0706 20.7688 89.2017 20.7688C87.3327 20.7688 85.8174 19.2535 85.8174 17.3845C85.8174 15.5155 87.3327 14.0002 89.2017 14.0002C91.0706 14.0002 92.5859 15.5155 92.5859 17.3845Z" fill="white"/>
<path d="M80.1771 17.3845C80.1771 19.2535 78.6625 20.7688 76.7935 20.7688C74.9245 20.7688 73.4092 19.2535 73.4092 17.3845C73.4092 15.5155 74.9245 14.0002 76.7935 14.0002C78.6625 14.0002 80.1771 15.5155 80.1771 17.3845Z" fill="white"/>
<path d="M67.7676 17.3845C67.7676 19.2535 66.2523 20.7688 64.3833 20.7688C62.5143 20.7688 60.999 19.2535 60.999 17.3845C60.999 15.5155 62.5143 14.0002 64.3833 14.0002C66.2523 14.0002 67.7676 15.5155 67.7676 17.3845Z" fill="white"/>
</svg>
