<svg width="78" height="78" viewBox="0 0 78 78" fill="none" xmlns="http://www.w3.org/2000/svg">
<path d="M77.5686 38.784C77.5686 60.204 60.2046 77.5686 38.7846 77.5686C17.3646 77.5686 0 60.204 0 38.784C0 17.364 17.3646 0 38.7846 0C60.2046 0 77.5686 17.364 77.5686 38.784Z" fill="#55C397"/>
<path d="M35.551 47.6842C35.0159 47.6842 34.4805 47.4817 34.072 47.0763L27.6125 40.6659C26.7958 39.8554 26.7958 38.5413 27.6125 37.7311C28.4295 36.9206 29.7534 36.9206 30.5701 37.7311L35.5507 42.6737L47.4299 30.6079C48.2469 29.7974 49.5708 29.7974 50.3875 30.6079C51.2042 31.4184 51.2042 32.7325 50.3875 33.5427L37.0296 47.076C36.6214 47.4817 36.086 47.6842 35.551 47.6842Z" fill="white"/>
</svg>
