<svg width="100" height="100" viewBox="0 0 100 100" fill="none" xmlns="http://www.w3.org/2000/svg">
<circle cx="49.5" cy="49.5" r="32.5" fill="#0D53FC"/>
<path fill-rule="evenodd" clip-rule="evenodd" d="M49.0811 35.075C47.9737 35.0721 46.8837 35.3497 45.9126 35.8819L45.9013 35.8884C44.9808 36.446 44.2262 37.2395 43.7155 38.1868C43.2085 39.1275 42.9603 40.1857 42.9961 41.2534C42.7122 43.7941 43.3579 46.352 44.8141 48.4538L44.8249 48.4693L44.8375 48.4833C45.3626 49.0685 46.0078 49.5335 46.7291 49.8465C47.4495 50.1591 48.2287 50.3127 49.0138 50.297H49.1876C49.9744 50.313 50.7554 50.1596 51.4777 49.8471C52.2009 49.5343 52.8482 49.0693 53.3756 48.4838L53.3884 48.4696L53.3993 48.4538C54.8558 46.352 55.5015 43.794 55.2173 41.2532C55.2514 40.1941 55.006 39.1445 54.5056 38.2102C54.0017 37.2692 53.2572 36.4785 52.348 35.9192L52.3376 35.9134C51.3694 35.3697 50.2771 35.0812 49.1667 35.075H49.0811ZM55.2173 41.2532L55.2165 41.2758L54.9175 41.265L54.9175 41.2649L55.2148 41.231L55.2173 41.2532ZM49.1876 50.297L49.1844 50.2969L49.1907 49.997V50.297H49.1876ZM49.0138 50.297H49.0107V49.997L49.0169 50.2969L49.0138 50.297ZM42.9961 41.2534L42.9987 41.231L43.2967 41.265L42.9969 41.2762L42.9961 41.2534ZM47.464 37.4591C47.9683 37.2589 48.5097 37.1694 49.0517 37.1966L49.1347 37.1973L49.1477 37.1967C49.6891 37.1733 50.2293 37.2657 50.7321 37.4677C51.235 37.6697 51.6889 37.9768 52.0635 38.3683C52.4382 38.7598 52.725 39.2268 52.9048 39.738C53.0833 40.2457 53.1521 40.7854 53.1068 41.3215C53.1008 41.3627 53.1011 41.4047 53.1077 41.4459C53.3318 43.4247 52.862 45.4198 51.7788 47.0906C51.4469 47.45 51.0409 47.7333 50.5887 47.9208C50.1293 48.1113 49.6334 48.1979 49.1366 48.175L49.0807 48.1747L49.0669 48.1753C48.571 48.1982 48.0762 48.1113 47.6177 47.9208C47.1665 47.7333 46.7615 47.45 46.4307 47.0907C45.3449 45.4178 44.8707 43.4207 45.0889 41.4378L45.0907 41.4214L45.092 41.353L45.0895 41.3256C45.0399 40.7852 45.1071 40.2406 45.2863 39.7284C45.4656 39.2163 45.7528 38.7486 46.1285 38.3571C46.5042 37.9656 46.9596 37.6593 47.464 37.4591ZM58.1251 51.9237C56.4995 51.4761 54.9553 50.7731 53.5504 49.8409C53.3212 49.6814 53.0381 49.6188 52.7629 49.667C52.4863 49.7154 52.2403 49.8717 52.0789 50.1015C51.9176 50.3313 51.8541 50.6159 51.9025 50.8924C51.9509 51.1691 52.1072 51.4151 52.337 51.5765L52.3424 51.5801C53.9382 52.6495 55.6965 53.4536 57.5491 53.9612C58.0948 54.1587 58.4006 54.5436 58.5813 55.0445C58.7672 55.5598 58.814 56.1817 58.8332 56.817C58.8305 56.8687 58.8307 56.9206 58.8336 56.9724C58.8422 57.4822 58.8114 57.9918 58.7416 58.4967C55.7375 59.949 52.4434 60.7037 49.1055 60.7037C45.7672 60.7037 42.4728 59.9488 39.4686 58.4964C39.3965 57.9902 39.366 57.4789 39.3775 56.9676V56.8256C39.3975 56.1863 39.4444 55.5612 39.6311 55.0438C39.8119 54.543 40.1172 54.1586 40.6621 53.9611C42.5135 53.4509 44.2712 52.6472 45.8681 51.5804L45.8738 51.5764C46.1036 51.4151 46.26 51.1691 46.3084 50.8924C46.3568 50.6158 46.2933 50.3313 46.132 50.1015C45.9706 49.8717 45.7246 49.7154 45.448 49.667C45.1727 49.6188 44.8896 49.6814 44.6603 49.8411C43.2571 50.7758 41.7127 51.4789 40.0863 51.9235L40.0052 51.9467L39.9846 51.9561C39.0751 52.3724 38.3216 53.0671 37.8328 53.9398C37.3456 54.8097 37.1467 55.8116 37.2645 56.8015C37.2661 56.8331 37.2654 56.8647 37.2635 56.8963V56.9254C37.2309 57.8116 37.3307 58.6976 37.5596 59.5543L37.5637 59.5695L37.5693 59.5841C37.6488 59.7919 37.7938 59.9683 37.9827 60.0859L37.9953 60.0929C41.3876 61.986 45.2284 62.9273 49.1116 62.8171C52.9942 62.924 56.8344 61.9836 60.2277 60.0935L60.2436 60.0833C60.428 59.9648 60.5709 59.7917 60.6521 59.5881L60.6594 59.5699L60.6642 59.5509C60.8825 58.6937 60.9778 57.8098 60.9475 56.9257V56.7931C61.0656 55.8057 60.8676 54.806 60.3815 53.938C59.8923 53.0645 59.137 52.3701 58.2256 51.9558L58.2053 51.9466L58.1278 51.9244L58.1251 51.9237Z" fill="white"/>
<path d="M26.2814 57H42.3545C49.6896 57 55.6357 62.9809 55.6357 70.3589C55.6357 75.696 52.5238 80.3019 48.0259 82.4417C46.2197 83.3012 45.0611 85.1235 45.0611 87.1333V89.9992C45.0611 91.0889 43.6612 91.5231 43.0514 90.623L39.9051 85.9815C38.9449 84.5654 37.3511 83.7179 35.647 83.7179H26.2814C18.9462 83.7179 13.0001 77.7369 13.0001 70.3589C13.0006 62.9809 18.9467 57 26.2814 57Z" fill="#55C397"/>
<path d="M46.7889 70.4763C46.7889 71.9251 45.6143 73.0997 44.1655 73.0997C42.7166 73.0997 41.542 71.9251 41.542 70.4763C41.542 69.0274 42.7166 67.8528 44.1655 67.8528C45.6143 67.8528 46.7889 69.0274 46.7889 70.4763Z" fill="white"/>
<path d="M37.1693 70.4763C37.1693 71.9251 35.9952 73.0997 34.5463 73.0997C33.0975 73.0997 31.9229 71.9251 31.9229 70.4763C31.9229 69.0274 33.0975 67.8528 34.5463 67.8528C35.9952 67.8528 37.1693 69.0274 37.1693 70.4763Z" fill="white"/>
<path d="M27.5497 70.4763C27.5497 71.9251 26.375 73.0997 24.9262 73.0997C23.4774 73.0997 22.3027 71.9251 22.3027 70.4763C22.3027 69.0274 23.4774 67.8528 24.9262 67.8528C26.375 67.8528 27.5497 69.0274 27.5497 70.4763Z" fill="white"/>
</svg>
