<svg width="103" height="78" viewBox="0 0 103 78" fill="none" xmlns="http://www.w3.org/2000/svg">
<path d="M78.3333 39.1563C78.3333 60.5763 60.9693 77.9409 39.5493 77.9409C18.1293 77.9409 0.764648 60.5763 0.764648 39.1563C0.764648 17.7363 18.1293 0.372314 39.5493 0.372314C60.9693 0.372314 78.3333 17.7363 78.3333 39.1563Z" fill="#0D53FC"/>
<path fill-rule="evenodd" clip-rule="evenodd" d="M38.319 43.0311C40.9161 43.8974 42.6825 44.8432 43.692 45.837C44.7012 46.8152 45.205 48.0081 45.205 49.4444C45.205 51.1766 44.6169 52.4941 43.4659 53.4609C42.304 54.4369 40.6731 54.9569 38.5082 54.9569C36.3106 54.9569 34.6895 54.3448 33.5642 53.1886C32.4376 52.0312 31.8371 50.3471 31.8371 48.0541V47.5165H25.999V48.0541C25.999 51.5491 26.9311 54.3885 28.8446 56.5025C30.675 58.4883 33.1491 59.6507 36.2199 60.0202V64.9915H41.1054V60.015C44.1089 59.625 46.5112 58.5578 48.2615 56.7739C50.1283 54.8887 51.0431 52.4098 51.0431 49.3929C51.0431 47.5048 50.6778 45.8299 49.9283 44.3847C49.1947 42.937 48.0479 41.6893 46.5129 40.6357C44.9926 39.5633 42.895 38.6086 40.2449 37.7597C37.6637 36.9104 35.8698 35.9958 34.8024 35.0414C33.797 34.1107 33.2788 32.8639 33.2788 31.2425C33.2788 29.4608 33.7888 28.1445 34.7403 27.2232C35.6902 26.2884 37.0973 25.7814 39.0488 25.7814C40.8558 25.7814 42.2503 26.4299 43.2904 27.7183C44.3414 29.0204 44.896 30.8107 44.896 33.1476V33.6852H50.7084V33.1476C50.7084 29.5514 49.8839 26.6475 48.1721 24.498C46.5668 22.4618 44.3515 21.215 41.5688 20.7405V15.0002H36.6576V20.7062C33.9072 21.1205 31.6814 22.2224 30.0255 24.0335C28.2915 25.95 27.4408 28.3941 27.4408 31.3197C27.4408 34.1998 28.316 36.6224 30.0844 38.5366C31.8557 40.4164 34.6225 41.9023 38.319 43.0311ZM36.7575 64.4522L40.5678 64.4538V59.5365C43.7087 59.2104 46.1459 58.1634 47.8795 56.3956C49.6301 54.6277 50.5055 52.2935 50.5055 49.3929C50.5055 47.5735 50.1536 45.9859 49.4499 44.63C48.7634 43.2741 47.6821 42.0898 46.206 41.0772C44.7471 40.0473 42.7047 39.1119 40.0786 38.2709C37.4698 37.4127 35.5904 36.4687 34.4404 35.4389C33.3076 34.392 32.7412 32.9931 32.7412 31.2425C32.7412 29.3545 33.2819 27.887 34.3632 26.84C35.4445 25.7759 37.0064 25.2438 39.0488 25.2438C39.5173 25.2438 39.9627 25.2846 40.385 25.3663C39.9602 25.2836 39.5121 25.2422 39.0405 25.2422C36.998 25.2422 35.4361 25.7743 34.3548 26.8384C33.2735 27.8854 32.7329 29.3529 32.7329 31.2408C32.7329 32.9915 33.2993 34.3903 34.4321 35.4373C35.582 36.4671 37.4614 37.4111 40.0703 38.2693C42.6963 39.1103 44.7388 40.0457 46.1977 41.0755C47.6737 42.0882 48.755 43.2724 49.4416 44.6284C50.1453 45.9843 50.4971 47.5719 50.4971 49.3912C50.4971 52.2919 49.6218 54.6261 47.8711 56.3939C46.1376 58.1618 43.7004 59.2088 40.5595 59.5349V64.4522H36.7575ZM31.2912 48.0541C31.2914 50.439 31.9179 52.275 33.1706 53.562C34.0451 54.4604 35.1746 55.0453 36.5592 55.3167C35.1784 55.0446 34.0517 54.4603 33.1789 53.5636C31.926 52.2763 31.2995 50.4398 31.2995 48.0541H31.2912ZM45.4337 33.146C45.4337 33.1454 45.4337 33.1465 45.4337 33.146H50.1624C50.1624 29.6275 49.3557 26.8556 47.7424 24.8303C46.2873 22.984 44.2973 21.8152 41.7724 21.324C44.3012 21.8143 46.294 22.9836 47.7507 24.8319C49.281 26.7529 50.0856 29.3456 50.1644 32.61C50.1686 32.7872 50.1708 32.9664 50.1708 33.1476L45.4337 33.146ZM41.0312 15.5378V21.2013C41.0284 21.2009 41.0257 21.2006 41.0229 21.2002V15.5378H41.0312Z" fill="white"/>
<path d="M64.999 10.0002L83.999 10.0002C94.4924 10.0002 102.999 18.5068 102.999 29.0002C102.999 39.4937 94.4924 48.0002 83.999 48.0002C73.5056 48.0002 64.999 39.4937 64.999 29.0002V10.0002Z" fill="#55C397"/>
<path d="M87.6822 22.2019C87.6822 19.7599 86.5421 18.0032 84.6758 18.0032C83.6496 18.0032 83.2975 18.6045 82.9296 20.0027C82.8545 20.2916 82.8176 20.4322 82.7786 20.5708C82.6776 20.9296 82.5018 21.5403 82.2516 22.4019C82.2449 22.4249 82.235 22.4467 82.2222 22.4668L79.3554 26.9524C78.6774 28.0134 77.6769 28.8289 76.501 29.2791L76.0277 29.4603C74.781 29.9377 74.0572 31.2414 74.3113 32.552L74.7158 34.6381C74.9572 35.8832 75.9009 36.8741 77.1327 37.176L84.7604 39.0455C87.2916 39.6659 89.85 38.131 90.4939 35.6057L91.9088 30.0565C92.3523 28.3172 91.3018 26.5477 89.5625 26.1042C89.3001 26.0373 89.0304 26.0035 88.7595 26.0035H86.9362C87.4323 24.3706 87.6822 23.1108 87.6822 22.2019ZM75.7839 32.2665C75.6684 31.6708 75.9974 31.0781 76.5641 30.8612L77.0374 30.68C78.513 30.115 79.7685 29.0916 80.6194 27.7602L83.4861 23.2745C83.5761 23.1336 83.6455 22.9806 83.6921 22.82C83.9434 21.955 84.1201 21.341 84.2225 20.9771C84.2656 20.8239 84.3065 20.6684 84.3802 20.3845C84.5701 19.6628 84.6635 19.5032 84.6758 19.5032C85.5435 19.5032 86.1822 20.4872 86.1822 22.2019C86.1822 23.0863 85.8564 24.5373 85.1984 26.5169C85.037 27.0025 85.3984 27.5035 85.9101 27.5035H88.7595C88.9054 27.5035 89.0506 27.5218 89.1919 27.5578C90.1285 27.7966 90.6941 28.7494 90.4553 29.6859L89.0404 35.2351C88.5998 36.9629 86.8494 38.0131 85.1175 37.5887L77.4898 35.7191C76.8265 35.5566 76.3184 35.023 76.1884 34.3526L75.7839 32.2665Z" fill="white"/>
</svg>
