<svg width="73" height="83" viewBox="0 0 73 83" fill="none" xmlns="http://www.w3.org/2000/svg">
<path d="M71.9196 18.3377L42.6698 0.337818C42.3278 0.140341 41.9398 0.036377 41.5448 0.036377C41.1499 0.036377 40.7619 0.140341 40.4198 0.337818L11.17 18.3377C10.8248 18.5264 10.5351 18.8023 10.3298 19.1378C10.1245 19.4734 10.0108 19.857 10 20.2502V60.75C10 61.3467 10.2371 61.919 10.659 62.3409C11.081 62.7629 11.6533 62.9999 12.25 62.9999H70.7497C71.3464 62.9999 71.9187 62.7629 72.3406 62.3409C72.7626 61.919 72.9996 61.3467 72.9996 60.75V20.2502C72.998 19.8657 72.8979 19.488 72.7089 19.1532C72.5198 18.8184 72.2481 18.5376 71.9196 18.3377Z" fill="#0D53FC"/>
<path d="M71.9188 18.3374L42.669 0.337498C42.3175 0.119597 41.9126 0.00282094 41.499 0V62.9996H70.7489C71.3456 62.9996 71.9179 62.7626 72.3398 62.3406C72.7618 61.9187 72.9988 61.3464 72.9988 60.7496V20.2499C72.9972 19.8654 72.8971 19.4877 72.7081 19.1529C72.519 18.8181 72.2473 18.5373 71.9188 18.3374Z" fill="#0D53FC"/>
<path d="M71.9189 18.3372L42.669 0.33733C42.327 0.139853 41.939 0.0358887 41.5441 0.0358887C41.1491 0.0358887 40.7611 0.139853 40.4191 0.33733L11.1692 18.3372C10.8436 18.539 10.5749 18.8206 10.3886 19.1553C10.2023 19.4899 10.1045 19.8667 10.1045 20.2497C10.1045 20.6328 10.2023 21.0095 10.3886 21.3442C10.5749 21.6788 10.8436 21.9604 11.1692 22.1622L40.4191 40.1621C40.7611 40.3596 41.1491 40.4635 41.5441 40.4635C41.939 40.4635 42.327 40.3596 42.669 40.1621L71.9189 22.1622C72.2445 21.9604 72.5132 21.6788 72.6995 21.3442C72.8858 21.0095 72.9836 20.6328 72.9836 20.2497C72.9836 19.8667 72.8858 19.4899 72.6995 19.1553C72.5132 18.8206 72.2445 18.539 71.9189 18.3372Z" fill="#0B47D9"/>
<path d="M71.9188 18.3374L42.669 0.337498C42.3175 0.119597 41.9126 0.00282094 41.499 0V40.4998C41.9126 40.4969 42.3175 40.3802 42.669 40.1623L71.9188 22.1624C72.2444 21.9606 72.5131 21.679 72.6994 21.3443C72.8858 21.0096 72.9836 20.6329 72.9836 20.2499C72.9836 19.8668 72.8858 19.4901 72.6994 19.1554C72.5131 18.8208 72.2444 18.5392 71.9188 18.3374Z" fill="#0A3FBF"/>
<path d="M13.2814 48H29.3545C36.6896 48 42.6357 53.9809 42.6357 61.3589C42.6357 66.696 39.5238 71.3019 35.0259 73.4417C33.2197 74.3012 32.0611 76.1235 32.0611 78.1333V80.9992C32.0611 82.0889 30.6612 82.5231 30.0514 81.623L26.9051 76.9815C25.9449 75.5654 24.3511 74.7179 22.647 74.7179H13.2814C5.94625 74.7179 8.7738e-05 68.7369 8.7738e-05 61.3589C0.000587463 53.9809 5.94675 48 13.2814 48Z" fill="#55C397"/>
<path d="M33.7889 61.4763C33.7889 62.9251 32.6143 64.0997 31.1655 64.0997C29.7166 64.0997 28.542 62.9251 28.542 61.4763C28.542 60.0274 29.7166 58.8528 31.1655 58.8528C32.6143 58.8528 33.7889 60.0274 33.7889 61.4763Z" fill="white"/>
<path d="M24.1693 61.4763C24.1693 62.9251 22.9952 64.0997 21.5463 64.0997C20.0975 64.0997 18.9229 62.9251 18.9229 61.4763C18.9229 60.0274 20.0975 58.8528 21.5463 58.8528C22.9952 58.8528 24.1693 60.0274 24.1693 61.4763Z" fill="white"/>
<path d="M14.5497 61.4763C14.5497 62.9251 13.375 64.0997 11.9262 64.0997C10.4774 64.0997 9.30273 62.9251 9.30273 61.4763C9.30273 60.0274 10.4774 58.8528 11.9262 58.8528C13.375 58.8528 14.5497 60.0274 14.5497 61.4763Z" fill="white"/>
</svg>
