<svg width="103" height="84" viewBox="0 0 103 84" fill="none" xmlns="http://www.w3.org/2000/svg">
<path d="M54.391 21H24.609C11.0177 21 0 32.0471 0 45.6746C0 55.5324 5.76611 64.0397 14.1003 67.9919C17.4471 69.5795 19.5939 72.9453 19.5939 76.6576V81.951C19.5939 83.9637 22.1878 84.7658 23.3176 83.1032L29.1474 74.5301C30.9266 71.9145 33.8798 70.3491 37.0373 70.3491H54.391C67.9823 70.3491 79 59.3021 79 45.6746C78.9991 32.0471 67.9814 21 54.391 21Z" fill="#0D53FC"/>
<path d="M41.4812 63C43.1431 63 44.4902 61.6528 44.4902 59.991C44.4902 58.3291 43.1431 56.9819 41.4812 56.9819C39.8194 56.9819 38.4722 58.3291 38.4722 59.991C38.4722 61.6528 39.8194 63 41.4812 63Z" fill="white"/>
<path d="M41.4805 29.9136C38.9294 29.917 36.4837 30.932 34.6798 32.7359C32.8758 34.5398 31.8609 36.9855 31.8574 39.5366C31.8574 40.1749 32.111 40.787 32.5623 41.2384C33.0136 41.6897 33.6257 41.9432 34.264 41.9432C34.9023 41.9432 35.5144 41.6897 35.9657 41.2384C36.417 40.787 36.6706 40.1749 36.6706 39.5366C36.6706 38.5847 36.9528 37.6541 37.4817 36.8626C38.0106 36.0711 38.7623 35.4542 39.6418 35.0899C40.5213 34.7256 41.4891 34.6303 42.4227 34.816C43.3564 35.0017 44.214 35.4601 44.8871 36.1332C45.5603 36.8064 46.0187 37.664 46.2044 38.5976C46.3901 39.5313 46.2948 40.499 45.9305 41.3785C45.5662 42.258 44.9493 43.0098 44.1578 43.5386C43.3663 44.0675 42.4357 44.3498 41.4837 44.3498C40.8455 44.3498 40.2333 44.6033 39.782 45.0547C39.3307 45.506 39.0771 46.1181 39.0771 46.7564V52.7712C39.0771 53.4095 39.3307 54.0216 39.782 54.4729C40.2333 54.9242 40.8455 55.1778 41.4837 55.1778C42.122 55.1778 42.7341 54.9242 43.1854 54.4729C43.6368 54.0216 43.8903 53.4095 43.8903 52.7712V48.8634C46.1556 48.2748 48.1288 46.8811 49.4409 44.943C50.753 43.0048 51.3141 40.655 51.0191 38.3332C50.7241 36.0114 49.5934 33.8765 47.8383 32.3281C46.0833 30.7796 43.8242 29.9235 41.4837 29.9201L41.4805 29.9136Z" fill="white"/>
<path d="M65.1328 0H85.8672C95.3295 0 103 7.71541 103 17.233C103 24.1178 98.9856 30.0595 93.1833 32.8197C90.8533 33.9285 89.3587 36.2793 89.3587 38.872V42.569C89.3587 43.9746 87.5528 44.5348 86.7663 43.3737L82.7075 37.3861C81.4688 35.5593 79.4128 34.4661 77.2146 34.4661H65.1328C55.6705 34.4661 48 26.7507 48 17.233C48.0006 7.71541 55.6712 0 65.1328 0Z" fill="#55C397"/>
<path d="M91.5869 17.3843C91.5869 19.2533 90.0716 20.7686 88.2026 20.7686C86.3336 20.7686 84.8184 19.2533 84.8184 17.3843C84.8184 15.5153 86.3336 14 88.2026 14C90.0716 14 91.5869 15.5153 91.5869 17.3843Z" fill="white"/>
<path d="M79.178 17.3843C79.178 19.2533 77.6634 20.7686 75.7944 20.7686C73.9254 20.7686 72.4102 19.2533 72.4102 17.3843C72.4102 15.5153 73.9254 14 75.7944 14C77.6634 14 79.178 15.5153 79.178 17.3843Z" fill="white"/>
<path d="M66.7686 17.3843C66.7686 19.2533 65.2533 20.7686 63.3843 20.7686C61.5153 20.7686 60 19.2533 60 17.3843C60 15.5153 61.5153 14 63.3843 14C65.2533 14 66.7686 15.5153 66.7686 17.3843Z" fill="white"/>
</svg>
