<svg width="105" height="85" viewBox="0 0 105 85" fill="none" xmlns="http://www.w3.org/2000/svg">
<path fill-rule="evenodd" clip-rule="evenodd" d="M29.7098 4.32751V38.7506L50.6047 43.3664L72.3665 38.7506V4.32751C72.3638 3.2068 71.9173 2.13279 71.1248 1.34033C70.3324 0.547862 69.2584 0.101424 68.1377 0.0986328H33.9345C32.8137 0.101424 31.7397 0.547862 30.9472 1.34033C30.1548 2.13279 29.7084 3.2068 29.7056 4.32751H29.7098Z" fill="#002042"/>
<path d="M56.2961 10.021V16.635L51.3356 13.328L46.373 16.635V0.0979004H56.2961V10.021Z" fill="white"/>
<path fill-rule="evenodd" clip-rule="evenodd" d="M10.1024 42.9843V77.4074L52.7612 77.4052V58.6763V42.9843C52.2305 40.7155 50.8582 38.7554 48.5323 38.7554H14.327C13.2063 38.7582 12.1323 39.2046 11.3398 39.997C10.5474 40.7895 10.1009 41.8635 10.0981 42.9843H10.1024Z" fill="#0D53FC"/>
<path fill-rule="evenodd" clip-rule="evenodd" d="M52.7494 42.9842V77.4073C66.2307 77.0378 81.68 77.2628 95.404 77.2994V42.9821C95.4012 41.8613 94.9548 40.7873 94.1623 39.9949C93.3699 39.2024 92.2958 38.756 91.1751 38.7532H56.974C55.8533 38.756 54.7793 39.2024 53.9868 39.9949C53.1944 40.7873 52.7479 41.8613 52.7451 42.9821L52.7494 42.9842Z" fill="#55C397"/>
<path fill-rule="evenodd" clip-rule="evenodd" d="M52.623 42.9821V77.4052L58.7549 77.3523V42.9821C58.7577 41.8613 59.2042 40.7873 59.9966 39.9948C60.7891 39.2024 61.8631 38.756 62.9838 38.7532H56.8519C55.7312 38.756 54.6572 39.2024 53.8648 39.9948C53.0723 40.7873 52.6258 41.8613 52.623 42.9821Z" fill="#55C397"/>
<path fill-rule="evenodd" clip-rule="evenodd" d="M4.52251 77.3604C3.52936 77.3604 2.57689 77.7549 1.87462 78.4571C1.17236 79.1594 0.777832 80.1119 0.777832 81.105C0.777832 82.0982 1.17236 83.0506 1.87462 83.7529C2.57689 84.4552 3.52936 84.8497 4.52251 84.8497H100.531C101.323 84.8517 102.095 84.5989 102.732 84.1287C103.368 83.6628 103.841 83.0078 104.084 82.2572C104.326 81.5066 104.325 80.6987 104.081 79.9487C103.837 79.1987 103.362 78.5448 102.725 78.0804C102.087 77.616 101.32 77.3648 100.531 77.3625L4.52251 77.3604Z" fill="#E8EBF2"/>
<path d="M78.8449 48.7466V55.3605L73.8845 52.0535L68.9219 55.3605V38.8235H78.8449V48.7466Z" fill="white"/>
<path d="M36.198 48.7466V55.3605L31.2375 52.0535L26.2749 55.3605V38.8235H36.198V48.7466Z" fill="white"/>
</svg>
