<svg width="92" height="79" viewBox="0 0 92 79" fill="none" xmlns="http://www.w3.org/2000/svg">
<rect width="70" height="79" rx="11" fill="#0D53FC"/>
<path d="M19.9511 52.7C19.9511 49.748 20.7251 47.12 22.2731 44.816C23.8571 42.476 25.9271 40.694 28.4831 39.47C26.5391 38.858 24.9731 37.778 23.7851 36.23C22.5971 34.682 22.0031 32.828 22.0031 30.668C22.0031 27.104 23.1191 24.152 25.3511 21.812C27.5831 19.472 30.4271 18.302 33.8831 18.302C36.9431 18.302 39.5351 19.022 41.6591 20.462L39.3911 25.484C37.3751 24.008 35.1611 23.27 32.7491 23.27C30.9491 23.27 29.4731 23.846 28.3211 24.998C27.1691 26.114 26.5931 27.59 26.5931 29.426C26.5931 31.406 27.3131 33.026 28.7531 34.286C30.1931 35.51 31.9391 36.122 33.9911 36.122C34.4951 36.122 35.1791 36.032 36.0431 35.852C36.9071 35.636 38.0771 35.348 39.5531 34.988C41.0291 34.592 42.3791 34.268 43.6031 34.016L43.4411 38.822C31.0931 41.342 24.9191 45.572 24.9191 51.512C24.9191 53.816 25.7651 55.58 27.4571 56.804C29.1851 58.064 31.6691 58.694 34.9091 58.694C39.3011 58.694 43.3331 57.596 47.0051 55.4L48.3551 59.99C44.4311 62.762 39.6611 64.148 34.0451 64.148C29.4011 64.148 25.8911 63.086 23.5151 60.962C21.1391 58.874 19.9511 56.12 19.9511 52.7Z" fill="white"/>
<rect x="54" y="3" width="38" height="38" rx="19" fill="#55C397"/>
<path d="M78.4159 30L76.3519 24.696H69.5599L67.5199 30H65.3359L72.0319 12.792H73.9759L80.6479 30H78.4159ZM73.7839 17.592C73.7359 17.464 73.6559 17.232 73.5439 16.896C73.4319 16.56 73.3199 16.216 73.2079 15.864C73.1119 15.496 73.0319 15.216 72.9679 15.024C72.8559 15.52 72.7279 16.008 72.5839 16.488C72.4399 16.952 72.3199 17.32 72.2239 17.592L70.2799 22.776H75.7039L73.7839 17.592Z" fill="white"/>
</svg>
