<svg width="74" height="90" viewBox="0 0 74 90" fill="none" xmlns="http://www.w3.org/2000/svg">
<path d="M73.232 56.1507V67.5341C73.2305 76.8651 67.6322 85.2848 59.0279 88.8965L56.4878 89.9945L54.235 89.013C45.785 85.3264 40.322 76.983 40.3213 67.7639V56.1507L56.5445 47.259L56.8054 47.3982L73.232 56.1507Z" fill="#55C397"/>
<path d="M54.8035 73.503C54.5034 73.503 54.2032 73.3886 53.9741 73.1595L50.3513 69.5367C49.8933 69.0787 49.8933 68.336 50.3513 67.8781C50.8095 67.4201 51.552 67.4201 52.0101 67.8781L54.8034 70.6714L61.4657 63.8526C61.9239 63.3945 62.6664 63.3945 63.1244 63.8526C63.5825 64.3106 63.5825 65.0533 63.1244 65.5111L55.6328 73.1593C55.4039 73.3886 55.1036 73.503 54.8035 73.503Z" fill="white"/>
<path d="M56.6909 20.2172L56.8459 47.454L56.8338 47.4752L56.5729 47.336L40.3497 56.2277V67.8409C40.349 69.8691 40.6152 71.8882 41.1415 73.8461L41.0757 73.8642L8.9666 74.0245C4.6138 74.045 1.06789 70.5331 1.04671 66.1803L0.767667 8.12374C0.747249 3.77169 4.25838 0.226535 8.61042 0.206117L36.2684 0.0722656L36.642 0.107052L36.7002 12.1408C36.7214 16.4928 40.2666 20.004 44.6186 19.9835L56.6886 19.9253L56.6909 20.2172Z" fill="#0D53FC"/>
<path d="M56.6902 19.8846V19.9254L44.6202 19.9837C40.2681 20.0041 36.723 16.493 36.7018 12.1409L36.6436 0.107178L36.6844 0.110959L56.6902 19.8846Z" fill="#E7EEFF"/>
<path d="M31.6122 44.1183H27.6723C27.031 44.1183 26.5107 43.598 26.5107 42.9567C26.5107 42.3154 27.031 41.7952 27.6723 41.7952H31.6122C32.2535 41.7952 32.7738 42.3154 32.7738 42.9567C32.7738 43.598 32.2535 44.1183 31.6122 44.1183Z" fill="white"/>
<path d="M45.1918 34.2687H12.4867C11.8447 34.2687 11.3252 33.7484 11.3252 33.1071C11.3252 32.4658 11.8447 31.9456 12.4867 31.9456H45.1918C45.8338 31.9456 46.3533 32.4658 46.3533 33.1071C46.3533 33.7484 45.8338 34.2687 45.1918 34.2687Z" fill="white"/>
<path d="M22.6804 44.1183H12.4858C11.8437 44.1183 11.3242 43.598 11.3242 42.9567C11.3242 42.3154 11.8437 41.7952 12.4858 41.7952H22.6804C23.3217 41.7952 23.8419 42.3154 23.8419 42.9567C23.8419 43.598 23.3217 44.1183 22.6804 44.1183Z" fill="white"/>
</svg>
