<svg width="83" height="82" viewBox="0 0 83 82" fill="none" xmlns="http://www.w3.org/2000/svg">
<path d="M0.799805 7.79986C0.799805 3.82341 4.02336 0.599854 7.99981 0.599854H65.5998C69.5763 0.599854 72.7998 3.8234 72.7998 7.79985V63.7999C72.7998 67.7763 69.5763 70.9999 65.5998 70.9999H7.99981C4.02336 70.9999 0.799805 67.7763 0.799805 63.7999V7.79986Z" fill="#0D53FC"/>
<path d="M44 17.4013V28.5999L36.0017 23.0006L28 28.5999V0.599854H44V17.4013Z" fill="white"/>
<path d="M67.9419 81.3998H50.4949C48.4297 81.3998 46.756 79.7332 46.756 77.6768C46.756 75.6205 48.4297 73.9538 50.4949 73.9538H67.9419C71.782 73.9538 74.9221 70.8271 74.9221 67.0033C74.9221 63.0292 71.9904 59.8065 67.9419 59.8065H57.5267L59.7486 62.0141C63.2255 65.4569 57.9677 70.7214 54.4908 67.2787L45.8992 58.74C44.4387 57.2945 44.4329 54.9434 45.8846 53.4901L54.4596 44.9359C57.9171 41.4738 63.2041 46.7082 59.7466 50.1714L57.552 52.3606H67.9419C75.9104 52.3606 82.3998 58.8225 82.3998 66.7571C82.3998 70.8892 80.9101 74.4376 78.1585 77.1765C75.5413 79.7836 71.9261 81.3998 67.9419 81.3998Z" fill="#55C397"/>
</svg>
