<svg width="89" height="89" viewBox="0 0 89 89" fill="none" xmlns="http://www.w3.org/2000/svg">
<path d="M65.2227 73.926L73.5786 65.6172L66.9038 58.9045L58.5479 67.2133L65.2227 73.926Z" fill="#55607A"/>
<path d="M64.5596 11.1504C59.2973 5.85304 52.5816 2.23435 45.2617 0.751944C37.9418 -0.730466 30.3466 -0.0100279 23.4363 2.82216C16.5261 5.65434 10.6113 10.4711 6.43979 16.6633C2.26829 22.8555 0.0274881 30.145 0.000730739 37.6101C-0.0260267 45.0752 2.16246 52.3806 6.28947 58.6025C10.4165 64.8244 16.2966 69.6834 23.1864 72.565C30.0761 75.4466 37.666 76.2215 44.9963 74.7915C52.3266 73.3616 59.0681 69.7911 64.3683 64.5315C71.4555 57.4673 75.4546 47.8847 75.4904 37.8804C75.5263 27.8762 71.596 18.2652 64.5596 11.1504Z" fill="#032C58"/>
<path d="M13.372 61.8552C8.59492 57.0381 5.35463 50.9137 4.06089 44.2563C2.76716 37.599 3.47808 30.7078 6.10377 24.4543C8.72945 18.2007 13.152 12.8656 18.812 9.12367C24.4721 5.38173 31.1155 3.40101 37.9022 3.432C44.6888 3.46298 51.3138 5.50428 56.9394 9.29774C62.565 13.0912 66.9386 18.4665 69.507 24.7437C72.0754 31.021 72.7232 37.9184 71.3687 44.5636C70.0141 51.2089 66.718 57.3035 61.897 62.0768C58.7043 65.2605 54.9128 67.7816 50.7408 69.4948C46.5688 71.2079 42.0988 72.0793 37.5884 72.0587C33.0779 72.0381 28.6161 71.126 24.4599 69.3748C20.3038 67.6236 16.5355 65.068 13.372 61.8552Z" fill="#E7EEFF"/>
<path fill-rule="evenodd" clip-rule="evenodd" d="M14.2836 21.031C14.9461 21.6505 14.981 22.6896 14.3616 23.3521C14.3618 23.3518 14.362 23.3517 14.362 23.3517C14.362 23.3517 14.3509 23.364 14.3279 23.3932C14.3035 23.4241 14.2721 23.466 14.2337 23.5199C14.1566 23.6285 14.0639 23.7681 13.9596 23.9345C13.7511 24.2671 13.5172 24.6728 13.2968 25.0847C13.0754 25.4983 12.879 25.8967 12.7402 26.2153C12.6703 26.3756 12.6231 26.4974 12.5953 26.58C12.5905 26.5941 12.5868 26.6057 12.5839 26.6151C12.4707 27.4668 11.7133 28.095 10.8441 28.0355C9.93928 27.9736 9.25596 27.19 9.31786 26.2851C9.33852 25.9831 9.42553 25.7015 9.48289 25.5313C9.5511 25.3288 9.6375 25.114 9.72925 24.9034C9.91362 24.4803 10.1524 23.9995 10.4011 23.5348C10.6508 23.0684 10.9221 22.5964 11.1769 22.1899C11.4113 21.816 11.6936 21.3966 11.9626 21.109C12.582 20.4465 13.6212 20.4116 14.2836 21.031ZM12.5755 26.6443C12.5755 26.6444 12.5759 26.6424 12.5771 26.6382C12.5762 26.6422 12.5756 26.6443 12.5755 26.6443Z" fill="white"/>
<path fill-rule="evenodd" clip-rule="evenodd" d="M9.79137 30.475C10.6032 30.8794 10.9335 31.8653 10.5291 32.6771C10.5293 32.6768 10.5294 32.6766 10.5294 32.6766C10.5294 32.6766 10.5222 32.6915 10.5085 32.7261C10.494 32.7627 10.4759 32.8118 10.4545 32.8745C10.4116 33.0006 10.3627 33.1608 10.3103 33.35C10.2054 33.7283 10.0972 34.1839 10.0036 34.6417C9.90958 35.1013 9.83521 35.5392 9.79318 35.8842C9.77204 36.0578 9.76156 36.188 9.75848 36.2751C9.75795 36.29 9.7577 36.3022 9.7576 36.3119C9.89246 37.1604 9.34606 37.9789 8.49608 38.1702C7.61128 38.3694 6.73256 37.8135 6.53341 36.9287C6.46694 36.6334 6.46987 36.3386 6.47621 36.1591C6.48376 35.9456 6.50519 35.7151 6.53296 35.4871C6.58878 35.0289 6.68027 34.5 6.78589 33.9836C6.89191 33.4652 7.01709 32.9354 7.14518 32.4731C7.26301 32.0478 7.41375 31.5652 7.5893 31.2128C7.99366 30.401 8.97956 30.0707 9.79137 30.475ZM9.75797 36.3424C9.75793 36.3424 9.7578 36.3404 9.75769 36.3361C9.75795 36.3402 9.758 36.3423 9.75797 36.3424Z" fill="white"/>
<path d="M85.5873 73.0806L76.0151 63.69C75.8757 63.5464 75.7081 63.4321 75.5224 63.354C75.3366 63.2759 75.1366 63.2356 74.9345 63.2356C74.7324 63.2356 74.5325 63.2759 74.3467 63.354C74.161 63.4321 73.9933 63.5464 73.854 63.69L63.2088 74.1332C63.0625 74.2699 62.9459 74.4344 62.8663 74.6166C62.7866 74.7988 62.7456 74.995 62.7456 75.1933C62.7456 75.3915 62.7866 75.5877 62.8663 75.7699C62.9459 75.9522 63.0625 76.1166 63.2088 76.2533L72.781 85.644C74.4812 87.3057 76.7841 88.2378 79.1841 88.2356C81.584 88.2334 83.8851 87.2971 85.5821 85.6323C87.2792 83.9674 88.2336 81.71 88.2358 79.3555C88.238 77.0011 87.2879 74.7419 85.594 73.074L85.5873 73.0806Z" fill="#55C397"/>
</svg>
