<svg width="105" height="87" viewBox="0 0 105 87" fill="none" xmlns="http://www.w3.org/2000/svg">
<circle cx="29.3924" cy="57.608" r="29.3919" fill="#0D53FC"/>
<path d="M41.1315 53.9418L39.8924 53.7289C39.7931 53.4578 39.6812 53.1899 39.5614 52.9298L40.2912 51.9083C40.648 51.4144 40.8163 50.809 40.7654 50.2018C40.7145 49.5946 40.4479 49.0257 40.0138 48.598L38.4076 46.9886C37.9784 46.5571 37.4097 46.2924 36.8032 46.2419C36.1967 46.1913 35.592 46.3582 35.0973 46.7128L34.0742 47.441C33.7921 47.3102 33.5005 47.1919 33.2057 47.0848L33.0023 45.8741C32.9032 45.2736 32.5935 44.728 32.1288 44.335C31.6641 43.9419 31.0747 43.727 30.4661 43.7288H28.2056C27.5973 43.7266 27.0081 43.9409 26.5434 44.3334C26.0787 44.7259 25.7689 45.2709 25.6693 45.871L25.4549 47.132C25.1775 47.2371 24.9116 47.3491 24.6573 47.4678L23.6532 46.7443C23.1583 46.3904 22.5537 46.2238 21.9474 46.2744C21.3411 46.3249 20.7724 46.5892 20.3429 47.0201L18.7335 48.6264C18.3015 49.0552 18.0362 49.6237 17.9851 50.2302C17.934 50.8367 18.1004 51.4416 18.4545 51.9367L19.1985 52.9802C19.0787 53.2418 18.9699 53.513 18.8691 53.7872L17.6585 53.9906C17.0581 54.0899 16.5127 54.3995 16.1199 54.8643C15.7271 55.329 15.5125 55.9184 15.5147 56.5269V58.7968C15.5125 59.4051 15.7268 59.9943 16.1193 60.459C16.5118 60.9237 17.0568 61.2335 17.6569 61.3331L18.9179 61.5475C19.0172 61.817 19.1323 62.085 19.2537 62.3467L18.5333 63.3492C18.1768 63.8433 18.0089 64.4485 18.0597 65.0557C18.1106 65.6628 18.377 66.2317 18.8108 66.6595L20.417 68.2673C20.8462 68.6988 21.4149 68.9635 22.0214 69.0141C22.6279 69.0646 23.2326 68.8977 23.7273 68.5432L24.7692 67.7992C25.0088 67.9095 25.2595 68.0136 25.5132 68.1066L25.7198 69.344C25.8193 69.9442 26.1291 70.4894 26.5937 70.8822C27.0584 71.2749 27.6477 71.4896 28.2561 71.4877H30.5307C31.1389 71.4902 31.728 71.276 32.1925 70.8834C32.657 70.4908 32.9665 69.9456 33.0654 69.3456L33.2766 68.1081C33.5509 68.0073 33.8205 67.8953 34.079 67.7771L35.0941 68.5038C35.5889 68.8579 36.1933 69.0247 36.7996 68.9745C37.406 68.9242 37.9747 68.6602 38.4044 68.2295L40.0107 66.6217C40.4421 66.1925 40.7069 65.6239 40.7578 65.0175C40.8086 64.4111 40.6421 63.8064 40.2881 63.3114L39.5583 62.2852C39.6812 62.0235 39.7915 61.7555 39.8909 61.486L41.1283 61.2795C41.7289 61.1806 42.2747 60.871 42.6678 60.4063C43.061 59.9415 43.2758 59.3519 43.2737 58.7432V56.4796C43.2801 55.87 43.0674 55.2784 42.6741 54.8126C42.2809 54.3468 41.7335 54.0377 41.1315 53.9418ZM38.2011 60.3731C38.0373 60.8982 37.8263 61.4073 37.5705 61.8943C37.481 62.0642 37.4407 62.2557 37.4541 62.4473C37.4674 62.6389 37.534 62.823 37.6462 62.9788L38.6881 64.4432C38.7739 64.5629 38.8141 64.7093 38.8017 64.8561C38.7893 65.0028 38.725 65.1403 38.6203 65.2439L37.0141 66.8502C36.9099 66.9526 36.7735 67.0156 36.628 67.0286C36.4825 67.0415 36.3371 67.0035 36.2165 66.9211L34.7568 65.8776C34.6003 65.7648 34.4154 65.698 34.223 65.6846C34.0305 65.6712 33.8381 65.7119 33.6676 65.802C33.1801 66.0567 32.6711 66.2676 32.1464 66.4325C31.9625 66.4886 31.7979 66.5952 31.6714 66.7401C31.5449 66.8849 31.4616 67.0624 31.4308 67.2522L31.1297 69.024C31.1054 69.1689 31.0304 69.3004 30.9181 69.3951C30.8058 69.4898 30.6634 69.5415 30.5165 69.541H28.2419C28.0949 69.5419 27.9524 69.4903 27.84 69.3955C27.7276 69.3007 27.6527 69.169 27.6287 69.024L27.3339 67.2522C27.3028 67.0625 27.2196 66.8853 27.0935 66.7402C26.9673 66.5952 26.8034 66.4881 26.6199 66.4309C26.1121 66.2713 25.619 66.0683 25.146 65.824C24.9996 65.7488 24.8376 65.7089 24.6731 65.7074C24.4569 65.7063 24.2459 65.7743 24.0709 65.9013L22.5845 66.9574C22.4653 67.0392 22.3212 67.0767 22.1773 67.0634C22.0333 67.0502 21.8986 66.9871 21.7963 66.8849L20.1869 65.277C20.0843 65.1748 20.0213 65.0395 20.0092 64.8951C19.9971 64.7508 20.0366 64.6068 20.1207 64.4889L21.1595 63.045C21.2746 62.8868 21.3427 62.6993 21.3558 62.504C21.3689 62.3087 21.3265 62.1137 21.2335 61.9416C20.9758 61.4573 20.7621 60.9509 20.5951 60.4283C20.5377 60.2457 20.4309 60.0825 20.2865 59.9568C20.1421 59.831 19.9658 59.7477 19.7771 59.7158L17.9816 59.41C17.8366 59.3854 17.705 59.3101 17.6103 59.1975C17.5156 59.0849 17.464 58.9423 17.4646 58.7952V56.5253C17.4659 56.3785 17.5184 56.2368 17.6131 56.1245C17.7078 56.0123 17.8387 55.9366 17.9832 55.9106L19.7313 55.6158C19.9224 55.5842 20.1008 55.4996 20.2463 55.3717C20.3917 55.2438 20.4984 55.0778 20.5541 54.8923C20.7138 54.3674 20.9212 53.8582 21.1736 53.3711C21.2624 53.201 21.3024 53.0096 21.289 52.8182C21.2756 52.6267 21.2095 52.4427 21.098 52.2866L20.045 50.8064C19.9595 50.687 19.9192 50.5411 19.9314 50.3947C19.9435 50.2483 20.0072 50.111 20.1112 50.0073L21.7301 48.3931C21.8344 48.294 21.9694 48.2336 22.1128 48.2219C22.2561 48.2101 22.3992 48.2477 22.5182 48.3285L23.9669 49.372C24.1252 49.487 24.3127 49.555 24.5079 49.5681C24.7031 49.5812 24.8981 49.5389 25.0703 49.4461C25.5538 49.1899 26.0598 48.9788 26.582 48.8155C26.7645 48.7579 26.9276 48.651 27.0533 48.5067C27.179 48.3624 27.2625 48.1862 27.2945 47.9975L27.6019 46.202C27.6265 46.0573 27.7016 45.9259 27.8138 45.8312C27.9261 45.7366 28.0683 45.6848 28.2151 45.685H30.485C30.6321 45.6845 30.7747 45.7364 30.887 45.8315C30.9994 45.9265 31.0742 46.0584 31.0981 46.2036L31.3929 47.9533C31.4249 48.1443 31.5098 48.3225 31.638 48.4677C31.7662 48.6129 31.9325 48.7192 32.118 48.7746C32.6625 48.9429 33.1902 49.1614 33.6943 49.4272C33.8647 49.5161 34.0564 49.5561 34.2481 49.5428C34.4398 49.5294 34.6241 49.4632 34.7805 49.3515L36.2496 48.3048C36.3678 48.2207 36.5123 48.1816 36.6568 48.1946C36.8013 48.2077 36.9364 48.2719 37.0377 48.3758L38.6471 49.9852C38.7489 50.088 38.8112 50.2233 38.823 50.3675C38.8348 50.5116 38.7955 50.6554 38.7118 50.7733L37.6667 52.233C37.5547 52.3892 37.4883 52.5736 37.4749 52.7653C37.4615 52.9571 37.5018 53.1488 37.591 53.3191C37.8457 53.8071 38.0567 54.3166 38.2215 54.8418C38.2783 55.0253 38.385 55.1893 38.5298 55.3155C38.6746 55.4416 38.8517 55.5249 39.0412 55.5559L40.813 55.857C40.956 55.8794 41.086 55.9526 41.1793 56.0633C41.2725 56.1739 41.3227 56.3144 41.3206 56.4591V58.7401C41.3211 58.887 41.2694 59.0293 41.1747 59.1416C41.08 59.2539 40.9485 59.3289 40.8036 59.3532L39.0334 59.6496C38.8403 59.6793 38.6595 59.763 38.512 59.891C38.3644 60.019 38.2561 60.1862 38.1995 60.3731H38.2011Z" fill="white"/>
<path d="M29.3858 52.1602C28.3072 52.1595 27.2527 52.4789 26.3556 53.0777C25.4585 53.6765 24.7591 54.5279 24.346 55.5243C23.9329 56.5206 23.8245 57.6171 24.0347 58.675C24.2448 59.733 24.764 60.7048 25.5266 61.4676C26.2892 62.2304 27.2609 62.7499 28.3187 62.9604C29.3766 63.1708 30.4731 63.0628 31.4696 62.6499C32.4661 62.2371 33.3177 61.538 33.9168 60.6411C34.5159 59.7442 34.8355 58.6897 34.8352 57.6111C34.8335 56.1662 34.2589 54.7809 33.2373 53.7591C32.2158 52.7372 30.8307 52.1622 29.3858 52.1602ZM32.9042 57.6111C32.9045 58.3074 32.6983 58.9882 32.3116 59.5672C31.9249 60.1463 31.3753 60.5977 30.732 60.8644C30.0888 61.131 29.3809 61.2008 28.6979 61.065C28.015 60.9292 27.3877 60.594 26.8953 60.1016C26.4029 59.6092 26.0677 58.9819 25.9319 58.299C25.7961 57.616 25.8659 56.9081 26.1325 56.2649C26.3992 55.6217 26.8506 55.072 27.4297 54.6853C28.0088 54.2987 28.6895 54.0924 29.3858 54.0927C30.3188 54.0936 31.2134 54.4645 31.8733 55.1241C32.5332 55.7837 32.9045 56.6781 32.9057 57.6111H32.9042Z" fill="white"/>
<rect x="25.731" width="78.7703" height="39.973" rx="7.05405" fill="#55C397"/>
<rect x="32.7856" y="7.0542" width="51.7297" height="4.7027" rx="2.35135" fill="white"/>
<rect x="32.7856" y="17.635" width="38.7973" height="4.7027" rx="2.35135" fill="white"/>
<rect x="32.7856" y="28.2161" width="51.7297" height="4.7027" rx="2.35135" fill="white"/>
</svg>
