<svg width="93" height="60" viewBox="0 0 93 60" fill="none" xmlns="http://www.w3.org/2000/svg">
<path d="M83.2369 51.2441H92.7843V33.7408L78.4633 11.4636H60.96V51.2441H67.3249" fill="#0D53FC"/>
<path d="M13.2239 51.2443H0.494141V0.325439H60.9605V51.2443H29.136" fill="#0D53FC"/>
<path d="M10.0415 43.2878H0.494141V46.4703H10.0415V43.2878Z" fill="#0B47D9"/>
<path d="M60.9592 43.2878H32.3174V46.4703H60.9592V43.2878Z" fill="#0B47D9"/>
<path d="M92.7838 43.2878H86.4189V46.4703H92.7838V43.2878Z" fill="#F3F7FF"/>
<path d="M60.9622 5.09863H5.26953V8.28109H60.9622V5.09863Z" fill="#0B47D9"/>
<path d="M21.1778 59.2001C25.5719 59.2001 29.1339 55.638 29.1339 51.244C29.1339 46.8499 25.5719 43.2878 21.1778 43.2878C16.7838 43.2878 13.2217 46.8499 13.2217 51.244C13.2217 55.638 16.7838 59.2001 21.1778 59.2001Z" fill="#55C397"/>
<path d="M75.2764 59.1998C79.6705 59.1998 83.2326 55.6378 83.2326 51.2437C83.2326 46.8497 79.6705 43.2876 75.2764 43.2876C70.8824 43.2876 67.3203 46.8497 67.3203 51.2437C67.3203 55.6378 70.8824 59.1998 75.2764 59.1998Z" fill="#55C397"/>
<path d="M18.6016 51.2003C18.6016 52.5258 19.6761 53.6003 21.0016 53.6003C22.327 53.6003 23.4016 52.5258 23.4016 51.2003C23.4016 49.8748 22.327 48.8003 21.0016 48.8003C19.6761 48.8003 18.6016 49.8748 18.6016 51.2003Z" fill="white"/>
<path d="M73.002 51.2003C73.002 52.5258 74.0765 53.6003 75.402 53.6003C76.7274 53.6003 77.802 52.5258 77.802 51.2003C77.802 49.8748 76.7274 48.8003 75.402 48.8003C74.0765 48.8003 73.002 49.8748 73.002 51.2003Z" fill="white"/>
<path d="M82.5521 17.8281H67.3242V32.1491H91.7652L82.5521 17.8281Z" fill="#F3F7FF"/>
<path d="M91.7652 32.1502L83.125 18.7043C78.8781 23.7437 73.4504 27.6517 67.3242 30.0815V32.15H91.7652V32.1502Z" fill="#E7EEFF"/>
</svg>
