<svg width="65" height="87" viewBox="0 0 65 87" fill="none" xmlns="http://www.w3.org/2000/svg">
<path d="M56.3159 20.6667L56.4709 47.9035L56.4588 47.9246L56.1979 47.7855L39.9748 56.6771V68.2904C39.974 70.3186 40.2402 72.3377 40.7665 74.2955L40.7007 74.3137L8.59161 74.474C4.2388 74.4944 0.692886 70.9825 0.671712 66.6297L0.392667 8.5732C0.372249 4.22116 3.88338 0.675997 8.23543 0.655579L35.8934 0.521729L36.267 0.556515L36.3252 12.5902C36.3464 16.9423 39.8916 20.4534 44.2436 20.433L56.3137 20.3748L56.3159 20.6667Z" fill="#0D53FC"/>
<path d="M56.3152 20.3341V20.3749L44.2452 20.4331C39.8931 20.4535 36.348 16.9424 36.3268 12.5904L36.2686 0.556641L36.3094 0.560422L56.3152 20.3341Z" fill="#E7EEFF"/>
<path d="M31.2372 44.5677H27.2973C26.656 44.5677 26.1357 44.0475 26.1357 43.4062C26.1357 42.7649 26.656 42.2446 27.2973 42.2446H31.2372C31.8785 42.2446 32.3988 42.7649 32.3988 43.4062C32.3988 44.0475 31.8785 44.5677 31.2372 44.5677Z" fill="white"/>
<path d="M44.8168 34.7181H12.1117C11.4697 34.7181 10.9502 34.1978 10.9502 33.5566C10.9502 32.9153 11.4697 32.395 12.1117 32.395H44.8168C45.4588 32.395 45.9783 32.9153 45.9783 33.5566C45.9783 34.1978 45.4588 34.7181 44.8168 34.7181Z" fill="white"/>
<path d="M22.3054 44.5677H12.1108C11.4687 44.5677 10.9492 44.0475 10.9492 43.4062C10.9492 42.7649 11.4687 42.2446 12.1108 42.2446H22.3054C22.9467 42.2446 23.4669 42.7649 23.4669 43.4062C23.4669 44.0475 22.9467 44.5677 22.3054 44.5677Z" fill="white"/>
<path d="M64.8858 49.0477V86.1723C64.8849 86.3952 64.7552 86.5979 64.5517 86.695C64.3473 86.792 64.1051 86.7667 63.9273 86.6283L52.7542 75.7782L40.4819 86.6283C40.3041 86.7667 40.0611 86.7929 39.8567 86.6958C39.6531 86.5987 39.5234 86.3952 39.5234 86.1723V49.0477C39.5234 46.6608 41.4918 44.7249 43.9205 44.7249H60.4887C62.9165 44.7257 64.8849 46.6608 64.8858 49.0477Z" fill="#55C397"/>
</svg>
