<svg width="32" height="33" viewBox="0 0 32 33" fill="none" xmlns="http://www.w3.org/2000/svg">
<path d="M16 32.5C24.8366 32.5 32 25.3366 32 16.5C32 7.66344 24.8366 0.5 16 0.5C7.16344 0.5 0 7.66344 0 16.5C0 25.3366 7.16344 32.5 16 32.5Z" fill="#0D53FC"/>
<path d="M14.0725 9.79932H10.6902C10.2409 9.80206 9.81099 9.98237 9.49417 10.3009C9.17735 10.6194 8.99936 11.0503 8.99902 11.4996V14.8728C8.99885 15.0962 9.0427 15.3175 9.12805 15.524C9.2134 15.7305 9.33859 15.9182 9.49648 16.0763C9.65436 16.2344 9.84184 16.3599 10.0482 16.4456C10.2546 16.5313 10.4758 16.5754 10.6993 16.5756H14.0725C14.2961 16.5758 14.5176 16.5319 14.7243 16.4463C14.931 16.3608 15.1188 16.2354 15.2769 16.0772C15.4351 15.9191 15.5605 15.7313 15.646 15.5246C15.7316 15.3179 15.7755 15.0964 15.7753 14.8728V11.4905C15.7726 11.0408 15.5919 10.6104 15.2728 10.2935C14.9537 9.97665 14.5222 9.79896 14.0725 9.79932ZM14.624 14.8728C14.624 15.019 14.5659 15.1593 14.4625 15.2628C14.359 15.3662 14.2188 15.4243 14.0725 15.4243H10.6902C10.5455 15.4219 10.4075 15.3628 10.306 15.2596C10.2045 15.1564 10.1477 15.0175 10.1477 14.8728V11.4905C10.1501 11.3458 10.2093 11.2078 10.3124 11.1063C10.4156 11.0048 10.5546 10.948 10.6993 10.948H14.0725C14.2188 10.948 14.359 11.0061 14.4625 11.1095C14.5659 11.213 14.624 11.3533 14.624 11.4996V14.8728Z" fill="white"/>
<path d="M21.9778 9.79932H18.6475C18.1907 9.79966 17.7527 9.98119 17.4295 10.3041C17.1064 10.627 16.9245 11.0649 16.9238 11.5217V14.8519C16.9245 15.3085 17.1062 15.7462 17.429 16.0691C17.7519 16.3919 18.1896 16.5736 18.6462 16.5743H21.9765C22.433 16.5736 22.8707 16.3919 23.1936 16.0691C23.5164 15.7462 23.6981 15.3085 23.6988 14.8519V11.5217C23.6981 11.0653 23.5166 10.6278 23.1941 10.305C22.8715 9.98218 22.4341 9.80035 21.9778 9.79932V9.79932ZM22.5514 14.8532C22.5511 15.0053 22.4905 15.151 22.383 15.2585C22.2755 15.366 22.1298 15.4266 21.9778 15.4269H18.6475C18.4955 15.4266 18.3497 15.366 18.2422 15.2585C18.1347 15.151 18.0742 15.0053 18.0738 14.8532V11.5217C18.0742 11.3696 18.1347 11.2239 18.2422 11.1164C18.3497 11.0089 18.4955 10.9483 18.6475 10.948H21.9778C22.1298 10.9483 22.2755 11.0089 22.383 11.1164C22.4905 11.2239 22.5511 11.3696 22.5514 11.5217V14.8532Z" fill="white"/>
<path d="M14.0725 17.7231H10.6902C10.2409 17.7259 9.81099 17.9062 9.49417 18.2247C9.17735 18.5432 8.99936 18.9742 8.99902 19.4234V22.8057C8.99937 23.2565 9.17861 23.6888 9.4974 24.0076C9.81618 24.3264 10.2484 24.5056 10.6993 24.5059H14.0725C14.2967 24.5061 14.5187 24.462 14.7258 24.3761C14.9329 24.2902 15.121 24.1641 15.2793 24.0053C15.4375 23.8464 15.5628 23.6579 15.6479 23.4504C15.7331 23.243 15.7764 23.0208 15.7753 22.7966V19.4143C15.7726 18.9646 15.5919 18.5343 15.2728 18.2174C14.9537 17.9005 14.5222 17.7228 14.0725 17.7231ZM14.624 22.7966C14.624 22.9429 14.5659 23.0832 14.4625 23.1866C14.359 23.29 14.2188 23.3482 14.0725 23.3482H10.6902C10.5439 23.3482 10.4036 23.29 10.3001 23.1866C10.1967 23.0832 10.1386 22.9429 10.1386 22.7966V19.4143C10.1386 19.268 10.1967 19.1277 10.3001 19.0243C10.4036 18.9208 10.5439 18.8627 10.6902 18.8627H14.0725C14.2188 18.8627 14.359 18.9208 14.4625 19.0243C14.5659 19.1277 14.624 19.268 14.624 19.4143V22.7966Z" fill="white"/>
<path d="M21.9778 17.7231H18.6475C18.1907 17.7235 17.7527 17.905 17.4295 18.2279C17.1064 18.5508 16.9245 18.9887 16.9238 19.4455V22.7758C16.9245 23.2324 17.1062 23.67 17.429 23.9929C17.7519 24.3158 18.1896 24.4975 18.6462 24.4982H21.9765C22.433 24.4975 22.8707 24.3158 23.1936 23.9929C23.5164 23.67 23.6981 23.2324 23.6988 22.7758V19.4455C23.6981 18.9892 23.5166 18.5517 23.1941 18.2288C22.8715 17.906 22.4341 17.7242 21.9778 17.7231ZM22.5514 22.7771C22.5511 22.9291 22.4905 23.0748 22.383 23.1823C22.2755 23.2899 22.1298 23.3504 21.9778 23.3507H18.6475C18.4955 23.3504 18.3497 23.2899 18.2422 23.1823C18.1347 23.0748 18.0742 22.9291 18.0738 22.7771V19.4468C18.0742 19.2948 18.1347 19.149 18.2422 19.0415C18.3497 18.934 18.4955 18.8735 18.6475 18.8731H21.9778C22.1298 18.8735 22.2755 18.934 22.383 19.0415C22.4905 19.149 22.5511 19.2948 22.5514 19.4468V22.7771Z" fill="white"/>
</svg>
