<svg width="34" height="33" viewBox="0 0 34 33" fill="none" xmlns="http://www.w3.org/2000/svg">
<path d="M17 32.5C25.8366 32.5 33 25.3366 33 16.5C33 7.66344 25.8366 0.5 17 0.5C8.16344 0.5 1 7.66344 1 16.5C1 25.3366 8.16344 32.5 17 32.5Z" fill="white"/>
<path d="M16.9995 32.0152C25.5683 32.0152 32.5147 25.0688 32.5147 16.5C32.5147 7.93123 25.5683 0.984863 16.9995 0.984863C8.43074 0.984863 1.48438 7.93123 1.48438 16.5C1.48438 25.0688 8.43074 32.0152 16.9995 32.0152Z" stroke="#E8EBF2"/>
<path d="M15.0725 9.79932H11.6902C11.2409 9.80206 10.811 9.98237 10.4942 10.3009C10.1774 10.6194 9.99936 11.0503 9.99902 11.4996V14.8728C9.99885 15.0962 10.0427 15.3175 10.128 15.524C10.2134 15.7305 10.3386 15.9182 10.4965 16.0763C10.6544 16.2344 10.8418 16.3599 11.0482 16.4456C11.2546 16.5313 11.4758 16.5754 11.6993 16.5756H15.0725C15.2961 16.5758 15.5176 16.5319 15.7243 16.4463C15.931 16.3608 16.1188 16.2354 16.2769 16.0772C16.4351 15.9191 16.5605 15.7313 16.646 15.5246C16.7316 15.3179 16.7755 15.0964 16.7753 14.8728V11.4905C16.7726 11.0408 16.5919 10.6104 16.2728 10.2935C15.9537 9.97665 15.5222 9.79896 15.0725 9.79932ZM15.624 14.8728C15.624 15.019 15.5659 15.1593 15.4625 15.2628C15.359 15.3662 15.2188 15.4243 15.0725 15.4243H11.6902C11.5455 15.4219 11.4075 15.3628 11.306 15.2596C11.2045 15.1564 11.1477 15.0175 11.1477 14.8728V11.4905C11.1501 11.3458 11.2093 11.2078 11.3124 11.1063C11.4156 11.0048 11.5546 10.948 11.6993 10.948H15.0725C15.2188 10.948 15.359 11.0061 15.4625 11.1095C15.5659 11.213 15.624 11.3533 15.624 11.4996V14.8728Z" fill="#8791A8"/>
<path d="M22.9778 9.79932H19.6475C19.1907 9.79966 18.7527 9.98119 18.4295 10.3041C18.1064 10.627 17.9245 11.0649 17.9238 11.5217V14.8519C17.9245 15.3085 18.1062 15.7462 18.429 16.0691C18.7519 16.3919 19.1896 16.5736 19.6462 16.5743H22.9765C23.433 16.5736 23.8707 16.3919 24.1936 16.0691C24.5164 15.7462 24.6981 15.3085 24.6988 14.8519V11.5217C24.6981 11.0653 24.5166 10.6278 24.1941 10.305C23.8715 9.98218 23.4341 9.80035 22.9778 9.79932V9.79932ZM23.5514 14.8532C23.5511 15.0053 23.4905 15.151 23.383 15.2585C23.2755 15.366 23.1298 15.4266 22.9778 15.4269H19.6475C19.4955 15.4266 19.3497 15.366 19.2422 15.2585C19.1347 15.151 19.0742 15.0053 19.0738 14.8532V11.5217C19.0742 11.3696 19.1347 11.2239 19.2422 11.1164C19.3497 11.0089 19.4955 10.9483 19.6475 10.948H22.9778C23.1298 10.9483 23.2755 11.0089 23.383 11.1164C23.4905 11.2239 23.5511 11.3696 23.5514 11.5217V14.8532Z" fill="#8791A8"/>
<path d="M15.0725 17.7231H11.6902C11.2409 17.7259 10.811 17.9062 10.4942 18.2247C10.1774 18.5432 9.99936 18.9742 9.99902 19.4234V22.8057C9.99937 23.2565 10.1786 23.6888 10.4974 24.0076C10.8162 24.3264 11.2484 24.5056 11.6993 24.5059H15.0725C15.2967 24.5061 15.5187 24.462 15.7258 24.3761C15.9329 24.2902 16.121 24.1641 16.2793 24.0053C16.4375 23.8464 16.5628 23.6579 16.6479 23.4504C16.7331 23.243 16.7764 23.0208 16.7753 22.7966V19.4143C16.7726 18.9646 16.5919 18.5343 16.2728 18.2174C15.9537 17.9005 15.5222 17.7228 15.0725 17.7231ZM15.624 22.7966C15.624 22.9429 15.5659 23.0832 15.4625 23.1866C15.359 23.29 15.2188 23.3482 15.0725 23.3482H11.6902C11.5439 23.3482 11.4036 23.29 11.3001 23.1866C11.1967 23.0832 11.1386 22.9429 11.1386 22.7966V19.4143C11.1386 19.268 11.1967 19.1277 11.3001 19.0243C11.4036 18.9208 11.5439 18.8627 11.6902 18.8627H15.0725C15.2188 18.8627 15.359 18.9208 15.4625 19.0243C15.5659 19.1277 15.624 19.268 15.624 19.4143V22.7966Z" fill="#8791A8"/>
<path d="M22.9778 17.7231H19.6475C19.1907 17.7235 18.7527 17.905 18.4295 18.2279C18.1064 18.5508 17.9245 18.9887 17.9238 19.4455V22.7758C17.9245 23.2324 18.1062 23.67 18.429 23.9929C18.7519 24.3158 19.1896 24.4975 19.6462 24.4982H22.9765C23.433 24.4975 23.8707 24.3158 24.1936 23.9929C24.5164 23.67 24.6981 23.2324 24.6988 22.7758V19.4455C24.6981 18.9892 24.5166 18.5517 24.1941 18.2288C23.8715 17.906 23.4341 17.7242 22.9778 17.7231ZM23.5514 22.7771C23.5511 22.9291 23.4905 23.0748 23.383 23.1823C23.2755 23.2899 23.1298 23.3504 22.9778 23.3507H19.6475C19.4955 23.3504 19.3497 23.2899 19.2422 23.1823C19.1347 23.0748 19.0742 22.9291 19.0738 22.7771V19.4468C19.0742 19.2948 19.1347 19.149 19.2422 19.0415C19.3497 18.934 19.4955 18.8735 19.6475 18.8731H22.9778C23.1298 18.8735 23.2755 18.934 23.383 19.0415C23.4905 19.149 23.5511 19.2948 23.5514 19.4468V22.7771Z" fill="#8791A8"/>
</svg>
