<svg width="32" height="33" viewBox="0 0 32 33" fill="none" xmlns="http://www.w3.org/2000/svg">
<path d="M16 32.5C24.8366 32.5 32 25.3366 32 16.5C32 7.66344 24.8366 0.5 16 0.5C7.16344 0.5 0 7.66344 0 16.5C0 25.3366 7.16344 32.5 16 32.5Z" fill="#0D53FC"/>
<path d="M22.9881 9.50244C23.5209 9.50244 24.0318 9.71407 24.4085 10.0908C24.7852 10.4675 24.9968 10.9784 24.9968 11.5111C24.9968 12.0438 24.7852 12.5547 24.4085 12.9314C24.0318 13.3081 23.5209 13.5197 22.9881 13.5197C22.4554 13.5197 21.9445 13.3081 21.5678 12.9314C21.1911 12.5547 20.9795 12.0438 20.9795 11.5111C20.9795 10.9784 21.1911 10.4675 21.5678 10.0908C21.9445 9.71407 22.4554 9.50244 22.9881 9.50244ZM22.2018 11.5117C22.2016 11.6677 22.2477 11.8204 22.3342 11.9502C22.4207 12.0801 22.5438 12.1814 22.6879 12.2413C22.832 12.3012 22.9906 12.317 23.1437 12.2867C23.2968 12.2564 23.4374 12.1813 23.5479 12.0711C23.6583 11.9608 23.7335 11.8203 23.7641 11.6672C23.7946 11.5142 23.7791 11.3556 23.7194 11.2114C23.6597 11.0672 23.5586 10.9439 23.4289 10.8572C23.2992 10.7705 23.1466 10.7242 22.9906 10.7242C22.7821 10.7245 22.5823 10.8072 22.4345 10.9543C22.2868 11.1013 22.2031 11.3008 22.2018 11.5092V11.5117Z" fill="white"/>
<path d="M18.3754 13.5173H9.00746C8.48333 13.5043 7.98503 13.287 7.61891 12.9117C7.25278 12.5365 7.04785 12.0329 7.04785 11.5086C7.04785 10.9843 7.25278 10.4808 7.61891 10.1055C7.98503 9.73026 8.48333 9.51295 9.00746 9.5H18.3742C18.9069 9.5 19.4178 9.71162 19.7945 10.0883C20.1712 10.465 20.3828 10.9759 20.3828 11.5086C20.3828 12.0414 20.1712 12.5523 19.7945 12.929C19.4178 13.3057 18.9069 13.5173 18.3742 13.5173H18.3754ZM19.1642 11.5093C19.1635 11.3004 19.0802 11.1003 18.9323 10.9527C18.7845 10.8051 18.5843 10.7221 18.3754 10.7217H9.0087C8.90258 10.7176 8.79671 10.7348 8.69744 10.7726C8.59817 10.8103 8.50754 10.8677 8.43098 10.9413C8.35442 11.0149 8.29351 11.1032 8.2519 11.2009C8.2103 11.2986 8.18885 11.4037 8.18885 11.5099C8.18885 11.6161 8.2103 11.7212 8.2519 11.8189C8.29351 11.9166 8.35442 12.0049 8.43098 12.0785C8.50754 12.1521 8.59817 12.2095 8.69744 12.2472C8.79671 12.2849 8.90258 12.3022 9.0087 12.298H18.3754C18.5845 12.2977 18.7849 12.2145 18.9328 12.0666C19.0806 11.9188 19.1638 11.7183 19.1642 11.5093Z" fill="white"/>
<path d="M22.9902 18.5942C22.5932 18.5939 22.2051 18.476 21.8751 18.2553C21.545 18.0345 21.2879 17.7209 21.136 17.354C20.9842 16.9872 20.9445 16.5835 21.022 16.1941C21.0996 15.8047 21.2908 15.447 21.5715 15.1663C21.8523 14.8855 22.21 14.6943 22.5994 14.6168C22.9888 14.5393 23.3924 14.5789 23.7593 14.7307C24.1262 14.8826 24.4398 15.1398 24.6605 15.4698C24.8813 15.7998 24.9992 16.1879 24.9995 16.5849C24.9978 17.1175 24.7855 17.6278 24.4087 18.0043C24.032 18.3808 23.5216 18.5929 22.989 18.5942H22.9902ZM23.7789 16.5849C23.7789 16.4289 23.7327 16.2764 23.646 16.1467C23.5594 16.017 23.4362 15.9159 23.292 15.8562C23.1479 15.7965 22.9893 15.7809 22.8363 15.8114C22.6833 15.8418 22.5428 15.9169 22.4325 16.0272C22.3222 16.1375 22.2471 16.2781 22.2166 16.4311C22.1862 16.5841 22.2018 16.7426 22.2615 16.8868C22.3212 17.0309 22.4223 17.1541 22.552 17.2407C22.6817 17.3274 22.8342 17.3737 22.9902 17.3737C23.1993 17.3733 23.3997 17.2901 23.5476 17.1423C23.6954 16.9945 23.7786 16.794 23.7789 16.5849Z" fill="white"/>
<path d="M18.376 18.5942H9.00926C8.47637 18.5942 7.96531 18.3825 7.5885 18.0057C7.21169 17.6289 7 17.1178 7 16.5849C7 16.0521 7.21169 15.541 7.5885 15.1642C7.96531 14.7874 8.47637 14.5757 9.00926 14.5757H18.376C18.9089 14.5757 19.4199 14.7874 19.7967 15.1642C20.1736 15.541 20.3852 16.0521 20.3852 16.5849C20.3852 17.1178 20.1736 17.6289 19.7967 18.0057C19.4199 18.3825 18.9089 18.5942 18.376 18.5942ZM19.1978 16.5555C19.1899 16.3466 19.0994 16.1494 18.9463 16.007C18.7931 15.8647 18.5898 15.7889 18.3809 15.7962H9.00189C8.98362 15.7931 8.96497 15.7931 8.9467 15.7962C8.7423 15.8074 8.55027 15.8976 8.41117 16.0478C8.27206 16.1979 8.19679 16.3963 8.20124 16.6009C8.2057 16.8056 8.28955 17.0005 8.43506 17.1445C8.58057 17.2884 8.77636 17.3702 8.98104 17.3725H18.4385C18.6476 17.3648 18.845 17.2744 18.9874 17.1212C19.1297 16.968 19.2055 16.7645 19.1978 16.5555Z" fill="white"/>
<path d="M22.9817 19.6528C23.5142 19.6528 24.025 19.8644 24.4016 20.241C24.7781 20.6175 24.9897 21.1283 24.9897 21.6609C24.9897 22.1934 24.7781 22.7042 24.4016 23.0808C24.025 23.4573 23.5142 23.6689 22.9817 23.6689C22.4491 23.6689 21.9384 23.4573 21.5618 23.0808C21.1852 22.7042 20.9736 22.1934 20.9736 21.6609C20.9736 21.1283 21.1852 20.6175 21.5618 20.241C21.9384 19.8644 22.4491 19.6528 22.9817 19.6528ZM22.9902 20.8721C22.8343 20.8721 22.6819 20.9184 22.5522 21.005C22.4225 21.0916 22.3214 21.2147 22.2617 21.3587C22.2019 21.5028 22.1862 21.6613 22.2166 21.8143C22.2469 21.9672 22.3219 22.1078 22.4321 22.2182C22.5423 22.3285 22.6827 22.4037 22.8356 22.4343C22.9885 22.4649 23.1471 22.4494 23.2912 22.3899C23.4354 22.3304 23.5586 22.2295 23.6455 22.1C23.7323 21.9704 23.7787 21.818 23.779 21.6621C23.7783 21.453 23.6951 21.2526 23.5473 21.1046C23.3996 20.9567 23.1993 20.8731 22.9902 20.8721Z" fill="white"/>
<path d="M9.00963 19.6519H18.3764C18.9091 19.6519 19.42 19.8635 19.7967 20.2402C20.1734 20.6169 20.385 21.1278 20.385 21.6605C20.385 22.1932 20.1734 22.7041 19.7967 23.0808C19.42 23.4575 18.9091 23.6691 18.3764 23.6691H9.00963C8.4769 23.6691 7.96599 23.4575 7.5893 23.0808C7.2126 22.7041 7.00098 22.1932 7.00098 21.6605C7.00098 21.1278 7.2126 20.6169 7.5893 20.2402C7.96599 19.8635 8.4769 19.6519 9.00963 19.6519ZM8.18655 21.6881C8.19326 21.893 8.27972 22.0872 8.42751 22.2292C8.5753 22.3713 8.77274 22.45 8.97773 22.4486H18.3702C18.5693 22.4407 18.758 22.358 18.8988 22.2171C19.0396 22.0761 19.122 21.8872 19.1295 21.6881C19.1338 21.5846 19.1175 21.4813 19.0815 21.3843C19.0455 21.2872 18.9905 21.1982 18.9198 21.1226C18.7769 20.9719 18.5802 20.8837 18.3727 20.8773H9.00226C8.98404 20.8736 8.96528 20.8736 8.94706 20.8773C8.73915 20.8853 8.54275 20.9749 8.40041 21.1266C8.25806 21.2784 8.18123 21.4801 8.18655 21.6881Z" fill="white"/>
</svg>
